<svg width="630" height="456" viewBox="0 0 630 456" fill="none" xmlns="http://www.w3.org/2000/svg">
<g clip-path="url(#clip0_307_268)">
<mask id="path-1-inside-1_307_268" fill="white">
<path fill-rule="evenodd" clip-rule="evenodd" d="M630 25V431C616.193 431 605 442.193 605 456H25C25 442.193 13.8071 431 0 431V25C13.8071 25 25 13.8071 25 0H605C605 13.8071 616.193 25 630 25Z"/>
</mask>
<path d="M630 25H636V19H630V25ZM630 431V437H636V431H630ZM605 456V462H611V456H605ZM25 456H19V462H25V456ZM0 431H-6V437H0V431ZM0 25V19H-6V25H0ZM25 0V-6H19V0H25ZM605 0H611V-6H605V0ZM624 25V431H636V25H624ZM630 425C612.879 425 599 438.879 599 456H611C611 445.507 619.507 437 630 437V425ZM605 450H25V462H605V450ZM31 456C31 438.879 17.1208 425 0 425V437C10.4934 437 19 445.507 19 456H31ZM6 431V25H-6V431H6ZM0 31C17.1208 31 31 17.1208 31 0H19C19 10.4934 10.4934 19 0 19V31ZM25 6H605V-6H25V6ZM630 19C619.507 19 611 10.4934 611 0H599C599 17.1208 612.879 31 630 31V19Z" fill="#4301FF" mask="url(#path-1-inside-1_307_268)"/>
<path d="M21.5001 45.1613C34.0419 44.4394 44.1534 34.7257 44.9228 22.5001L586.517 22.5C587.287 34.7257 597.398 44.4395 609.94 45.1613V410.966C597.398 411.688 587.287 421.402 586.517 433.627H44.9228C44.1534 421.402 34.0419 411.688 21.5 410.966L21.5001 45.1613Z" stroke="#4301FF" stroke-width="3"/>
<g clip-path="url(#clip1_307_268)">
<path d="M130.083 307.052C130.873 310.996 131.926 314.852 133.225 318.603C132.119 318.761 131.013 318.866 129.872 318.919C129.451 318.919 129.03 318.936 128.608 318.936C126.485 318.936 124.413 318.726 122.395 318.305C119.112 317.622 116.023 316.412 113.232 314.782C104.28 309.506 98.2773 299.795 98.2773 288.682C98.2773 271.942 111.863 258.393 128.608 258.393C130.188 258.393 131.75 258.515 133.26 258.743C130.013 268.138 128.24 278.235 128.24 288.734C128.24 294.992 128.872 301.145 130.083 307.052Z" fill="white" stroke="#4301FF" stroke-width="6" stroke-miterlimit="10"/>
<path d="M482.63 381.548L373.539 58.2695H315.931L259.341 223.616C267.837 228.682 275.227 235.36 281.124 243.213C282.142 244.563 283.125 245.948 284.038 247.385L330.711 112.24L385.247 274.642H295.008C295.886 279.199 296.342 283.915 296.342 288.735C296.342 293.117 295.974 297.429 295.237 301.618H394.427L421.459 381.548H387.81V409.542H513.207V381.548H482.63V381.548ZM245.615 360.304C237.716 363.091 229.203 364.598 220.357 364.598C219.11 364.598 217.864 364.563 216.653 364.493C214.845 364.406 213.055 364.265 211.282 364.055L205.296 381.548H176.247V409.542H272.085V381.548H238.436L245.615 360.304Z" fill="#4301FF"/>
<path d="M129.872 318.919V544.511H113.232V314.782C116.023 316.43 119.112 317.622 122.394 318.305C124.395 318.726 126.467 318.936 128.608 318.936C129.012 318.936 129.451 318.919 129.872 318.919Z" fill="white" stroke="#4301FF" stroke-width="6" stroke-miterlimit="10"/>
<path d="M294.061 233.502C279.228 213.782 256.638 200.215 230.818 197.306C227.395 196.903 223.902 196.71 220.374 196.71C180.02 196.71 145.705 222.634 133.26 258.708C130.013 268.103 128.24 278.2 128.24 288.699C128.24 294.975 128.872 301.11 130.083 307.017C130.873 310.961 131.926 314.817 133.225 318.568C133.716 320.005 134.243 321.408 134.804 322.828C137.35 329.208 140.614 335.238 144.458 340.829V340.847C152.866 353.047 164.153 363.108 177.335 370.085C188.937 376.202 202.014 379.936 215.881 380.602C217.355 380.672 218.865 380.707 220.374 380.707C254.251 380.707 283.88 362.46 299.871 335.238C307.91 321.583 312.508 305.667 312.508 288.699C312.508 267.998 305.628 248.875 294.061 233.502ZM285.916 327.087C272.734 349.541 248.301 364.581 220.357 364.581C219.11 364.581 217.864 364.563 216.653 364.493C205.209 363.95 194.431 360.865 184.865 355.834C174 350.084 164.679 341.776 157.746 331.715C153.586 325.702 150.286 319.024 147.987 311.925C147.951 311.837 147.934 311.732 147.899 311.644C145.635 304.423 144.388 296.728 144.388 288.752C144.388 280.619 145.67 272.801 148.057 265.474C157.886 234.975 186.55 212.889 220.357 212.889C223.27 212.889 226.149 213.046 228.975 213.379C250.266 215.781 268.89 226.964 281.124 243.23C290.673 255.886 296.325 271.679 296.325 288.752C296.342 302.722 292.551 315.834 285.916 327.087Z" fill="white" stroke="#4301FF" stroke-width="6" stroke-miterlimit="10"/>
<path d="M296.342 288.735C296.342 293.117 295.974 297.429 295.237 301.618H265.45L245.615 360.304C237.716 363.091 229.203 364.598 220.357 364.598C219.11 364.598 217.864 364.563 216.653 364.493C214.845 364.405 213.055 364.265 211.282 364.055L259.341 223.616C267.837 228.682 275.226 235.36 281.124 243.213C282.142 244.563 283.125 245.948 284.038 247.385L274.63 274.642H295.008C295.886 279.199 296.342 283.914 296.342 288.735Z" stroke="#4301FF" stroke-width="3" stroke-miterlimit="10"/>
<ellipse cx="265.328" cy="302.297" rx="4.82255" ry="4.81982" fill="#4301FF"/>
<ellipse cx="274.973" cy="273.378" rx="4.82255" ry="4.81982" fill="#4301FF"/>
</g>
</g>
<defs>
<clipPath id="clip0_307_268">
<rect width="630" height="456" fill="white"/>
</clipPath>
<clipPath id="clip1_307_268">
<rect width="462" height="443" fill="white" transform="translate(84 16)"/>
</clipPath>
</defs>
</svg>
