<svg width="303" height="303" viewBox="0 0 303 303" fill="none" xmlns="http://www.w3.org/2000/svg">
<circle cx="151.075" cy="152" r="151" fill="#4301FF"/>
<circle cx="151.075" cy="152" r="128" stroke="white" stroke-width="6"/>
<line x1="78.0752" y1="46" x2="78.0752" y2="257" stroke="white" stroke-width="6"/>
<line x1="0.0751953" y1="153" x2="302.075" y2="153" stroke="white" stroke-width="6"/>
<line x1="148.075" y1="303" x2="148.076" y2="-4.83447e-06" stroke="white" stroke-width="6"/>
<line x1="256.107" y1="260.968" x2="41.7006" y2="46.5619" stroke="white" stroke-width="6"/>
<line x1="37.9968" y1="257.794" x2="254.933" y2="40.8578" stroke="white" stroke-width="6"/>
<circle cx="151.075" cy="152" r="125" fill="#4301FF"/>
<line x1="78.0752" y1="46" x2="78.0752" y2="255" stroke="white" stroke-width="6"/>
<line x1="225.075" y1="46" x2="225.075" y2="255" stroke="white" stroke-width="6"/>
<circle cx="151.075" cy="223" r="20" fill="white"/>
<path d="M129.043 171.742H125.133V149.2H124.113C123.671 149.982 123.127 150.526 122.481 150.832C121.835 151.104 120.577 151.24 118.707 151.24V152.464H122.583V171.742H118.707V173H129.043V171.742ZM140.132 173.34C142.75 173.34 144.756 172.694 146.116 171.402C147.51 170.076 148.19 168.512 148.19 166.71C148.19 163.718 146.32 161.304 142.546 160.522C145.64 159.672 147.204 157.496 147.204 155.048C147.204 153.416 146.558 152.022 145.266 150.9C144.008 149.778 142.274 149.2 140.098 149.2C137.956 149.2 136.222 149.778 134.964 150.9C133.706 152.022 133.06 153.416 133.06 155.048C133.06 157.496 134.59 159.57 137.82 160.522C133.876 161.338 132.074 163.684 132.074 166.71C132.074 168.546 132.754 170.11 134.08 171.402C135.44 172.694 137.446 173.34 140.132 173.34ZM144.552 155.048C144.552 157.87 142.75 159.944 140.132 159.944C137.514 159.944 135.746 157.904 135.746 155.082C135.746 152.464 137.378 150.458 140.098 150.458C142.784 150.458 144.552 152.43 144.552 155.048ZM140.132 172.082C136.766 172.082 134.726 169.94 134.76 166.676C134.76 163.242 136.902 161.202 140.132 161.202C143.362 161.202 145.504 163.208 145.538 166.71C145.572 169.94 143.43 172.082 140.132 172.082ZM154.892 171.096L161.794 163.65C164.582 160.624 165.976 157.768 165.976 155.048C165.976 151.342 163.562 149.2 159.312 149.2C157.102 149.2 155.334 149.71 154.042 150.73C152.784 151.75 152.138 152.872 152.138 154.13C152.138 155.252 152.784 155.898 153.838 155.898C154.79 155.898 155.402 155.218 155.402 154.3C155.402 153.45 154.96 152.906 154.076 152.668C154.722 151.308 156.524 150.56 158.564 150.56C161.726 150.56 163.29 152.022 163.29 155.524C163.29 157.156 162.848 158.788 161.93 160.454C161.012 162.12 159.244 164.398 156.558 167.288L152.376 171.81V173H166.826V166.064H165.33V168.07C165.33 169.294 165.16 170.11 164.786 170.518C164.446 170.892 163.562 171.096 162.134 171.096H154.892ZM178.188 171.98C175.774 171.98 173.802 171.028 173.122 169.532C173.768 169.362 174.482 168.75 174.482 167.832C174.482 166.914 173.904 166.302 172.918 166.302C171.796 166.302 171.252 166.948 171.252 168.274C171.252 169.634 171.898 170.824 173.224 171.844C174.55 172.83 176.216 173.34 178.256 173.34C180.806 173.34 182.744 172.694 184.07 171.436C185.396 170.144 186.042 168.58 186.042 166.71C186.042 163.752 184.002 161.406 180.092 160.624C183.356 159.57 184.954 157.36 184.954 154.674C184.954 151.41 182.642 149.2 178.392 149.2C176.284 149.2 174.584 149.71 173.292 150.696C172.034 151.682 171.388 152.838 171.388 154.13C171.388 155.252 172.034 155.898 173.088 155.898C174.074 155.898 174.652 155.286 174.652 154.3C174.652 153.382 174.176 152.838 173.258 152.6C174.04 151.24 175.536 150.56 177.678 150.56C180.67 150.56 182.268 152.328 182.268 155.15C182.268 157.972 180.772 160.148 177.542 160.148H175.298V161.406H177.542C179.208 161.406 180.568 161.814 181.69 162.664C182.812 163.514 183.356 164.84 183.356 166.71C183.356 170.212 181.486 171.98 178.188 171.98Z" fill="white"/>
<path d="M136.987 115.64C139.803 115.64 141.659 113.976 141.659 110.648C141.659 110.328 141.531 109.496 141.275 108.088C141.083 106.616 141.019 105.208 141.083 103.736C141.147 102.264 141.467 100.344 141.915 97.976C142.875 93.176 146.139 86.264 151.323 78.136L154.011 73.976V70.84H124.379V85.56H128.667V83.96C128.667 80.568 129.179 78.456 130.139 77.624C131.163 76.792 133.595 76.344 137.435 76.344H148.123L146.779 78.52C140.827 87.992 136.859 95.096 134.875 99.768C132.955 104.44 131.995 108.024 131.995 110.584C131.995 113.912 134.107 115.64 136.987 115.64ZM170.437 111.48V86.264H178.629V82.744H170.437V80.312C170.437 73.208 172.549 69.688 176.709 69.688C177.925 69.688 178.949 69.944 179.717 70.456C178.181 71.032 177.413 72.056 177.413 73.656C177.413 75.704 179.077 77.048 181.189 77.048C183.685 77.048 185.093 75.448 185.093 72.952C185.093 69.176 181.253 66.36 175.621 66.36C168.133 66.36 162.949 70.648 162.949 81.08V82.744H158.661V86.264H162.949V111.48H158.661V115H175.877V111.48H170.437Z" fill="white"/>
</svg>
