<svg width="303" height="303" viewBox="0 0 303 303" fill="none" xmlns="http://www.w3.org/2000/svg">
<circle cx="150.575" cy="151.5" r="150.5" fill="#4301FF"/>
<path d="M279.075 152C279.075 222.686 221.768 279.988 151.075 279.988C80.3825 279.988 23.0752 222.686 23.0752 152C23.0752 81.3139 80.3825 24.0112 151.075 24.0112C221.768 24.0112 279.075 81.3139 279.075 152Z" stroke="white" stroke-width="6"/>
<line x1="78.0752" y1="46.0093" x2="78.0752" y2="256.991" stroke="white" stroke-width="6"/>
<line x1="0.0751953" y1="153" x2="302.075" y2="153" stroke="white" stroke-width="6"/>
<line x1="150.075" y1="303" x2="150.075" stroke="white" stroke-width="6"/>
<line y1="-3" x2="303.203" y2="-3" transform="matrix(-0.707138 -0.707076 0.707138 -0.707076 258.229 258.838)" stroke="white" stroke-width="6"/>
<line y1="-3" x2="306.115" y2="-3" transform="matrix(0.707138 -0.707076 0.707138 0.707076 40.3423 260.14)" stroke="white" stroke-width="6"/>
<ellipse cx="151.075" cy="152" rx="125" ry="124.989" fill="#4301FF"/>
<line x1="78.0752" y1="46.0093" x2="78.0752" y2="255.991" stroke="white" stroke-width="6"/>
<line x1="225.075" y1="46.0093" x2="225.075" y2="254.991" stroke="white" stroke-width="6"/>
<ellipse cx="151.075" cy="222.994" rx="20" ry="19.9983" fill="white"/>
<path d="M126.251 106.88L138.987 92.8C143.979 87.232 146.475 82.368 146.475 78.144C146.475 71.232 141.739 67.2 133.227 67.2C128.683 67.2 125.099 68.16 122.475 70.144C119.915 72.128 118.635 74.304 118.635 76.672C118.635 79.296 120.363 80.896 122.923 80.896C125.483 80.896 127.019 79.232 127.019 76.928C127.019 75.072 126.123 73.856 124.395 73.152C125.611 71.68 127.787 70.976 130.795 70.976C135.979 70.976 138.475 73.6 138.475 79.808C138.475 85.504 135.787 90.752 129.323 97.984L119.147 109.248V112H148.011V97.92H143.723V100.096C143.723 102.848 143.275 104.704 142.443 105.6C141.611 106.432 139.563 106.88 136.299 106.88H126.251ZM182.106 112.64C187.034 112.64 189.338 109.568 189.338 102.976H186.586C186.586 106.432 185.818 108.16 184.282 108.16C182.81 108.16 182.106 107.072 182.106 104.832V90.944C182.106 83.008 177.946 79.04 169.562 79.04C165.786 79.04 162.65 79.808 160.154 81.344C157.722 82.88 156.506 84.8 156.506 87.104C156.506 89.216 158.042 90.688 160.346 90.688C162.65 90.688 164.122 89.28 164.122 87.168C164.122 85.696 163.354 84.672 161.818 84.096C163.034 82.88 164.89 82.304 167.386 82.304C172.186 82.304 174.618 84.864 174.618 89.984V93.376H172.058C160.858 93.376 155.226 96.896 155.226 103.872C155.226 109.312 158.938 112.64 165.082 112.64C169.818 112.64 173.21 110.592 175.194 106.496C175.706 110.592 178.01 112.64 182.106 112.64ZM168.09 108.096C164.826 108.096 162.97 106.048 162.97 102.656C162.97 98.496 166.234 96.128 172.186 96.128H174.618V101.568C174.618 103.168 173.978 104.704 172.698 106.048C171.418 107.392 169.882 108.096 168.09 108.096Z" fill="white"/>
<path d="M130.043 170.742H126.133V148.2H125.113C124.671 148.982 124.127 149.526 123.481 149.832C122.835 150.104 121.577 150.24 119.707 150.24V151.464H123.583V170.742H119.707V172H130.043V170.742ZM141.132 172.34C143.75 172.34 145.756 171.694 147.116 170.402C148.51 169.076 149.19 167.512 149.19 165.71C149.19 162.718 147.32 160.304 143.546 159.522C146.64 158.672 148.204 156.496 148.204 154.048C148.204 152.416 147.558 151.022 146.266 149.9C145.008 148.778 143.274 148.2 141.098 148.2C138.956 148.2 137.222 148.778 135.964 149.9C134.706 151.022 134.06 152.416 134.06 154.048C134.06 156.496 135.59 158.57 138.82 159.522C134.876 160.338 133.074 162.684 133.074 165.71C133.074 167.546 133.754 169.11 135.08 170.402C136.44 171.694 138.446 172.34 141.132 172.34ZM145.552 154.048C145.552 156.87 143.75 158.944 141.132 158.944C138.514 158.944 136.746 156.904 136.746 154.082C136.746 151.464 138.378 149.458 141.098 149.458C143.784 149.458 145.552 151.43 145.552 154.048ZM141.132 171.082C137.766 171.082 135.726 168.94 135.76 165.676C135.76 162.242 137.902 160.202 141.132 160.202C144.362 160.202 146.504 162.208 146.538 165.71C146.572 168.94 144.43 171.082 141.132 171.082ZM160.346 170.98C157.932 170.98 155.96 170.028 155.28 168.532C155.926 168.362 156.64 167.75 156.64 166.832C156.64 165.914 156.062 165.302 155.076 165.302C153.954 165.302 153.41 165.948 153.41 167.274C153.41 168.634 154.056 169.824 155.382 170.844C156.708 171.83 158.374 172.34 160.414 172.34C162.964 172.34 164.902 171.694 166.228 170.436C167.554 169.144 168.2 167.58 168.2 165.71C168.2 162.752 166.16 160.406 162.25 159.624C165.514 158.57 167.112 156.36 167.112 153.674C167.112 150.41 164.8 148.2 160.55 148.2C158.442 148.2 156.742 148.71 155.45 149.696C154.192 150.682 153.546 151.838 153.546 153.13C153.546 154.252 154.192 154.898 155.246 154.898C156.232 154.898 156.81 154.286 156.81 153.3C156.81 152.382 156.334 151.838 155.416 151.6C156.198 150.24 157.694 149.56 159.836 149.56C162.828 149.56 164.426 151.328 164.426 154.15C164.426 156.972 162.93 159.148 159.7 159.148H157.456V160.406H159.7C161.366 160.406 162.726 160.814 163.848 161.664C164.97 162.514 165.514 163.84 165.514 165.71C165.514 169.212 163.644 170.98 160.346 170.98ZM188.229 170.742H185.339V164.894H188.229V163.636H185.339V148.472H183.435L171.331 164.01V164.894H182.789V170.742H179.559V172H188.229V170.742ZM173.303 163.636L182.789 151.464V163.636H173.303Z" fill="white"/>
<line x1="113.075" y1="130.5" x2="196.075" y2="130.5" stroke="white" stroke-width="3"/>
</svg>
