<svg width="1280" height="815" viewBox="0 0 1280 815" fill="none" xmlns="http://www.w3.org/2000/svg">
<path d="M0 0H1279V815H0V0Z" fill="#4301FF"/>
<rect x="1.5" y="1.5" width="157" height="160" fill="#4301FF"/>
<path d="M62.2 102V48.1L99.6 107H104.7V42H112.7V37.5H90.2V42H98.2V90.4L64.8 37.5H47.7V42H55.7V102H47.7V106.5H70.2V102H62.2Z" fill="white"/>
<rect x="1.5" y="1.5" width="157" height="160" stroke="white" stroke-width="3"/>
<rect x="1.5" y="164.5" width="157" height="160" fill="#4301FF"/>
<path d="M100.4 269.5L102.7 251H100L98.9 260.2C98.2 265.4 96.5 267.2 91.2 267.2H65.3L69.3 235.4L92.8 235.7L93.2 232.8L69.5 233.2L73.2 202.8H97.5C103.2 202.8 105.1 204.2 104.4 209.5L103.2 218.6H105.9L108.1 200.5H60.2L59.9 202.8H69.2L61.3 267.2H52L51.7 269.5H100.4Z" fill="white"/>
<rect x="1.5" y="164.5" width="157" height="160" stroke="white" stroke-width="3"/>
<rect x="1.5" y="327.5" width="157" height="160" fill="#4301FF"/>
<path d="M64.2 423.7H55.5L63 362.5H59.4C55.8 367 46.8 369.2 32.4 369.2L31.2 378H39.9L34.3 423.7H25.6L24.6 432.5H63.1L64.2 423.7ZM106.657 362.5C100.657 362.5 94.957 364.3 89.657 368C84.357 371.6 80.157 376.2 77.057 381.7C73.957 387.2 72.057 393 71.457 398.9C70.257 410.1 74.057 421.2 82.757 428.3C87.057 431.8 92.157 433.5 97.957 433.5C104.057 433.5 109.657 431.6 114.957 427.9C120.257 424.2 124.457 419.5 127.557 414C130.657 408.5 132.557 402.8 133.157 397C135.157 380.5 124.057 362.2 106.657 362.5ZM111.457 395.6C110.657 404.5 109.757 410 107.857 415.9C106.157 421.6 103.157 424.6 99.057 424.6C91.757 424.6 91.957 414.6 93.157 400C94.757 381.7 98.057 371.4 105.557 371.4C112.057 371.4 113.357 380.8 111.457 395.6Z" fill="white"/>
<rect x="1.5" y="327.5" width="157" height="160" stroke="white" stroke-width="3"/>
<rect x="1.5" y="490.5" width="157" height="160" fill="#4301FF"/>
<path d="M66.5 593.2H54.2L62.5 525.5H60.5C59.6 527.3 58.1 528.6 56.2 529.3C54.3 530 50.8 530.3 45.6 530.3L45.3 532.5H57.6L50.1 593.2H37.9L37.6 595.5H66.2L66.5 593.2ZM102.654 559C112.754 556.5 118.754 549.6 118.754 540.5C118.754 531.3 112.854 525.5 101.654 525.5C95.2539 525.5 90.2539 527.2 86.5539 530.6C82.9539 534 81.1539 537.4 81.1539 540.7C81.1539 542.8 82.0539 543.9 83.9539 543.9C85.9539 543.9 87.4539 542.4 87.4539 540.4C87.4539 538.7 86.4539 537.7 84.3539 537.3C86.8539 531.2 93.9539 527.9 100.454 527.9C109.554 527.9 114.554 532.8 114.554 540.7C114.554 545.4 112.954 549.5 109.754 553C106.554 556.4 102.154 558.1 96.6539 558.1H90.2539L89.9539 560.4H96.3539C106.654 560.4 113.254 565.7 113.254 574.9C113.254 580.5 111.554 585.1 108.154 588.8C104.754 592.4 100.054 594.2 93.9539 594.2C86.2539 594.2 79.2539 590.6 77.9539 584.2C80.4539 583.9 81.7539 582.5 81.7539 580.2C81.7539 578.5 80.8539 577.6 79.0539 577.6C76.7539 577.6 75.1539 579.6 75.1539 582.5C75.1539 586.4 76.8539 589.8 80.2539 592.5C83.7539 595.2 88.2539 596.5 93.7539 596.5C101.454 596.5 107.254 594.4 111.354 590.3C115.454 586.2 117.554 581.1 117.554 575.1C117.554 566.6 112.554 561.2 102.654 559Z" fill="white"/>
<rect x="1.5" y="490.5" width="157" height="160" stroke="white" stroke-width="3"/>
<rect x="161.5" y="1.5" width="157" height="160" fill="#4301FF"/>
<path d="M233.6 99.4H226.5V86.4H233.6V79.9H226.5V37H213.8L179.7 81.6V86.4H211.3V99.4H203.7V106H233.6V99.4ZM189.3 79.9L211.3 51.1V79.9H189.3ZM269.956 107C278.756 107 285.556 105.1 290.256 101.3C295.056 97.5 297.456 92.9 297.456 87.4C297.456 78.4 291.556 72.4 279.856 69.3C289.956 66.4 294.956 61 294.956 53.2C294.956 48.3 292.656 44.2 288.056 40.9C283.456 37.6 277.456 36 269.956 36C262.556 36 256.556 37.6 251.956 40.9C247.356 44.2 245.056 48.3 245.056 53.2C245.056 60.9 250.256 66.3 260.556 69.3C247.456 72.6 242.556 78.5 242.556 87.4C242.556 92.9 244.956 97.5 249.656 101.3C254.456 105.1 261.256 107 269.956 107ZM269.956 66.5C264.456 66.5 260.556 61.3 260.556 53.7C260.556 47.2 264.456 42.1 269.956 42.1C275.256 42.1 279.356 47.1 279.356 53.6C279.356 61.2 275.256 66.5 269.956 66.5ZM269.956 100.9C263.256 100.9 258.156 95.5 258.256 87.1C258.356 77.6 263.056 72.5 269.956 72.5C277.056 72.5 281.656 77.7 281.756 87.2C281.856 95.5 276.756 100.9 269.956 100.9Z" fill="white"/>
<rect x="161.5" y="1.5" width="157" height="160" stroke="white" stroke-width="3"/>
<rect x="161.5" y="164.5" width="157" height="160" fill="#4301FF"/>
<path d="M226.3 263.5H215.9V199H212.3C210.6 201.5 208.5 203.2 205.9 204.2C203.4 205.2 199.1 205.7 193.2 205.7V211.2H203.7V263.5H193.2V269H226.3V263.5ZM286.077 234.4C286.077 226.7 283.577 218.2 279.177 211.1C274.777 204 267.377 199 258.877 199C253.377 199 248.377 200.9 244.077 204.8C239.777 208.7 236.677 213.2 234.677 218.5C232.777 223.8 231.777 229.1 231.777 234.4C231.777 244.9 235.577 256.2 244.077 264.1C248.377 268 253.277 270 258.877 270C276.577 270 286.077 249.5 286.077 234.4ZM244.477 234.4C244.477 214.7 249.277 204.9 258.877 204.9C268.577 204.9 273.377 214.7 273.377 234.4C273.377 254.2 268.577 264.1 258.877 264.1C249.277 264.1 244.477 254.2 244.477 234.4Z" fill="white"/>
<rect x="161.5" y="164.5" width="157" height="160" stroke="white" stroke-width="3"/>
<rect x="161.5" y="327.5" width="157" height="160" fill="#4301FF"/>
<path d="M261.1 357L206.5 443H220.5L275.1 357H261.1Z" fill="white"/>
<rect x="161.5" y="327.5" width="157" height="160" stroke="white" stroke-width="3"/>
<rect x="161.5" y="490.5" width="157" height="160" fill="#4301FF"/>
<path d="M246.4 559.5C246.4 556.4 244.3 553.1 240 553.1C235.7 553.1 233.6 556.4 233.6 559.5C233.6 562.3 235.7 565.7 240 565.7C244.3 565.7 246.4 562.3 246.4 559.5ZM246.4 590.3C246.4 587.2 244.3 583.9 240 583.9C235.7 583.9 233.6 587.2 233.6 590.3C233.6 593.1 235.7 596.5 240 596.5C244.3 596.5 246.4 593.1 246.4 590.3Z" fill="white"/>
<rect x="161.5" y="490.5" width="157" height="160" stroke="white" stroke-width="3"/>
<rect x="161.5" y="653.5" width="157" height="160" fill="#4301FF"/>
<path d="M236.7 754H228.7V735.8L239.1 723.2L257.6 754H251.1V758.5H273.2V754H268.2L245.3 715.7L263.2 694H269.8V689.5H249.4V694H256.4L228.7 727.8V694H236.7V689.5H211.2V694H219.2V754H211.2V758.5H236.7V754Z" fill="white"/>
<rect x="161.5" y="653.5" width="157" height="160" stroke="white" stroke-width="3"/>
<rect x="1.5" y="653.5" width="157" height="160" fill="#4301FF"/>
<path d="M83.841 724.9C87.641 715.7 72.241 715.8 76.141 724.9L79.041 732.4H80.941L83.841 724.9ZM73.541 726.3C70.041 722.2 66.941 724 65.641 726.2C64.741 727.2 64.641 728.5 65.241 730.1C65.841 731.7 67.341 732.7 69.641 733L77.641 734.3L78.641 732.6L73.541 726.3ZM90.341 733C95.741 732.1 95.541 728.3 94.341 726.1C93.041 724 89.641 722.2 86.441 726.3L81.341 732.6L82.341 734.3L90.341 733ZM77.541 734.6L69.541 735.9C65.041 736.8 64.041 740.5 65.741 742.6C67.041 745.1 69.841 746.2 73.341 742.9L78.641 736.4L77.541 734.6ZM82.341 734.7L81.241 736.5L86.541 742.8C89.741 746.7 92.741 744.9 94.241 742.7C95.141 740.7 95.641 736.9 90.541 736L82.341 734.7ZM80.941 736.6H78.941L76.041 744.3C74.441 748.6 76.841 750.8 79.941 750.8C82.841 750.9 85.541 748.5 83.941 744.4L80.941 736.6Z" fill="white"/>
<rect x="1.5" y="653.5" width="157" height="160" stroke="white" stroke-width="3"/>
<rect x="1121.5" y="164.5" width="157" height="160" fill="#4301FF"/>
<path d="M1218.78 283C1228.38 283 1233.18 277.2 1234.48 266.3H1229.98C1229.08 273.5 1225.68 278.5 1221.28 278.5C1218.18 278.5 1215.78 277.4 1211.68 272.6C1217.38 266.5 1222.08 258.6 1225.78 248.9H1233.08L1233.58 244.4H1213.58L1213.08 248.9H1220.48C1217.58 257.3 1213.78 264.1 1208.88 269.3L1201.08 258.7L1192.78 246.6C1199.68 243 1204.68 239.7 1207.78 236.7C1210.88 233.7 1212.48 230 1212.48 225.5C1212.48 221.6 1210.78 218.4 1207.28 215.9C1203.88 213.3 1199.48 212 1193.98 212C1188.18 212 1183.48 213.6 1179.78 216.9C1176.08 220.2 1174.28 224 1174.28 228.5C1174.28 233.7 1176.88 239.9 1182.18 247.2C1176.08 250.7 1171.68 253.9 1168.78 256.8C1165.98 259.7 1164.58 263.4 1164.58 267.8C1164.58 277 1172.38 283 1186.28 283C1193.38 283 1199.68 281.2 1205.18 277.7C1209.28 281.2 1213.78 283 1218.78 283ZM1184.08 227C1184.08 221.3 1187.38 216.5 1193.48 216.5C1198.78 216.5 1202.48 219.9 1202.48 225.8C1202.48 233.1 1198.48 238.9 1190.58 243.3C1188.08 239.5 1186.38 236.5 1185.48 234.2C1184.58 231.9 1184.08 229.5 1184.08 227ZM1188.98 278.4C1180.28 278.4 1174.58 274.9 1174.58 267C1174.58 260.8 1177.88 255.4 1184.58 250.9C1186.68 254.4 1189.28 258.4 1192.48 262.7C1195.98 267.7 1199.18 271.7 1202.08 274.7C1198.08 277.2 1193.68 278.4 1188.98 278.4Z" fill="white"/>
<rect x="1121.5" y="164.5" width="157" height="160" stroke="white" stroke-width="3"/>
<rect x="321.5" y="1.5" width="157" height="160" fill="#4301FF"/>
<path d="M406.3 101.3C406.3 98.2 404.2 94.9 399.9 94.9C395.6 94.9 393.5 98.2 393.5 101.3C393.5 104.1 395.6 107.5 399.9 107.5C404.2 107.5 406.3 104.1 406.3 101.3Z" fill="white"/>
<rect x="321.5" y="1.5" width="157" height="160" stroke="white" stroke-width="3"/>
<rect x="321.5" y="164.5" width="157" height="160" fill="#4301FF"/>
<path d="M406.7 263.3C406.7 259.8 404.1 256.3 399.6 256.3C395.1 256.3 392.6 259.8 392.6 263.3C392.6 266.6 395.1 270 399.6 270C404.1 270 406.7 266.6 406.7 263.3Z" fill="white"/>
<rect x="321.5" y="164.5" width="157" height="160" stroke="white" stroke-width="3"/>
<rect x="321.5" y="327.5" width="157" height="160" fill="#4301FF"/>
<path d="M384.6 423H376.6L384 363H380.4C378.7 365.2 375 366.9 369.3 368C363.7 369.1 357.5 369.7 350.7 369.7L349.4 379.7H357.4L352.1 423H344.1L342.9 433H383.4L384.6 423ZM427.813 363C418.813 363 410.713 366.6 403.613 373.8C396.513 381 392.513 389.2 391.413 398.4C389.913 410.1 394.113 421.6 403.213 428.7C407.813 432.2 413.113 434 419.113 434C428.113 434 436.113 430.4 443.213 423.1C450.313 415.8 454.513 407.5 455.613 398.4C458.313 381.2 445.913 362.7 427.813 363ZM429.813 403.9C429.713 405.1 429.413 406.7 429.113 408.7C428.613 412.6 428.213 413.9 427.413 416.7C426.613 419.5 425.813 420.5 424.613 422C423.413 423.5 422.013 424 420.313 424C416.813 424.5 415.513 420.7 415.113 416.8C415.013 415.6 415.013 413.8 415.113 411.5C415.213 409.2 415.413 407.2 415.513 405.5L416.413 398.4C417.513 389.3 418.613 382.8 419.913 378.9C421.213 375 423.513 373 426.613 373C429.713 373 431.513 375.4 431.813 380.1C432.213 384.8 431.813 390.9 430.613 398.4L429.813 403.9Z" fill="white"/>
<rect x="321.5" y="327.5" width="157" height="160" stroke="white" stroke-width="3"/>
<rect x="321.5" y="490.5" width="157" height="160" fill="#4301FF"/>
<path d="M389.9 593.2H380.6L383.1 573.7H392.3L392.6 571.5H383.3L388.9 525.9H385.8L344.7 572L344.5 573.7H379L376.6 593.2H366.3L366 595.5H389.6L389.9 593.2ZM348.1 571.5L384.3 530.9L379.3 571.5H348.1ZM432.788 525.5C426.988 525.5 421.788 527.6 417.288 531.9C412.788 536.2 409.388 541.5 407.088 547.8C404.888 554.1 403.787 560.6 403.787 567.4C403.787 575.6 405.488 582.5 408.988 588.1C412.488 593.7 417.488 596.5 424.088 596.5C429.988 596.5 435.288 594.3 439.788 589.9C444.288 585.5 447.687 580.2 449.788 573.9C451.988 567.6 453.088 561.2 453.088 554.6C453.088 546.4 451.388 539.5 447.888 533.9C444.388 528.3 439.388 525.5 432.788 525.5ZM448.888 552.4C448.888 566.1 445.188 579.3 437.488 587.8C433.688 592 429.288 594.1 424.388 594.1C413.888 594.1 408.088 584.7 408.088 569.2C408.088 558.1 410.387 548.5 414.988 540.3C419.588 532 425.388 527.9 432.488 527.9C442.988 527.9 448.888 537.3 448.888 552.4Z" fill="white"/>
<rect x="321.5" y="490.5" width="157" height="160" stroke="white" stroke-width="3"/>
<rect x="321.5" y="653.5" width="157" height="160" fill="#4301FF"/>
<path d="M386.2 732.5L398 699.4L409.5 732.5H386.2ZM385.9 754H378.5L384.6 736.9H411L416.9 754H409.9V758.5H432.5V754H426.2L403.6 689.5H395.9L372.8 754H367V758.5H385.9V754Z" fill="white"/>
<rect x="321.5" y="653.5" width="157" height="160" stroke="white" stroke-width="3"/>
<rect x="481.5" y="1.5" width="157" height="160" fill="#4301FF"/>
<path d="M548.8 102H537.8V36.5H534.2C532.9 38.4 531.9 39.7 531.1 40.4C530.3 41.1 528.8 41.8 526.6 42.4C524.4 42.9 521.3 43.2 517.3 43.2V47.7H528.3V102H517.3V106.5H548.8V102ZM601.914 102H593.914V86H601.914V81.5H593.914V37.5H586.914L551.414 83V86H584.414V102H575.414V106.5H601.914V102ZM558.614 81.5L584.414 48.4V81.5H558.614Z" fill="white"/>
<rect x="481.5" y="1.5" width="157" height="160" stroke="white" stroke-width="3"/>
<rect x="481.5" y="164.5" width="157" height="160" fill="#4301FF"/>
<path d="M549.3 263.5H538.9V199H535.3C533.6 201.5 531.5 203.2 528.9 204.2C526.4 205.2 522.1 205.7 516.2 205.7V211.2H526.7V263.5H516.2V269H549.3V263.5ZM578.832 270C587.232 270 593.432 268.1 597.532 264.3C601.632 260.4 603.732 255.7 603.732 250.2C603.732 241.7 597.732 234.7 585.432 232.6C595.932 229.4 600.432 222.7 600.432 215.1C600.432 205.5 592.732 199 579.432 199C572.632 199 567.132 200.5 563.032 203.4C558.932 206.3 556.832 209.7 556.832 213.5C556.832 217.6 559.532 220.1 563.532 220.1C567.532 220.1 569.932 217.7 569.932 214C569.932 211.3 568.632 209.3 565.932 208.2C568.332 206 571.632 204.9 575.832 204.9C583.732 204.9 587.732 209.4 587.732 217.1C587.732 224.8 584.032 230.6 575.532 230.6H569.032V236H575.832C585.932 236 590.932 240.7 591.032 250C591.032 259.4 586.532 264.1 577.632 264.1C571.632 264.1 567.532 262.7 565.232 259.9C568.132 258.4 569.632 256.3 569.632 253.6C569.632 250 567.132 247.7 563.432 247.7C559.432 247.7 556.632 250.4 556.632 255.2C556.632 259.2 558.632 262.7 562.732 265.6C566.832 268.5 572.232 270 578.832 270Z" fill="white"/>
<rect x="481.5" y="164.5" width="157" height="160" stroke="white" stroke-width="3"/>
<rect x="481.5" y="327.5" width="157" height="160" fill="#4301FF"/>
<path d="M581.1 357L526.5 443H540.5L595.1 357H581.1Z" fill="white"/>
<rect x="481.5" y="327.5" width="157" height="160" stroke="white" stroke-width="3"/>
<rect x="481.5" y="490.5" width="157" height="160" fill="#4301FF"/>
<path d="M566.4 559.5C566.4 556.4 564.3 553.1 560 553.1C555.7 553.1 553.6 556.4 553.6 559.5C553.6 562.3 555.7 565.7 560 565.7C564.3 565.7 566.4 562.3 566.4 559.5ZM566.4 590.3C566.4 587.2 564.3 583.9 560 583.9C555.7 583.9 553.6 587.2 553.6 590.3C553.6 593.1 555.7 596.5 560 596.5C564.3 596.5 566.4 593.1 566.4 590.3Z" fill="white"/>
<rect x="481.5" y="490.5" width="157" height="160" stroke="white" stroke-width="3"/>
<rect x="481.5" y="653.5" width="157" height="160" fill="#4301FF"/>
<path d="M585.3 734.5H576.3L575.9 737.7C575.2 743 574.2 746.6 572.8 748.3C571.4 750 568.4 750.8 563.7 750.8H550.5L589.3 695.8L590.1 689.5H540L537 713.1H546L546.5 709.3C547.1 704.3 548.3 701 550.2 699.5C552.1 698 555.4 697.2 560.2 697.2H570.4L531.6 752.2L530.8 758.5H582.3L585.3 734.5Z" fill="white"/>
<rect x="481.5" y="653.5" width="157" height="160" stroke="white" stroke-width="3"/>
<rect x="641.5" y="1.5" width="157" height="160" fill="#4301FF"/>
<path d="M687.1 102.5C680.8 102.5 676.3 100.7 673.7 97.1C676.6 96 678 94 678 91.1C678 87.9 676.1 85.7 672.5 85.7C668.8 85.7 666.6 88.2 666.6 92.7C666.6 96.7 668.5 100.2 672.4 103.1C676.3 106 681.3 107.5 687.4 107.5C695.1 107.5 701 105.6 705.1 101.7C709.2 97.8 711.2 93.2 711.2 87.7C711.2 79.3 705 72.2 693.4 70.1C703.5 66.8 707.9 60.1 707.9 52.6C707.9 43.3 701 36.5 688.1 36.5C681.7 36.5 676.5 38 672.6 40.9C668.7 43.8 666.8 47.1 666.8 50.8C666.8 54.7 669.1 56.9 672.7 56.9C676.2 56.9 678.3 54.8 678.3 51.3C678.3 48.4 676.8 46.5 673.9 45.4C676.6 42.8 680.4 41.5 685.3 41.5C693.6 41.5 697.9 46.4 697.9 54.4C697.9 62.4 694.2 68.5 685.1 68.5H678.3V73H685.1C695.8 73 701.1 77.9 701.2 87.7C701.2 97.6 696.5 102.5 687.1 102.5ZM721.19 71.9C721.19 79.4 723.49 87.8 727.49 95.1C731.59 102.3 738.89 107.5 747.29 107.5C755.69 107.5 762.89 102.4 766.99 95.2C771.09 87.9 773.39 79.5 773.39 71.9C773.39 64.3 771.09 55.9 766.99 48.8C762.89 41.6 755.69 36.5 747.29 36.5C738.89 36.5 731.69 41.6 727.59 48.8C723.49 55.9 721.19 64.3 721.19 71.9ZM731.19 71.9C731.19 51.6 736.59 41.5 747.29 41.5C757.99 41.5 763.39 51.6 763.39 71.9C763.39 92.3 757.99 102.5 747.29 102.5C736.59 102.5 731.19 92.3 731.19 71.9Z" fill="white"/>
<rect x="641.5" y="1.5" width="157" height="160" stroke="white" stroke-width="3"/>
<rect x="641.5" y="164.5" width="157" height="160" fill="#4301FF"/>
<path d="M669.8 234.9C669.8 247 673.2 258.1 680.7 265.2C684.5 268.7 688.9 270.5 694 270.5C699.1 270.5 703.5 268.8 707.2 265.3C711 261.8 713.8 257.4 715.5 252.1C717.3 246.8 718.2 241 718.2 234.9C718.2 222.6 714.7 211.6 707.2 204.7C703.5 201.2 699.1 199.5 694 199.5C683.9 199.5 676 207.2 672.4 217.7C670.7 223 669.8 228.7 669.8 234.9ZM674 234.9C674 213.6 682.1 201.9 694 201.9C699.9 201.9 704.7 204.8 708.4 210.5C712.1 216.2 714 224.3 714 234.9C714 245.5 712.1 253.7 708.4 259.5C704.7 265.2 699.9 268.1 694 268.1C688.1 268.1 683.3 265.2 679.6 259.4C675.9 253.6 674 245.4 674 234.9ZM748.961 268.1C741.361 268.1 734.061 264.9 731.961 258.5C733.661 258.4 735.161 256.7 735.161 255.1C735.161 253.4 734.061 252 732.161 252C729.861 252 728.761 253.2 728.761 255.6C728.761 259.7 730.661 263.2 734.561 266.1C738.461 269 743.461 270.5 749.361 270.5C756.461 270.5 761.861 268.3 765.561 264C769.261 259.7 771.161 254.2 771.161 247.7C771.161 241.6 769.261 236.5 765.461 232.4C761.761 228.3 756.661 226.3 750.161 226.3C743.261 226.3 737.361 229.1 734.461 233.2L737.861 204H767.761V200.5H735.561L731.461 236.6H733.961C736.961 231.4 742.061 228.8 749.361 228.8C759.861 228.8 766.961 236.2 766.961 247.8C766.961 260.2 760.461 268.1 748.961 268.1Z" fill="white"/>
<rect x="641.5" y="164.5" width="157" height="160" stroke="white" stroke-width="3"/>
<rect x="641.5" y="327.5" width="157" height="160" fill="#4301FF"/>
<path d="M711.4 408H699.4L699 410.8C698.5 414.9 697.4 417.6 695.5 418.8C693.6 419.9 690.1 420.5 685 420.5H675.4L691 408.4C699.3 401.9 705 396.5 708 392C711.1 387.5 712.6 383.3 712.6 379.4C712.6 368.9 704.7 363 689.4 363C680.1 363 672.8 364.6 667.4 367.8C662.1 370.9 659.4 375.1 659.4 380.3C659.4 385.8 662.8 388.9 668.8 388.9C675.6 388.9 680.1 385 680.1 379.4C680.1 376.7 679.1 374.6 677.1 373.3C678.4 373.1 679.5 373 680.4 373C685.4 373 687.9 376.1 687.9 382.2C687.9 392.6 681.3 403.3 668.1 414.4L655.2 425.2L654.2 433H708.3L711.4 408ZM756.109 363C747.109 363 739.009 366.6 731.909 373.8C724.809 381 720.809 389.2 719.709 398.4C718.209 410.1 722.409 421.6 731.509 428.7C736.109 432.2 741.409 434 747.409 434C756.409 434 764.409 430.4 771.509 423.1C778.609 415.8 782.809 407.5 783.909 398.4C786.609 381.2 774.209 362.7 756.109 363ZM758.109 403.9C758.009 405.1 757.709 406.7 757.409 408.7C756.909 412.6 756.509 413.9 755.709 416.7C754.909 419.5 754.109 420.5 752.909 422C751.709 423.5 750.309 424 748.609 424C745.109 424.5 743.809 420.7 743.409 416.8C743.309 415.6 743.309 413.8 743.409 411.5C743.509 409.2 743.709 407.2 743.809 405.5L744.709 398.4C745.809 389.3 746.909 382.8 748.209 378.9C749.509 375 751.809 373 754.909 373C758.009 373 759.809 375.4 760.109 380.1C760.509 384.8 760.109 390.9 758.909 398.4L758.109 403.9Z" fill="white"/>
<rect x="641.5" y="327.5" width="157" height="160" stroke="white" stroke-width="3"/>
<rect x="641.5" y="490.5" width="157" height="160" fill="#4301FF"/>
<path d="M662.6 560.9C662.6 568.4 664.9 576.8 668.9 584.1C673 591.3 680.3 596.5 688.7 596.5C697.1 596.5 704.3 591.4 708.4 584.2C712.5 576.9 714.8 568.5 714.8 560.9C714.8 553.3 712.5 544.9 708.4 537.8C704.3 530.6 697.1 525.5 688.7 525.5C680.3 525.5 673.1 530.6 669 537.8C664.9 544.9 662.6 553.3 662.6 560.9ZM672.6 560.9C672.6 540.6 678 530.5 688.7 530.5C699.4 530.5 704.8 540.6 704.8 560.9C704.8 581.3 699.4 591.5 688.7 591.5C678 591.5 672.6 581.3 672.6 560.9ZM725.002 560.9C725.002 568.4 727.302 576.8 731.302 584.1C735.402 591.3 742.702 596.5 751.102 596.5C759.502 596.5 766.702 591.4 770.802 584.2C774.902 576.9 777.202 568.5 777.202 560.9C777.202 553.3 774.902 544.9 770.802 537.8C766.702 530.6 759.502 525.5 751.102 525.5C742.702 525.5 735.502 530.6 731.402 537.8C727.302 544.9 725.002 553.3 725.002 560.9ZM735.002 560.9C735.002 540.6 740.402 530.5 751.102 530.5C761.802 530.5 767.202 540.6 767.202 560.9C767.202 581.3 761.802 591.5 751.102 591.5C740.402 591.5 735.002 581.3 735.002 560.9Z" fill="white"/>
<rect x="641.5" y="490.5" width="157" height="160" stroke="white" stroke-width="3"/>
<rect x="641.5" y="653.5" width="157" height="160" fill="#4301FF"/>
<path d="M732.7 754H724.7V694H732.7V689.5H707.2V694H715.2V754H707.2V758.5H732.7V754Z" fill="white"/>
<rect x="641.5" y="653.5" width="157" height="160" stroke="white" stroke-width="3"/>
<rect x="801.5" y="1.5" width="157" height="160" fill="#4301FF"/>
<path d="M846.1 102.5C840.2 102.5 835.9 101.1 833.3 98.4C835.9 97.3 837.2 95.4 837.2 92.5C837.2 89.3 835.2 86.9 831.7 86.9C827.8 86.9 825.7 89.6 825.7 93.2C825.7 97.3 827.7 100.7 831.7 103.4C835.7 106.1 840.9 107.5 847.2 107.5C854.9 107.5 860.8 105.2 864.8 100.5C868.9 95.8 870.9 90.3 870.9 84.1C870.9 78.2 868.9 73.1 865 68.9C861.1 64.6 855.6 62.5 848.3 62.5C842.4 62.5 837.9 64 835 67.1L836.7 45.5H866.9V37.5H831.9L829 73H834.4C836.7 69.7 841.2 67.5 846.1 67.5C855.2 67.5 860.9 73.2 860.9 84.3C860.9 96.4 856 102.5 846.1 102.5ZM880.311 71.9C880.311 79.4 882.611 87.8 886.611 95.1C890.711 102.3 898.011 107.5 906.411 107.5C914.811 107.5 922.011 102.4 926.111 95.2C930.211 87.9 932.511 79.5 932.511 71.9C932.511 64.3 930.211 55.9 926.111 48.8C922.011 41.6 914.811 36.5 906.411 36.5C898.011 36.5 890.811 41.6 886.711 48.8C882.611 55.9 880.311 64.3 880.311 71.9ZM890.311 71.9C890.311 51.6 895.711 41.5 906.411 41.5C917.111 41.5 922.511 51.6 922.511 71.9C922.511 92.3 917.111 102.5 906.411 102.5C895.711 102.5 890.311 92.3 890.311 71.9Z" fill="white"/>
<rect x="801.5" y="1.5" width="157" height="160" stroke="white" stroke-width="3"/>
<rect x="801.5" y="164.5" width="157" height="160" fill="#4301FF"/>
<path d="M851.3 270C869.1 270 875.8 257.6 875.8 246.6C875.8 240.6 873.8 235.5 869.8 231.3C865.9 227.1 860.1 225 852.6 225C847 225 842.6 226.4 839.4 229.1L840.9 208.9H871.8V200H835.2L832.3 236.1H838.1C840.1 233 844.4 230.9 849.1 230.9C857.8 230.9 863.1 236.2 863.1 246.9C863.1 258.4 858.5 264.1 849.4 264.1C844.4 264.1 840.7 263.1 838.2 261C840.8 259.5 842.1 257.5 842.1 254.9C842.1 251.3 839.8 248.7 835.7 248.7C831.6 248.7 829 251.6 829 255.6C829 259.8 831 263.3 835.1 266C839.2 268.7 844.6 270 851.3 270ZM906.085 270C923.885 270 930.585 257.6 930.585 246.6C930.585 240.6 928.585 235.5 924.585 231.3C920.685 227.1 914.885 225 907.385 225C901.785 225 897.385 226.4 894.185 229.1L895.685 208.9H926.585V200H889.985L887.085 236.1H892.885C894.885 233 899.185 230.9 903.885 230.9C912.585 230.9 917.885 236.2 917.885 246.9C917.885 258.4 913.285 264.1 904.185 264.1C899.185 264.1 895.485 263.1 892.985 261C895.585 259.5 896.885 257.5 896.885 254.9C896.885 251.3 894.585 248.7 890.485 248.7C886.385 248.7 883.785 251.6 883.785 255.6C883.785 259.8 885.785 263.3 889.885 266C893.985 268.7 899.385 270 906.085 270Z" fill="white"/>
<rect x="801.5" y="164.5" width="157" height="160" stroke="white" stroke-width="3"/>
<rect x="801.5" y="327.5" width="157" height="160" fill="#4301FF"/>
<path d="M875.4 408H863.4L863 410.8C862.5 414.9 861.4 417.6 859.5 418.8C857.6 419.9 854.1 420.5 849 420.5H839.4L855 408.4C863.3 401.9 869 396.5 872 392C875.1 387.5 876.6 383.3 876.6 379.4C876.6 368.9 868.7 363 853.4 363C844.1 363 836.8 364.6 831.4 367.8C826.1 370.9 823.4 375.1 823.4 380.3C823.4 385.8 826.8 388.9 832.8 388.9C839.6 388.9 844.1 385 844.1 379.4C844.1 376.7 843.1 374.6 841.1 373.3C842.4 373.1 843.5 373 844.4 373C849.4 373 851.9 376.1 851.9 382.2C851.9 392.6 845.3 403.3 832.1 414.4L819.2 425.2L818.2 433H872.3L875.4 408ZM937.509 408H925.509L925.109 410.8C924.609 414.9 923.509 417.6 921.609 418.8C919.709 419.9 916.209 420.5 911.109 420.5H901.509L917.109 408.4C925.409 401.9 931.109 396.5 934.109 392C937.209 387.5 938.709 383.3 938.709 379.4C938.709 368.9 930.809 363 915.509 363C906.209 363 898.909 364.6 893.509 367.8C888.209 370.9 885.509 375.1 885.509 380.3C885.509 385.8 888.909 388.9 894.909 388.9C901.709 388.9 906.209 385 906.209 379.4C906.209 376.7 905.209 374.6 903.209 373.3C904.509 373.1 905.609 373 906.509 373C911.509 373 914.009 376.1 914.009 382.2C914.009 392.6 907.409 403.3 894.209 414.4L881.309 425.2L880.309 433H934.409L937.509 408Z" fill="white"/>
<rect x="801.5" y="327.5" width="157" height="160" stroke="white" stroke-width="3"/>
<rect x="801.5" y="490.5" width="157" height="160" fill="#4301FF"/>
<path d="M881.3 596.5C888.9 596.5 894.5 594.7 898 591.1C901.5 587.4 903.3 583 903.3 577.7C903.3 573.8 902.3 570.5 901.1 568.2C900 565.8 897.1 563.5 895.4 562.3C894.6 561.7 893.3 561 891.5 560.3L887.6 558.8L883.3 557.3C876.9 555.2 872.3 553.2 869.4 551.2C866.5 549.1 865.1 546.1 865.1 542C865.1 535.2 870.3 530.5 878.7 530.5C889 530.5 895.6 536.6 895.6 548.5H901.1V525.5H896.9L893.6 529.9C889.8 527 884.8 525.5 878.6 525.5C871.9 525.5 866.6 527.3 862.7 531C858.8 534.6 856.9 539.2 856.9 544.8C856.9 550.4 858.6 554.6 862 557.4C865.4 560.2 870.9 562.7 878.5 564.8C890.8 568.3 894.9 573 894.9 580.6C894.9 587.1 890.4 591.5 881.3 591.5C875.8 591.5 871.2 589.8 867.5 586.4C863.8 582.9 862 578.5 862 573.2H856.5V596.5H860.7L864.7 591.4C869.1 594.8 874.6 596.5 881.3 596.5Z" fill="white"/>
<rect x="801.5" y="490.5" width="157" height="160" stroke="white" stroke-width="3"/>
<rect x="801.5" y="653.5" width="157" height="160" fill="#4301FF"/>
<path d="M853.7 754V697.2L875.4 749.4H880.8L902.4 697.3V754H894.4V758.5H919.9V754H911.9V694H919.9V689.5H900.2L880 738.4L859.7 689.5H839.2V694H847.2V754H839.2V758.5H861.7V754H853.7Z" fill="white"/>
<rect x="801.5" y="653.5" width="157" height="160" stroke="white" stroke-width="3"/>
<rect x="961.5" y="1.5" width="157" height="160" fill="#4301FF"/>
<path d="M1029.8 102H1018.8V36.5H1015.2C1013.9 38.4 1012.9 39.7 1012.1 40.4C1011.3 41.1 1009.8 41.8 1007.6 42.4C1005.4 42.9 1002.3 43.2 998.3 43.2V47.7H1009.3V102H998.3V106.5H1029.8V102ZM1046.17 99.5L1063.47 80.8C1069.37 74.4 1073.27 69.2 1075.17 65.1C1077.07 61 1077.97 57.2 1077.97 53.7C1077.97 42.8 1070.77 36.5 1058.27 36.5C1051.47 36.5 1046.17 38 1042.27 41C1038.47 44 1036.57 47.3 1036.57 50.8C1036.57 54.7 1038.87 56.9 1042.47 56.9C1045.97 56.9 1048.07 54.5 1048.07 51.3C1048.07 48.7 1046.77 46.8 1044.17 45.6C1046.57 42.9 1050.27 41.5 1055.37 41.5C1063.77 41.5 1067.97 46.2 1067.97 55.6C1067.97 60.3 1066.57 65.3 1063.67 70.5C1060.87 75.6 1055.47 82.6 1047.37 91.3L1037.27 102.2V106.5H1080.37V85.1H1074.87V88.7C1074.87 93.4 1074.87 94.9 1073.37 97C1071.87 99 1068.97 99.5 1063.47 99.5H1046.17Z" fill="white"/>
<rect x="961.5" y="1.5" width="157" height="160" stroke="white" stroke-width="3"/>
<rect x="961.5" y="164.5" width="157" height="160" fill="#4301FF"/>
<path d="M1039.9 225.7C1048.2 225.7 1053.8 219.9 1053.8 212.4C1053.8 204.8 1048.2 198.9 1039.9 198.9C1031.5 198.9 1025.9 204.8 1025.9 212.4C1025.9 219.9 1031.4 225.7 1039.9 225.7ZM1039.9 220.7C1035.1 220.7 1031.5 217.1 1031.5 212.4C1031.5 207.3 1035 203.9 1039.9 203.9C1044.7 203.9 1048.1 207.5 1048.2 212.4C1048.3 217.1 1045 220.7 1039.9 220.7Z" fill="white"/>
<rect x="961.5" y="164.5" width="157" height="160" stroke="white" stroke-width="3"/>
<rect x="961.5" y="327.5" width="157" height="160" fill="#4301FF"/>
<path d="M1064.3 374H1069.8L1071 364H1035.5L1034.3 374H1039.8L1034.3 418.3C1033.8 422.4 1032 424.5 1028.9 424.5C1027.4 424.5 1026.4 424.2 1025.9 423.6C1027.8 422.3 1029.7 419.2 1029.7 416C1029.7 410.8 1026.1 407.5 1020.6 407.5C1013.5 407.5 1009 412.6 1009 419.7C1009 428.9 1017.8 434 1031.1 434C1048.4 434 1058 425.9 1059.9 409.7L1064.3 374Z" fill="white"/>
<rect x="961.5" y="327.5" width="157" height="160" stroke="white" stroke-width="3"/>
<rect x="961.5" y="490.5" width="157" height="160" fill="#4301FF"/>
<path d="M1069.2 595.5V571.3H1057.7V574.1C1057.7 582.8 1054.5 585.5 1046.1 585.5H1040.2V565.5L1054.5 567V554.5L1040.2 556V536.5H1046.9C1055 536.5 1057 539 1057 547.1V550.2H1068.5V526.5H1010.2V536.5H1015.7V585.5H1010.2V595.5H1069.2Z" fill="white"/>
<rect x="961.5" y="490.5" width="157" height="160" stroke="white" stroke-width="3"/>
<rect x="961.5" y="653.5" width="157" height="160" fill="#4301FF"/>
<path d="M1057.7 748.5H1052.2V699.5H1057.7V689.5H1022.2V699.5H1027.7V748.5H1022.2V758.5H1057.7V748.5Z" fill="white"/>
<rect x="961.5" y="653.5" width="157" height="160" stroke="white" stroke-width="3"/>
<rect x="1121.5" y="1.5" width="157" height="160" fill="#4301FF"/>
<path d="M1199.7 63.2C1208 63.2 1213.6 57.4 1213.6 49.9C1213.6 42.3 1208 36.4 1199.7 36.4C1191.3 36.4 1185.7 42.3 1185.7 49.9C1185.7 57.4 1191.3 63.2 1199.7 63.2ZM1199.7 58.5C1194.6 58.5 1191 54.7 1191 49.9C1191 44.7 1194.5 41.1 1199.7 41.1C1204.8 41.1 1208.3 44.7 1208.4 49.9C1208.5 54.8 1205 58.5 1199.7 58.5Z" fill="white"/>
<rect x="1121.5" y="1.5" width="157" height="160" stroke="white" stroke-width="3"/>
<rect x="1121.5" y="327.5" width="157" height="160" fill="#4301FF"/>
<path d="M1227.7 407.8H1216.2C1214.1 418.3 1210.1 423.5 1204 423.5C1198.4 423.5 1195.6 418.6 1195.6 408.9C1195.6 399.7 1197 391.5 1199.7 384.3C1202.4 377.1 1205.9 373.5 1210.2 373.5C1215.5 373.5 1218.2 377.9 1218.2 386.6V388.7H1229.7L1232.8 363.1H1222.3L1218.6 367.6C1215.9 364.5 1211.4 363 1205.1 363C1195.2 363 1187.1 367 1180.6 375C1174.2 382.9 1171 392.9 1171 404.8C1171 413.6 1173.3 420.7 1177.9 426C1182.6 431.3 1188.8 434 1196.6 434C1203.3 434 1207 432.5 1211.4 429L1214 434H1224.5L1227.7 407.8Z" fill="white"/>
<rect x="1121.5" y="327.5" width="157" height="160" stroke="white" stroke-width="3"/>
<rect x="1121.5" y="490.5" width="157" height="160" fill="#4301FF"/>
<path d="M1221.5 596.5H1225.7V572.9H1220.2C1220.2 578.3 1218.6 582.8 1215.5 586.3C1212.4 589.8 1208.3 591.5 1203.3 591.5C1191.2 591.5 1182.9 581.2 1182.9 560.9C1182.9 540.2 1190.8 530.5 1202.3 530.5C1213.1 530.5 1219.7 537.2 1219.7 548.7H1225.2V525.6H1221L1217 530.2C1213.9 527.1 1208.8 525.5 1201.8 525.5C1193.1 525.5 1186.1 529 1180.8 536C1175.5 543 1172.9 551.3 1172.9 560.9C1172.9 573.3 1176.9 584.2 1186 591.3C1190.6 594.8 1196 596.5 1202.2 596.5C1208.7 596.5 1213.8 594.8 1217.5 591.5L1221.5 596.5Z" fill="white"/>
<rect x="1121.5" y="490.5" width="157" height="160" stroke="white" stroke-width="3"/>
<rect x="1121.5" y="653.5" width="157" height="160" fill="#4301FF"/>
<path d="M1225.2 759.5C1235.7 759.5 1241.6 753.4 1241.6 741.5H1233.1C1233.1 747.2 1232.7 748.8 1231.4 748.8C1230.1 748.8 1229.3 747.5 1228.6 742.2C1227.8 736.3 1226 732.2 1223.1 729.8C1220.2 727.3 1215.4 725.5 1208.6 724.4C1224.3 723.2 1231.7 717 1231.7 707.1C1231.7 696 1221.7 689.5 1200.2 689.5H1165.2V699.5H1170.7V748.5H1165.2V758.5H1199.7V748.5H1195.2V729.2H1195.7C1198.5 729.2 1200.3 730.1 1201.2 732.2C1202.3 734.2 1202.6 735.7 1203 738.9C1205.1 753.8 1211.6 759.5 1225.2 759.5ZM1197 699.5C1204.1 699.5 1207.7 703.1 1207.7 710.3C1207.7 717.1 1203.5 721 1197 721H1195.2V699.5H1197Z" fill="white"/>
<rect x="1121.5" y="653.5" width="157" height="160" stroke="white" stroke-width="3"/>
</svg>
