<svg width="1235" height="604" viewBox="0 0 1235 604" fill="none" xmlns="http://www.w3.org/2000/svg">
<path d="M138.119 200.045H116.942V146.959L142.76 116.499L193.236 200.045H175.83V216H246.322V200.045H232.398L165.677 89.5209L214.702 31.7931H236.459V15.8382H173.8V31.7931H193.816L116.942 122.591V31.7931H138.119V15.8382H59.5045V31.7931H81.5513V200.045H59.5045V216H138.119V200.045ZM380.137 218.901C402.474 218.901 412.917 204.977 412.917 175.097H400.444C400.444 190.762 396.963 198.595 390 198.595C383.328 198.595 380.137 193.663 380.137 183.51V120.561C380.137 84.5894 361.282 66.6038 323.28 66.6038C306.165 66.6038 291.95 70.0849 280.637 77.0471C269.613 84.0092 264.102 92.7119 264.102 103.155C264.102 112.728 271.064 119.4 281.507 119.4C291.95 119.4 298.622 113.018 298.622 103.445C298.622 96.7732 295.141 92.1317 288.179 89.5209C293.691 84.0092 302.103 81.3984 313.417 81.3984C335.173 81.3984 346.197 93.002 346.197 116.209V131.584H334.593C283.828 131.584 258.3 147.539 258.3 179.159C258.3 203.816 275.125 218.901 302.974 218.901C324.44 218.901 339.815 209.618 348.808 191.052C351.128 209.618 361.572 218.901 380.137 218.901ZM316.608 198.305C301.813 198.305 293.401 189.022 293.401 173.647C293.401 154.791 308.195 144.058 335.173 144.058H346.197V168.715C346.197 175.968 343.296 182.93 337.494 189.022C331.692 195.114 324.73 198.305 316.608 198.305ZM547.9 160.593H531.655V167.555C531.655 191.052 524.693 200.045 500.035 200.045H459.422L543.839 85.7498V69.7948H426.932V124.332H443.177V117.079C443.177 94.7425 451.01 85.7498 476.538 85.7498H509.608L425.482 200.045V216H547.9V160.593ZM619.491 66.6038C616.88 68.0543 612.529 68.9246 606.727 69.2147C600.925 69.5048 589.031 69.7948 571.336 69.7948V85.7498H590.772V200.045H571.336V216H643.858V200.045H624.712V69.5048L619.491 66.6038ZM605.276 39.3354C631.384 39.3354 631.384 0.753505 605.276 0.753505C579.748 0.753505 579.748 39.3354 605.276 39.3354ZM732.15 216V200.045H716.485V128.683C716.485 102.865 726.928 87.4903 744.043 87.4903C762.029 87.4903 771.022 100.254 771.022 126.072V200.045H755.067V216H820.627V200.045H804.962V128.683C804.962 102.865 815.115 87.4903 833.391 87.4903C850.796 87.4903 859.499 100.254 859.499 126.072V200.045H843.544V216H912.585V200.045H893.44V119.69C893.44 83.7191 875.744 66.6038 849.056 66.6038C824.108 66.6038 807.573 77.3372 799.451 98.5137C795.099 76.757 780.015 66.6038 760.579 66.6038C735.921 66.6038 719.096 78.2074 709.523 101.415V69.5048L703.141 66.6038C700.53 68.0543 697.339 69.2147 692.988 69.5048C688.636 69.7948 678.773 69.7948 663.108 69.7948V85.7498H682.544V200.045H663.108V216H732.15ZM979.553 66.6038C976.942 68.0543 972.591 68.9246 966.789 69.2147C960.987 69.5048 949.094 69.7948 931.398 69.7948V85.7498H950.834V200.045H931.398V216H1003.92V200.045H984.775V69.5048L979.553 66.6038ZM965.339 39.3354C991.447 39.3354 991.447 0.753505 965.339 0.753505C939.811 0.753505 939.811 39.3354 965.339 39.3354ZM1076.55 200.045V138.546C1076.55 122.011 1079.45 108.087 1085.25 97.0633C1091.05 86.0399 1099.17 80.5282 1109.91 80.5282C1114.84 80.5282 1118.9 81.6885 1121.51 83.7191C1112.52 84.8795 1107.01 90.9714 1107.01 99.384C1107.01 108.377 1113.97 114.759 1124.12 114.759C1135.44 114.759 1142.4 106.636 1142.4 94.7425C1142.4 77.6273 1130.21 66.6038 1110.78 66.6038C1090.76 66.6038 1077.13 79.0777 1070.46 104.315V69.5048L1065.23 66.6038C1062.04 68.0543 1058.27 68.9246 1053.63 69.2147C1048.99 69.5048 1038.84 69.7948 1023.17 69.7948V85.7498H1042.61V200.045H1023.17V216H1097.43V200.045H1076.55ZM31.946 597.423C63.5657 597.423 82.1315 573.346 88.2234 525.481L105.049 388.849H139.279L140.439 378.406H106.209L108.82 357.809C113.171 322.708 126.805 308.784 147.982 308.784C156.104 308.784 161.906 310.525 165.677 314.296C158.425 315.746 154.944 320.388 154.944 328.22C154.944 335.182 159.295 339.534 167.128 339.534C175.54 339.534 180.472 332.571 180.472 323.289C180.472 308.494 165.967 299.211 147.692 299.211C122.454 299.211 94.6053 314.876 86.4828 370.573L85.3225 378.406H58.9243L57.4739 388.849H84.1621L65.5964 538.535C61.245 571.895 51.6721 587.56 31.946 587.56C24.9838 587.56 19.7622 585.82 15.991 582.629C28.755 579.438 30.2054 557.101 15.1208 557.101C5.54781 557.101 0.616288 564.063 0.616288 573.056C0.616288 587.85 14.8307 597.423 31.946 597.423ZM214.294 375.505C193.118 375.505 176.873 383.917 164.979 400.743C153.376 417.278 147.574 437.584 147.574 461.661C147.574 479.937 152.215 495.312 161.208 507.205C170.491 519.099 183.545 524.901 200.08 524.901C221.257 524.901 237.502 516.488 249.105 499.953C260.999 483.128 266.801 462.822 266.801 438.744C266.801 401.323 249.105 375.505 214.294 375.505ZM213.424 385.948C235.761 385.948 245.624 405.384 245.624 434.393C245.624 457.31 241.853 476.166 234.021 491.541C226.188 506.625 215.165 514.168 200.66 514.168C180.644 514.168 168.75 493.861 168.75 465.723C168.75 442.806 172.522 423.95 180.354 408.865C188.186 393.49 199.21 385.948 213.424 385.948ZM383.714 492.411C381.683 513.297 390.096 524.901 408.661 524.901C424.616 524.901 437.38 509.816 441.151 480.517H430.418C427.517 501.694 421.715 512.137 413.013 512.137C406.341 512.137 403.73 507.205 404.6 497.342C405.18 490.38 407.211 478.196 410.692 460.501C414.173 442.806 416.204 428.881 417.074 419.018C419.395 392.04 405.47 375.505 379.652 375.505C358.476 375.505 342.521 388.269 332.368 413.506L337.009 377.825L333.818 375.505C331.207 377.535 318.153 378.406 294.076 378.406L292.916 388.849H318.153L301.908 522H322.795L331.497 450.638C334.688 428.591 339.91 410.315 352.384 397.261C358.476 390.589 365.728 387.398 374.141 387.398C390.096 387.398 398.508 397.552 397.058 414.667C396.187 423.66 393.867 437.004 390.096 454.699C386.614 472.105 384.584 484.578 383.714 492.411ZM504.454 524.901C528.822 524.901 540.716 508.946 545.357 477.326H534.914C531.143 500.533 522.44 512.137 508.806 512.137C495.171 512.137 489.37 501.404 491.98 480.227L503.294 388.849H553.77L554.93 378.406H503.874L510.256 326.19H498.362L496.912 339.534C493.141 366.222 485.308 379.566 462.391 379.566H457.46L456.299 388.849H482.408L471.384 478.487C467.903 508.946 480.377 524.901 504.454 524.901Z" fill="#4301FF"/>
<path d="M1218.24 352.066C1218.24 361.013 1225.75 368.273 1235 368.273V376.377C1225.75 376.377 1218.24 383.638 1218.24 392.584C1218.24 401.53 1225.75 408.791 1235 408.791V416.895C1225.75 416.895 1218.24 424.155 1218.24 433.102C1218.24 442.048 1225.75 449.309 1235 449.309V457.412C1225.75 457.412 1218.24 464.673 1218.24 473.619C1218.24 482.566 1225.75 489.826 1235 489.826V497.93C1225.75 497.93 1218.24 505.191 1218.24 514.137C1218.24 523.083 1225.75 530.344 1235 530.344V542.677C1203.8 542.677 1187.65 561.105 1183.69 566.307L1183.68 566.324C1176.5 580.942 1161.1 591.039 1143.26 591.039H694.858C676.996 591.039 661.58 580.91 654.408 566.275C650.42 561.024 634.251 542.694 603.117 542.694V530.344C612.367 530.344 619.874 523.083 619.874 514.137C619.874 505.191 612.367 497.93 603.117 497.93V489.826C612.367 489.826 619.874 482.566 619.874 473.619C619.874 464.673 612.367 457.412 603.117 457.412V449.309C612.367 449.309 619.874 442.048 619.874 433.102C619.874 424.155 612.367 416.895 603.117 416.895V408.791C612.367 408.791 619.874 401.53 619.874 392.584C619.874 383.638 612.367 376.377 603.117 376.377V368.273C612.367 368.273 619.874 361.013 619.874 352.066C619.874 343.12 612.367 335.859 603.117 335.859V323.526C634.318 323.526 650.471 305.098 654.425 299.896L654.442 299.88C661.614 285.261 677.013 275.164 694.858 275.164H1143.26C1161.12 275.164 1176.54 285.293 1183.71 299.928C1187.7 305.179 1203.87 323.51 1235 323.51V335.859C1225.75 335.859 1218.24 343.12 1218.24 352.066Z" fill="#4301FF"/>
<path d="M726.432 496.994H721.646V466.341H719.905C718.358 468.614 715.505 469.581 709.558 469.581V472.772H714.297V496.994H709.558V500.185H726.432V496.994ZM742.645 500.669C745.401 500.669 747.819 499.75 749.946 497.913C752.122 496.075 753.717 493.851 754.732 491.289C755.796 488.727 756.328 486.116 756.328 483.457C756.328 478.187 754.249 472.723 749.946 469.097C747.819 467.26 745.401 466.341 742.645 466.341C739.889 466.341 737.472 467.26 735.296 469.097C730.993 472.723 728.914 478.187 728.914 483.457C728.914 490.951 733.894 500.669 742.645 500.669ZM736.505 483.457C736.505 474.029 738.391 469.677 742.645 469.677C746.852 469.677 748.737 474.029 748.737 483.457C748.737 492.884 746.852 497.333 742.645 497.333C738.536 497.333 736.505 492.691 736.505 483.457ZM785.81 500.185V496.994H782.619V484.762H795.19V496.994H791.95V500.185H805.971V496.994H802.539V470.016H805.971V466.825H791.95V470.016H795.19V481.571H782.619V470.016H785.81V466.825H771.837V470.016H775.27V496.994H771.837V500.185H785.81ZM817.805 487.131L822.64 472.288L827.475 487.131H817.805ZM817.418 496.994H814.614L816.838 490.129H828.442L830.617 496.994H827.716V500.185H840.674V496.994H837.918L828.2 466.825H820.851L811.036 496.994H808.377V500.185H817.418V496.994ZM871.534 500.185V496.994H868.149V470.016H871.534V466.825H857.464V470.016H860.8V482.538C859.205 483.263 857.416 483.602 855.385 483.602C853.355 483.602 851.807 483.166 850.792 482.248C849.777 481.329 849.293 479.782 849.293 477.51V470.016H852.581V466.825H838.512V470.016H841.944V476.639C841.944 483.843 845.812 486.938 853.693 486.938C856.449 486.938 858.818 486.502 860.8 485.632V496.994H856.981V500.185H871.534ZM902.096 500.185V489.645H898.325V490.612C898.325 495.399 896.923 496.994 892.088 496.994H887.012V484.762L895.763 485.342V481.136L887.012 481.716V470.016H891.315C893.781 470.016 895.521 470.403 896.44 471.224C897.407 471.998 897.89 473.594 897.89 475.963V477.171H901.661V466.825H876.23V470.016H879.663V496.994H876.23V500.185H902.096ZM921.522 500.185V496.994H917.654V486.986H920.41C924.907 486.986 928.436 486.019 930.95 484.037C933.513 482.054 934.77 479.637 934.77 476.736C934.77 470.789 929.645 466.825 920.12 466.825H906.873V470.016H910.305V496.994H906.873V500.185H921.522ZM920.023 470.016C924.81 470.016 927.179 472.433 927.179 476.688C927.179 481.474 924.81 483.843 920.12 483.843H917.654V470.016H920.023ZM959.167 500.185V496.994H955.251V469.967H957.137C959.264 469.967 960.715 470.354 961.44 471.176C962.165 471.998 962.552 473.642 962.552 476.156V477.558H966.275V466.825H936.83V477.558H940.602V476.156C940.602 473.69 940.94 472.046 941.665 471.224C942.391 470.403 943.841 469.967 946.017 469.967H947.902V496.994H944.034V500.185H959.167ZM974.937 487.131L979.772 472.288L984.606 487.131H974.937ZM974.55 496.994H971.746L973.97 490.129H985.573L987.749 496.994H984.848V500.185H997.806V496.994H995.05L985.332 466.825H977.983L968.168 496.994H965.509V500.185H974.55V496.994ZM1014.1 500.185V496.994H1010.9V484.762H1023.47V496.994H1020.24V500.185H1034.26V496.994H1030.82V470.016H1034.26V466.825H1020.24V470.016H1023.47V481.571H1010.9V470.016H1014.1V466.825H1000.12V470.016H1003.56V496.994H1000.12V500.185H1014.1ZM1052.96 496.994H1049.67V494.383L1063.06 477.703V496.994H1059.72V500.185H1073.79V496.994H1070.41V470.016H1073.79V466.825H1059.72V470.016H1063.06V472.385L1049.67 489.065V470.016H1052.96V466.825H1038.89V470.016H1042.32V496.994H1038.89V500.185H1052.96V496.994ZM1092.57 496.994H1089.28V494.383L1102.67 477.703V496.994H1099.34V500.185H1113.41V496.994H1110.02V470.016H1113.41V466.825H1099.34V470.016H1102.67V472.385L1089.28 489.065V470.016H1092.57V466.825H1078.5V470.016H1081.93V496.994H1078.5V500.185H1092.57V496.994ZM1095.81 464.794C1100.98 464.794 1104.17 462.909 1104.17 459.814C1104.17 457.88 1103.01 456.672 1101.08 456.672C1099.14 456.672 1097.94 457.88 1097.94 459.379C1097.94 460.491 1098.47 461.265 1099.53 461.748C1098.81 462.28 1097.6 462.522 1095.81 462.522C1094.02 462.522 1092.81 462.28 1092.13 461.748C1093.15 461.265 1093.68 460.491 1093.68 459.379C1093.68 457.832 1092.62 456.672 1090.63 456.672C1088.7 456.672 1087.49 457.929 1087.49 459.814C1087.49 462.909 1090.73 464.794 1095.81 464.794Z" fill="white"/>
<path d="M923.914 428.54V423.296L927.996 416.076H929.135V414.895H925.117V416.076H926.406L923.097 421.921L919.573 416.076H920.97V414.895H915.662V416.076H916.844L921.292 423.49V428.54H919.53V429.721H925.676V428.54H923.914ZM938.349 429.936C938.714 429.743 939.745 429.657 941.486 429.657V428.497H940.068V418.87L939.681 418.655C939.509 418.762 939.208 418.848 938.778 418.87C938.37 418.891 937.575 418.891 936.436 418.891H935.942V420.073H937.554V424.951C937.554 427.25 936.608 428.303 935.211 428.303C933.664 428.303 932.977 427.293 932.977 425.144V418.87L932.611 418.655C932.439 418.762 932.16 418.848 931.773 418.87C931.387 418.891 930.634 418.891 929.539 418.891H929.044V420.073H930.463V425.639C930.463 428.497 931.709 429.936 934.223 429.936C936.114 429.936 937.36 429.034 937.983 427.207V429.721L938.349 429.936ZM946.812 428.54V423.984C946.812 422.759 947.027 421.728 947.457 420.911C947.886 420.095 948.488 419.686 949.283 419.686C949.648 419.686 949.949 419.772 950.143 419.923C949.476 420.009 949.068 420.46 949.068 421.083C949.068 421.749 949.584 422.222 950.336 422.222C951.174 422.222 951.69 421.62 951.69 420.739C951.69 419.472 950.787 418.655 949.348 418.655C947.865 418.655 946.855 419.579 946.361 421.449V418.87L945.974 418.655C945.738 418.762 945.458 418.827 945.114 418.848C944.771 418.87 944.019 418.891 942.858 418.891V420.073H944.298V428.54H942.858V429.721H948.359V428.54H946.812ZM954.867 435.308C955.748 435.308 956.457 434.943 956.951 434.234C957.467 433.525 958.133 432.128 958.949 430.022L962.774 420.073H963.913V418.891H960.217V420.073H961.464L958.928 426.67L956.049 420.073H957.252V418.891H952.159V420.073H953.448L957.703 429.786C956.951 431.698 956.414 432.88 956.091 433.374C955.791 433.869 955.361 434.126 954.802 434.126C954.609 434.126 954.437 434.105 954.308 434.041C954.781 433.826 955.017 433.417 955.017 432.794C955.017 432.085 954.501 431.591 953.728 431.591C952.933 431.591 952.353 432.171 952.353 433.095C952.353 434.363 953.384 435.308 954.867 435.308ZM982.278 419.558C981.741 417.774 980.731 416.227 978.991 415.346C978.131 414.895 977.164 414.68 976.068 414.68C974.972 414.68 974.006 414.895 973.125 415.346C969.751 417.065 968.784 421.599 969.837 425.059C970.374 426.842 971.384 428.389 973.125 429.27C974.006 429.721 974.972 429.936 976.068 429.936C977.164 429.936 978.131 429.721 978.991 429.27C982.364 427.551 983.331 423.017 982.278 419.558ZM972.158 422.308C972.158 418.032 973.769 415.969 976.068 415.969C978.325 415.969 979.958 418.032 979.958 422.308C979.958 426.606 978.325 428.647 976.068 428.647C973.769 428.647 972.158 426.606 972.158 422.308ZM986.318 428.819C987.135 429.571 988.36 429.936 989.993 429.936C992.249 429.936 993.603 428.776 993.603 426.799C993.603 424.908 992.335 424.07 990.1 423.404C988.961 423.082 988.209 422.781 987.801 422.501C987.393 422.222 987.199 421.835 987.199 421.298C987.199 420.503 987.823 419.858 988.94 419.858C990.68 419.858 991.647 420.696 991.841 422.394H993.044V418.655H992.142L991.626 419.601C990.938 418.977 989.95 418.655 988.639 418.655C986.426 418.655 984.836 419.815 984.836 421.792C984.836 423.597 985.803 424.328 988.231 424.994C990.487 425.596 991.239 426.197 991.239 427.25C991.239 428.26 990.616 428.754 989.391 428.754C987.436 428.754 986.211 427.594 985.953 425.961H984.771V429.936H985.674L986.318 428.819ZM999.789 429.936C1001.96 429.936 1002.82 428.497 1002.82 425.832H1001.74C1001.74 427.702 1001.32 428.647 1000.43 428.647C999.51 428.647 999.059 427.788 999.059 426.068V420.073H1002.63V418.891H998.994V415.045H997.77C997.77 417.774 996.738 419.149 994.697 419.149V420.073H996.545V426.369C996.545 429.012 997.791 429.936 999.789 429.936ZM1008 428.54V423.984C1008 422.759 1008.22 421.728 1008.65 420.911C1009.08 420.095 1009.68 419.686 1010.47 419.686C1010.84 419.686 1011.14 419.772 1011.33 419.923C1010.67 420.009 1010.26 420.46 1010.26 421.083C1010.26 421.749 1010.77 422.222 1011.53 422.222C1012.36 422.222 1012.88 421.62 1012.88 420.739C1012.88 419.472 1011.98 418.655 1010.54 418.655C1009.06 418.655 1008.05 419.579 1007.55 421.449V418.87L1007.16 418.655C1006.93 418.762 1006.65 418.827 1006.31 418.848C1005.96 418.87 1005.21 418.891 1004.05 418.891V420.073H1005.49V428.54H1004.05V429.721H1009.55V428.54H1008ZM1019.16 429.936C1020.64 429.936 1021.91 429.442 1022.94 428.432C1023.97 427.422 1024.49 426.047 1024.49 424.306C1024.49 422.566 1023.97 421.191 1022.94 420.181C1021.91 419.171 1020.64 418.655 1019.16 418.655C1017.63 418.655 1016.37 419.171 1015.33 420.181C1014.3 421.191 1013.79 422.566 1013.79 424.306C1013.79 426.047 1014.3 427.422 1015.33 428.432C1016.37 429.442 1017.63 429.936 1019.16 429.936ZM1019.16 419.837C1020.88 419.837 1021.87 421.556 1021.87 424.306C1021.87 427.035 1020.88 428.754 1019.16 428.754C1017.42 428.754 1016.41 427.035 1016.41 424.306C1016.41 421.556 1017.42 419.837 1019.16 419.837ZM1031.26 429.721V428.54H1030.1V423.254C1030.1 421.341 1030.87 420.202 1032.14 420.202C1033.47 420.202 1034.14 421.148 1034.14 423.06V428.54H1032.96V429.721H1037.81V428.54H1036.65V423.254C1036.65 421.341 1037.41 420.202 1038.76 420.202C1040.05 420.202 1040.69 421.148 1040.69 423.06V428.54H1039.51V429.721H1044.63V428.54H1043.21V422.587C1043.21 419.923 1041.9 418.655 1039.92 418.655C1038.07 418.655 1036.85 419.45 1036.25 421.019C1035.92 419.407 1034.81 418.655 1033.37 418.655C1031.54 418.655 1030.29 419.515 1029.58 421.234V418.87L1029.11 418.655C1028.92 418.762 1028.68 418.848 1028.36 418.87C1028.04 418.891 1027.31 418.891 1026.15 418.891V420.073H1027.59V428.54H1026.15V429.721H1031.26ZM1051.41 429.936C1053.75 429.936 1055.32 428.733 1055.82 426.735L1054.87 426.412C1054.38 427.959 1053.35 428.733 1051.78 428.733C1049.71 428.733 1048.66 427.293 1048.66 424.736V424.414H1055.97V423.619C1055.97 422.179 1055.56 420.976 1054.74 420.052C1053.95 419.128 1052.77 418.655 1051.2 418.655C1049.76 418.655 1048.53 419.171 1047.54 420.181C1046.56 421.191 1046.06 422.544 1046.06 424.242C1046.06 426.047 1046.56 427.444 1047.57 428.454C1048.58 429.442 1049.87 429.936 1051.41 429.936ZM1051.18 419.729C1052.64 419.729 1053.37 420.976 1053.37 423.49H1048.66C1048.75 421.083 1049.63 419.729 1051.18 419.729ZM1061.53 428.54V423.447C1061.53 421.406 1062.31 420.374 1063.85 420.374C1065.36 420.374 1066.11 421.298 1066.11 423.125V428.54H1064.82V429.721H1070.04V428.54H1068.63V422.953C1068.63 420.095 1067.36 418.655 1064.8 418.655C1063.02 418.655 1061.77 419.579 1061.08 421.427V418.87L1060.7 418.655C1060.46 418.762 1060.18 418.827 1059.84 418.848C1059.51 418.87 1058.76 418.891 1057.58 418.891V420.073H1059.02V428.54H1057.58V429.721H1062.8V428.54H1061.53ZM1075.86 429.936C1078.03 429.936 1078.89 428.497 1078.89 425.832H1077.81C1077.81 427.702 1077.38 428.647 1076.5 428.647C1075.58 428.647 1075.13 427.788 1075.13 426.068V420.073H1078.69V418.891H1075.06V415.045H1073.84C1073.84 417.774 1072.81 419.149 1070.77 419.149V420.073H1072.61V426.369C1072.61 429.012 1073.86 429.936 1075.86 429.936ZM1081.97 428.819C1082.78 429.571 1084.01 429.936 1085.64 429.936C1087.9 429.936 1089.25 428.776 1089.25 426.799C1089.25 424.908 1087.98 424.07 1085.75 423.404C1084.61 423.082 1083.86 422.781 1083.45 422.501C1083.04 422.222 1082.85 421.835 1082.85 421.298C1082.85 420.503 1083.47 419.858 1084.59 419.858C1086.33 419.858 1087.29 420.696 1087.49 422.394H1088.69V418.655H1087.79L1087.27 419.601C1086.59 418.977 1085.6 418.655 1084.29 418.655C1082.07 418.655 1080.48 419.815 1080.48 421.792C1080.48 423.597 1081.45 424.328 1083.88 424.994C1086.13 425.596 1086.89 426.197 1086.89 427.25C1086.89 428.26 1086.26 428.754 1085.04 428.754C1083.08 428.754 1081.86 427.594 1081.6 425.961H1080.42V429.936H1081.32L1081.97 428.819ZM1095.95 428.54H1094.68V426.262L1096.21 424.736L1099.13 428.54H1097.86V429.721H1103.15V428.54H1102.1L1097.89 423.06L1100.89 420.073H1102.48V418.891H1097.59V420.073H1099.2L1094.68 424.586V413.605L1094.36 413.39C1094.19 413.498 1093.89 413.562 1093.44 413.584C1093.01 413.605 1092.11 413.627 1090.75 413.627V414.809H1092.17V428.54H1090.75V429.721H1095.95V428.54ZM1106 435.308C1106.88 435.308 1107.59 434.943 1108.08 434.234C1108.6 433.525 1109.26 432.128 1110.08 430.022L1113.9 420.073H1115.04V418.891H1111.35V420.073H1112.59L1110.06 426.67L1107.18 420.073H1108.38V418.891H1103.29V420.073H1104.58L1108.83 429.786C1108.08 431.698 1107.54 432.88 1107.22 433.374C1106.92 433.869 1106.49 434.126 1105.93 434.126C1105.74 434.126 1105.57 434.105 1105.44 434.041C1105.91 433.826 1106.15 433.417 1106.15 432.794C1106.15 432.085 1105.63 431.591 1104.86 431.591C1104.06 431.591 1103.48 432.171 1103.48 433.095C1103.48 434.363 1104.51 435.308 1106 435.308Z" fill="white"/>
<path d="M922.71 381.266H921.099V368.803H922.71V367.621H916.844V368.803H918.477V381.266H916.844V382.448H922.71V381.266ZM929.781 382.448V381.266H928.363V366.331L928.04 366.117C927.847 366.224 927.546 366.289 927.095 366.31C926.665 366.331 925.784 366.353 924.43 366.353V367.535H925.848V381.266H924.43V382.448H929.781ZM933.127 388.034C934.008 388.034 934.717 387.669 935.211 386.96C935.727 386.251 936.393 384.854 937.209 382.748L941.034 372.799H942.173V371.618H938.477V372.799H939.724L937.188 379.396L934.309 372.799H935.512V371.618H930.419V372.799H931.709L935.963 382.512C935.211 384.424 934.674 385.606 934.352 386.101C934.051 386.595 933.621 386.853 933.062 386.853C932.869 386.853 932.697 386.831 932.568 386.767C933.041 386.552 933.277 386.144 933.277 385.52C933.277 384.811 932.761 384.317 931.988 384.317C931.193 384.317 930.613 384.897 930.613 385.821C930.613 387.089 931.644 388.034 933.127 388.034ZM951.8 382.662C953.455 382.662 954.228 381.631 954.228 379.418H953.304C953.304 380.578 953.047 381.158 952.531 381.158C952.037 381.158 951.8 380.793 951.8 380.041V375.378C951.8 372.713 950.404 371.381 947.589 371.381C946.321 371.381 945.268 371.639 944.43 372.155C943.613 372.67 943.205 373.315 943.205 374.089C943.205 374.798 943.721 375.292 944.494 375.292C945.268 375.292 945.762 374.819 945.762 374.11C945.762 373.616 945.504 373.272 944.989 373.079C945.397 372.67 946.02 372.477 946.858 372.477C948.47 372.477 949.286 373.337 949.286 375.056V376.195H948.427C944.666 376.195 942.775 377.376 942.775 379.719C942.775 381.545 944.022 382.662 946.084 382.662C947.675 382.662 948.813 381.975 949.48 380.6C949.651 381.975 950.425 382.662 951.8 382.662ZM947.094 381.137C945.998 381.137 945.375 380.449 945.375 379.31C945.375 377.914 946.471 377.119 948.47 377.119H949.286V378.945C949.286 379.482 949.071 379.998 948.641 380.449C948.212 380.9 947.696 381.137 947.094 381.137ZM971.648 382.662C973.474 382.662 974.183 381.502 974.183 379.246H973.044C973.044 380.664 972.765 381.373 972.228 381.373C971.948 381.373 971.733 381.223 971.583 380.9C971.454 380.578 971.282 379.933 971.089 378.945C970.831 377.634 970.53 376.753 970.186 376.302C969.843 375.851 969.155 375.442 968.145 375.099C970.616 374.733 971.927 373.38 971.927 371.553C971.927 369.039 969.928 367.621 966.168 367.621H960.345V368.803H961.978V381.266H960.345V382.448H966.147V381.266H964.599V375.657H965.975C966.684 375.657 967.199 375.872 967.522 376.302C967.844 376.732 968.145 377.613 968.403 378.945C968.639 380.277 969.004 381.223 969.456 381.803C969.907 382.383 970.638 382.662 971.648 382.662ZM966.082 368.803C968.166 368.803 969.219 369.77 969.219 371.682C969.219 373.423 968.188 374.54 966.061 374.54H964.599V368.803H966.082ZM983.78 382.662C984.145 382.469 985.177 382.383 986.917 382.383V381.223H985.499V371.596L985.112 371.381C984.94 371.489 984.64 371.575 984.21 371.596C983.802 371.618 983.007 371.618 981.868 371.618H981.373V372.799H982.985V377.677C982.985 379.976 982.04 381.029 980.643 381.029C979.096 381.029 978.408 380.019 978.408 377.871V371.596L978.043 371.381C977.871 371.489 977.592 371.575 977.205 371.596C976.818 371.618 976.066 371.618 974.97 371.618H974.476V372.799H975.894V378.365C975.894 381.223 977.14 382.662 979.654 382.662C981.545 382.662 982.792 381.76 983.415 379.933V382.448L983.78 382.662ZM998.346 366.117C998.174 366.224 997.873 366.289 997.422 366.31C996.971 366.331 996.09 366.353 994.736 366.353V367.535H996.154V369.017C996.154 370.07 996.219 371.489 996.348 373.294C995.832 372.09 994.607 371.381 993.232 371.381C991.943 371.381 990.804 371.897 989.837 372.928C988.87 373.96 988.376 375.335 988.376 377.054C988.376 378.73 988.87 380.084 989.837 381.115C990.825 382.147 991.964 382.662 993.232 382.662C994.629 382.662 995.896 381.889 996.498 380.234V382.448L996.885 382.662C997.25 382.469 998.325 382.362 1000.11 382.362V381.18H998.668V366.331L998.346 366.117ZM993.748 372.606C995.23 372.606 996.176 374.067 996.176 376.624V377.119C996.176 379.783 995.209 381.438 993.748 381.438C992.093 381.438 990.976 379.805 990.997 377.054C991.019 374.304 992.093 372.606 993.748 372.606ZM1006.93 382.662C1009.27 382.662 1010.84 381.459 1011.33 379.461L1010.38 379.138C1009.89 380.686 1008.86 381.459 1007.29 381.459C1005.23 381.459 1004.17 380.019 1004.17 377.462V377.14H1011.48V376.345C1011.48 374.905 1011.07 373.702 1010.26 372.778C1009.46 371.854 1008.28 371.381 1006.71 371.381C1005.27 371.381 1004.05 371.897 1003.06 372.907C1002.07 373.917 1001.57 375.271 1001.57 376.968C1001.57 378.773 1002.07 380.17 1003.08 381.18C1004.09 382.168 1005.38 382.662 1006.93 382.662ZM1006.69 372.456C1008.15 372.456 1008.88 373.702 1008.88 376.216H1004.17C1004.26 373.809 1005.14 372.456 1006.69 372.456ZM1017.05 381.266V376.71C1017.05 375.485 1017.26 374.454 1017.69 373.637C1018.12 372.821 1018.72 372.413 1019.52 372.413C1019.88 372.413 1020.18 372.499 1020.38 372.649C1019.71 372.735 1019.3 373.186 1019.3 373.809C1019.3 374.475 1019.82 374.948 1020.57 374.948C1021.41 374.948 1021.92 374.347 1021.92 373.466C1021.92 372.198 1021.02 371.381 1019.58 371.381C1018.1 371.381 1017.09 372.305 1016.6 374.175V371.596L1016.21 371.381C1015.97 371.489 1015.69 371.553 1015.35 371.575C1015.01 371.596 1014.25 371.618 1013.09 371.618V372.799H1014.53V381.266H1013.09V382.448H1018.59V381.266H1017.05ZM1028.2 382.448V381.266H1027.04V375.98C1027.04 374.067 1027.81 372.928 1029.08 372.928C1030.41 372.928 1031.08 373.874 1031.08 375.786V381.266H1029.89V382.448H1034.75V381.266H1033.59V375.98C1033.59 374.067 1034.34 372.928 1035.7 372.928C1036.98 372.928 1037.63 373.874 1037.63 375.786V381.266H1036.45V382.448H1041.56V381.266H1040.14V375.314C1040.14 372.649 1038.83 371.381 1036.86 371.381C1035.01 371.381 1033.78 372.176 1033.18 373.745C1032.86 372.133 1031.74 371.381 1030.3 371.381C1028.48 371.381 1027.23 372.241 1026.52 373.96V371.596L1026.05 371.381C1025.85 371.489 1025.62 371.575 1025.3 371.596C1024.97 371.618 1024.24 371.618 1023.08 371.618V372.799H1024.52V381.266H1023.08V382.448H1028.2ZM1051.98 382.662C1053.63 382.662 1054.41 381.631 1054.41 379.418H1053.48C1053.48 380.578 1053.23 381.158 1052.71 381.158C1052.22 381.158 1051.98 380.793 1051.98 380.041V375.378C1051.98 372.713 1050.58 371.381 1047.77 371.381C1046.5 371.381 1045.45 371.639 1044.61 372.155C1043.79 372.67 1043.38 373.315 1043.38 374.089C1043.38 374.798 1043.9 375.292 1044.67 375.292C1045.45 375.292 1045.94 374.819 1045.94 374.11C1045.94 373.616 1045.68 373.272 1045.17 373.079C1045.58 372.67 1046.2 372.477 1047.04 372.477C1048.65 372.477 1049.47 373.337 1049.47 375.056V376.195H1048.61C1044.85 376.195 1042.96 377.376 1042.96 379.719C1042.96 381.545 1044.2 382.662 1046.26 382.662C1047.85 382.662 1048.99 381.975 1049.66 380.6C1049.83 381.975 1050.6 382.662 1051.98 382.662ZM1047.27 381.137C1046.18 381.137 1045.56 380.449 1045.56 379.31C1045.56 377.914 1046.65 377.119 1048.65 377.119H1049.47V378.945C1049.47 379.482 1049.25 379.998 1048.82 380.449C1048.39 380.9 1047.88 381.137 1047.27 381.137ZM1059.12 381.266V376.173C1059.12 374.132 1059.89 373.1 1061.44 373.1C1062.95 373.1 1063.7 374.024 1063.7 375.851V381.266H1062.41V382.448H1067.63V381.266H1066.21V375.679C1066.21 372.821 1064.94 371.381 1062.39 371.381C1060.6 371.381 1059.36 372.305 1058.67 374.153V371.596L1058.28 371.381C1058.05 371.489 1057.77 371.553 1057.42 371.575C1057.1 371.596 1056.35 371.618 1055.17 371.618V372.799H1056.61V381.266H1055.17V382.448H1060.39V381.266H1059.12Z" fill="white"/>
<line x1="712.707" y1="442.234" x2="1116.68" y2="442.234" stroke="white" stroke-width="3.22322"/>
<line x1="915.77" y1="398.183" x2="1116.68" y2="398.183" stroke="white" stroke-width="3.22322"/>
<path d="M718.743 431.539C721.955 431.539 724.553 430.533 726.537 428.494C728.548 426.455 729.554 423.829 729.554 420.673C729.554 416.371 726.9 412.264 720.81 412.264H713.463L713.268 413.801H715.363L713.407 430.003H711.284L711.089 431.539H718.743ZM720.279 413.801C721.983 413.801 723.352 414.331 724.414 415.393C725.475 416.427 726.006 418.131 726.006 420.477C726.006 423.298 725.335 425.589 723.967 427.349C722.598 429.109 720.838 430.003 718.631 430.003H716.815L718.771 413.801H720.279ZM745.009 431.539L745.735 425.645H743.891L743.836 426.148C743.668 427.572 743.277 428.578 742.69 429.165C742.104 429.723 741.098 430.003 739.617 430.003H736.293L737.215 422.46L742.551 422.74L742.802 420.673L737.383 420.98L738.249 413.801H740.958C744.003 413.801 745.009 414.555 744.646 417.376L744.562 418.047H746.406L747.132 412.264H732.941L732.746 413.801H734.841L732.885 430.003H730.762L730.567 431.539H745.009ZM755.376 431.818C759.511 431.818 761.718 429.472 761.718 426.12C761.718 423.41 760.209 421.874 757.192 420.84C754.427 419.918 753.17 418.969 753.17 416.985C753.17 415.114 754.371 413.661 756.689 413.661C758.84 413.661 760.265 414.89 760.349 417.46C760.349 417.907 760.349 418.242 760.321 418.494H762.165L762.975 411.985H761.466L760.461 413.186C759.483 412.376 758.17 411.985 756.494 411.985C754.594 411.985 753.03 412.488 751.773 413.493C750.516 414.499 749.901 415.896 749.901 417.656C749.901 420.449 751.522 422.013 754.622 423.019C757.388 423.885 758.449 425.03 758.449 426.958C758.449 429.081 757.276 430.142 754.902 430.142C753.533 430.142 752.471 429.695 751.689 428.774C750.907 427.852 750.572 426.651 750.656 425.226H748.812L748.002 431.818H749.51L750.767 430.366C751.968 431.344 753.505 431.818 755.376 431.818ZM771.67 430.003H769.575L771.53 413.801H773.653L773.849 412.264H766.223L766.027 413.801H768.122L766.167 430.003H764.044L763.848 431.539H771.474L771.67 430.003ZM791.846 424.109L792.042 422.572H784.332L784.136 424.109H786.818L786.204 429.304C785.561 429.863 784.639 430.142 783.41 430.142C780.254 430.142 778.466 428.019 778.466 423.913C778.466 421.092 779.024 418.661 780.17 416.678C781.315 414.667 782.796 413.661 784.611 413.661C787.153 413.661 788.662 415.337 788.662 418.019C788.662 418.186 788.634 418.438 788.606 418.773H790.45L791.288 411.985H789.807L788.522 413.354C787.489 412.432 786.092 411.985 784.388 411.985C781.483 411.985 778.969 413.382 777.404 415.505C775.84 417.628 774.974 420.393 774.974 423.298C774.974 425.785 775.616 427.824 776.901 429.416C778.214 431.008 780.114 431.818 782.628 431.818C784.248 431.818 785.645 431.455 786.846 430.701L787.656 431.818H788.969L789.891 424.109H791.846ZM810.777 413.801H812.872L813.067 412.264H806.81L806.614 413.801H808.737L807.229 426.036L800.273 412.264H795.385L795.189 413.801H797.284L795.329 430.003H793.206L793.01 431.539H799.268L799.463 430.003H797.368L799.044 416.259L806.866 431.679H808.57L810.777 413.801ZM827.612 431.539L828.338 425.645H826.495L826.439 426.148C826.271 427.572 825.88 428.578 825.294 429.165C824.707 429.723 823.701 430.003 822.221 430.003H818.897L819.818 422.46L825.154 422.74L825.405 420.673L819.986 420.98L820.852 413.801H823.562C826.607 413.801 827.612 414.555 827.249 417.376L827.165 418.047H829.009L829.735 412.264H815.544L815.349 413.801H817.444L815.489 430.003H813.366L813.17 431.539H827.612ZM838.12 431.539C841.332 431.539 843.93 430.533 845.913 428.494C847.925 426.455 848.93 423.829 848.93 420.673C848.93 416.371 846.276 412.264 840.187 412.264H832.84L832.644 413.801H834.739L832.784 430.003H830.661L830.465 431.539H838.12ZM839.656 413.801C841.36 413.801 842.729 414.331 843.79 415.393C844.852 416.427 845.382 418.131 845.382 420.477C845.382 423.298 844.712 425.589 843.343 427.349C841.974 429.109 840.215 430.003 838.008 430.003H836.192L838.147 413.801H839.656ZM865.114 431.539C870.449 431.539 873.243 429.5 873.243 425.84C873.243 424.583 872.768 423.606 871.846 422.879C870.924 422.153 869.779 421.678 868.41 421.483C869.835 421.259 871.008 420.728 871.986 419.862C872.963 418.997 873.438 417.851 873.438 416.482C873.438 413.801 870.896 412.264 866.957 412.264H859.219L859.024 413.801H861.119L859.164 430.003H857.041L856.845 431.539H865.114ZM866.287 413.773C868.717 413.773 869.89 414.946 869.89 416.846C869.89 419.276 868.354 420.98 865.365 420.98H863.661L864.527 413.773H866.287ZM865.7 422.349C868.186 422.349 869.723 423.55 869.723 425.785C869.723 428.438 868.103 430.031 864.946 430.031H862.572L863.493 422.349H865.7ZM883.793 430.003L884.631 423.187L890.861 413.801H892.341L892.537 412.264H887.285L887.09 413.801H888.85L883.738 421.483L880.274 413.801H882.145L882.341 412.264H875.469L875.273 413.801H876.81L881.195 423.438L880.385 430.003H878.095L877.899 431.539H885.916L886.112 430.003H883.793Z" fill="white"/>
<path d="M719.28 383.448V381.628H717.507V377.231H718.736C721.006 377.231 722.778 376.735 724.031 375.766C725.308 374.796 725.946 373.567 725.946 372.102C725.946 369.147 723.44 367.138 718.547 367.138H711.645V368.958H713.205V381.628H711.645V383.448H719.28ZM718.429 368.958C720.438 368.958 721.526 370.069 721.526 372.078C721.526 374.3 720.509 375.411 718.453 375.411H717.507V368.958H718.429ZM737.127 383.684C737.552 383.471 739.136 383.353 741.878 383.353V381.533H740.507V371.275L740.058 371.038C739.916 371.109 739.727 371.18 739.514 371.227C739.112 371.298 737.552 371.345 734.834 371.345V373.166H736.323V378.011C736.323 380.091 735.661 381.131 734.338 381.131C733.014 381.131 732.4 380.209 732.4 378.129V371.275L731.998 371.038C731.714 371.18 731.289 371.275 730.721 371.298C730.154 371.322 729.067 371.345 727.459 371.345H726.845V373.166H728.216V378.933C728.216 382.171 729.87 383.684 732.589 383.684C734.598 383.684 735.969 382.715 736.678 380.777V383.448L737.127 383.684ZM750.472 381.722C749.053 381.722 748.25 380.233 748.25 377.704V377.231C748.25 374.489 749.053 373 750.472 373C751.913 373 752.646 374.466 752.646 377.373C752.67 380.28 751.961 381.722 750.472 381.722ZM744.846 383.684L747.919 381.958C748.841 383.117 750.093 383.684 751.677 383.684C753.214 383.684 754.466 383.093 755.459 381.935C756.452 380.777 756.948 379.24 756.948 377.326C756.948 375.435 756.475 373.922 755.506 372.764C754.537 371.605 753.308 371.038 751.819 371.038C750.188 371.038 748.77 371.865 748.108 373.307C748.202 372.291 748.25 370.66 748.25 368.367V365.72L747.848 365.484C747.588 365.602 747.162 365.696 746.524 365.744C745.91 365.767 744.633 365.791 742.695 365.791V367.611H744.066V383.684H744.846ZM765.327 383.448V381.628H763.956V365.72L763.53 365.484C763.294 365.602 762.868 365.696 762.23 365.744C761.616 365.767 760.339 365.791 758.377 365.791V367.611H759.772V381.628H758.377V383.448H765.327ZM771.985 371.038C771.63 371.251 769.928 371.345 766.832 371.345V373.166H768.226V381.628H766.832V383.448H773.781V381.628H772.41V371.275L771.985 371.038ZM772.032 367.233C772.032 366.216 771.323 365.342 770.117 365.342C768.959 365.342 768.203 366.216 768.203 367.233C768.203 368.249 768.959 369.076 770.117 369.076C771.323 369.076 772.032 368.273 772.032 367.233ZM777.549 382.431C778.684 383.258 780.197 383.684 782.088 383.684C784.924 383.684 786.531 382.289 786.531 380.02C786.531 378.295 785.302 377.018 782.82 376.191C781.733 375.836 781.047 375.576 780.74 375.458C780.007 375.104 779.653 374.678 779.653 374.135C779.653 373.449 780.267 372.882 781.307 372.882C782.891 372.882 784.049 373.709 784.215 375.435H786.106V371.038H784.664L784.049 372.031C783.128 371.369 781.851 371.038 780.197 371.038C777.36 371.038 775.493 372.409 775.493 374.749C775.493 376.711 776.675 377.727 779.133 378.413C781.52 379.098 782.395 379.618 782.395 380.588C782.395 381.415 781.78 381.864 780.74 381.864C778.967 381.864 777.573 380.895 777.313 379.027H775.422V383.684H776.864L777.549 382.431ZM794.705 381.628H793.57V376.569C793.57 374.702 794.232 373.78 795.556 373.78C796.809 373.78 797.471 374.489 797.471 376.38V381.628H796.36V383.448H803.049V381.628H801.654V375.766C801.654 372.527 799.976 371.038 797.352 371.038C795.249 371.038 793.854 371.96 793.192 373.804C793.452 372.433 793.57 370.684 793.57 368.533V365.72L793.145 365.484C792.909 365.602 792.483 365.696 791.845 365.744C791.23 365.767 789.954 365.791 788.016 365.791V367.611H789.387V381.628H788.016V383.448H794.705V381.628ZM810.791 383.684C813.793 383.684 815.66 382.455 816.346 379.997L814.928 379.5C814.36 380.989 813.438 381.793 811.713 381.793C809.704 381.793 808.569 380.493 808.569 378.058V377.751H816.488V376.829C816.488 375.151 815.991 373.756 814.975 372.669C813.958 371.582 812.493 371.038 810.555 371.038C808.829 371.038 807.364 371.605 806.158 372.764C804.953 373.922 804.362 375.435 804.362 377.326C804.362 379.335 804.953 380.895 806.158 382.006C807.364 383.117 808.9 383.684 810.791 383.684ZM810.507 372.693C811.713 372.693 812.28 373.946 812.257 376.475H808.569C808.616 373.946 809.255 372.693 810.507 372.693ZM830.485 365.484C830.248 365.602 829.799 365.696 829.137 365.744C828.499 365.767 827.223 365.791 825.332 365.791V367.611H826.703V368.674C826.703 368.982 826.75 370.4 826.868 372.976C826.419 371.818 825.095 371.038 823.465 371.038C822.046 371.038 820.77 371.605 819.659 372.764C818.548 373.922 818.004 375.458 818.004 377.373C818.004 379.358 818.548 380.918 819.659 382.029C820.77 383.14 822.023 383.684 823.441 383.684C825.166 383.684 826.372 382.833 827.034 381.108V383.448L827.483 383.684C827.956 383.448 829.563 383.329 832.281 383.329V381.533H830.91V365.72L830.485 365.484ZM824.599 373C825.946 373 826.726 374.418 826.726 377.042V377.515C826.726 380.233 825.946 381.722 824.599 381.722C823.157 381.722 822.283 380.209 822.306 377.397C822.33 374.56 823.181 373 824.599 373ZM842.747 381.037L846.789 376.877C848.089 375.576 849.011 374.489 849.507 373.567C850.004 372.645 850.264 371.747 850.264 370.873C850.264 368.438 848.396 366.902 844.875 366.902C843.007 366.902 841.542 367.28 840.478 368.036C839.438 368.769 838.918 369.644 838.918 370.636C838.918 371.771 839.674 372.48 840.927 372.48C842.133 372.48 842.865 371.724 842.865 370.684C842.865 370.022 842.558 369.525 841.967 369.218C842.298 368.911 842.818 368.769 843.527 368.769C845.158 368.769 845.986 369.809 845.986 371.889C845.986 372.976 845.678 374.087 845.064 375.246C844.449 376.404 843.338 377.775 841.731 379.382L839.154 381.958V383.448H850.831V377.893H848.656V378.626C848.656 379.618 848.467 380.28 848.113 380.588C847.758 380.895 846.978 381.037 845.773 381.037H842.747ZM859.929 383.684C861.3 383.684 862.529 383.258 863.617 382.384C864.728 381.509 865.555 380.422 866.099 379.169C866.642 377.893 866.926 376.593 866.926 375.269C866.926 372.622 865.815 369.927 863.617 368.202C862.529 367.327 861.3 366.902 859.929 366.902C858.558 366.902 857.329 367.327 856.218 368.202C854.044 369.927 852.933 372.622 852.933 375.269C852.933 377.184 853.642 379.264 854.8 380.895C855.958 382.526 857.849 383.684 859.929 383.684ZM857.353 375.269C857.353 370.849 858.038 368.769 859.929 368.769C861.797 368.769 862.506 370.849 862.506 375.269C862.506 377.467 862.317 379.122 861.915 380.209C861.513 381.273 860.851 381.817 859.929 381.817C859.007 381.817 858.346 381.273 857.944 380.186C857.542 379.075 857.353 377.444 857.353 375.269ZM877.33 381.628H875.132V366.902H874.281C873.571 367.965 871.704 368.485 868.655 368.485V370.305H870.83V381.628H868.655V383.448H877.33V381.628ZM884.479 383.684C886.654 383.684 888.379 382.998 889.325 381.888C890.27 380.777 890.72 379.5 890.72 378.153C890.72 376.735 890.223 375.529 889.254 374.536C888.285 373.544 886.843 373.047 884.905 373.047C883.676 373.047 882.636 373.284 881.808 373.78L882.116 369.715H889.774V367.138H880.272L879.587 376.002H881.147C881.501 375.364 882.376 374.915 883.392 374.915C885.212 374.915 886.299 376.026 886.299 378.271C886.299 380.635 885.401 381.817 883.581 381.817C882.919 381.817 882.352 381.698 881.879 381.462C882.47 381.155 882.754 380.682 882.754 379.997C882.754 379.027 882.045 378.271 880.839 378.271C879.539 378.271 878.806 379.075 878.806 380.233C878.806 382.337 881.005 383.684 884.479 383.684Z" fill="white"/>
<line x1="713.781" y1="398.721" x2="889.984" y2="398.721" stroke="white" stroke-width="2.14881" stroke-linecap="square" stroke-dasharray="23.64 8.6"/>
<rect x="666.507" y="318.14" width="506.045" height="230.997" rx="39.753" stroke="white" stroke-width="6.44644"/>
<rect x="685.309" y="338.017" width="468.441" height="192.319" rx="19.8765" stroke="white" stroke-width="3.22322"/>
</svg>
