<svg width="616" height="404" viewBox="0 0 616 404" fill="none" xmlns="http://www.w3.org/2000/svg">
<circle cx="60.5" cy="60.5" r="7.5" fill="#4301FF"/>
<circle cx="559.5" cy="55.5" r="7.5" fill="#4301FF"/>
<circle cx="60.5" cy="343.5" r="7.5" fill="#4301FF"/>
<circle cx="555.5" cy="343.5" r="7.5" fill="#4301FF"/>
<mask id="path-5-inside-1_269_76" fill="white">
<path fill-rule="evenodd" clip-rule="evenodd" d="M0 25C13.5003 25 24.4444 13.8071 24.4444 0H591.556C591.556 13.8071 602.5 25 616 25V379C602.5 379 591.556 390.193 591.556 404H24.4444C24.4444 390.193 13.5003 379 0 379V25Z"/>
</mask>
<path d="M24.4444 0V-6H18.4444V0H24.4444ZM0 25V19H-6V25H0ZM591.556 0H597.556V-6H591.556V0ZM616 25H622V19H616V25ZM616 379V385H622V379H616ZM591.556 404V410H597.556V404H591.556ZM24.4444 404H18.4444V410H24.4444V404ZM0 379H-6V385H0V379ZM18.4444 0C18.4444 10.6212 10.0602 19 0 19V31C16.9404 31 30.4444 16.993 30.4444 0H18.4444ZM591.556 -6H24.4444V6H591.556V-6ZM616 19C605.94 19 597.556 10.6212 597.556 0H585.556C585.556 16.993 599.06 31 616 31V19ZM622 379V25H610V379H622ZM597.556 404C597.556 393.379 605.94 385 616 385V373C599.06 373 585.556 387.007 585.556 404H597.556ZM24.4444 410H591.556V398H24.4444V410ZM0 385C10.0602 385 18.4444 393.379 18.4444 404H30.4444C30.4444 387.007 16.9404 373 0 373V385ZM-6 25V379H6V25H-6Z" fill="#4301FF" mask="url(#path-5-inside-1_269_76)"/>
<mask id="path-7-inside-2_269_76" fill="white">
<path fill-rule="evenodd" clip-rule="evenodd" d="M25.0001 46.075C37.4704 46.075 47.5795 36.1917 47.5795 24H571.421C571.421 35.5328 580.467 45 592 45.9896V358.743C580.712 359.711 571.806 368.801 571.433 380H47.5673C47.1721 368.147 37.2197 358.657 25.0001 358.657H25V46.075H25.0001Z"/>
</mask>
<path d="M47.5795 24V21H44.5795V24H47.5795ZM571.421 24H574.421V21H571.421V24ZM592 45.9896H595V43.236L592.256 43.0006L592 45.9896ZM592 358.743L592.256 361.732L595 361.496V358.743H592ZM571.433 380V383H574.334L574.431 380.1L571.433 380ZM47.5673 380L44.569 380.1L44.6657 383H47.5673V380ZM25 358.657H22V361.657H25V358.657ZM25 46.075V43.075H22V46.075H25ZM44.5795 24C44.5795 34.4713 35.8778 43.075 25.0001 43.075V49.075C39.063 49.075 50.5795 37.9121 50.5795 24H44.5795ZM571.421 21H47.5795V27H571.421V21ZM592.256 43.0006C582.205 42.1382 574.421 33.9062 574.421 24H568.421C568.421 37.1594 578.728 47.8619 591.744 48.9786L592.256 43.0006ZM595 358.743V45.9896H589V358.743H595ZM574.431 380.1C574.752 370.48 582.42 362.576 592.256 361.732L591.744 355.754C579.003 356.847 568.86 367.122 568.434 379.9L574.431 380.1ZM47.5673 383H571.433V377H47.5673V383ZM25.0001 361.657C35.6575 361.657 44.2296 369.919 44.569 380.1L50.5656 379.9C50.1147 366.375 38.7819 355.657 25.0001 355.657V361.657ZM25 361.657H25.0001V355.657H25V361.657ZM22 46.075V358.657H28V46.075H22ZM25.0001 43.075H25V49.075H25.0001V43.075Z" fill="#4301FF" mask="url(#path-7-inside-2_269_76)"/>
</svg>
