<svg width="956" height="430" viewBox="0 0 956 430" fill="none" xmlns="http://www.w3.org/2000/svg">
<path d="M141.287 388.873C143.047 388.873 143.751 387.619 143.751 385.221H142.607C142.607 386.783 142.365 387.553 141.859 387.553C141.265 387.553 141.045 387.179 140.627 385.573C140.407 384.693 140.231 384.055 140.099 383.659C139.967 383.241 139.747 382.845 139.461 382.427C138.867 381.569 138.141 381.239 136.667 380.733C137.723 380.381 138.405 379.105 139.043 377.191C139.373 376.223 139.593 375.607 139.725 375.321C139.879 375.937 140.473 376.333 141.155 376.333C142.035 376.333 142.607 375.739 142.607 374.859C142.607 373.891 141.969 373.253 140.825 373.253C138.889 373.253 138.229 375.805 137.503 377.807C137.041 379.193 136.205 380.293 134.973 380.293H133.807V374.683H135.457V373.473H129.451V374.683H131.123V387.443H129.451V388.653H135.457V387.443H133.807V381.503H134.973C135.809 381.503 136.403 381.745 136.755 382.251C137.129 382.757 137.503 383.791 137.921 385.375C138.471 387.751 139.351 388.873 141.287 388.873ZM154.175 388.873C155.869 388.873 156.661 387.817 156.661 385.551H155.715C155.715 386.739 155.451 387.333 154.923 387.333C154.417 387.333 154.175 386.959 154.175 386.189V381.415C154.175 378.687 152.745 377.323 149.863 377.323C148.565 377.323 147.487 377.587 146.629 378.115C145.793 378.643 145.375 379.303 145.375 380.095C145.375 380.821 145.903 381.327 146.695 381.327C147.487 381.327 147.993 380.843 147.993 380.117C147.993 379.611 147.729 379.259 147.201 379.061C147.619 378.643 148.257 378.445 149.115 378.445C150.765 378.445 151.601 379.325 151.601 381.085V382.251H150.721C146.871 382.251 144.935 383.461 144.935 385.859C144.935 387.729 146.211 388.873 148.323 388.873C149.951 388.873 151.117 388.169 151.799 386.761C151.975 388.169 152.767 388.873 154.175 388.873ZM149.357 387.311C148.235 387.311 147.597 386.607 147.597 385.441C147.597 384.011 148.719 383.197 150.765 383.197H151.601V385.067C151.601 385.617 151.381 386.145 150.941 386.607C150.501 387.069 149.973 387.311 149.357 387.311ZM161.486 387.443V378.775H165.842V387.443H164.742V388.653H169.868V387.443H168.416V378.775H169.868V377.565H157.438V378.775H158.912V387.443H157.438V388.653H162.586V387.443H161.486ZM178.77 378.775V387.443H177.318V388.653H182.796V387.443H181.344V378.775H182.796V377.565H172.764V378.775H174.348C174.348 382.757 174.04 385.375 173.424 386.629C173.182 386.277 172.852 386.101 172.39 386.101C171.532 386.101 170.96 386.673 170.96 387.487C170.96 388.257 171.532 388.873 172.522 388.873C173.182 388.873 173.732 388.609 174.15 388.059C174.59 387.509 174.942 386.475 175.228 384.957C175.514 383.417 175.646 381.349 175.646 378.775H178.77ZM190.142 382.735C188.8 382.735 187.964 382.009 187.964 380.799C187.964 379.413 188.778 378.665 190.164 378.665H192.078V382.735H190.142ZM188.822 386.145C189.152 385.221 189.46 384.605 189.702 384.297C189.944 383.967 190.362 383.813 190.956 383.813H192.078V387.443H190.67V388.653H196.126V387.443H194.652V378.775H196.126V377.565H190.186C186.952 377.565 185.324 378.665 185.324 380.535C185.324 382.295 186.732 383.285 188.954 383.439C188.052 383.725 187.436 384.033 187.106 384.363C186.798 384.693 186.512 385.243 186.248 386.035C185.896 387.091 185.764 387.399 185.434 387.399C185.038 387.399 184.752 387.157 184.752 385.375H183.564C183.564 387.817 184.4 388.873 186.072 388.873C187.458 388.873 188.096 388.147 188.69 386.497L188.822 386.145Z" fill="#4301FF"/>
<path d="M465.763 388.653V387.443H464.091V374.683H465.763V373.473H460.087V374.683H461.407V387.443H456.655V374.683H457.887V373.473H452.739V374.683H453.971V387.443H449.219V374.683H450.539V373.473H444.863V374.683H446.535V387.443H444.863V388.653H465.763ZM475.67 387.443H473.998V378.731H475.01C476.528 378.731 477.078 379.457 477.078 381.151V381.943H478.31V377.565H467.09V381.943H468.322V381.151C468.322 379.457 468.872 378.731 470.39 378.731H471.424V387.443H469.73V388.653H475.67V387.443ZM488.941 383.087C488.941 385.925 487.973 387.619 486.323 387.619C484.673 387.619 483.661 386.123 483.661 383.549V383.021C483.661 380.271 484.695 378.577 486.367 378.577C487.973 378.577 488.963 380.271 488.941 383.087ZM481.087 392.943H479.635V394.153H485.377V392.943H483.661V387.333C484.167 388.191 485.289 388.873 486.807 388.873C488.127 388.873 489.249 388.345 490.195 387.267C491.141 386.189 491.625 384.781 491.625 383.043C491.625 381.327 491.163 379.941 490.261 378.907C489.359 377.851 488.281 377.323 486.983 377.323C485.047 377.323 483.793 378.445 483.199 380.051V377.543L482.825 377.323C482.583 377.433 482.297 377.499 481.945 377.521C481.615 377.543 480.845 377.565 479.635 377.565V378.775H481.087V392.943ZM497.394 387.443V386.563L502.454 381.173V387.443H501.222V388.653H506.48V387.443H505.028V378.775H506.48V377.565H501.222V378.775H502.454V379.655L497.394 385.045V378.775H498.626V377.565H493.346V378.775H494.82V387.443H493.346V388.653H498.626V387.443H497.394ZM511.669 387.443H510.437L512.967 384.297L515.409 387.443H514.265V388.653H519.259V387.443H518.269L514.661 382.757L517.873 378.753H518.885V377.565H515.189V378.753H516.377L513.935 381.811L511.559 378.753H512.703V377.565H507.753V378.753H508.699L512.241 383.329L508.919 387.443H507.753V388.653H511.669V387.443Z" fill="#4301FF"/>
<path d="M750.243 387.852C753.433 387.852 755.457 386.334 755.457 383.694C755.457 381.516 754.137 380.218 751.497 379.8C753.719 379.338 754.885 377.93 754.885 375.972C754.885 373.618 753.103 372.232 750.287 372.232C748.659 372.232 747.471 372.606 746.745 373.332L745.843 372.232H744.853V377.358H746.305C746.305 374.806 747.515 373.574 749.539 373.574C751.189 373.574 752.091 374.586 752.091 376.236C752.091 378.084 751.189 379.25 749.671 379.25C749.627 379.25 748.967 379.228 747.713 379.162V380.592C748.703 380.526 749.363 380.504 749.671 380.504C751.585 380.504 752.663 381.538 752.663 383.496C752.663 385.41 751.629 386.51 749.627 386.51C747.449 386.51 746.085 385.124 746.085 382.902H744.611V387.852H745.601L746.481 386.752C747.471 387.478 748.725 387.852 750.243 387.852ZM766.542 387.852C768.236 387.852 769.028 386.796 769.028 384.53H768.082C768.082 385.718 767.818 386.312 767.29 386.312C766.784 386.312 766.542 385.938 766.542 385.168V380.394C766.542 377.666 765.112 376.302 762.23 376.302C760.932 376.302 759.854 376.566 758.996 377.094C758.16 377.622 757.742 378.282 757.742 379.074C757.742 379.8 758.27 380.306 759.062 380.306C759.854 380.306 760.36 379.822 760.36 379.096C760.36 378.59 760.096 378.238 759.568 378.04C759.986 377.622 760.624 377.424 761.482 377.424C763.132 377.424 763.968 378.304 763.968 380.064V381.23H763.088C759.238 381.23 757.302 382.44 757.302 384.838C757.302 386.708 758.578 387.852 760.69 387.852C762.318 387.852 763.484 387.148 764.166 385.74C764.342 387.148 765.134 387.852 766.542 387.852ZM761.724 386.29C760.602 386.29 759.964 385.586 759.964 384.42C759.964 382.99 761.086 382.176 763.132 382.176H763.968V384.046C763.968 384.596 763.748 385.124 763.308 385.586C762.868 386.048 762.34 386.29 761.724 386.29ZM778.429 384.09C777.923 385.784 776.977 386.642 775.547 386.642C773.721 386.642 772.555 385.102 772.555 382.11C772.555 379.14 773.765 377.512 775.635 377.512C776.405 377.512 776.977 377.71 777.351 378.128C776.823 378.282 776.449 378.788 776.449 379.316C776.449 380.108 777.043 380.592 777.769 380.592C778.627 380.592 779.133 380.02 779.133 379.118C779.133 378.37 778.781 377.71 778.055 377.16C777.329 376.588 776.405 376.302 775.239 376.302C773.765 376.302 772.489 376.808 771.433 377.842C770.399 378.854 769.871 380.284 769.871 382.11C769.871 383.914 770.377 385.322 771.367 386.334C772.379 387.346 773.633 387.852 775.107 387.852C777.241 387.852 778.869 386.708 779.397 384.398L778.429 384.09ZM786.414 387.852C788.812 387.852 790.418 386.62 790.924 384.574L789.956 384.244C789.45 385.828 788.394 386.62 786.788 386.62C784.676 386.62 783.598 385.146 783.598 382.528V382.198H791.078V381.384C791.078 379.91 790.66 378.678 789.824 377.732C789.01 376.786 787.8 376.302 786.194 376.302C784.72 376.302 783.466 376.83 782.454 377.864C781.442 378.898 780.936 380.284 780.936 382.022C780.936 383.87 781.442 385.3 782.476 386.334C783.51 387.346 784.83 387.852 786.414 387.852ZM786.172 377.402C787.668 377.402 788.416 378.678 788.416 381.252H783.598C783.686 378.788 784.588 377.402 786.172 377.402ZM804.547 386.422H803.073V377.754H804.547V376.544H799.223V377.754H800.499V381.648C799.993 381.978 799.267 382.154 798.321 382.154C796.759 382.154 796.055 381.56 796.055 379.998V377.754H797.353V376.544H792.095V377.754H793.481V379.712C793.481 382.11 794.845 383.298 797.595 383.298C798.717 383.298 799.685 383.122 800.499 382.77V386.422H798.827V387.632H804.547V386.422ZM816.496 387.852C818.146 387.852 818.762 386.664 818.762 384.354H817.75C817.75 385.784 817.552 386.51 817.156 386.51C816.87 386.51 816.672 386.4 816.518 386.202C816.364 385.982 816.144 385.454 815.858 384.64C815.55 383.76 815.198 383.144 814.824 382.814C814.45 382.462 813.68 382.154 812.514 381.868C813.57 381.758 814.12 380.878 814.626 379.382C814.89 378.634 815.088 378.15 815.198 377.93C815.132 378.744 815.66 379.338 816.562 379.338C817.354 379.338 817.86 378.722 817.86 377.82C817.86 376.94 817.222 376.302 816.144 376.302C812.932 376.302 814.01 381.428 811.15 381.428H810.226V377.754H811.546V376.544H806.178V377.754H807.652V386.422H806.178V387.632H811.546V386.422H810.226V382.484H811.106C811.942 382.484 812.338 382.792 812.668 383.342C812.778 383.496 812.954 383.958 813.02 384.134C813.108 384.31 813.328 384.948 813.416 385.19C813.79 386.158 814.186 386.84 814.604 387.258C815.022 387.654 815.66 387.852 816.496 387.852ZM829.363 387.852C831.057 387.852 831.849 386.796 831.849 384.53H830.903C830.903 385.718 830.639 386.312 830.111 386.312C829.605 386.312 829.363 385.938 829.363 385.168V380.394C829.363 377.666 827.933 376.302 825.051 376.302C823.753 376.302 822.675 376.566 821.817 377.094C820.981 377.622 820.563 378.282 820.563 379.074C820.563 379.8 821.091 380.306 821.883 380.306C822.675 380.306 823.181 379.822 823.181 379.096C823.181 378.59 822.917 378.238 822.389 378.04C822.807 377.622 823.445 377.424 824.303 377.424C825.953 377.424 826.789 378.304 826.789 380.064V381.23H825.909C822.059 381.23 820.123 382.44 820.123 384.838C820.123 386.708 821.399 387.852 823.511 387.852C825.139 387.852 826.305 387.148 826.987 385.74C827.163 387.148 827.955 387.852 829.363 387.852ZM824.545 386.29C823.423 386.29 822.785 385.586 822.785 384.42C822.785 382.99 823.907 382.176 825.953 382.176H826.789V384.046C826.789 384.596 826.569 385.124 826.129 385.586C825.689 386.048 825.161 386.29 824.545 386.29Z" fill="#4301FF"/>
<path d="M3.15063 3H952.151V427H3.15063V3Z" stroke="#4301FF" stroke-width="6"/>
<path d="M3.15063 3H952.151V427H3.15063V3Z" stroke="#4301FF" stroke-width="6"/>
<ellipse cx="480.15" cy="215.51" rx="135" ry="137.886" stroke="#4301FF" stroke-width="6"/>
<ellipse cx="480.15" cy="215.51" rx="105" ry="107.245" stroke="#4301FF" stroke-width="6"/>
<ellipse cx="600.15" cy="212.447" rx="5" ry="5.10689" fill="#4301FF"/>
<ellipse cx="360.15" cy="212.447" rx="5" ry="5.10689" fill="#4301FF"/>
<ellipse cx="480.15" cy="338.076" rx="5.10689" ry="5" transform="rotate(90 480.15 338.076)" fill="#4301FF"/>
<ellipse cx="480.15" cy="92.9458" rx="5.10689" ry="5" transform="rotate(90 480.15 92.9458)" fill="#4301FF"/>
<circle r="5.05373" transform="matrix(-0.699589 0.714545 -0.699589 -0.714545 395.298 302.178)" fill="#4301FF"/>
<circle r="5.05373" transform="matrix(-0.699589 0.714545 -0.699589 -0.714545 565.003 128.844)" fill="#4301FF"/>
<circle r="5.05373" transform="matrix(-0.699589 -0.714545 0.69959 -0.714545 395.297 128.844)" fill="#4301FF"/>
<circle r="5.05373" transform="matrix(-0.699589 -0.714545 0.69959 -0.714545 565.003 302.178)" fill="#4301FF"/>
<ellipse cx="785.15" cy="215.51" rx="135" ry="137.886" stroke="#4301FF" stroke-width="6"/>
<ellipse cx="785.15" cy="215.51" rx="105" ry="107.245" stroke="#4301FF" stroke-width="6"/>
<ellipse cx="905.15" cy="212.447" rx="5" ry="5.10689" fill="#4301FF"/>
<ellipse cx="665.15" cy="212.447" rx="5" ry="5.10689" fill="#4301FF"/>
<ellipse cx="785.15" cy="338.076" rx="5.10689" ry="5" transform="rotate(90 785.15 338.076)" fill="#4301FF"/>
<ellipse cx="785.15" cy="92.9458" rx="5.10689" ry="5" transform="rotate(90 785.15 92.9458)" fill="#4301FF"/>
<circle r="5.05373" transform="matrix(-0.699589 0.714545 -0.699589 -0.714545 700.298 302.178)" fill="#4301FF"/>
<circle r="5.05373" transform="matrix(-0.699589 0.714545 -0.699589 -0.714545 870.003 128.844)" fill="#4301FF"/>
<circle r="5.05373" transform="matrix(-0.699589 -0.714545 0.69959 -0.714545 700.297 128.844)" fill="#4301FF"/>
<circle r="5.05373" transform="matrix(-0.699589 -0.714545 0.69959 -0.714545 870.003 302.178)" fill="#4301FF"/>
<ellipse cx="175.15" cy="215.51" rx="135" ry="137.886" stroke="#4301FF" stroke-width="6"/>
<ellipse cx="295.15" cy="212.447" rx="5" ry="5.10689" fill="#4301FF"/>
<ellipse cx="55.1504" cy="212.447" rx="5" ry="5.10689" fill="#4301FF"/>
<ellipse cx="175.15" cy="338.076" rx="5.10689" ry="5" transform="rotate(90 175.15 338.076)" fill="#4301FF"/>
<ellipse cx="175.15" cy="92.9458" rx="5.10689" ry="5" transform="rotate(90 175.15 92.9458)" fill="#4301FF"/>
<circle r="5.05373" transform="matrix(-0.699589 0.714545 -0.699589 -0.714545 90.2976 302.178)" fill="#4301FF"/>
<circle r="5.05373" transform="matrix(-0.699589 0.714545 -0.699589 -0.714545 260.003 128.844)" fill="#4301FF"/>
<circle r="5.05373" transform="matrix(-0.699589 -0.714545 0.69959 -0.714545 90.2974 128.844)" fill="#4301FF"/>
<circle r="5.05373" transform="matrix(-0.699589 -0.714545 0.69959 -0.714545 260.003 302.178)" fill="#4301FF"/>
<mask id="mask0_307_318" style="mask-type:alpha" maskUnits="userSpaceOnUse" x="67" y="105" width="217" height="221">
<ellipse cx="175.15" cy="215.51" rx="105" ry="107.245" fill="white" stroke="#4301FF" stroke-width="6"/>
</mask>
<g mask="url(#mask0_307_318)">
<path d="M190.283 535.202C241.157 535.202 260.15 497.697 260.15 424.77H228.948C228.948 469.915 222.843 492.835 210.633 492.835C201.815 492.835 195.71 489.362 190.962 483.111C186.213 476.166 179.43 459.497 170.612 433.799C161.115 406.018 150.262 386.571 138.731 376.153C127.199 365.04 103.458 355.317 67.5071 346.288C100.066 342.815 117.025 315.033 132.626 267.805C140.766 244.191 146.871 228.911 150.262 221.966C148.227 247.663 164.507 266.416 192.318 266.416C216.738 266.416 232.339 246.969 232.339 218.493C232.339 190.711 212.668 170.57 179.43 170.57C80.3952 170.57 113.633 332.397 25.4511 332.397H-3.03841V216.409H37.6609V178.21H-127.85V216.409H-82.4021V490.057H-127.85V528.256H37.6609V490.057H-3.03841V365.735H24.0945C49.8707 365.735 62.0805 375.458 72.2553 392.822C75.6469 397.683 81.0735 412.269 83.1084 417.825C85.8217 423.381 92.605 443.523 95.3182 451.163C106.85 481.722 119.059 503.253 131.948 516.449C144.836 528.951 164.507 535.202 190.283 535.202Z" fill="#4301FF"/>
<ellipse cx="175.15" cy="217.553" rx="105" ry="107.245" stroke="#4301FF" stroke-width="6"/>
</g>
<mask id="mask1_307_318" style="mask-type:alpha" maskUnits="userSpaceOnUse" x="372" y="105" width="217" height="221">
<ellipse cx="480.15" cy="215.51" rx="105" ry="107.245" fill="white" stroke="#4301FF" stroke-width="6"/>
</mask>
<g mask="url(#mask1_307_318)">
<ellipse cx="480.15" cy="217.553" rx="105" ry="107.245" stroke="#4301FF" stroke-width="6"/>
<path d="M476.876 295.178C519.215 295.178 536.15 264.347 536.15 205.389H508.63C508.63 243.793 502.809 262.724 490.637 262.724C476.347 262.724 471.055 253.529 461 214.043C455.707 192.407 451.473 176.721 448.298 166.985C445.123 156.708 439.83 146.972 432.95 136.695C418.661 115.6 401.197 107.486 365.738 95.0457C391.141 86.3913 407.547 55.0192 422.895 7.961C430.833 -15.8385 436.126 -30.9837 439.301 -38.0154C443.006 -22.8702 457.295 -13.134 473.701 -13.134C494.87 -13.134 508.63 -27.7383 508.63 -49.3742C508.63 -73.1738 493.283 -88.8599 465.763 -88.8599C419.19 -88.8599 403.313 -26.1156 385.849 23.1062C374.735 57.1828 354.624 84.2277 324.987 84.2277H296.938V-53.7014H336.63V-83.4509H192.15V-53.7014H232.372V260.02H192.15V289.769H336.63V260.02H296.938V113.977H324.987C345.098 113.977 359.387 119.927 367.855 132.368C376.852 144.808 385.849 170.231 395.904 209.175C409.135 267.592 430.304 295.178 476.876 295.178Z" fill="#4301FF"/>
</g>
<mask id="mask2_307_318" style="mask-type:alpha" maskUnits="userSpaceOnUse" x="677" y="104" width="217" height="221">
<ellipse cx="785.15" cy="214.489" rx="105" ry="107.245" fill="white" stroke="#4301FF" stroke-width="6"/>
</mask>
<g mask="url(#mask2_307_318)">
<ellipse cx="785.15" cy="216.532" rx="105" ry="107.245" stroke="#4301FF" stroke-width="6"/>
<path d="M954.249 493.325C988.464 493.325 1002.15 468.398 1002.15 420.73H979.91C979.91 451.78 975.206 467.086 965.369 467.086C953.821 467.086 949.544 459.652 941.418 427.727C937.141 410.234 933.72 397.552 931.153 389.68C928.587 381.371 924.31 373.499 918.75 365.19C907.203 348.134 893.089 341.575 864.433 331.516C884.963 324.519 898.221 299.154 910.624 261.107C917.04 241.865 921.317 229.62 923.883 223.935C926.877 236.18 938.424 244.052 951.683 244.052C968.79 244.052 979.91 232.244 979.91 214.751C979.91 195.509 967.507 182.827 945.267 182.827C907.63 182.827 894.8 233.556 880.686 273.352C871.704 300.904 855.452 322.77 831.501 322.77H808.833V211.253H840.91V187.2H724.15V211.253H756.655V464.9H724.15V488.952H840.91V464.9H808.833V346.823H831.501C847.753 346.823 859.301 351.633 866.144 361.691C873.415 371.75 880.686 392.304 888.812 423.791C899.504 471.022 916.612 493.325 954.249 493.325Z" fill="#4301FF"/>
</g>
<rect x="3.15063" y="3" width="949" height="47.1116" stroke="#4301FF" stroke-width="6"/>
<ellipse cx="35.1506" cy="26.5556" rx="5" ry="5.10689" fill="#4301FF"/>
<ellipse cx="90.1504" cy="26.5556" rx="5" ry="5.10689" fill="#4301FF"/>
<ellipse cx="145.15" cy="26.5556" rx="5" ry="5.10689" fill="#4301FF"/>
<ellipse cx="200.15" cy="26.5556" rx="5" ry="5.10689" fill="#4301FF"/>
<ellipse cx="255.15" cy="26.5556" rx="5" ry="5.10689" fill="#4301FF"/>
<ellipse cx="310.15" cy="26.5556" rx="5" ry="5.10689" fill="#4301FF"/>
<ellipse cx="365.15" cy="26.5556" rx="5" ry="5.10689" fill="#4301FF"/>
<ellipse cx="420.15" cy="26.5556" rx="5" ry="5.10689" fill="#4301FF"/>
<ellipse cx="475.15" cy="26.5556" rx="5" ry="5.10689" fill="#4301FF"/>
<ellipse cx="530.15" cy="26.5556" rx="5" ry="5.10689" fill="#4301FF"/>
<ellipse cx="585.15" cy="26.5556" rx="5" ry="5.10689" fill="#4301FF"/>
<ellipse cx="640.15" cy="26.5556" rx="5" ry="5.10689" fill="#4301FF"/>
<ellipse cx="695.15" cy="26.5556" rx="5" ry="5.10689" fill="#4301FF"/>
<ellipse cx="750.15" cy="26.5556" rx="5" ry="5.10689" fill="#4301FF"/>
<ellipse cx="805.15" cy="26.5556" rx="5" ry="5.10689" fill="#4301FF"/>
<ellipse cx="860.15" cy="26.5556" rx="5" ry="5.10689" fill="#4301FF"/>
<ellipse cx="915.15" cy="26.5556" rx="5" ry="5.10689" fill="#4301FF"/>
<path d="M883.15 409.573H935.15V356.461L883.15 409.573Z" stroke="#4301FF" stroke-width="6"/>
<path d="M72.1506 409.573H20.1506V356.461L72.1506 409.573Z" stroke="#4301FF" stroke-width="6"/>
</svg>
