<svg width="197" height="197" viewBox="0 0 197 197" fill="none" xmlns="http://www.w3.org/2000/svg">
<path fill-rule="evenodd" clip-rule="evenodd" d="M99 25C112.807 25 124 13.8071 124 0H197V74C183.193 74 172 85.1929 172 99C172 112.807 183.193 124 197 124V197H124C124 183.193 112.807 172 99 172C85.1929 172 74 183.193 74 197H0V124C13.8071 124 25 112.807 25 99C25 85.1929 13.8071 74 0 74V0H74C74 13.8071 85.1929 25 99 25Z" fill="#4301FF"/>
<path d="M116.68 122.72C108.16 122.72 103.12 114.08 103.12 99.8V97.88C103.12 82.52 108.28 72.68 116.92 72.68C125.56 72.68 130.36 82.16 130.24 97.64C130.12 113.48 125.32 122.72 116.68 122.72ZM76.12 122.72C67.48 122.72 62.68 113.48 62.56 97.64C62.44 82.16 67.36 72.68 75.88 72.68C84.52 72.68 89.68 82.52 89.68 97.88V99.8C89.68 114.08 84.64 122.72 76.12 122.72ZM103.12 119.84C106 126.08 112 129.2 118.72 129.2C126.04 129.2 132.16 126.32 137.2 120.56C142.36 114.8 144.88 107.12 144.88 97.4C144.88 87.8 142.48 80.24 137.68 74.6C132.88 68.96 127.12 66.2 120.28 66.2C111.76 66.2 105.4 70.76 103.12 77.12C103.24 62.36 105.64 49.4 110.44 38L107.2 36.8L96.76 54.8L85.24 36.8L82.24 38C87.04 48.32 89.44 61.4 89.56 77.12C87.28 70.76 81.16 66.2 72.64 66.2C65.8 66.2 60.04 68.96 55.12 74.6C50.32 80.24 47.92 87.8 47.92 97.4C47.92 107.12 50.44 114.8 55.48 120.56C60.64 126.32 66.76 129.2 74.08 129.2C81.4 129.2 86.68 126.08 89.68 119.84C89.44 134.84 86.92 147.56 82.24 158L85.24 159.2L96.16 141.32L107.2 159.2L110.44 158C105.76 148.28 103.36 135.56 103.12 119.84Z" fill="white"/>
</svg>
