<svg width="631" height="241" viewBox="0 0 631 241" fill="none" xmlns="http://www.w3.org/2000/svg">
<path d="M3.76562 212.95V28.0498C16.8742 26.648 27.2644 16.1643 28.6486 3H602.883C604.267 16.1643 614.657 26.648 627.766 28.0498V212.95C614.657 214.352 604.267 224.836 602.883 238H28.6486C27.2644 224.836 16.8742 214.352 3.76562 212.95Z" stroke="#4301FF" stroke-width="6"/>
<path d="M23.1553 197.816V43.4307C35.5022 42.767 45.6375 33.9663 46.4668 22.6633H584.74C585.57 33.9663 595.705 42.767 608.052 43.4307V197.816C595.705 198.48 585.57 207.281 584.74 218.583H46.4668C45.6375 207.281 35.5022 198.48 23.1553 197.816Z" stroke="#4301FF" stroke-width="3"/>
</svg>
