<svg width="630" height="193" viewBox="0 0 630 193" fill="none" xmlns="http://www.w3.org/2000/svg">
<mask id="path-1-inside-1_307_302" fill="white">
<path fill-rule="evenodd" clip-rule="evenodd" d="M605 0H25C24.9999 13.5267 13.8071 24.4923 0 24.4923V168.508C13.8071 168.508 25 179.473 25 193H605C605 179.473 616.193 168.508 630 168.508V24.4923C616.193 24.4923 605 13.5267 605 0Z"/>
</mask>
<path d="M25 0V-6H19L19 -2.3689e-05L25 0ZM605 0H611V-6H605V0ZM0 24.4923V18.4923H-6V24.4923H0ZM0 168.508H-6V174.508H0V168.508ZM25 193H19V199H25V193ZM605 193V199H611V193H605ZM630 168.508V174.508H636V168.508H630ZM630 24.4923H636V18.4923H630V24.4923ZM25 6H605V-6H25V6ZM0 30.4923C17.0042 30.4923 30.9999 16.9559 31 2.3689e-05L19 -2.3689e-05C19 10.0976 10.61 18.4923 0 18.4923V30.4923ZM6 168.508V24.4923H-6V168.508H6ZM0 174.508C10.61 174.508 19 182.903 19 193H31C31 176.044 17.0042 162.508 0 162.508V174.508ZM605 187H25V199H605V187ZM630 162.508C612.996 162.508 599 176.044 599 193H611C611 182.903 619.39 174.508 630 174.508V162.508ZM624 24.4923V168.508H636V24.4923H624ZM599 0C599 16.9559 612.996 30.4923 630 30.4923V18.4923C619.39 18.4923 611 10.0976 611 0H599Z" fill="#4301FF" mask="url(#path-1-inside-1_307_302)"/>
<path d="M25 0V-6H19L19 -2.3689e-05L25 0ZM605 0H611V-6H605V0ZM0 24.4923V18.4923H-6V24.4923H0ZM0 168.508H-6V174.508H0V168.508ZM25 193H19V199H25V193ZM605 193V199H611V193H605ZM630 168.508V174.508H636V168.508H630ZM630 24.4923H636V18.4923H630V24.4923ZM25 6H605V-6H25V6ZM0 30.4923C17.0042 30.4923 30.9999 16.9559 31 2.3689e-05L19 -2.3689e-05C19 10.0976 10.61 18.4923 0 18.4923V30.4923ZM6 168.508V24.4923H-6V168.508H6ZM0 174.508C10.61 174.508 19 182.903 19 193H31C31 176.044 17.0042 162.508 0 162.508V174.508ZM605 187H25V199H605V187ZM630 162.508C612.996 162.508 599 176.044 599 193H611C611 182.903 619.39 174.508 630 174.508V162.508ZM624 24.4923V168.508H636V24.4923H624ZM599 0C599 16.9559 612.996 30.4923 630 30.4923V18.4923C619.39 18.4923 611 10.0976 611 0H599Z" fill="#4301FF" mask="url(#path-1-inside-1_307_302)"/>
<path d="M25 0V-6H19L19 -2.3689e-05L25 0ZM605 0H611V-6H605V0ZM0 24.4923V18.4923H-6V24.4923H0ZM0 168.508H-6V174.508H0V168.508ZM25 193H19V199H25V193ZM605 193V199H611V193H605ZM630 168.508V174.508H636V168.508H630ZM630 24.4923H636V18.4923H630V24.4923ZM25 6H605V-6H25V6ZM0 30.4923C17.0042 30.4923 30.9999 16.9559 31 2.3689e-05L19 -2.3689e-05C19 10.0976 10.61 18.4923 0 18.4923V30.4923ZM6 168.508V24.4923H-6V168.508H6ZM0 174.508C10.61 174.508 19 182.903 19 193H31C31 176.044 17.0042 162.508 0 162.508V174.508ZM605 187H25V199H605V187ZM630 162.508C612.996 162.508 599 176.044 599 193H611C611 182.903 619.39 174.508 630 174.508V162.508ZM624 24.4923V168.508H636V24.4923H624ZM599 0C599 16.9559 612.996 30.4923 630 30.4923V18.4923C619.39 18.4923 611 10.0976 611 0H599Z" fill="#4301FF" mask="url(#path-1-inside-1_307_302)"/>
<path d="M25 0V-6H19L19 -2.3689e-05L25 0ZM605 0H611V-6H605V0ZM0 24.4923V18.4923H-6V24.4923H0ZM0 168.508H-6V174.508H0V168.508ZM25 193H19V199H25V193ZM605 193V199H611V193H605ZM630 168.508V174.508H636V168.508H630ZM630 24.4923H636V18.4923H630V24.4923ZM25 6H605V-6H25V6ZM0 30.4923C17.0042 30.4923 30.9999 16.9559 31 2.3689e-05L19 -2.3689e-05C19 10.0976 10.61 18.4923 0 18.4923V30.4923ZM6 168.508V24.4923H-6V168.508H6ZM0 174.508C10.61 174.508 19 182.903 19 193H31C31 176.044 17.0042 162.508 0 162.508V174.508ZM605 187H25V199H605V187ZM630 162.508C612.996 162.508 599 176.044 599 193H611C611 182.903 619.39 174.508 630 174.508V162.508ZM624 24.4923V168.508H636V24.4923H624ZM599 0C599 16.9559 612.996 30.4923 630 30.4923V18.4923C619.39 18.4923 611 10.0976 611 0H599Z" fill="#4301FF" mask="url(#path-1-inside-1_307_302)"/>
<path d="M25 0V-6H19L19 -2.3689e-05L25 0ZM605 0H611V-6H605V0ZM0 24.4923V18.4923H-6V24.4923H0ZM0 168.508H-6V174.508H0V168.508ZM25 193H19V199H25V193ZM605 193V199H611V193H605ZM630 168.508V174.508H636V168.508H630ZM630 24.4923H636V18.4923H630V24.4923ZM25 6H605V-6H25V6ZM0 30.4923C17.0042 30.4923 30.9999 16.9559 31 2.3689e-05L19 -2.3689e-05C19 10.0976 10.61 18.4923 0 18.4923V30.4923ZM6 168.508V24.4923H-6V168.508H6ZM0 174.508C10.61 174.508 19 182.903 19 193H31C31 176.044 17.0042 162.508 0 162.508V174.508ZM605 187H25V199H605V187ZM630 162.508C612.996 162.508 599 176.044 599 193H611C611 182.903 619.39 174.508 630 174.508V162.508ZM624 24.4923V168.508H636V24.4923H624ZM599 0C599 16.9559 612.996 30.4923 630 30.4923V18.4923C619.39 18.4923 611 10.0976 611 0H599Z" fill="#4301FF" mask="url(#path-1-inside-1_307_302)"/>
<path d="M69.2405 113.746C61.2263 113.746 55.3747 107.64 55.3747 96.3185C55.3747 84.9969 61.2263 78.8908 69.2405 78.8908C77.2548 78.8908 83.1064 84.9969 83.1064 96.3185C83.1064 107.64 77.0003 113.746 69.2405 113.746ZM100.407 148.856C100.407 136.262 91.375 131.047 68.9861 131.047C56.3924 131.047 53.2121 128.884 53.2121 124.813C53.2121 120.234 57.5373 118.707 69.2405 118.707C76.7459 118.707 82.852 116.672 87.686 112.474C92.5199 108.276 94.9369 102.933 94.9369 96.3185C94.9369 89.322 92.1383 83.7248 86.4139 79.5268L100.661 79.7813V75.0745H79.9262C76.4915 74.184 72.9296 73.8024 69.2405 73.8024C62.3712 73.8024 56.3924 75.8378 51.1768 79.7813C46.0884 83.7248 43.5442 89.322 43.5442 96.3185C43.5442 104.969 47.6149 111.329 55.8835 115.4C49.3958 116.799 45.0707 120.997 45.0707 127.485C45.0707 133.591 48.251 136.39 55.2475 138.298C45.5796 140.969 41 147.202 41 154.326C41 166.029 52.5761 171.754 69.495 171.754C90.4846 171.754 100.407 163.231 100.407 148.856ZM93.4104 151.146C93.4104 160.432 86.2866 165.139 72.1664 165.139C58.0461 165.139 50.9224 160.941 50.9224 152.418C50.9224 146.439 54.9931 142.241 63.2617 139.57H66.6964C86.5411 139.57 93.4104 143.386 93.4104 151.146Z" fill="#4301FF"/>
<path d="M139.155 139.951C151.749 139.951 160.781 133.082 163.452 121.379L158.873 119.852C155.82 129.393 149.586 134.227 140.046 134.227C127.325 134.227 120.837 124.813 120.837 108.912V106.877H164.343V102.297C164.343 94.0288 162.053 87.1594 157.601 81.8166C153.148 76.4738 146.533 73.8024 137.756 73.8024C129.614 73.8024 122.745 76.7282 117.148 82.5799C111.551 88.4315 108.752 96.4457 108.752 106.495C108.752 117.054 111.678 125.322 117.402 131.174C123.127 137.026 130.378 139.951 139.155 139.951ZM120.837 102.043C121.473 87.4139 127.579 78.8908 137.756 78.8908C147.933 78.8908 152.385 88.3043 152.258 102.043H120.837Z" fill="#4301FF"/>
<path d="M200.014 139.951C211.717 139.951 216.17 131.81 216.17 117.054H210.445C210.445 128.375 207.774 133.973 202.304 133.973C196.325 133.973 193.781 129.139 193.781 118.58V80.7989H215.279V75.0745H193.399V52.1768H187.039C187.039 60.0638 185.894 66.0426 183.731 70.2405C181.569 74.3113 177.371 76.3466 170.883 76.3466V80.7989H182.332V120.361C182.332 127.867 183.986 132.955 187.166 135.754C190.473 138.552 194.798 139.951 200.014 139.951Z" fill="#4301FF"/>
<path d="M274.929 132.955V103.697C274.929 89.322 279.127 78.8908 289.176 78.8908C291.975 78.8908 294.137 79.6541 295.537 81.0534C287.522 80.6717 287.268 94.4104 296.3 93.7743C300.752 93.7743 303.169 90.5941 303.169 85.8873C303.169 78.382 297.826 73.8024 289.558 73.8024C280.78 73.8024 275.056 79.3996 272.13 90.4669V75.0745L269.967 73.8024C268.059 74.6929 262.971 75.0745 254.575 75.0745V80.7989H263.48V132.955H254.575V138.679H283.833V132.955H274.929Z" fill="#4301FF"/>
<path d="M340.156 139.951C352.75 139.951 361.782 133.082 364.453 121.379L359.874 119.852C356.821 129.393 350.588 134.227 341.047 134.227C328.326 134.227 321.838 124.813 321.838 108.912V106.877H365.344V102.297C365.344 94.0288 363.054 87.1594 358.602 81.8166C354.149 76.4738 347.535 73.8024 338.757 73.8024C330.616 73.8024 323.746 76.7282 318.149 82.5799C312.552 88.4315 309.753 96.4457 309.753 106.495C309.753 117.054 312.679 125.322 318.404 131.174C324.128 137.026 331.379 139.951 340.156 139.951ZM321.838 102.043C322.474 87.4139 328.58 78.8908 338.757 78.8908C348.934 78.8908 353.386 88.3043 353.259 102.043H321.838Z" fill="#4301FF"/>
<path d="M426.712 139.951C435.489 139.951 439.687 134.354 439.687 121.633H435.235C435.235 128.63 433.581 132.192 430.274 132.192C427.093 132.192 425.44 130.029 425.44 125.704V96.3185C425.44 81.435 418.316 73.8024 402.542 73.8024C395.545 73.8024 389.821 75.3289 385.241 78.2548C380.662 81.1806 378.372 84.8697 378.372 89.1948C378.372 93.3927 381.043 95.9369 385.241 95.9369C389.185 95.9369 391.729 93.5199 391.729 89.4492C391.729 87.2866 390.202 84.7424 387.531 83.7248C390.075 80.7989 394.146 79.2724 399.87 79.2724C408.902 79.2724 413.991 84.8697 413.991 95.0464V102.17H408.521C386.641 102.17 376.209 109.676 376.209 122.778C376.209 133.464 383.588 139.951 395.418 139.951C404.45 139.951 411.065 136.135 415.008 128.375C415.644 135.499 419.715 139.951 426.712 139.951ZM399.362 132.7C392.238 132.7 388.167 128.248 388.167 121.124C388.167 112.474 395.418 107.386 408.648 107.386H413.991V119.725C413.991 122.651 412.464 125.577 409.538 128.503C406.613 131.301 403.305 132.7 399.362 132.7Z" fill="#4301FF"/>
<path d="M500.995 42C500.105 42.636 498.451 43.0177 496.288 43.1449C494.126 43.2721 489.546 43.2721 482.423 43.2721V48.9965H491.327V59.1733C491.327 66.0426 491.709 74.8201 492.472 85.5057C489.419 77.8731 482.168 73.8024 474.154 73.8024C466.394 73.8024 459.779 76.8554 454.055 82.9615C448.33 88.9404 445.532 97.0818 445.532 107.131C445.532 116.672 448.33 124.559 454.055 130.792C459.779 136.898 466.521 139.951 474.154 139.951C482.423 139.951 489.928 135.117 493.49 125.322V138.679L495.652 139.951C497.56 138.807 502.903 138.171 511.681 138.171V132.446H502.776V43.2721L500.995 42ZM475.68 79.5268C485.221 79.5268 491.454 88.8132 491.454 104.206V107.386C491.454 123.796 484.967 134.227 475.68 134.227C470.338 134.227 466.012 131.81 462.578 126.976C459.143 122.015 457.489 115.4 457.617 107.131C457.744 90.3397 465.122 79.5268 475.68 79.5268Z" fill="#4301FF"/>
<path d="M530.624 171.754C535.585 171.754 539.529 169.719 542.2 165.648C544.999 161.577 548.815 153.181 553.649 140.587L576.165 80.7989H583.162V75.0745H562.045V80.7989H569.805L553.903 123.16L535.331 80.7989H542.836V75.0745H515.486V80.7989H523.119L548.179 137.916L546.398 142.368C542.327 152.672 539.402 159.16 537.621 161.959C535.84 164.757 533.423 166.157 530.242 166.157C528.334 166.157 526.808 165.648 525.663 164.63C528.716 163.74 530.242 161.323 530.242 157.379C530.242 153.436 527.444 151.146 523.882 151.146C519.43 151.146 516.504 154.581 516.504 159.287C516.504 166.029 522.355 171.754 530.624 171.754Z" fill="#4301FF"/>
<line x1="22" y1="75.5" x2="607.263" y2="75.5" stroke="#4301FF"/>
<line x1="22" y1="140.5" x2="607.263" y2="140.5" stroke="#4301FF"/>
<line x1="22.3687" y1="42.9619" x2="607.631" y2="42.9619" stroke="#4301FF"/>
<path d="M23 45L20.1132 50L25.8868 50L23 45ZM23 74L25.8868 69L20.1132 69L23 74ZM22.5 49.5L22.5 69.5L23.5 69.5L23.5 49.5L22.5 49.5Z" fill="#4301FF"/>
<path d="M607 45L604.113 50L609.887 50L607 45ZM607 74L609.887 69L604.113 69L607 74ZM606.5 49.5L606.5 69.5L607.5 69.5L607.5 49.5L606.5 49.5Z" fill="#4301FF"/>
<path d="M23 78L20.1132 83L25.8868 83L23 78ZM23 139L25.8867 134L20.1132 134L23 139ZM22.5 82.5L22.5 134.5L23.5 134.5L23.5 82.5L22.5 82.5Z" fill="#4301FF"/>
<path d="M607 78L604.113 83L609.887 83L607 78ZM607 139L609.887 134L604.113 134L607 139ZM606.5 82.5L606.5 134.5L607.5 134.5L607.5 82.5L606.5 82.5Z" fill="#4301FF"/>
</svg>
