<svg width="523" height="208" viewBox="0 0 523 208" fill="none" xmlns="http://www.w3.org/2000/svg">
<rect x="0.0751953" width="522" height="208" fill="#4301FF"/>
<rect x="40.0752" y="40" width="442" height="128" fill="white"/>
<circle cx="25.0752" cy="25" r="5" fill="white"/>
<circle cx="25.0752" cy="183" r="5" fill="white"/>
<circle cx="497.075" cy="183" r="5" fill="white"/>
<circle cx="497.075" cy="25" r="5" fill="white"/>
<line x1="0.0751953" y1="43" x2="40.0752" y2="43" stroke="white" stroke-width="6"/>
<line x1="482.075" y1="43" x2="522.075" y2="43" stroke="white" stroke-width="6"/>
<line x1="482.075" y1="165" x2="522.075" y2="165" stroke="white" stroke-width="6"/>
<line x1="0.0751953" y1="165" x2="40.0752" y2="165" stroke="white" stroke-width="6"/>
<line x1="43.0752" y1="168" x2="43.0752" y2="208" stroke="white" stroke-width="6"/>
<line x1="43.0752" x2="43.0752" y2="40" stroke="white" stroke-width="6"/>
<line x1="479.075" y1="168" x2="479.075" y2="208" stroke="white" stroke-width="6"/>
<line x1="479.075" x2="479.075" y2="40" stroke="white" stroke-width="6"/>
<path d="M177 68.343C179.209 63.831 172.159 64.16 173.381 68.343L174.321 71.868H175.214L177 68.343ZM172.112 69.001C170.796 67.027 169.057 67.967 168.399 68.954C167.6 69.988 167.553 71.774 169.903 72.15L173.569 72.761L174.133 71.962L172.112 69.001ZM179.632 72.15C181.935 71.774 182.452 70.176 181.888 68.907C181.371 67.873 179.961 67.121 178.175 69.001L175.402 71.962L175.778 72.761L179.632 72.15ZM173.898 73.748L173.522 72.902L169.668 73.513C167.177 74.03 167.13 75.581 167.506 76.662C167.929 77.837 169.292 78.354 171.031 76.803L173.898 73.748ZM175.731 72.949L175.12 73.795L177.235 76.756C178.645 78.589 180.055 77.743 180.901 76.709C181.324 76.286 181.465 75.675 181.277 74.97C181.136 74.218 180.525 73.748 179.538 73.56L175.731 72.949ZM173.71 80.516C175.073 80.563 176.389 79.435 175.966 77.508L174.979 73.842H174.039L172.253 77.461C171.454 79.67 172.253 80.516 173.71 80.516ZM209.302 98.47L210.853 85.639H214.472L214.754 83.524H202.346L202.064 85.639H206.482L205.401 94.475C204.132 95.556 202.393 96.12 200.137 96.12C194.168 96.12 190.831 92.219 190.831 84.887C190.831 79.858 191.865 75.722 193.933 72.432C196.048 69.095 198.727 67.45 201.97 67.45C206.529 67.45 209.443 70.411 209.443 75.064C209.443 75.346 209.396 75.769 209.349 76.38H211.934L213.344 65.1H211.37L209.067 67.45C207.516 65.899 205.166 65.1 202.017 65.1C198.727 65.1 195.86 66.04 193.369 67.967C190.925 69.847 189.139 72.197 187.964 75.017C186.789 77.837 186.225 80.845 186.225 84.041C186.225 91.89 190.079 98.47 199.103 98.47C202.346 98.47 204.649 97.859 206.059 96.684L207.422 98.47H209.302ZM225.781 85.827C226.11 82.96 226.909 80.563 228.131 78.636C229.4 76.709 230.857 75.722 232.502 75.722C233.207 75.722 233.818 75.91 234.241 76.239C232.69 76.662 231.891 77.555 231.891 79.012C231.891 80.375 232.831 81.268 234.288 81.268C235.98 81.268 236.967 79.952 236.967 78.26C236.967 75.816 235.416 74.03 232.596 74.03C229.729 74.03 227.52 75.769 225.875 79.247L226.486 74.5L225.875 74.03C225.452 74.359 223.149 74.5 218.919 74.5L218.637 76.615H222.585L220 98H224.324L225.781 85.827ZM248.241 98.47C252.8 98.47 255.808 95.603 256.936 91.138L254.868 90.527C253.928 93.676 251.907 95.838 248.946 95.838C245.421 95.838 243.541 92.971 243.541 89.07C243.541 88.365 243.541 87.801 243.588 87.472C247.771 87.472 251.202 86.861 253.881 85.592C256.56 84.323 257.923 82.396 257.923 79.811C257.923 76.286 255.338 74.03 250.826 74.03C243.447 73.983 239.076 81.08 239.264 88.271C239.264 94.334 242.46 98.47 248.241 98.47ZM250.685 76.145C252.612 76.145 253.599 77.226 253.599 79.341C253.599 82.913 250.121 85.498 243.776 85.498C244.34 79.905 246.878 76.145 250.685 76.145ZM268.25 87.754C269.19 80.187 272.151 76.615 275.112 76.615C276.71 76.615 277.509 77.461 277.509 79.106C277.509 82.678 275.065 85.733 270.224 86.344L270.083 87.566L275.629 98H281.551L281.739 95.885H279.436L274.642 86.908C279.201 85.545 281.88 82.772 281.88 79.059C281.88 75.863 279.624 74.03 276.475 74.03C272.574 74.03 270.459 76.051 268.72 79.623L269.049 78.26C269.237 77.367 269.472 76.239 269.707 74.782C269.989 73.325 270.177 72.103 270.318 71.022L271.399 62.75L270.788 62.28C270.365 62.609 267.78 62.75 263.033 62.75L262.751 64.865H266.746L262.657 98H266.981L268.25 87.754ZM297.394 74.03C292.835 74.03 289.31 77.038 287.759 81.174C286.96 83.242 286.584 85.498 286.584 87.942C286.584 90.95 287.336 93.441 288.84 95.462C290.344 97.483 292.459 98.47 295.232 98.47C298.663 98.47 301.295 97.107 303.222 94.381C305.149 91.655 306.089 88.365 306.089 84.558C306.089 81.503 305.337 79.012 303.786 77.038C302.282 75.017 300.167 74.03 297.394 74.03ZM297.253 76.145C300.073 76.145 301.718 79.341 301.718 83.618C301.718 87.237 301.154 90.292 300.073 92.736C298.992 95.133 297.394 96.355 295.373 96.355C292.553 96.355 290.908 93.159 290.908 88.882C290.908 85.263 291.472 82.208 292.553 79.811C293.634 77.367 295.232 76.145 297.253 76.145ZM307.171 110.22C312.576 110.22 315.866 105.755 316.806 98L319.438 76.615H324.561L324.796 74.5H319.673L320.096 71.163C320.754 66.181 322.681 63.69 325.924 63.69C326.582 63.69 327.146 63.784 327.663 63.972C326.723 64.442 326.253 65.241 326.253 66.416C326.253 67.732 327.099 68.672 328.415 68.672C330.248 68.672 331.235 67.309 331.235 65.57C331.235 63.173 328.697 61.81 325.877 61.81C323.621 61.81 321.694 62.562 319.673 64.301C317.746 65.993 316.148 69.377 315.443 73.889L315.349 74.5H311.119L310.837 76.615H315.114L312.106 100.773C311.495 105.708 310.179 108.293 307.124 108.293C306.654 108.293 306.137 108.199 305.62 108.058C306.419 107.447 306.795 106.601 306.795 105.52C306.795 104.204 305.949 103.358 304.633 103.358C302.753 103.358 301.813 104.721 301.813 106.366C301.813 108.81 304.351 110.22 307.171 110.22ZM322.983 110.22C328.388 110.22 331.678 105.755 332.618 98L335.25 76.615H340.373L340.608 74.5H335.485L335.908 71.163C336.566 66.181 338.493 63.69 341.736 63.69C342.394 63.69 342.958 63.784 343.475 63.972C342.535 64.442 342.065 65.241 342.065 66.416C342.065 67.732 342.911 68.672 344.227 68.672C346.06 68.672 347.047 67.309 347.047 65.57C347.047 63.173 344.509 61.81 341.689 61.81C339.433 61.81 337.506 62.562 335.485 64.301C333.558 65.993 331.96 69.377 331.255 73.889L331.161 74.5H326.931L326.649 76.615H330.926L327.918 100.773C327.307 105.708 325.991 108.293 322.936 108.293C322.466 108.293 321.949 108.199 321.432 108.058C322.231 107.447 322.607 106.601 322.607 105.52C322.607 104.204 321.761 103.358 320.445 103.358C318.565 103.358 317.625 104.721 317.625 106.366C317.625 108.81 320.163 110.22 322.983 110.22Z" fill="#4301FF"/>
<path d="M194.523 137.034C192.651 137.034 191.351 135.682 191.351 133.368C191.351 131.002 192.677 129.728 194.523 129.728C196.395 129.702 197.695 131.002 197.695 133.368C197.695 135.682 196.369 137.034 194.523 137.034ZM200.789 144.34C200.789 141.87 198.995 140.752 194.653 140.752C191.819 140.752 191.013 140.232 191.013 139.296C191.013 138.23 192.027 137.866 194.523 137.866C196.057 137.866 197.279 137.45 198.189 136.592C199.125 135.734 199.593 134.642 199.593 133.368C199.593 131.886 198.995 130.716 197.773 129.884L200.815 129.91V129.13H196.655C195.979 128.948 195.277 128.87 194.523 128.87C193.145 128.87 191.975 129.286 190.961 130.092C189.947 130.898 189.453 131.99 189.453 133.368C189.453 135.24 190.493 136.644 192.079 137.294C190.649 137.528 189.661 138.386 189.661 139.712C189.661 140.986 190.441 141.584 192.001 141.896C189.999 142.39 188.933 143.638 188.933 145.172C188.933 147.564 191.247 148.76 194.653 148.76C198.709 148.76 200.789 147.148 200.789 144.34ZM195.069 147.668C192.469 147.668 190.545 146.862 190.545 144.886C190.545 143.534 191.481 142.624 193.327 142.13H194.289C198.241 142.13 199.619 143.014 199.619 144.678C199.619 146.68 198.111 147.668 195.069 147.668ZM207.568 141.038V134.928C207.568 131.782 208.582 129.728 210.688 129.728C211.494 129.728 212.04 129.988 212.378 130.534C211.624 130.534 211.208 131.054 211.208 131.704C211.208 132.328 211.65 132.744 212.352 132.744C213.08 132.744 213.522 132.25 213.522 131.418C213.522 129.832 212.43 128.87 210.74 128.87C208.842 128.87 207.646 130.04 207.126 132.354V129.078L206.736 128.87C206.502 129 206.242 129.078 205.904 129.104C205.592 129.13 204.864 129.13 203.746 129.13V130.066H205.722V141.038H203.746V142H209.648V141.038H207.568ZM222.464 142.26C225.038 142.26 226.858 140.882 227.456 138.464L226.676 138.204C226.052 140.258 224.7 141.298 222.594 141.298C219.786 141.298 218.33 139.218 218.33 135.812V135.474H227.612V134.72C227.612 133.03 227.144 131.652 226.208 130.534C225.298 129.416 223.946 128.87 222.178 128.87C220.514 128.87 219.136 129.468 218.018 130.69C216.926 131.886 216.38 133.472 216.38 135.474C216.38 137.58 216.952 139.244 218.07 140.466C219.214 141.662 220.67 142.26 222.464 142.26ZM222.178 129.728C224.544 129.728 225.636 131.782 225.662 134.668H218.33C218.46 131.73 219.864 129.728 222.178 129.728ZM237.503 142.26C240.077 142.26 241.897 140.882 242.495 138.464L241.715 138.204C241.091 140.258 239.739 141.298 237.633 141.298C234.825 141.298 233.369 139.218 233.369 135.812V135.474H242.651V134.72C242.651 133.03 242.183 131.652 241.247 130.534C240.337 129.416 238.985 128.87 237.217 128.87C235.553 128.87 234.175 129.468 233.057 130.69C231.965 131.886 231.419 133.472 231.419 135.474C231.419 137.58 231.991 139.244 233.109 140.466C234.253 141.662 235.709 142.26 237.503 142.26ZM237.217 129.728C239.583 129.728 240.675 131.782 240.701 134.668H233.369C233.499 131.73 234.903 129.728 237.217 129.728ZM251.659 141.038H249.787V137.892L251.971 135.604L256.287 141.038H254.389V142H260.005V141.038H258.549L253.193 134.304L257.171 130.092H259.251V129.13H253.687V130.092H255.845L249.787 136.514V122.448L249.475 122.24C249.293 122.37 249.007 122.448 248.617 122.474C248.227 122.5 247.343 122.5 245.965 122.5V123.462H247.941V141.038H245.965V142H251.659V141.038ZM284.04 142.052L287.29 130.092H288.642V129.13H284.716V130.092H286.276L283.52 140.18L280.114 129.052H278.944L275.616 140.076L272.756 130.092H274.42V129.13H269.532V130.092H270.936L274.342 142.052H275.928L279.204 131.21L282.532 142.052H284.04ZM294.826 128.87C294.592 129 294.28 129.078 293.89 129.104C293.5 129.13 292.668 129.13 291.394 129.13V130.092H293.37V141.038H291.394V142H297.192V141.038H295.216V129.078L294.826 128.87ZM294.124 126.062C295.866 125.984 295.866 123.54 294.124 123.462C292.356 123.462 292.356 126.062 294.124 126.062ZM304.186 141.038V134.486C304.186 131.574 305.434 130.196 307.54 130.196C309.724 130.196 310.816 131.496 310.816 134.096V141.038H308.944V142H314.638V141.038H312.662V134.096C312.662 130.612 311.18 128.87 308.19 128.87C305.876 128.87 304.342 130.222 303.744 132.276V129.078L303.354 128.87C303.12 129 302.86 129.078 302.522 129.104C302.21 129.13 301.482 129.13 300.364 129.13V130.092H302.34V141.038H300.364V142H306.058V141.038H304.186ZM324.007 142.26C326.581 142.26 328.401 140.882 328.999 138.464L328.219 138.204C327.595 140.258 326.243 141.298 324.137 141.298C321.329 141.298 319.873 139.218 319.873 135.812V135.474H329.155V134.72C329.155 133.03 328.687 131.652 327.751 130.534C326.841 129.416 325.489 128.87 323.721 128.87C322.057 128.87 320.679 129.468 319.561 130.69C318.469 131.886 317.923 133.472 317.923 135.474C317.923 137.58 318.495 139.244 319.613 140.466C320.757 141.662 322.213 142.26 324.007 142.26ZM323.721 129.728C326.087 129.728 327.179 131.782 327.205 134.668H319.873C320.003 131.73 321.407 129.728 323.721 129.728Z" fill="#4301FF"/>
<line x1="108.075" y1="116" x2="412.075" y2="116" stroke="#4301FF" stroke-width="2"/>
</svg>
