<svg width="197" height="414" viewBox="0 0 197 414" fill="none" xmlns="http://www.w3.org/2000/svg">
<g clip-path="url(#clip0_315_120)">
<path fill-rule="evenodd" clip-rule="evenodd" d="M0 25C13.8071 25 25 13.8071 25 0H197V414H0V25Z" fill="#4301FF"/>
<path d="M151.134 282.61C144.281 337.434 128.083 366.715 91.326 367.338C81.981 367.338 74.505 366.092 68.898 362.977C81.981 357.993 88.834 348.025 88.834 333.073C88.834 313.137 76.374 300.677 55.815 300.677C29.026 300.677 13.451 319.99 13.451 342.418C13.451 377.929 43.355 400.98 93.195 400.98C174.808 400.98 217.795 352.386 230.878 242.738L265.766 -40.727H334.919L338.657 -74.992C243.338 -74.992 189.76 -99.912 189.76 -144.768C189.76 -176.541 218.418 -201.461 263.274 -201.461C281.964 -201.461 295.67 -198.969 304.392 -193.362C291.309 -186.509 285.079 -176.541 285.079 -162.835C285.079 -143.522 298.785 -131.062 321.213 -131.062C348.002 -131.062 362.331 -149.752 362.331 -174.672C362.331 -211.429 326.82 -234.48 265.143 -234.48C230.878 -234.48 202.22 -226.381 180.415 -210.183C158.61 -193.985 147.396 -172.18 147.396 -144.768C147.396 -106.765 174.808 -80.599 201.597 -74.992H144.281L139.297 -40.727H191.629L151.134 282.61Z" fill="white"/>
</g>
<defs>
<clipPath id="clip0_315_120">
<rect width="197" height="414" fill="white"/>
</clipPath>
</defs>
</svg>
