<svg width="197" height="414" viewBox="0 0 197 414" fill="none" xmlns="http://www.w3.org/2000/svg">
<g clip-path="url(#clip0_315_114)">
<path fill-rule="evenodd" clip-rule="evenodd" d="M172 0H25C25 13.8071 13.8071 25 0 25V414H197V25C183.193 25 172 13.8071 172 0Z" fill="#4301FF"/>
<path d="M111.35 370.75V232.85H156.15V213.6C101.55 213.6 65.15 198.2 65.15 171.25C65.15 153.05 80.2 142.55 104.35 142.55C113.45 142.55 121.5 143.6 128.15 146.05C122.2 150.6 119.4 156.2 119.4 163.55C119.4 174.4 127.8 183.15 140.75 183.15C154.4 183.15 162.45 174.05 162.45 161.1C162.45 139.75 141.1 124 102.25 124C65.85 124 42.75 143.95 42.75 170.9C42.75 183.15 46.6 192.6 53.95 199.95C61.65 206.95 70.05 211.5 78.8 213.6H46.95V232.85H70.4V370.75H46.95V390H142.5V370.75H111.35Z" fill="white"/>
</g>
<defs>
<clipPath id="clip0_315_114">
<rect width="197" height="414" fill="white"/>
</clipPath>
</defs>
</svg>
