<svg width="628" height="197" viewBox="0 0 628 197" fill="none" xmlns="http://www.w3.org/2000/svg">
<g clip-path="url(#clip0_315_154)">
<path d="M0 0H628V197H0V0Z" fill="#4301FF"/>
<line x1="192.5" y1="14" x2="192.5" y2="184" stroke="white" stroke-width="3"/>
<line x1="395.5" y1="14" x2="395.5" y2="184" stroke="white" stroke-width="3"/>
<path d="M139.72 59.1L97.72 104.88V59.1H139.72ZM107.94 140.3H97.72V117.2L109.34 104.46L135.24 140.3H127.26V148H161.7V140.3H154.98L120.54 92.28L151.06 59.1V51.4H70V59.1H80.64V140.3H70V148H107.94V140.3Z" fill="white"/>
<path d="M356.38 140.3H345.74V59.1H356.38V51.4H320.26V59.1H328.66V140.3H294.92C301.08 134.56 304.86 124.34 304.86 114.26C304.86 108.24 303.18 100.96 299.82 92.42C296.46 83.88 294.78 77.02 294.78 72.12C294.78 64.84 298.14 56.86 301.36 53.08L295.06 50C285.96 55.74 279.1 67.36 279.1 80.38C279.1 85.84 280.92 92.84 284.42 101.24C288.06 109.5 289.88 116.78 289.88 122.8C289.88 129.66 288.2 135.54 284.7 140.3H255.72V59.1H264.12V51.4H228V59.1H238.64V140.3H228V148H356.38V140.3Z" fill="white"/>
<path d="M485.32 94.8H478.6L447.8 59.1H485.32V94.8ZM502.4 59.1H540.2L509.12 94.8H502.4V59.1ZM547.2 149.4C558.4 149.4 562.88 141.42 562.88 126.16H555.6C555.6 136.1 554.06 141 550.84 141C547.06 141 545.66 138.62 543 128.4C541.74 122.94 540.62 119.02 539.78 116.64C539.08 114.26 537.68 111.6 535.86 108.94C532.36 103.48 527.46 101.1 517.8 97.6L551.26 59.24V51.4H436.18V59.24L469.5 97.74C460.26 101.1 454.94 105.3 451.86 109.22C450.04 111.46 447.94 117.2 446.96 120.56L445 128.4C442.34 138.62 440.94 141 437.02 141C433.94 141 432.4 136.1 432.4 126.16H425.12C425.12 141.42 429.6 149.4 440.8 149.4C452.7 149.4 458.16 142.26 461.94 127C464.6 116.92 466.98 110.34 469.08 107.26C471.32 104.04 475.1 102.5 480.28 102.5H485.32V140.3H474.96V148H512.62V140.3H502.4V102.5H507.3C512.48 102.5 516.26 104.04 518.5 107.26C520.74 110.34 523.12 116.92 525.78 127C529.28 142.12 535.02 149.4 547.2 149.4Z" fill="white"/>
<line x1="0.0606602" y1="-0.0606602" x2="37.0607" y2="36.9393" stroke="white" stroke-width="3"/>
<line y1="-1.5" x2="58.33" y2="-1.5" transform="matrix(-0.707107 0.707107 0.707107 0.707107 630 1)" stroke="white" stroke-width="3"/>
<line y1="-1.5" x2="52.3259" y2="-1.5" transform="matrix(-0.707107 0.707107 0.707107 0.707107 38 162)" stroke="white" stroke-width="3"/>
<line x1="590.061" y1="158.939" x2="627.061" y2="195.939" stroke="white" stroke-width="3"/>
</g>
<defs>
<clipPath id="clip0_315_154">
<rect width="628" height="197" fill="white"/>
</clipPath>
</defs>
</svg>
