<svg width="414" height="197" viewBox="0 0 414 197" fill="none" xmlns="http://www.w3.org/2000/svg">
<g clip-path="url(#clip0_315_133)">
<path fill-rule="evenodd" clip-rule="evenodd" d="M0 0H414V49C386.386 49 364 71.3858 364 99C364 126.614 386.386 149 414 149V197H0V149C27.6142 149 50 126.614 50 99C50 71.3858 27.6142 49 0 49V0Z" fill="#4301FF"/>
<g clip-path="url(#clip1_315_133)">
<path d="M192.523 -219.313C233.653 -219.313 233.653 -280.094 192.523 -280.094C152.307 -280.094 152.307 -219.313 192.523 -219.313ZM186.125 177.82C230.454 177.82 260.616 149.943 260.616 110.184C260.616 82.764 245.992 61.285 225.427 50.774V-171.785L217.658 -176.355C213.088 -174.07 206.233 -172.699 197.093 -172.242C187.953 -171.785 169.673 -171.328 141.796 -171.328V-146.193H171.958V59C201.663 59 226.341 77.28 226.341 108.356C226.341 138.061 209.889 154.97 182.012 154.97C171.958 154.97 163.732 153.142 156.877 149.943C167.388 144.459 172.872 135.776 172.872 123.894C172.872 109.27 162.361 98.302 145.909 98.302C129 98.302 116.661 110.184 116.661 129.835C116.661 157.255 144.538 177.82 186.125 177.82Z" fill="white"/>
</g>
</g>
<defs>
<clipPath id="clip0_315_133">
<rect width="414" height="197" fill="white"/>
</clipPath>
<clipPath id="clip1_315_133">
<rect width="150" height="217" fill="white" transform="translate(113 -20)"/>
</clipPath>
</defs>
</svg>
