<svg width="300" height="430" viewBox="0 0 300 430" fill="none" xmlns="http://www.w3.org/2000/svg">
<ellipse cx="31" cy="92.2739" rx="5" ry="5.07075" fill="#4301FF"/>
<ellipse cx="31" cy="113.571" rx="5" ry="5.07075" fill="#4301FF"/>
<ellipse cx="132" cy="92.2739" rx="5" ry="5.07075" fill="#4301FF"/>
<ellipse cx="132" cy="114.585" rx="5" ry="5.07075" fill="#4301FF"/>
<ellipse cx="106" cy="114.585" rx="5" ry="5.07075" fill="#4301FF"/>
<ellipse cx="59" cy="114.585" rx="5" ry="5.07075" fill="#4301FF"/>
<ellipse cx="32" cy="327.571" rx="5" ry="5.07075" fill="#4301FF"/>
<ellipse cx="32" cy="350.882" rx="5" ry="5.07075" fill="#4301FF"/>
<ellipse cx="133" cy="350.882" rx="5" ry="5.07075" fill="#4301FF"/>
<ellipse cx="58" cy="326.571" rx="5" ry="5.07075" fill="#4301FF"/>
<ellipse cx="133" cy="328.571" rx="5" ry="5.07075" fill="#4301FF"/>
<ellipse cx="106" cy="326.571" rx="5" ry="5.07075" fill="#4301FF"/>
<ellipse cx="106" cy="231.212" rx="5" ry="5.07075" fill="#4301FF"/>
<ellipse cx="106" cy="205.859" rx="5" ry="5.07075" fill="#4301FF"/>
<ellipse cx="175" cy="138.925" rx="5" ry="5.07075" fill="#4301FF"/>
<ellipse cx="224" cy="88.2172" rx="5" ry="5.07075" fill="#4301FF"/>
<ellipse cx="250" cy="116.613" rx="5.07075" ry="5" transform="rotate(90 250 116.613)" fill="#4301FF"/>
<ellipse cx="225" cy="141.967" rx="5" ry="5.07075" transform="rotate(-180 225 141.967)" fill="#4301FF"/>
<ellipse cx="178" cy="190.647" rx="5" ry="5.07075" transform="rotate(-180 178 190.647)" fill="#4301FF"/>
<ellipse cx="154" cy="214.986" rx="5" ry="5.07075" transform="rotate(-180 154 214.986)" fill="#4301FF"/>
<ellipse cx="203" cy="249.467" rx="5" ry="5.07075" transform="rotate(-180 203 249.467)" fill="#4301FF"/>
<ellipse cx="164" cy="274.821" rx="5" ry="5.07075" transform="rotate(-180 164 274.821)" fill="#4301FF"/>
<ellipse cx="234" cy="328.571" rx="5" ry="5.07075" transform="rotate(-180 234 328.571)" fill="#4301FF"/>
<ellipse cx="224" cy="354.939" rx="5" ry="5.07075" fill="#4301FF"/>
<ellipse cx="247" cy="290.047" rx="5" ry="5.07075" fill="#4301FF"/>
<ellipse cx="270" cy="290.047" rx="5" ry="5.07075" fill="#4301FF"/>
<line x1="256.5" y1="74.019" x2="256.5" y2="156.165" stroke="#4301FF"/>
<path d="M269.5 291.262V289.762H268H249.12H247.62V291.262C247.62 304.409 246.62 314.065 244.647 320.386C243.662 323.545 242.469 325.753 241.14 327.152C239.85 328.509 238.419 329.128 236.775 329.128C234.485 329.128 232.695 328.759 231.162 327.907C229.628 327.054 228.21 325.639 226.805 323.308C223.944 318.564 221.357 310.433 217.898 296.839C214.269 281.992 211.355 271.182 209.159 264.44C206.921 257.195 203.206 250.378 198.447 243.263L198.442 243.256C188.863 229.103 177.203 223.246 155.277 215.393C162.771 211.747 169.036 205.18 174.557 196.283C180.96 185.963 186.45 172.367 191.726 156.179C196.065 143.16 199.232 133.973 201.423 128.373C205.396 137.283 214.766 142.725 225.157 142.725C232.777 142.725 239.177 140.085 243.668 135.391C248.154 130.703 250.62 124.089 250.62 116.342C250.62 107.842 247.873 100.641 242.528 95.5707C237.19 90.5082 229.432 87.7314 219.711 87.7314C202.901 87.7314 191.797 99.1197 183.494 114.275C176.959 126.205 171.982 140.796 167.254 154.659C165.984 158.382 164.732 162.053 163.472 165.606L163.466 165.624L163.46 165.642C159.687 177.219 154.419 187.494 147.669 194.85C140.942 202.181 132.787 206.573 123.132 206.573H105.389V114.871H131.12H132.62V113.371V92.9452V91.4452H131.12H32H30.5V92.9452V113.371V114.871H32H58.0938V327.271H32H30.5V328.771V349.197V350.697H32H131.12H132.62V349.197V328.771V327.271H131.12H105.389V229.999H123.132C136.637 229.999 145.869 233.982 151.301 241.969L151.313 241.987L151.326 242.004C154.289 246.105 157.319 252.448 160.48 261.18C163.633 269.887 166.885 280.877 170.327 294.215C174.881 314.33 180.849 329.393 189.867 339.429C198.964 349.555 211.022 354.411 227.335 354.411C242.289 354.411 252.976 348.921 259.828 338.067C266.594 327.35 269.5 311.587 269.5 291.262Z" stroke="#4301FF" stroke-width="3"/>
<line x1="183" y1="86.7031" x2="264" y2="86.7031" stroke="#4301FF"/>
<line x1="266" y1="142.467" x2="185" y2="142.467" stroke="#4301FF"/>
<line x1="183" y1="354.439" x2="264" y2="354.439" stroke="#4301FF"/>
<mask id="path-32-inside-1_308_430" fill="white">
<path fill-rule="evenodd" clip-rule="evenodd" d="M-3.62396e-05 25.3534V404.646C13.7156 404.646 24.8344 415.998 24.8344 430H273.179C273.179 415.998 284.297 404.646 298.013 404.646C298.682 404.646 299.345 404.673 300 404.726V28.3162C299.345 28.3692 298.682 28.3962 298.013 28.3962C284.297 28.3962 273.179 17.0449 273.179 3.04238C273.179 2.01277 273.239 0.997486 273.356 0H24.8344C24.8342 14.0023 13.7155 25.3534 -3.62396e-05 25.3534Z"/>
</mask>
<path d="M0 25.3534V19.3534H-6V25.3534H0ZM0 404.646H-6V410.646H0V404.646ZM24.8344 430H18.8344V436H24.8344V430ZM273.179 430V436H279.179V430H273.179ZM300 404.726L299.517 410.707L306 411.231V404.726H300ZM300 28.3162H306V21.8118L299.517 22.3357L300 28.3162ZM273.356 0L279.315 0.698104L280.1 -6L273.356 -6V0ZM24.8344 0V-6H18.8345L18.8344 -7.92779e-05L24.8344 0ZM-6 25.3534V404.646H6V25.3534H-6ZM0 410.646C10.2855 410.646 18.8344 419.194 18.8344 430H30.8344C30.8344 412.802 17.1458 398.646 0 398.646V410.646ZM24.8344 436H273.179V424H24.8344V436ZM279.179 430C279.179 419.194 287.728 410.646 298.013 410.646V398.646C280.867 398.646 267.179 412.802 267.179 430H279.179ZM298.013 410.646C298.521 410.646 299.022 410.667 299.517 410.707L300.483 398.746C299.667 398.68 298.843 398.646 298.013 398.646V410.646ZM306 404.726V28.3162H294V404.726H306ZM299.517 22.3357C299.022 22.3757 298.52 22.3962 298.013 22.3962V34.3962C298.843 34.3962 299.667 34.3626 300.483 34.2967L299.517 22.3357ZM298.013 22.3962C287.728 22.3962 279.179 13.8488 279.179 3.04238H267.179C267.179 20.2409 280.867 34.3962 298.013 34.3962V22.3962ZM279.179 3.04238C279.179 2.24652 279.225 1.46433 279.315 0.698104L267.396 -0.698104C267.253 0.530641 267.179 1.77902 267.179 3.04238H279.179ZM273.356 -6H24.8344V6H273.356V-6ZM18.8344 -7.92779e-05C18.8343 10.8063 10.2854 19.3534 0 19.3534V31.3534C17.1457 31.3534 30.8342 17.1984 30.8344 7.92779e-05L18.8344 -7.92779e-05Z" fill="#4301FF" mask="url(#path-32-inside-1_308_430)"/>
<line x1="37" y1="21.5" x2="260" y2="21.5" stroke="#4301FF" stroke-width="3"/>
<line x1="37" y1="405.5" x2="260" y2="405.5" stroke="#4301FF" stroke-width="3"/>
</svg>
