<svg width="803" height="558" viewBox="0 0 803 558" fill="none" xmlns="http://www.w3.org/2000/svg">
<rect x="89" y="202" width="644" height="36" stroke="#4301FF" stroke-width="6"/>
<rect x="69" y="391" width="672" height="135" stroke="#4301FF" stroke-width="6"/>
<rect x="3" y="526" width="797" height="29" stroke="#4301FF" stroke-width="6"/>
<path d="M409 198V391H219V198C219 145.533 261.533 103 314 103C366.467 103 409 145.533 409 198Z" fill="#4301FF" stroke="#4301FF" stroke-width="6"/>
<rect x="89" y="361" width="83" height="30" stroke="#4301FF" stroke-width="6"/>
<rect x="89" y="238" width="54" height="30" stroke="#4301FF" stroke-width="6"/>
<rect x="484" y="238" width="54" height="30" stroke="#4301FF" stroke-width="6"/>
<rect x="469" y="361" width="83" height="30" stroke="#4301FF" stroke-width="6"/>
<circle cx="314" cy="197" r="57" fill="white" stroke="#4301FF" stroke-width="6"/>
<rect x="69" y="169" width="123" height="33" rx="16.5" stroke="#4301FF" stroke-width="6"/>
<rect x="459" y="169" width="103" height="33" rx="16.5" stroke="#4301FF" stroke-width="6"/>
<path d="M750 61.8551C750 78.8327 748.409 111.486 739.016 139.793C729.586 168.214 712.792 191 683 191C653.208 191 636.414 168.214 626.984 139.793C617.591 111.486 616 78.8327 616 61.8551C616 29.6883 645.637 3 683 3C720.363 3 750 29.6883 750 61.8551Z" fill="white" stroke="#4301FF" stroke-width="6"/>
<rect x="631" y="169" width="103" height="33" rx="16.5" fill="white" stroke="#4301FF" stroke-width="6"/>
<path d="M178.065 476.71V449.54L190.09 475.085H195.29L207.25 449.41V476.71H202.765V481H221.68V476.71H217.13V440.44H221.68V436.15H201.725V440.44H206.275L195.095 464.49L183.785 440.44H188.205V436.15H168.12V440.44H172.735V476.71H168.12V481H182.485V476.71H178.065ZM273.167 450.255C271.542 444.86 268.422 440.18 263.027 437.515C260.362 436.15 257.372 435.5 253.992 435.5C250.612 435.5 247.557 436.15 244.827 437.515C234.427 442.715 231.502 456.43 234.687 466.895C236.442 472.29 239.432 476.97 244.827 479.635C247.557 481 250.612 481.65 253.992 481.65C257.372 481.65 260.362 481 263.027 479.635C273.427 474.435 276.417 460.72 273.167 450.255ZM253.992 477.035C247.752 477.035 243.657 471.055 243.657 458.575C243.657 446.095 247.752 440.115 253.992 440.115C260.037 440.115 264.197 446.16 264.197 458.575C264.197 471.055 260.037 477.035 253.992 477.035ZM321.534 481.65C327.449 481.65 329.919 478.01 329.919 470.99H326.019C326.019 474.955 325.304 476.97 323.874 476.97C323.094 476.97 322.509 476.58 322.119 475.735C321.794 474.89 321.339 473.07 320.819 470.405C320.104 466.57 319.064 463.905 317.829 462.475C316.594 460.98 314.319 459.745 310.874 458.77C318.999 457.73 323.224 453.7 323.224 447.98C323.224 440.44 317.049 436.15 305.089 436.15H286.174V440.44H290.789V476.71H286.174V481H304.894V476.71H300.669V460.72H303.854C305.869 460.72 307.364 461.37 308.274 462.605C309.184 463.84 309.964 466.31 310.614 469.885C311.979 478.27 314.774 481.65 321.534 481.65ZM304.374 440.44C310.289 440.44 313.214 443.235 313.214 448.76C313.214 453.765 310.224 457.015 304.309 457.015H300.669V440.44H304.374ZM357.614 481.65C362.359 481.65 365.869 480.415 368.144 478.01C370.484 475.605 371.654 472.55 371.654 468.975C371.394 463.71 369.704 460.655 366.194 458.64C364.959 457.86 363.919 457.275 363.009 456.95L359.369 455.52C355.404 454.155 352.609 452.92 350.984 451.75C349.359 450.58 348.579 448.89 348.579 446.615C348.579 442.78 351.439 440.375 355.599 440.375C361.059 440.375 364.894 443.56 365.349 450.905H370.419V435.5H366.064L364.049 438.49C361.514 436.475 358.004 435.5 353.519 435.5C349.164 435.5 345.719 436.735 343.054 439.14C340.389 441.545 339.089 444.535 339.089 448.24C339.089 451.88 340.129 454.675 342.209 456.625C344.354 458.575 347.734 460.33 352.479 461.955C359.304 464.23 362.099 466.765 362.099 471.12C362.099 474.565 359.824 476.775 355.209 476.775C352.219 476.775 349.619 475.8 347.409 473.85C345.264 471.835 344.094 469.235 343.899 466.05H338.894V481.65H343.249L345.524 478.335C348.579 480.545 352.609 481.65 357.614 481.65ZM419.007 467.22H413.937V468.13C413.937 474.565 412.052 476.71 405.552 476.71H398.727V460.33H406.202V465.27H410.232V451.23H406.202V456.17H398.727V440.44H404.512C407.827 440.44 410.167 440.96 411.402 442.065C412.702 443.105 413.352 445.25 413.352 448.435V449.67H418.422V436.15H384.232V440.44H388.847V476.71H384.232V481H419.007V467.22ZM483.9 481.65H488.19V465.66H483.12C482.925 472.16 479.48 477.035 473.825 477.035C467.13 477.035 462.905 470.99 462.905 458.51C462.905 446.095 467 440.115 473.435 440.115C479.35 440.115 482.665 444.34 482.86 451.165H487.93V435.565H483.64L481.235 438.555C478.83 436.54 475.645 435.5 471.615 435.5C465.96 435.5 461.345 437.71 457.9 442.195C454.455 446.615 452.7 452.075 452.7 458.51C452.7 465.01 454.39 470.47 457.835 474.955C461.28 479.44 465.96 481.65 471.875 481.65C475.905 481.65 479.09 480.545 481.495 478.4L483.9 481.65ZM540.429 450.255C538.804 444.86 535.684 440.18 530.289 437.515C527.624 436.15 524.634 435.5 521.254 435.5C517.874 435.5 514.819 436.15 512.089 437.515C501.689 442.715 498.764 456.43 501.949 466.895C503.704 472.29 506.694 476.97 512.089 479.635C514.819 481 517.874 481.65 521.254 481.65C524.634 481.65 527.624 481 530.289 479.635C540.689 474.435 543.679 460.72 540.429 450.255ZM521.254 477.035C515.014 477.035 510.919 471.055 510.919 458.575C510.919 446.095 515.014 440.115 521.254 440.115C527.299 440.115 531.459 446.16 531.459 458.575C531.459 471.055 527.299 477.035 521.254 477.035ZM571.96 481C579.565 481 585.805 478.205 589.38 473.85C592.955 469.43 594.84 464.165 594.84 458.51C594.84 452.855 592.955 447.525 589.315 443.3C585.74 438.945 579.565 436.15 572.025 436.15H553.435V440.44H558.05V476.71H553.435V481H571.96ZM571.7 440.44C575.275 440.44 578.265 441.935 580.8 444.86C583.335 447.785 584.635 452.335 584.635 458.51C584.635 464.75 583.4 469.365 580.865 472.29C578.33 475.215 575.275 476.71 571.7 476.71H567.93V440.44H571.7ZM641.112 467.22H636.042V468.13C636.042 474.565 634.157 476.71 627.657 476.71H620.832V460.33H628.307V465.27H632.337V451.23H628.307V456.17H620.832V440.44H626.617C629.932 440.44 632.272 440.96 633.507 442.065C634.807 443.105 635.457 445.25 635.457 448.435V449.67H640.527V436.15H606.337V440.44H610.952V476.71H606.337V481H641.112V467.22Z" fill="#4301FF"/>
<circle cx="86" cy="408" r="5" fill="#4301FF"/>
<circle cx="724" cy="408" r="5" fill="#4301FF"/>
<circle cx="88" cy="508" r="5" fill="#4301FF"/>
<circle cx="726" cy="508" r="5" fill="#4301FF"/>
<line x1="103" y1="508.5" x2="711" y2="508.5" stroke="#4301FF" stroke-width="3"/>
<line x1="101" y1="408.5" x2="709" y2="408.5" stroke="#4301FF" stroke-width="3"/>
<line x1="723.5" y1="423" x2="723.5" y2="493" stroke="#4301FF" stroke-width="3"/>
<line x1="87.5" y1="423" x2="87.5" y2="493" stroke="#4301FF" stroke-width="3"/>
</svg>
