<svg width="460" height="87" viewBox="0 0 460 87" fill="none" xmlns="http://www.w3.org/2000/svg">
<circle cx="35" cy="5" r="5" fill="#4301FF"/>
<circle cx="90" cy="5" r="5" fill="#4301FF"/>
<circle cx="220" cy="5" r="5" fill="#4301FF"/>
<circle cx="265" cy="5" r="5" fill="#4301FF"/>
<circle cx="5" cy="31" r="5" fill="#4301FF"/>
<circle cx="375" cy="5" r="5" fill="#4301FF"/>
<circle cx="103" cy="31" r="5" fill="#4301FF"/>
<circle cx="305" cy="31" r="5" fill="#4301FF"/>
<circle cx="240" cy="5" r="5" fill="#4301FF"/>
<circle cx="285" cy="5" r="5" fill="#4301FF"/>
<circle cx="25" cy="31" r="5" fill="#4301FF"/>
<circle cx="78" cy="31" r="5" fill="#4301FF"/>
<circle cx="395" cy="5" r="5" fill="#4301FF"/>
<circle cx="123" cy="31" r="5" fill="#4301FF"/>
<circle cx="325" cy="31" r="5" fill="#4301FF"/>
<circle cx="450" cy="5" r="5" fill="#4301FF"/>
<circle cx="178" cy="31" r="5" fill="#4301FF"/>
<circle cx="380" cy="31" r="5" fill="#4301FF"/>
<rect y="2" width="25" height="6" fill="#4301FF"/>
<rect x="45" y="2" width="25" height="6" fill="#4301FF"/>
<rect x="40" y="28" width="25" height="6" fill="#4301FF"/>
<rect x="145" y="2" width="25" height="6" fill="#4301FF"/>
<rect x="300" y="2" width="25" height="6" fill="#4301FF"/>
<rect x="198" y="28" width="25" height="6" fill="#4301FF"/>
<rect x="400" y="28" width="25" height="6" fill="#4301FF"/>
<rect x="231" y="28" width="25" height="6" fill="#4301FF"/>
<rect x="265" y="28" width="25" height="6" fill="#4301FF"/>
<rect x="180" y="2" width="25" height="6" fill="#4301FF"/>
<rect x="335" y="2" width="25" height="6" fill="#4301FF"/>
<rect x="410" y="2" width="25" height="6" fill="#4301FF"/>
<rect x="138" y="28" width="25" height="6" fill="#4301FF"/>
<rect x="340" y="28" width="25" height="6" fill="#4301FF"/>
<rect x="100" y="2" width="25" height="6" fill="#4301FF"/>
<circle cx="40" cy="56" r="5" fill="#4301FF"/>
<circle cx="95" cy="56" r="5" fill="#4301FF"/>
<circle cx="225" cy="56" r="5" fill="#4301FF"/>
<circle cx="270" cy="56" r="5" fill="#4301FF"/>
<circle cx="10" cy="82" r="5" fill="#4301FF"/>
<circle cx="380" cy="56" r="5" fill="#4301FF"/>
<circle cx="108" cy="82" r="5" fill="#4301FF"/>
<circle cx="310" cy="82" r="5" fill="#4301FF"/>
<circle cx="245" cy="56" r="5" fill="#4301FF"/>
<circle cx="290" cy="56" r="5" fill="#4301FF"/>
<circle cx="30" cy="82" r="5" fill="#4301FF"/>
<circle cx="83" cy="82" r="5" fill="#4301FF"/>
<circle cx="400" cy="56" r="5" fill="#4301FF"/>
<circle cx="128" cy="82" r="5" fill="#4301FF"/>
<circle cx="330" cy="82" r="5" fill="#4301FF"/>
<circle cx="455" cy="56" r="5" fill="#4301FF"/>
<circle cx="183" cy="82" r="5" fill="#4301FF"/>
<circle cx="385" cy="82" r="5" fill="#4301FF"/>
<rect x="5" y="53" width="25" height="6" fill="#4301FF"/>
<rect x="50" y="53" width="25" height="6" fill="#4301FF"/>
<rect x="45" y="79" width="25" height="6" fill="#4301FF"/>
<rect x="150" y="53" width="25" height="6" fill="#4301FF"/>
<rect x="305" y="53" width="25" height="6" fill="#4301FF"/>
<rect x="203" y="79" width="25" height="6" fill="#4301FF"/>
<rect x="405" y="79" width="25" height="6" fill="#4301FF"/>
<rect x="236" y="79" width="25" height="6" fill="#4301FF"/>
<rect x="270" y="79" width="25" height="6" fill="#4301FF"/>
<rect x="185" y="53" width="25" height="6" fill="#4301FF"/>
<rect x="340" y="53" width="25" height="6" fill="#4301FF"/>
<rect x="415" y="53" width="25" height="6" fill="#4301FF"/>
<rect x="143" y="79" width="25" height="6" fill="#4301FF"/>
<rect x="345" y="79" width="25" height="6" fill="#4301FF"/>
<rect x="105" y="53" width="25" height="6" fill="#4301FF"/>
</svg>
