<svg width="197" height="688" viewBox="0 0 197 688" fill="none" xmlns="http://www.w3.org/2000/svg">
<rect x="2.04785" y="549.5" width="193" height="137" stroke="#4301FF" stroke-width="3"/>
<path d="M97.8479 644C115.648 644 122.348 631.6 122.348 620.6C122.348 614.6 120.348 609.5 116.348 605.3C112.448 601.1 106.648 599 99.1479 599C93.5479 599 89.1479 600.4 85.9479 603.1L87.4479 582.9H118.348V574H81.7479L78.8479 610.1H84.6479C86.6479 607 90.9479 604.9 95.6479 604.9C104.348 604.9 109.648 610.2 109.648 620.9C109.648 632.4 105.048 638.1 95.9479 638.1C90.9479 638.1 87.2479 637.1 84.7479 635C87.3479 633.5 88.6479 631.5 88.6479 628.9C88.6479 625.3 86.3479 622.7 82.2479 622.7C78.1479 622.7 75.5479 625.6 75.5479 629.6C75.5479 633.8 77.5479 637.3 81.6479 640C85.7479 642.7 91.1479 644 97.8479 644Z" fill="#4301FF"/>
<circle cx="83.5479" cy="665" r="5" fill="#4301FF"/>
<circle cx="98.5479" cy="665" r="5" fill="#4301FF"/>
<circle cx="113.548" cy="665" r="5" fill="#4301FF"/>
<circle cx="128.548" cy="665" r="5" fill="#4301FF"/>
<circle cx="68.5479" cy="665" r="5" fill="#4301FF"/>
<rect x="2.04785" y="412.5" width="193" height="137" stroke="#4301FF" stroke-width="3"/>
<path d="M123.548 500.5H115.948V485.9H123.548V480.5H115.948V437H106.248L71.3479 482.1V485.9H103.748V500.5H95.3479V506H123.548V500.5ZM79.7479 480.5L103.748 449.5V480.5H79.7479Z" fill="#4301FF"/>
<circle cx="76.5479" cy="528" r="5" fill="#4301FF"/>
<circle cx="91.5479" cy="528" r="5" fill="#4301FF"/>
<circle cx="106.548" cy="528" r="5" fill="#4301FF"/>
<circle cx="61.5479" cy="528" r="5" fill="#4301FF"/>
<rect x="116.548" y="525" width="25" height="6" fill="#4301FF"/>
<rect x="2.04785" y="275.5" width="193" height="137" stroke="#4301FF" stroke-width="3"/>
<path d="M97.5479 369C105.948 369 112.148 367.1 116.248 363.3C120.348 359.4 122.448 354.7 122.448 349.2C122.448 340.7 116.448 333.7 104.148 331.6C114.648 328.4 119.148 321.7 119.148 314.1C119.148 304.5 111.448 298 98.1479 298C91.3479 298 85.8479 299.5 81.7479 302.4C77.6479 305.3 75.5479 308.7 75.5479 312.5C75.5479 316.6 78.2479 319.1 82.2479 319.1C86.2479 319.1 88.6479 316.7 88.6479 313C88.6479 310.3 87.3479 308.3 84.6479 307.2C87.0479 305 90.3479 303.9 94.5479 303.9C102.448 303.9 106.448 308.4 106.448 316.1C106.448 323.8 102.748 329.6 94.2479 329.6H87.7479V335H94.5479C104.648 335 109.648 339.7 109.748 349C109.748 358.4 105.248 363.1 96.3479 363.1C90.3479 363.1 86.2479 361.7 83.9479 358.9C86.8479 357.4 88.3479 355.3 88.3479 352.6C88.3479 349 85.8479 346.7 82.1479 346.7C78.1479 346.7 75.3479 349.4 75.3479 354.2C75.3479 358.2 77.3479 361.7 81.4479 364.6C85.5479 367.5 90.9479 369 97.5479 369Z" fill="#4301FF"/>
<circle cx="68.5479" cy="391" r="5" fill="#4301FF"/>
<circle cx="83.5479" cy="391" r="5" fill="#4301FF"/>
<circle cx="53.5479" cy="391" r="5" fill="#4301FF"/>
<rect x="93.5479" y="388" width="25" height="6" fill="#4301FF"/>
<rect x="123.548" y="388" width="25" height="6" fill="#4301FF"/>
<rect x="2.04785" y="138.5" width="193" height="137" stroke="#4301FF" stroke-width="3"/>
<path d="M86.4479 224L106.348 202C114.148 193.3 118.048 185.7 118.048 179.1C118.048 168.3 110.648 162 97.3479 162C90.2479 162 84.6479 163.5 80.5479 166.6C76.5479 169.7 74.5479 173.1 74.5479 176.8C74.5479 180.9 77.2479 183.4 81.2479 183.4C85.2479 183.4 87.6479 180.8 87.6479 177.2C87.6479 174.3 86.2479 172.4 83.5479 171.3C85.4479 169 88.8479 167.9 93.5479 167.9C101.648 167.9 105.548 172 105.548 181.7C105.548 190.6 101.348 198.8 91.2479 210.1L75.3479 227.7V232H120.448V210H113.748V213.4C113.748 217.7 113.048 220.6 111.748 222C110.448 223.3 107.248 224 102.148 224H86.4479Z" fill="#4301FF"/>
<circle cx="61.5479" cy="254" r="5" fill="#4301FF"/>
<circle cx="46.5479" cy="254" r="5" fill="#4301FF"/>
<rect x="71.5479" y="251" width="25" height="6" fill="#4301FF"/>
<rect x="101.548" y="251" width="25" height="6" fill="#4301FF"/>
<rect x="131.548" y="251" width="25" height="6" fill="#4301FF"/>
<rect x="2.04785" y="1.5" width="193" height="137" stroke="#4301FF" stroke-width="3"/>
<path d="M118.348 89.5H107.948V25H104.348C102.648 27.5 100.548 29.2 97.9479 30.2C95.4479 31.2 91.1479 31.7 85.2479 31.7V37.2H95.7479V89.5H85.2479V95H118.348V89.5Z" fill="#4301FF"/>
<circle cx="38.5479" cy="117" r="5" fill="#4301FF"/>
<rect x="48.5479" y="114" width="25" height="6" fill="#4301FF"/>
<rect x="78.5479" y="114" width="25" height="6" fill="#4301FF"/>
<rect x="108.548" y="114" width="25" height="6" fill="#4301FF"/>
<rect x="138.548" y="114" width="25" height="6" fill="#4301FF"/>
</svg>
