<svg width="131" height="64" viewBox="0 0 131 64" fill="none" xmlns="http://www.w3.org/2000/svg">
<path fill-rule="evenodd" clip-rule="evenodd" d="M6.80835 12.7071C12.9313 4.9872 22.3249 0.559008 32.2016 0.734002L32.2019 0.736843C37.5007 0.831001 42.691 2.24889 47.2952 4.8602L84.3287 25.8837V19.5984C84.395 16.1937 86.2558 13.0764 89.2277 11.3925C92.1996 9.70963 95.8432 9.70963 98.8151 11.3925C101.787 13.0766 103.649 16.194 103.714 19.5984V26.7754C103.712 27.6713 104.279 28.4708 105.128 28.7674C118.358 33.3647 128.162 44.5811 130.911 58.2621C131.18 59.6056 130.831 60.9982 129.959 62.0566C129.086 63.116 127.782 63.729 126.407 63.729H25.5039C16.7781 59.4425 9.11571 53.5797 6.13443 50.4071L5.90962 50.5631C3.66438 47.4396 1.9841 43.8954 0.998191 40.0799C-1.46343 30.5514 0.685403 20.4267 6.80835 12.7071ZM105.372 43.609C104.846 43.0715 104.124 42.7686 103.37 42.7697C102.618 42.7718 101.898 43.0757 101.374 43.6132C100.85 44.1508 100.567 44.8759 100.587 45.6241C100.553 46.3817 100.832 47.1205 101.359 47.6675C101.885 48.2155 102.614 48.5257 103.375 48.5257C104.137 48.5257 104.865 48.2155 105.391 47.6675C105.918 47.1205 106.196 46.3817 106.163 45.6241C106.184 44.8738 105.899 44.1466 105.372 43.609Z" fill="#4301FF"/>
</svg>
