<svg width="197" height="688" viewBox="0 0 197 688" fill="none" xmlns="http://www.w3.org/2000/svg">
<rect x="2.04785" y="412.5" width="193" height="137" stroke="#4301FF" stroke-width="3"/>
<path d="M110.848 458.4C110.848 468.1 105.848 474.5 97.8479 474.5C89.8479 474.5 84.7479 468.1 84.7479 458.4C84.7479 448.5 89.8479 441.9 97.8479 441.9C105.848 441.9 110.848 448.5 110.848 458.4ZM93.6479 501.1C90.0479 501.1 87.4479 500.6 85.8479 499.7C87.4479 498.3 88.2479 496.5 88.2479 494.3C88.2479 490.8 85.4479 488.3 81.7479 488.3C77.7479 488.3 75.1479 490.7 75.1479 495C75.1479 502.2 82.9479 507 94.2479 507C104.148 507 111.448 503.6 116.248 496.7C121.148 489.8 123.548 480.8 123.548 469.9C123.548 458.2 121.048 449.7 116.148 444.2C111.248 438.7 104.948 436 97.2479 436C89.7479 436 83.6479 438.2 78.9479 442.6C74.3479 447 72.0479 452.3 72.0479 458.5C72.0479 465 74.1479 470.2 78.4479 474.3C82.7479 478.4 88.0479 480.4 94.4479 480.4C101.748 480.4 108.248 477.4 111.448 472.5C111.448 483 109.948 490.4 106.948 494.7C103.948 499 99.5479 501.1 93.6479 501.1Z" fill="#4301FF"/>
<circle cx="158.548" cy="528" r="5" fill="#4301FF"/>
<rect x="33.5479" y="525" width="25" height="6" fill="#4301FF"/>
<rect x="63.5479" y="525" width="25" height="6" fill="#4301FF"/>
<rect x="93.5479" y="525" width="25" height="6" fill="#4301FF"/>
<rect x="123.548" y="525" width="25" height="6" fill="#4301FF"/>
<rect x="2.04785" y="275.5" width="193" height="137" stroke="#4301FF" stroke-width="3"/>
<path d="M101.148 370C109.248 370 115.548 368.1 120.048 364.2C124.648 360.3 126.948 355.7 126.948 350.4C126.948 341.5 121.348 335.5 110.048 332.3C119.548 329.4 124.248 323.4 124.248 316.2C124.248 311.4 122.048 307.3 117.648 304C113.348 300.7 107.748 299 101.048 299C94.3479 299 88.7479 300.7 84.4479 304C80.1479 307.3 77.9479 311.4 77.9479 316.2C77.9479 323.9 82.8479 329.3 92.7479 332.3C80.0479 335.8 75.2479 341.6 75.2479 350.4C75.2479 355.7 77.5479 360.3 82.0479 364.2C86.6479 368.1 93.0479 370 101.148 370ZM101.148 329.9C95.0479 329.9 90.5479 324.4 90.5479 316.5C90.5479 309.6 94.9479 304.3 101.048 304.3C106.948 304.3 111.548 309.6 111.548 316.4C111.548 324.3 106.848 329.9 101.148 329.9ZM101.148 364.7C93.6479 364.7 87.8479 359 87.9479 350.2C88.0479 340.3 93.4479 335.1 101.148 335.1C108.848 335.1 114.148 340.4 114.248 350.3C114.348 354.6 113.048 358.1 110.448 360.8C107.948 363.4 104.848 364.7 101.148 364.7Z" fill="#4301FF"/>
<circle cx="151.548" cy="391" r="5" fill="#4301FF"/>
<circle cx="136.548" cy="391" r="5" fill="#4301FF"/>
<rect x="41.5479" y="388" width="25" height="6" fill="#4301FF"/>
<rect x="71.5479" y="388" width="25" height="6" fill="#4301FF"/>
<rect x="101.548" y="388" width="25" height="6" fill="#4301FF"/>
<rect x="2.04785" y="138.5" width="193" height="137" stroke="#4301FF" stroke-width="3"/>
<path d="M93.8479 232C98.2479 232 101.148 229.4 101.148 224.2C101.148 223.7 100.948 222.4 100.548 220.2C100.248 217.9 100.148 215.7 100.248 213.4C100.348 211.1 100.848 208.1 101.548 204.4C103.048 196.9 108.148 186.1 116.248 173.4L120.448 166.9V162H74.1479V185H80.8479V182.5C80.8479 177.2 81.6479 173.9 83.1479 172.6C84.7479 171.3 88.5479 170.6 94.5479 170.6H111.248L109.148 174C99.8479 188.8 93.6479 199.9 90.5479 207.2C87.5479 214.5 86.0479 220.1 86.0479 224.1C86.0479 229.3 89.3479 232 93.8479 232Z" fill="#4301FF"/>
<circle cx="128.548" cy="254" r="5" fill="#4301FF"/>
<circle cx="143.548" cy="254" r="5" fill="#4301FF"/>
<circle cx="113.548" cy="254" r="5" fill="#4301FF"/>
<rect x="48.5479" y="251" width="25" height="6" fill="#4301FF"/>
<rect x="78.5479" y="251" width="25" height="6" fill="#4301FF"/>
<rect x="2.04785" y="1.5" width="193" height="137" stroke="#4301FF" stroke-width="3"/>
<path d="M105.248 30.9C108.348 30.9 110.748 31.4 112.448 32.4C110.848 33.9 110.048 35.6 110.048 37.6C110.048 41.1 112.948 43.7 116.648 43.7C120.648 43.7 123.148 41 123.148 36.9C123.148 33.4 121.348 30.5 117.648 28.3C114.048 26.1 109.448 25 103.948 25C94.9479 25 87.7479 28.4 82.4479 35.3C77.1479 42.1 74.5479 50.7 74.5479 61.1C74.5479 73 77.0479 81.8 82.0479 87.5C87.0479 93.2 93.3479 96 101.048 96C108.548 96 114.648 93.8 119.148 89.5C123.748 85.2 126.048 79.9 126.048 73.6C126.048 67.2 123.948 61.9 119.648 57.8C115.448 53.7 110.048 51.6 103.548 51.6C95.4479 51.6 89.8479 54.2 86.6479 59.5C86.6479 49.2 88.3479 41.8 91.8479 37.5C95.3479 33.1 99.7479 30.9 105.248 30.9ZM87.2479 73.6C87.2479 63.9 92.2479 57.5 100.248 57.5C108.248 57.5 113.348 63.9 113.348 73.6C113.348 83.5 108.248 90.1 100.248 90.1C92.2479 90.1 87.2479 83.5 87.2479 73.6Z" fill="#4301FF"/>
<circle cx="106.548" cy="117" r="5" fill="#4301FF"/>
<circle cx="121.548" cy="117" r="5" fill="#4301FF"/>
<circle cx="136.548" cy="117" r="5" fill="#4301FF"/>
<circle cx="91.5479" cy="117" r="5" fill="#4301FF"/>
<rect x="56.5479" y="114" width="25" height="6" fill="#4301FF"/>
<rect x="2.04785" y="549.5" width="193" height="137" stroke="#4301FF" stroke-width="3"/>
<path d="M126.648 608.4C126.648 600.7 124.148 592.2 119.748 585.1C115.348 578 107.948 573 99.4479 573C93.9479 573 88.9479 574.9 84.6479 578.8C80.3479 582.7 77.2479 587.2 75.2479 592.5C73.3479 597.8 72.3479 603.1 72.3479 608.4C72.3479 618.9 76.1479 630.2 84.6479 638.1C88.9479 642 93.8479 644 99.4479 644C117.148 644 126.648 623.5 126.648 608.4ZM85.0479 608.4C85.0479 588.7 89.8479 578.9 99.4479 578.9C109.148 578.9 113.948 588.7 113.948 608.4C113.948 628.2 109.148 638.1 99.4479 638.1C89.8479 638.1 85.0479 628.2 85.0479 608.4Z" fill="#4301FF"/>
<rect x="26.5479" y="662" width="25" height="6" fill="#4301FF"/>
<rect x="56.5479" y="662" width="25" height="6" fill="#4301FF"/>
<rect x="86.5479" y="662" width="25" height="6" fill="#4301FF"/>
<rect x="116.548" y="662" width="25" height="6" fill="#4301FF"/>
<rect x="146.548" y="662" width="25" height="6" fill="#4301FF"/>
</svg>
