<svg width="197" height="197" viewBox="0 0 197 197" fill="none" xmlns="http://www.w3.org/2000/svg">
<path fill-rule="evenodd" clip-rule="evenodd" d="M182.201 0H17.7994C17.9314 0.813827 18 1.6489 18 2.5C18 11.0604 11.0604 18 2.5 18C1.6489 18 0.813827 17.9314 0 17.7994V184.201C0.813827 184.069 1.6489 184 2.5 184C10.2093 184 16.6041 189.628 17.7994 197H184.201C185.264 190.442 190.442 185.264 197 184.201V17.9921C188.671 17.7281 182 10.8931 182 2.5C182 1.6489 182.069 0.813827 182.201 0Z" fill="#4301FF"/>
<mask id="path-2-inside-1_315_99" fill="white">
<path fill-rule="evenodd" clip-rule="evenodd" d="M183 29.4348C175.855 29.2084 170.132 23.3449 170.132 16.1447C170.132 15.4145 170.191 14.6982 170.304 14H29.2696C29.3828 14.6982 29.4416 15.4145 29.4416 16.1447C29.4416 23.4884 23.4884 29.4416 16.1447 29.4416C15.4145 29.4416 14.6982 29.3828 14 29.2696V172.02C14.6982 171.907 15.4145 171.848 16.1447 171.848C22.7582 171.848 28.2441 176.676 29.2696 183H172.02C172.932 177.374 177.374 172.932 183 172.02V29.4348Z"/>
</mask>
<path d="M183 29.4348H185V27.4972L183.063 27.4358L183 29.4348ZM170.304 14L172.278 14.3201L172.654 12H170.304V14ZM29.2696 14V12H26.9191L27.2954 14.3201L29.2696 14ZM14 29.2696L14.3201 27.2954L12 26.9191V29.2696H14ZM14 172.02H12V174.37L14.3201 173.994L14 172.02ZM29.2696 183L27.2954 183.32L27.5678 185H29.2696V183ZM172.02 183V185H173.722L173.994 183.32L172.02 183ZM183 172.02L183.32 173.994L185 173.722V172.02H183ZM172.132 16.1447C172.132 15.5222 172.182 14.9129 172.278 14.3201L168.33 13.6799C168.2 14.4835 168.132 15.3069 168.132 16.1447H172.132ZM170.304 12H161.489V16H170.304V12ZM143.86 12H126.231V16H143.86V12ZM108.601 12H90.9721V16H108.601V12ZM73.3428 12H55.7135V16H73.3428V12ZM38.0842 12H29.2696V16H38.0842V12ZM27.2954 14.3201C27.3197 14.4701 27.341 14.621 27.3594 14.773L31.3305 14.2932C31.3057 14.0876 31.2767 13.8831 31.2438 13.6799L27.2954 14.3201ZM27.4325 15.6859C27.4386 15.838 27.4416 15.9909 27.4416 16.1447H31.4416C31.4416 15.9378 31.4375 15.7318 31.4293 15.5268L27.4325 15.6859ZM27.4416 16.1447C27.4416 17.6801 27.1364 19.1393 26.5852 20.4685L30.2801 22.0007C31.0292 20.1943 31.4416 18.2151 31.4416 16.1447H27.4416ZM20.4685 26.5852C19.1393 27.1364 17.6801 27.4416 16.1447 27.4416V31.4416C18.2151 31.4416 20.1943 31.0292 22.0007 30.2801L20.4685 26.5852ZM16.1447 27.4416C15.9909 27.4416 15.838 27.4386 15.6859 27.4325L15.5268 31.4293C15.7318 31.4375 15.9378 31.4416 16.1447 31.4416V27.4416ZM14.773 27.3594C14.621 27.341 14.4701 27.3197 14.3201 27.2954L13.6799 31.2438C13.8831 31.2767 14.0876 31.3057 14.2932 31.3305L14.773 27.3594ZM12 29.2696V38.1915H16V29.2696H12ZM12 56.0352V73.879H16V56.0352H12ZM12 91.7228V109.567H16V91.7228H12ZM12 127.41V145.254H16V127.41H12ZM12 163.098V172.02H16V163.098H12ZM14.3201 173.994C14.4701 173.97 14.621 173.948 14.773 173.93L14.2932 169.959C14.0876 169.984 13.8831 170.013 13.6799 170.046L14.3201 173.994ZM15.6859 173.857C15.838 173.851 15.9909 173.848 16.1447 173.848V169.848C15.9378 169.848 15.7318 169.852 15.5268 169.86L15.6859 173.857ZM16.1447 173.848C17.5184 173.848 18.8305 174.092 20.043 174.538L21.4233 170.783C19.7753 170.178 17.9963 169.848 16.1447 169.848V173.848ZM25.984 179.589C26.6271 180.726 27.0786 181.983 27.2954 183.32L31.2438 182.68C30.9497 180.866 30.3367 179.159 29.465 177.619L25.984 179.589ZM29.2696 185H38.1915V181H29.2696V185ZM56.0352 185H73.879V181H56.0352V185ZM91.7228 185H109.567V181H91.7228V185ZM127.41 185H145.254V181H127.41V185ZM163.098 185H172.02V181H163.098V185ZM173.994 183.32C174.768 178.544 178.544 174.768 183.32 173.994L182.68 170.046C176.204 171.096 171.096 176.204 170.046 182.68L173.994 183.32ZM185 172.02V163.108H181V172.02H185ZM185 145.285V127.462H181V145.285H185ZM185 109.639V91.8157H181V109.639H185ZM185 73.9926V56.1695H181V73.9926H185ZM185 38.3464V29.4348H181V38.3464H185ZM183.063 27.4358C181.566 27.3884 180.146 27.0504 178.854 26.4775L177.233 30.1341C178.987 30.9122 180.914 31.3697 182.937 31.4338L183.063 27.4358ZM172.954 20.3843C172.425 19.0778 172.132 17.6479 172.132 16.1447H168.132C168.132 18.1715 168.527 20.1109 169.247 21.8864L172.954 20.3843ZM183 29.4348H187V25.5596L183.127 25.4368L183 29.4348ZM170.304 14L174.252 14.6402L175.005 10H170.304V14ZM29.2696 14V10H24.5687L25.3211 14.6403L29.2696 14ZM14 29.2696L14.6403 25.3211L10 24.5687V29.2696H14ZM14 172.02H10V176.721L14.6402 175.968L14 172.02ZM29.2696 183L25.3211 183.64L25.8659 187H29.2696V183ZM172.02 183V187H175.423L175.968 183.64L172.02 183ZM183 172.02L183.64 175.968L187 175.423V172.02H183ZM174.132 16.1447C174.132 15.6298 174.173 15.1275 174.252 14.6402L166.356 13.3598C166.208 14.2688 166.132 15.1992 166.132 16.1447H174.132ZM170.304 10H161.489V18H170.304V10ZM143.86 10H126.231V18H143.86V10ZM108.601 10H90.9721V18H108.601V10ZM73.3428 10H55.7135V18H73.3428V10ZM38.0842 10H29.2696V18H38.0842V10ZM25.3211 14.6403C25.3411 14.7636 25.3587 14.8878 25.3738 15.0129L33.3161 14.0534C33.288 13.8208 33.2553 13.5896 33.218 13.3597L25.3211 14.6403ZM25.4341 15.7655C25.4391 15.891 25.4416 16.0174 25.4416 16.1447H33.4416C33.4416 15.9113 33.437 15.6788 33.4278 15.4472L25.4341 15.7655ZM25.4416 16.1447C25.4416 17.4126 25.19 18.6117 24.7377 19.7024L32.1275 22.7668C32.9756 20.7218 33.4416 18.4826 33.4416 16.1447H25.4416ZM19.7024 24.7377C18.6117 25.19 17.4126 25.4416 16.1447 25.4416V33.4416C18.4826 33.4416 20.7218 32.9756 22.7668 32.1275L19.7024 24.7377ZM16.1447 25.4416C16.0174 25.4416 15.891 25.4391 15.7655 25.4341L15.4472 33.4278C15.6788 33.437 15.9113 33.4416 16.1447 33.4416V25.4416ZM15.0129 25.3738C14.8878 25.3587 14.7636 25.3411 14.6403 25.3211L13.3597 33.218C13.5896 33.2553 13.8208 33.288 14.0534 33.3161L15.0129 25.3738ZM10 29.2696V38.1915H18V29.2696H10ZM10 56.0352V73.879H18V56.0352H10ZM10 91.7228V109.567H18V91.7228H10ZM10 127.41V145.254H18V127.41H10ZM10 163.098V172.02H18V163.098H10ZM14.6402 175.968C14.7635 175.948 14.8878 175.931 15.0129 175.916L14.0534 167.973C13.8208 168.001 13.5896 168.034 13.3598 168.071L14.6402 175.968ZM15.7655 175.855C15.891 175.85 16.0175 175.848 16.1447 175.848V167.848C15.9113 167.848 15.6787 167.852 15.4472 167.862L15.7655 175.855ZM16.1447 175.848C17.2794 175.848 18.3581 176.049 19.3528 176.415L22.1135 168.906C20.2477 168.22 18.2352 167.848 16.1447 167.848V175.848ZM24.2435 180.575C24.7723 181.509 25.143 182.542 25.3211 183.64L33.218 182.36C32.8852 180.308 32.1916 178.376 31.2055 176.634L24.2435 180.575ZM29.2696 187H38.1915V179H29.2696V187ZM56.0352 187H73.879V179H56.0352V187ZM91.7228 187H109.567V179H91.7228V187ZM127.41 187H145.254V179H127.41V187ZM163.098 187H172.02V179H163.098V187ZM175.968 183.64C176.605 179.714 179.714 176.605 183.64 175.968L182.36 168.071C175.034 169.259 169.259 175.034 168.071 182.36L175.968 183.64ZM187 172.02V163.108H179V172.02H187ZM187 145.285V127.462H179V145.285H187ZM187 109.639V91.8157H179V109.639H187ZM187 73.9926V56.1695H179V73.9926H187ZM187 38.3464V29.4348H179V38.3464H187ZM183.127 25.4368C181.892 25.3977 180.725 25.1195 179.665 24.6493L176.422 31.9623C178.408 32.8431 180.588 33.3604 182.873 33.4328L183.127 25.4368ZM174.807 19.6332C174.373 18.5613 174.132 17.3861 174.132 16.1447H166.132C166.132 18.4333 166.579 20.6274 167.393 22.6375L174.807 19.6332Z" fill="white" mask="url(#path-2-inside-1_315_99)"/>
<path d="M104.44 152.4C119 152.4 124.18 142.6 124.18 125.66H117.18C117.18 137.84 114.38 144 108.64 144C102.34 144 99.82 138.96 99.82 127.34V88.14H123.48V80.44H99.82C99.96 70.64 102.62 59.16 108.08 46L104.3 44.6L91.84 67L78.68 44.6L75.32 46C80.78 58.18 83.58 69.66 83.44 80.44H71.26V88.14H83.44V129.86C83.44 144.84 90.44 152.4 104.44 152.4Z" fill="white"/>
</svg>
