<svg width="1280" height="782" viewBox="0 0 1280 782" fill="none" xmlns="http://www.w3.org/2000/svg">
<circle cx="60.5" cy="60.5" r="7.5" fill="#4301FF"/>
<circle cx="569.5" cy="60.5" r="7.5" fill="#4301FF"/>
<circle cx="60.5" cy="343.5" r="7.5" fill="#4301FF"/>
<circle cx="569.5" cy="343.5" r="7.5" fill="#4301FF"/>
<mask id="path-5-inside-1_254_117" fill="white">
<path fill-rule="evenodd" clip-rule="evenodd" d="M0 25C13.8071 25 25 13.8071 25 0H605C605 13.8071 616.193 25 630 25V379C616.193 379 605 390.193 605 404H25C25 390.193 13.8071 379 0 379V25Z"/>
</mask>
<path d="M25 0V-6H19V0H25ZM0 25V19H-6V25H0ZM605 0H611V-6H605V0ZM630 25H636V19H630V25ZM630 379V385H636V379H630ZM605 404V410H611V404H605ZM25 404H19V410H25V404ZM0 379H-6V385H0V379ZM19 0C19 10.4934 10.4934 19 0 19V31C17.1208 31 31 17.1208 31 0H19ZM605 -6H25V6H605V-6ZM630 19C619.507 19 611 10.4934 611 0H599C599 17.1208 612.879 31 630 31V19ZM636 379V25H624V379H636ZM611 404C611 393.507 619.507 385 630 385V373C612.879 373 599 386.879 599 404H611ZM25 410H605V398H25V410ZM0 385C10.4934 385 19 393.507 19 404H31C31 386.879 17.1208 373 0 373V385ZM-6 25V379H6V25H-6Z" fill="#4301FF" mask="url(#path-5-inside-1_254_117)"/>
<mask id="path-7-inside-2_254_117" fill="white">
<path fill-rule="evenodd" clip-rule="evenodd" d="M23 45.1535C35.7989 45.1534 46.1744 35.235 46.1744 23H583.825C583.825 35.235 594.201 45.1535 607 45.1535V358.847C594.201 358.847 583.825 368.765 583.825 381H46.1744C46.1744 368.765 35.7989 358.847 23 358.847V45.1535Z"/>
</mask>
<path d="M46.1744 23V20H43.1744V23H46.1744ZM23 45.1535L23 42.1535L20 42.1535V45.1535H23ZM583.825 23H586.825V20H583.825V23ZM607 45.1535H610V42.1535H607V45.1535ZM607 358.847V361.847H610V358.847H607ZM583.825 381V384H586.825V381H583.825ZM46.1744 381H43.1744V384H46.1744V381ZM23 358.847H20V361.847L23 361.847L23 358.847ZM43.1744 23C43.1744 33.4521 34.2709 42.1534 23 42.1535L23 48.1535C37.3269 48.1533 49.1744 37.0178 49.1744 23H43.1744ZM583.825 20H46.1744V26H583.825V20ZM607 42.1535C595.729 42.1535 586.825 33.4522 586.825 23H580.825C580.825 37.0178 592.673 48.1535 607 48.1535V42.1535ZM610 358.847V45.1535H604V358.847H610ZM586.825 381C586.825 370.548 595.729 361.847 607 361.847V355.847C592.673 355.847 580.825 366.982 580.825 381H586.825ZM46.1744 384H583.825V378H46.1744V384ZM23 361.847C34.2709 361.847 43.1744 370.548 43.1744 381H49.1744C49.1744 366.982 37.3269 355.847 23 355.847L23 361.847ZM20 45.1535V358.847H26V45.1535H20Z" fill="#4301FF" mask="url(#path-7-inside-2_254_117)"/>
<path d="M1280 26.0146V549H1215.87C1211.52 538.814 1202.1 531.76 1191.18 531.76H1063.81C1056.28 531.76 1049.46 535.122 1044.52 540.555C1042.3 542.996 1040.47 545.848 1039.12 549H975V26.0146C987.555 26.0146 997.744 14.8081 997.744 1H1036.52C1036.52 17.5797 1048.75 31.0175 1063.81 31.0175H1191.18C1198.71 31.0175 1205.54 27.6556 1210.48 22.2224C1215.42 16.7892 1218.47 9.28484 1218.47 1H1257.26C1257.26 14.8081 1267.44 26.0146 1280 26.0146Z" fill="#4301FF"/>
<path d="M1218.08 566H1280V754.976C1267.44 754.976 1257.26 766.624 1257.26 781H1218.47C1218.47 763.751 1206.25 749.771 1191.18 749.771H1063.81C1056.28 749.771 1049.46 753.269 1044.52 758.921C1039.58 764.574 1036.52 772.381 1036.52 781H997.744C997.744 766.624 987.555 754.976 975 754.976V566H1036.91C1039.07 580.771 1050.3 592.014 1063.81 592.014H1191.18C1198.71 592.014 1205.54 588.516 1210.48 582.864C1214.4 578.387 1217.13 572.537 1218.08 566Z" fill="#4301FF"/>
<path d="M1034.8 707.4C1038.44 707.4 1040.24 705.08 1040.24 700.48H1037.52C1037.52 702.88 1037.16 704.08 1036.48 704.08C1035.68 704.08 1035.36 703.64 1034.88 701.4C1034.36 698.48 1033.56 696.48 1032.52 695.4C1031.48 694.28 1029.52 693.32 1026.68 692.52C1028.08 692.04 1029.32 690.4 1029.84 689.16C1030.12 688.52 1030.44 687.64 1030.8 686.52C1031.2 685.4 1031.48 684.68 1031.64 684.32C1032.24 685.32 1033.28 685.8 1034.72 685.8C1036.68 685.8 1037.92 684.52 1037.92 682.56C1037.92 680.44 1036.56 679 1034 679C1029.84 679 1028.68 683.48 1027.52 687C1026.76 689.4 1025.44 691.36 1023.48 691.36H1021.76V682.48H1024.36V679.4H1011.84V682.48H1014.48V703.92H1011.84V707H1024.36V703.92H1021.76V694.44H1023.48C1024.68 694.44 1025.52 694.84 1026.04 695.6C1026.56 696.36 1027.12 697.96 1027.64 700.44C1028.56 705.44 1030.84 707.4 1034.8 707.4ZM1066.89 688.08C1065.89 684.76 1063.93 681.88 1060.53 680.24C1058.85 679.4 1056.93 679 1054.81 679C1052.69 679 1050.77 679.4 1049.05 680.24C1042.53 683.44 1040.69 691.84 1042.69 698.36C1043.77 701.6 1045.69 704.52 1049.05 706.16C1050.77 707 1052.69 707.4 1054.81 707.4C1056.93 707.4 1058.85 707 1060.53 706.16C1067.13 702.84 1068.89 694.64 1066.89 688.08ZM1054.81 704.12C1051.45 704.12 1049.41 700.56 1049.41 693.2C1049.41 685.84 1051.45 682.28 1054.81 682.28C1058.13 682.28 1060.21 685.88 1060.21 693.2C1060.21 700.56 1058.13 704.12 1054.81 704.12ZM1083.73 707V703.92H1081.37V694.44H1090.33V703.92H1087.97V707H1100.25V703.92H1097.61V682.48H1100.25V679.4H1087.97V682.48H1090.33V691.36H1081.37V682.48H1083.73V679.4H1071.45V682.48H1074.09V703.92H1071.45V707H1083.73ZM1123.03 707V703.92H1120.03V682.44H1121.23C1122.79 682.44 1123.87 682.8 1124.43 683.48C1124.99 684.16 1125.27 685.48 1125.27 687.44V688.72H1128.87V679.4H1103.87V688.72H1107.47V687.44C1107.47 685.48 1107.75 684.16 1108.31 683.48C1108.87 682.8 1109.95 682.44 1111.51 682.44H1112.75V703.92H1109.71V707H1123.03ZM1145.42 707V703.92H1142.42V696.48H1144.5C1148.34 696.48 1151.34 695.64 1153.46 694C1155.62 692.36 1156.7 690.28 1156.7 687.8C1156.7 682.8 1152.46 679.4 1144.18 679.4H1132.5V682.48H1135.14V703.92H1132.5V707H1145.42ZM1143.98 682.48C1147.38 682.48 1149.22 684.36 1149.22 687.76C1149.22 691.52 1147.5 693.4 1144.02 693.4H1142.42V682.48H1143.98ZM1184.5 688.08C1183.5 684.76 1181.54 681.88 1178.14 680.24C1176.46 679.4 1174.54 679 1172.42 679C1170.3 679 1168.38 679.4 1166.66 680.24C1160.14 683.44 1158.3 691.84 1160.3 698.36C1161.38 701.6 1163.3 704.52 1166.66 706.16C1168.38 707 1170.3 707.4 1172.42 707.4C1174.54 707.4 1176.46 707 1178.14 706.16C1184.74 702.84 1186.5 694.64 1184.5 688.08ZM1172.42 704.12C1169.06 704.12 1167.02 700.56 1167.02 693.2C1167.02 685.84 1169.06 682.28 1172.42 682.28C1175.74 682.28 1177.82 685.88 1177.82 693.2C1177.82 700.56 1175.74 704.12 1172.42 704.12ZM1204.35 682.48V703.92H1201.87V707H1214.27V703.92H1211.63V682.48H1214.27V679.4H1191.99V682.48H1194.95C1194.99 692.88 1194.35 699.28 1193.07 701.64C1192.43 700.84 1191.51 700.44 1190.31 700.44C1188.27 700.44 1186.99 701.84 1186.99 703.88C1186.99 705.96 1188.59 707.4 1190.95 707.4C1193.83 707.4 1195.75 705.6 1196.75 702C1197.75 698.36 1198.23 691.88 1198.27 682.48H1204.35ZM1228.69 689.84V682.48H1231.33V679.4H1218.77V682.48H1221.41V703.92H1218.77V707H1230.97C1235.01 707 1238.13 706.2 1240.25 704.56C1242.41 702.92 1243.49 700.8 1243.49 698.2C1243.49 693.2 1238.93 689.84 1231.09 689.84H1228.69ZM1230.77 692.92C1234.09 692.92 1236.01 694.84 1236.01 698.2C1236.01 701.84 1234.05 703.92 1230.69 703.92H1228.69V692.92H1230.77Z" fill="white"/>
<path d="M1027.44 646.8L1032.4 632.64L1037.36 646.8H1027.44ZM1027.4 655.52H1024.36L1026.92 648.28H1037.88L1040.4 655.52H1037.48V657H1046.04V655.52H1043.32L1034.2 629.4H1031.76L1022.56 655.52H1020V657H1027.4V655.52ZM1078.38 643.16C1078.38 638.72 1077.02 634.28 1073.82 631.28C1072.22 629.76 1070.34 629 1068.22 629C1066.1 629 1064.22 629.76 1062.62 631.28C1061.06 632.76 1059.9 634.56 1059.18 636.68C1058.46 638.76 1058.1 640.92 1058.1 643.16C1058.1 646.4 1058.98 649.76 1060.58 652.6C1062.18 655.44 1064.98 657.4 1068.22 657.4C1070.34 657.4 1072.22 656.64 1073.82 655.12C1075.42 653.6 1076.58 651.8 1077.3 649.68C1078.02 647.56 1078.38 645.4 1078.38 643.16ZM1061.22 643.16C1061.22 634.64 1063.86 630.6 1068.22 630.6C1070.42 630.6 1072.14 631.64 1073.38 633.72C1074.62 635.76 1075.26 638.92 1075.26 643.16C1075.26 647.4 1074.62 650.56 1073.38 652.68C1072.14 654.76 1070.42 655.8 1068.22 655.8C1063.9 655.8 1061.22 651.6 1061.22 643.16ZM1094.84 655.52H1090.24V629H1089.04C1088.52 629.92 1087.88 630.56 1087.12 630.92C1086.36 631.24 1084.88 631.4 1082.68 631.4V632.84H1087.24V655.52H1082.68V657H1094.84V655.52ZM1101.68 654.76L1109.8 646C1113.08 642.44 1114.72 639.08 1114.72 635.88C1114.72 631.52 1111.88 629 1106.88 629C1104.28 629 1102.2 629.6 1100.68 630.8C1099.2 632 1098.44 633.32 1098.44 634.8C1098.44 636.12 1099.2 636.88 1100.44 636.88C1101.56 636.88 1102.28 636.08 1102.28 635C1102.28 634 1101.76 633.36 1100.72 633.08C1101.48 631.48 1103.6 630.6 1106 630.6C1109.72 630.6 1111.56 632.32 1111.56 636.44C1111.56 638.36 1111.04 640.28 1109.96 642.24C1108.88 644.2 1106.8 646.88 1103.64 650.28L1098.72 655.6V657H1115.72V648.84H1113.96V651.2C1113.96 652.64 1113.76 653.6 1113.32 654.08C1112.92 654.52 1111.88 654.76 1110.2 654.76H1101.68ZM1129.08 655.8C1126.24 655.8 1123.92 654.68 1123.12 652.92C1123.88 652.72 1124.72 652 1124.72 650.92C1124.72 649.84 1124.04 649.12 1122.88 649.12C1121.56 649.12 1120.92 649.88 1120.92 651.44C1120.92 653.04 1121.68 654.44 1123.24 655.64C1124.8 656.8 1126.76 657.4 1129.16 657.4C1132.16 657.4 1134.44 656.64 1136 655.16C1137.56 653.64 1138.32 651.8 1138.32 649.6C1138.32 646.12 1135.92 643.36 1131.32 642.44C1135.16 641.2 1137.04 638.6 1137.04 635.44C1137.04 631.6 1134.32 629 1129.32 629C1126.84 629 1124.84 629.6 1123.32 630.76C1121.84 631.92 1121.08 633.28 1121.08 634.8C1121.08 636.12 1121.84 636.88 1123.08 636.88C1124.24 636.88 1124.92 636.16 1124.92 635C1124.92 633.92 1124.36 633.28 1123.28 633C1124.2 631.4 1125.96 630.6 1128.48 630.6C1132 630.6 1133.88 632.68 1133.88 636C1133.88 639.32 1132.12 641.88 1128.32 641.88H1125.68V643.36H1128.32C1130.28 643.36 1131.88 643.84 1133.2 644.84C1134.52 645.84 1135.16 647.4 1135.16 649.6C1135.16 653.72 1132.96 655.8 1129.08 655.8ZM1161.89 655.52H1158.49V648.64H1161.89V647.16H1158.49V629.32H1156.25L1142.01 647.6V648.64H1155.49V655.52H1151.69V657H1161.89V655.52ZM1144.33 647.16L1155.49 632.84V647.16H1144.33ZM1174.5 655.8C1171.66 655.8 1169.74 654.96 1168.7 653.32C1169.7 653.04 1170.22 652.36 1170.22 651.36C1170.22 650.24 1169.54 649.48 1168.38 649.48C1167.1 649.48 1166.38 650.36 1166.38 651.6C1166.38 653.24 1167.18 654.6 1168.74 655.72C1170.34 656.84 1172.38 657.4 1174.86 657.4C1177.86 657.4 1180.14 656.48 1181.7 654.68C1183.26 652.84 1184.06 650.64 1184.06 648.12C1184.06 645.72 1183.3 643.68 1181.74 642.04C1180.22 640.36 1178.06 639.52 1175.26 639.52C1172.74 639.52 1170.66 640.44 1169.58 641.72L1170.5 631.92H1182.54V629.4H1168.98L1167.62 643.68H1169.34C1170.34 642.12 1172.3 641.16 1174.58 641.16C1178.42 641.16 1180.9 643.68 1180.9 648.2C1180.9 653.04 1178.66 655.8 1174.5 655.8ZM1200.15 630.6C1202.11 630.6 1203.39 631 1204.03 631.84C1203.27 632.28 1202.87 632.92 1202.87 633.68C1202.87 634.68 1203.67 635.52 1204.79 635.52C1205.95 635.52 1206.67 634.72 1206.67 633.44C1206.67 632.2 1206.03 631.12 1204.75 630.28C1203.47 629.44 1201.83 629 1199.87 629C1196.47 629 1193.79 630.4 1191.83 633.16C1189.87 635.92 1188.91 639.6 1188.91 644.24C1188.91 648.72 1189.83 652.04 1191.67 654.2C1193.55 656.32 1195.83 657.4 1198.51 657.4C1201.31 657.4 1203.55 656.52 1205.27 654.8C1206.99 653.04 1207.87 650.92 1207.87 648.44C1207.87 645.84 1207.07 643.76 1205.43 642.12C1203.79 640.48 1201.71 639.64 1199.11 639.64C1195.59 639.64 1192.83 641.28 1191.87 643.84C1191.87 633.68 1195.79 630.6 1200.15 630.6ZM1198.39 655.8C1196.51 655.8 1194.95 655.12 1193.79 653.72C1192.63 652.32 1192.07 650.56 1192.07 648.44C1192.07 644.16 1194.63 641.24 1198.43 641.24C1202.23 641.24 1204.75 644.16 1204.75 648.44C1204.75 650.56 1204.15 652.32 1202.99 653.72C1201.83 655.12 1200.31 655.8 1198.39 655.8ZM1219.52 657.4C1220.68 657.4 1221.28 656.68 1221.28 655.28C1221.28 654.92 1221.04 653.4 1220.92 652.24C1220.88 651.64 1220.96 650.76 1221.16 649.6C1221.6 647.2 1222.36 644.76 1224.44 640.44C1225.48 638.28 1226.76 635.92 1228.28 633.4L1229.88 630.8V629.4H1212.24V638H1214.04V635.72C1214.04 633.88 1214.28 632.76 1214.8 632.32C1215.32 631.88 1216.56 631.64 1218.52 631.64H1227.44L1225.96 634.04C1222.64 639.44 1220.24 644.4 1219.16 647.08C1218.64 648.4 1218.28 649.76 1218 651.12C1217.72 652.48 1217.6 653.32 1217.56 653.64V655.24C1217.56 656 1217.76 656.52 1218.12 656.88C1218.52 657.24 1219 657.4 1219.52 657.4Z" fill="white"/>
<path d="M1026.12 412.8H1021.96V387H1020.52C1019.84 388 1019 388.68 1017.96 389.08C1016.96 389.48 1015.24 389.68 1012.88 389.68V391.88H1017.08V412.8H1012.88V415H1026.12V412.8ZM1040.17 415.4C1043.41 415.4 1045.93 414.64 1047.73 413.08C1049.57 411.52 1050.49 409.68 1050.49 407.56C1050.49 404 1048.25 401.6 1043.73 400.32C1047.53 399.16 1049.41 396.76 1049.41 393.88C1049.41 391.96 1048.53 390.32 1046.77 389C1045.05 387.68 1042.81 387 1040.13 387C1037.45 387 1035.21 387.68 1033.49 389C1031.77 390.32 1030.89 391.96 1030.89 393.88C1030.89 396.96 1032.85 399.12 1036.81 400.32C1031.73 401.72 1029.81 404.04 1029.81 407.56C1029.81 409.68 1030.73 411.52 1032.53 413.08C1034.37 414.64 1036.93 415.4 1040.17 415.4ZM1040.17 399.36C1037.73 399.36 1035.93 397.16 1035.93 394C1035.93 391.24 1037.69 389.12 1040.13 389.12C1042.49 389.12 1044.33 391.24 1044.33 393.96C1044.33 397.12 1042.45 399.36 1040.17 399.36ZM1040.17 413.28C1037.17 413.28 1034.85 411 1034.89 407.48C1034.93 403.52 1037.09 401.44 1040.17 401.44C1043.25 401.44 1045.37 403.56 1045.41 407.52C1045.45 409.24 1044.93 410.64 1043.89 411.72C1042.89 412.76 1041.65 413.28 1040.17 413.28ZM1069.87 404.4L1074.27 391.64L1078.55 404.4H1069.87ZM1069.67 412.8H1067.03L1069.15 406.52H1079.27L1081.39 412.8H1078.75V415H1088.59V412.8H1086.19L1077.63 387.4H1073.11L1064.43 412.8H1062.15V415H1069.67V412.8ZM1103.76 415C1110.92 415 1114.24 412.48 1114.24 407.24C1114.24 405.4 1113.52 403.92 1112.04 402.8C1110.56 401.64 1108.8 400.92 1106.72 400.6C1110.28 400 1112.92 397.72 1112.92 394.32C1112.92 389.88 1109.12 387.4 1103.04 387.4H1091.36V389.6H1094.4V412.8H1091.36V415H1103.76ZM1102.44 389.56C1105.92 389.56 1107.92 391.72 1107.92 394.76C1107.92 397.92 1105.96 399.88 1102.08 399.88H1099.28V389.56H1102.44ZM1102.84 401.84C1106.72 401.84 1109.16 403.88 1109.16 407.28C1109.16 410.76 1106.96 412.84 1103.08 412.84H1099.28V401.84H1102.84ZM1130.32 415V412.8H1126.64V389.6H1129.84C1132.12 389.6 1133.12 389.68 1134.28 390.32C1135.44 390.96 1135.84 392.28 1135.84 394.52V395.52H1138.48V387.4H1118.72V389.6H1121.76V412.8H1118.72V415H1130.32ZM1148.69 415.4C1150.57 415.4 1152.09 414.68 1153.21 413.28C1154.37 411.84 1155.73 409.16 1157.33 405.24L1163.69 389.6H1166.09V387.4H1158.49V389.6H1160.97L1155.37 403.4L1148.09 389.6H1150.85V387.4H1140.65V389.6H1143.21L1153.25 408.6C1151.97 411.8 1150.81 413.04 1148.61 413.04C1149.01 412.52 1149.21 411.88 1149.21 411.12C1149.21 409.72 1148.29 408.76 1146.73 408.76C1145.13 408.76 1144.09 409.96 1144.09 411.52C1144.09 413.96 1145.85 415.4 1148.69 415.4ZM1187.06 415.4H1189.18V405.76H1186.54C1186.5 407.84 1185.94 409.56 1184.78 410.96C1183.62 412.32 1182.14 413 1180.26 413C1175.74 413 1172.78 409.04 1172.78 401.16C1172.78 393.2 1175.66 389.4 1179.94 389.4C1183.94 389.4 1186.3 392 1186.34 396.44H1188.98V387.04H1186.86L1185.3 388.88C1183.74 387.64 1181.74 387 1179.3 387C1175.82 387 1172.98 388.4 1170.86 391.16C1168.74 393.92 1167.7 397.28 1167.7 401.16C1167.7 406.24 1169.42 410.64 1173.06 413.36C1174.86 414.72 1177.02 415.4 1179.46 415.4C1182.06 415.4 1184.1 414.72 1185.5 413.4L1187.06 415.4ZM1211.09 415V412.8H1207.69V389.6H1209.57C1211.53 389.6 1212.85 389.92 1213.49 390.6C1214.13 391.24 1214.45 392.64 1214.45 394.8V395.8H1217.09V387.4H1193.33V395.8H1195.97V394.8C1195.97 392.68 1196.29 391.28 1196.93 390.6C1197.61 389.92 1198.89 389.6 1200.85 389.6H1202.81V412.8H1199.37V415H1211.09ZM1224.94 404.4L1229.34 391.64L1233.62 404.4H1224.94ZM1224.74 412.8H1222.1L1224.22 406.52H1234.34L1236.46 412.8H1233.82V415H1243.66V412.8H1241.26L1232.7 387.4H1228.18L1219.5 412.8H1217.22V415H1224.74V412.8Z" fill="white"/>
<path d="M1112.31 301.109L1122.36 268.826L1132.1 301.109H1112.31ZM1111.12 322.63H1105.71L1109.93 308.826H1134.48L1138.69 322.63H1132.64V331H1164V322.63H1158.16L1137.94 256H1117.17L1096.62 322.63H1091V331H1111.12V322.63Z" fill="white"/>
<path d="M1045.08 84.986C1046.85 81.138 1039.75 81.138 1041.6 84.986L1042.93 88.094H1043.74L1045.08 84.986ZM1040.78 85.578C1039.34 83.95 1037.93 84.357 1037.31 85.541C1036.75 86.392 1036.86 88.279 1039.01 88.501L1042.34 88.908L1042.74 88.205L1040.78 85.578ZM1047.67 88.501C1049.81 88.242 1049.92 86.429 1049.33 85.504C1048.78 84.542 1047.18 83.839 1045.85 85.578L1043.89 88.205L1044.3 88.908L1047.67 88.501ZM1042.3 89.019L1038.97 89.426C1038.01 89.537 1037.42 89.944 1037.16 90.647C1036.94 91.313 1037.01 91.905 1037.38 92.386C1037.86 93.348 1039.41 94.125 1040.67 92.497L1042.74 89.796L1042.3 89.019ZM1044.3 89.093L1043.85 89.833L1045.89 92.46C1047.22 94.125 1048.66 93.385 1049.26 92.423C1049.63 91.979 1049.7 91.424 1049.44 90.721C1049.22 90.018 1048.66 89.574 1047.74 89.463L1044.3 89.093ZM1043.74 89.87H1042.89L1041.52 93.089C1040.82 94.865 1041.86 95.79 1043.3 95.827C1044.67 95.864 1045.85 94.865 1045.11 93.126L1043.74 89.87ZM1084.32 98.01L1088.02 86.651L1091.72 98.01H1084.32ZM1084.03 105.558H1081.88L1083.58 100.304H1092.46L1094.13 105.558H1091.91V108H1101.83V105.558H1099.72L1092.28 82.47H1086.66L1079.14 105.558H1077.11V108H1084.03V105.558ZM1115.03 108V105.558H1112.59V96.197H1122.21V105.558H1119.73V108H1130.46V105.558H1127.83V84.912H1130.46V82.47H1119.73V84.912H1122.21V93.755H1112.59V84.912H1115.03V82.47H1104.34V84.912H1106.97V105.558H1104.34V108H1115.03ZM1145.44 108V105.558H1142.99V96.197H1152.61V105.558H1150.14V108H1160.87V105.558H1158.24V84.912H1160.87V82.47H1150.14V84.912H1152.61V93.755H1142.99V84.912H1145.44V82.47H1134.74V84.912H1137.37V105.558H1134.74V108H1145.44ZM1170.66 98.01L1174.36 86.651L1178.06 98.01H1170.66ZM1170.37 105.558H1168.22L1169.92 100.304H1178.8L1180.47 105.558H1178.25V108H1188.16V105.558H1186.05L1178.62 82.47H1172.99L1165.48 105.558H1163.45V108H1170.37V105.558ZM1214.42 84.986C1216.2 81.138 1209.09 81.138 1210.94 84.986L1212.28 88.094H1213.09L1214.42 84.986ZM1210.13 85.578C1208.69 83.95 1207.28 84.357 1206.65 85.541C1206.1 86.392 1206.21 88.279 1208.35 88.501L1211.68 88.908L1212.09 88.205L1210.13 85.578ZM1217.01 88.501C1219.16 88.242 1219.27 86.429 1218.68 85.504C1218.12 84.542 1216.53 83.839 1215.2 85.578L1213.24 88.205L1213.65 88.908L1217.01 88.501ZM1211.65 89.019L1208.32 89.426C1207.36 89.537 1206.76 89.944 1206.5 90.647C1206.28 91.313 1206.36 91.905 1206.73 92.386C1207.21 93.348 1208.76 94.125 1210.02 92.497L1212.09 89.796L1211.65 89.019ZM1213.65 89.093L1213.2 89.833L1215.24 92.46C1216.57 94.125 1218.01 93.385 1218.6 92.423C1218.97 91.979 1219.05 91.424 1218.79 90.721C1218.57 90.018 1218.01 89.574 1217.09 89.463L1213.65 89.093ZM1213.09 89.87H1212.24L1210.87 93.089C1210.17 94.865 1211.2 95.79 1212.65 95.827C1214.02 95.864 1215.2 94.865 1214.46 93.126L1213.09 89.87ZM1030.28 160.558H1027.76V158.56L1038.01 145.795V160.558H1035.46V163H1046.22V160.558H1043.63V139.912H1046.22V137.47H1035.46V139.912H1038.01V141.725L1027.76 154.49V139.912H1030.28V137.47H1019.51V139.912H1022.14V160.558H1019.51V163H1030.28V160.558ZM1062.92 163C1069.47 163 1072.77 160.632 1072.77 155.859C1072.77 154.12 1072.06 152.714 1070.69 151.678C1069.32 150.642 1067.59 149.976 1065.51 149.68C1069.25 149.199 1071.66 147.09 1071.66 143.834C1071.66 141.799 1070.8 140.245 1069.1 139.135C1067.4 138.025 1065.14 137.47 1062.37 137.47H1050.57V139.912H1053.19V160.558H1050.57V163H1062.92ZM1061.26 139.838C1064.22 139.838 1066.03 141.614 1066.03 144.389C1066.03 147.201 1064.26 148.829 1061.04 148.829H1058.82V139.838H1061.26ZM1061.48 151.012C1064.85 151.012 1066.99 152.714 1066.99 155.785C1066.99 158.893 1065 160.632 1061.63 160.632H1058.82V151.012H1061.48ZM1081.86 153.01L1085.56 141.651L1089.26 153.01H1081.86ZM1081.56 160.558H1079.42L1081.12 155.304H1090L1091.66 160.558H1089.44V163H1099.36V160.558H1097.25L1089.81 137.47H1084.19L1076.68 160.558H1074.64V163H1081.56V160.558ZM1112.57 163V160.558H1110.12V151.197H1119.74V160.558H1117.26V163H1127.99V160.558H1125.37V139.912H1127.99V137.47H1117.26V139.912H1119.74V148.755H1110.12V139.912H1112.57V137.47H1101.87V139.912H1104.5V160.558H1101.87V163H1112.57ZM1154.3 145.499C1153.38 142.428 1151.6 139.764 1148.53 138.247C1147.01 137.47 1145.31 137.1 1143.39 137.1C1141.46 137.1 1139.72 137.47 1138.17 138.247C1132.25 141.207 1130.58 149.014 1132.4 154.971C1133.4 158.042 1135.1 160.706 1138.17 162.223C1139.72 163 1141.46 163.37 1143.39 163.37C1145.31 163.37 1147.01 163 1148.53 162.223C1154.45 159.263 1156.15 151.456 1154.3 145.499ZM1143.39 160.743C1139.83 160.743 1137.5 157.339 1137.5 150.235C1137.5 143.131 1139.83 139.727 1143.39 139.727C1146.83 139.727 1149.19 143.168 1149.19 150.235C1149.19 157.339 1146.83 160.743 1143.39 160.743ZM1171.1 163C1177.65 163 1180.94 160.632 1180.94 155.859C1180.94 154.12 1180.24 152.714 1178.87 151.678C1177.5 150.642 1175.76 149.976 1173.69 149.68C1177.43 149.199 1179.83 147.09 1179.83 143.834C1179.83 141.799 1178.98 140.245 1177.28 139.135C1175.58 138.025 1173.32 137.47 1170.55 137.47H1158.74V139.912H1161.37V160.558H1158.74V163H1171.1ZM1169.44 139.838C1172.4 139.838 1174.21 141.614 1174.21 144.389C1174.21 147.201 1172.43 148.829 1169.22 148.829H1167V139.838H1169.44ZM1169.66 151.012C1173.03 151.012 1175.17 152.714 1175.17 155.785C1175.17 158.893 1173.17 160.632 1169.81 160.632H1167V151.012H1169.66ZM1195.54 163V160.558H1193.1V151.197H1202.72V160.558H1200.24V163H1210.97V160.558H1208.34V139.912H1210.97V137.47H1200.24V139.912H1202.72V148.755H1193.1V139.912H1195.54V137.47H1184.85V139.912H1187.48V160.558H1184.85V163H1195.54ZM1220.77 153.01L1224.47 141.651L1228.17 153.01H1220.77ZM1220.47 160.558H1218.33L1220.03 155.304H1228.91L1230.57 160.558H1228.35V163H1238.27V160.558H1236.16L1228.72 137.47H1223.1L1215.59 160.558H1213.55V163H1220.47V160.558Z" fill="white"/>
<path d="M1094.12 493.8H1089.96V468H1088.52C1087.84 469 1087 469.68 1085.96 470.08C1084.96 470.48 1083.24 470.68 1080.88 470.68V472.88H1085.08V493.8H1080.88V496H1094.12V493.8ZM1106.45 496.4C1113.57 496.4 1116.25 491.44 1116.25 487.04C1116.25 484.64 1115.45 482.6 1113.85 480.92C1112.29 479.24 1109.97 478.4 1106.97 478.4C1104.73 478.4 1102.97 478.96 1101.69 480.04L1102.29 471.96H1114.65V468.4H1100.01L1098.85 482.84H1101.17C1101.97 481.6 1103.69 480.76 1105.57 480.76C1109.05 480.76 1111.17 482.88 1111.17 487.16C1111.17 491.76 1109.33 494.04 1105.69 494.04C1103.69 494.04 1102.21 493.64 1101.21 492.8C1102.25 492.2 1102.77 491.4 1102.77 490.36C1102.77 488.92 1101.85 487.88 1100.21 487.88C1098.57 487.88 1097.53 489.04 1097.53 490.64C1097.53 492.32 1098.33 493.72 1099.97 494.8C1101.61 495.88 1103.77 496.4 1106.45 496.4ZM1126.77 481.4C1126.77 480 1125.73 478.6 1123.93 478.6C1122.13 478.6 1121.13 480 1121.13 481.4C1121.13 482.72 1122.13 484.08 1123.93 484.08C1125.73 484.08 1126.77 482.72 1126.77 481.4ZM1126.77 493.72C1126.77 492.32 1125.73 490.92 1123.93 490.92C1122.13 490.92 1121.13 492.32 1121.13 493.72C1121.13 495.04 1122.13 496.4 1123.93 496.4C1125.73 496.4 1126.77 495.04 1126.77 493.72ZM1151.63 493.8H1148.59V487.96H1151.63V485.8H1148.59V468.4H1144.71L1130.75 486.44V487.96H1143.71V493.8H1140.35V496H1151.63V493.8ZM1134.11 485.8L1143.71 473.4V485.8H1134.11ZM1164.83 496.4C1171.95 496.4 1174.63 491.44 1174.63 487.04C1174.63 484.64 1173.83 482.6 1172.23 480.92C1170.67 479.24 1168.35 478.4 1165.35 478.4C1163.11 478.4 1161.35 478.96 1160.07 480.04L1160.67 471.96H1173.03V468.4H1158.39L1157.23 482.84H1159.55C1160.35 481.6 1162.07 480.76 1163.95 480.76C1167.43 480.76 1169.55 482.88 1169.55 487.16C1169.55 491.76 1167.71 494.04 1164.07 494.04C1162.07 494.04 1160.59 493.64 1159.59 492.8C1160.63 492.2 1161.15 491.4 1161.15 490.36C1161.15 488.92 1160.23 487.88 1158.59 487.88C1156.95 487.88 1155.91 489.04 1155.91 490.64C1155.91 492.32 1156.71 493.72 1158.35 494.8C1159.99 495.88 1162.15 496.4 1164.83 496.4Z" fill="white"/>
<line x1="995" y1="437.5" x2="1260" y2="437.5" stroke="white" stroke-width="3" stroke-dasharray="20 20"/>
<line x1="995" y1="200.5" x2="1260" y2="200.5" stroke="white" stroke-width="3" stroke-dasharray="20 20"/>
<circle cx="1126" cy="294" r="64.5" stroke="white" stroke-width="3"/>
<path d="M955 553V449C941.2 449 930 437.8 930 424H634.41V553.79C657.79 557.98 675.52 578.42 675.52 603C675.52 627.58 657.79 648.02 634.41 652.21V782H930C930 768.19 941.2 757 955 757V653C927.39 653 905 630.61 905 603C905 575.39 927.39 553 955 553ZM0 449V553C27.61 553 50 575.39 50 603C50 630.61 27.61 653 0 653V757C13.81 757 25 768.19 25 782H616.63V652.21C593.26 648.02 575.52 627.58 575.52 603C575.52 578.42 593.26 557.98 616.63 553.79V424H25C25 437.8 13.81 449 0 449Z" fill="#4301FF"/>
<path d="M300.36 643.996L300.36 646.716L298.2 646.716L284.4 635.636L300.36 635.636L300.36 638.396L303 638.396L303 626.756L300.36 626.756L300.36 629.556L278.04 629.556L278.04 626.756L275.4 626.756L275.4 638.396L278.04 638.396L278.04 635.636L280 635.636L293.8 646.716L278.04 646.716L278.04 643.996L275.4 643.996L275.4 655.636L278.04 655.636L278.04 652.796L300.36 652.796L300.36 655.636L303 655.636L303 643.996L300.36 643.996ZM303 608.702C303 601.622 300.44 598.062 295.28 598.062C293.4 598.062 291.88 598.822 290.76 600.302C289.64 601.782 288.92 603.662 288.6 605.902C288.08 601.862 285.8 599.262 282.28 599.262C280.08 599.262 278.4 600.182 277.2 602.022C276 603.862 275.4 606.302 275.4 609.302L275.4 622.062L278.04 622.062L278.04 619.222L300.36 619.222L300.36 622.062L303 622.062L303 608.702ZM277.96 610.502C277.96 607.302 279.88 605.342 282.88 605.342C285.92 605.342 287.68 607.262 287.68 610.742L287.68 613.142L277.96 613.142L277.96 610.502ZM290.04 610.262C290.04 606.622 291.88 604.302 295.2 604.302C298.56 604.302 300.44 606.462 300.44 610.102L300.44 613.142L290.04 613.142L290.04 610.262ZM292.2 588.232L279.92 584.232L292.2 580.232L292.2 588.232ZM300.36 588.552L300.36 590.872L294.68 589.032L294.68 579.432L300.36 577.632L300.36 580.032L303 580.032L303 569.312L300.36 569.312L300.36 571.592L275.4 579.632L275.4 585.712L300.36 593.832L300.36 596.032L303 596.032L303 588.552L300.36 588.552ZM303 555.035L300.36 555.035L300.36 557.675L290.24 557.675L290.24 547.275L300.36 547.275L300.36 549.955L303 549.955L303 538.355L300.36 538.355L300.36 541.195L278.04 541.195L278.04 538.355L275.4 538.355L275.4 549.955L278.04 549.955L278.04 547.275L287.6 547.275L287.6 557.675L278.04 557.675L278.04 555.035L275.4 555.035L275.4 566.595L278.04 566.595L278.04 563.755L300.36 563.755L300.36 566.595L303 566.595L303 555.035ZM375 679.72L372.36 679.72L372.36 683.16L350.04 683.16L350.04 680.36C350.04 678.28 350.12 677.36 350.76 676.24C351.4 675.12 352.72 674.68 354.96 674.68L356.12 674.68L356.12 671.56L347.4 671.56L347.4 692.08L350.04 692.08L350.04 689.24L372.36 689.24L372.36 692.08L375 692.08L375 679.72ZM375 655.684L372.36 655.684L372.36 658.884L364.08 658.884L364.08 656.604C364.08 652.884 363.28 649.964 361.64 647.884C360 645.764 358 644.724 355.6 644.724C350.68 644.724 347.4 648.964 347.4 656.844L347.4 667.804L350.04 667.804L350.04 664.964L372.36 664.964L372.36 667.804L375 667.804L375 655.684ZM350.04 656.924C350.04 652.964 352.04 651.004 355.56 651.004C359.52 651.004 361.48 652.964 361.48 656.844L361.48 658.884L350.04 658.884L350.04 656.924ZM372.36 629.739L372.36 632.459L370.2 632.459L356.4 621.379L372.36 621.379L372.36 624.139L375 624.139L375 612.499L372.36 612.499L372.36 615.299L350.04 615.299L350.04 612.499L347.4 612.499L347.4 624.139L350.04 624.139L350.04 621.379L352 621.379L365.8 632.459L350.04 632.459L350.04 629.739L347.4 629.739L347.4 641.379L350.04 641.379L350.04 638.539L372.36 638.539L372.36 641.379L375 641.379L375 629.739L372.36 629.739ZM375 568.365L372.36 568.365L372.36 571.205L350.04 571.205L350.04 568.365L347.4 568.365L347.4 579.485L350.04 579.485L350.04 577.285L372.36 577.285L372.36 585.045L350.04 585.045L350.04 582.965L347.4 582.965L347.4 593.205L350.04 593.205L350.04 591.125L372.36 591.125L372.36 598.885L350.04 598.885L350.04 596.685L347.4 596.685L347.4 607.805L350.04 607.805L350.04 604.965L372.36 604.965L372.36 607.805L375 607.805L375 568.365ZM372.36 552.084L372.36 554.804L370.2 554.804L356.4 543.724L372.36 543.724L372.36 546.484L375 546.484L375 534.844L372.36 534.844L372.36 537.644L350.04 537.644L350.04 534.844L347.4 534.844L347.4 546.484L350.04 546.484L350.04 543.724L352 543.724L365.8 554.804L350.04 554.804L350.04 552.084L347.4 552.084L347.4 563.724L350.04 563.724L350.04 560.884L372.36 560.884L372.36 563.724L375 563.724L375 552.084L372.36 552.084ZM375 518.59L372.36 518.59L372.36 521.23L362.24 521.23L362.24 510.83L372.36 510.83L372.36 513.51L375 513.51L375 501.91L372.36 501.91L372.36 504.75L350.04 504.75L350.04 501.91L347.4 501.91L347.4 513.51L350.04 513.51L350.04 510.83L359.6 510.83L359.6 521.23L350.04 521.23L350.04 518.59L347.4 518.59L347.4 530.15L350.04 530.15L350.04 527.31L372.36 527.31L372.36 530.15L375 530.15L375 518.59Z" fill="white"/>
<circle cx="144" cy="594" r="64.5" stroke="white" stroke-width="3"/>
<path d="M114.93 592.555C114.93 586.78 115.77 582.58 117.345 580.165C118.92 577.75 122.385 576.49 127.845 576.49L130.155 576.49L130.155 568.3L108 568.3L108 625L114.93 625L114.93 617.545L173.52 617.545L173.52 625L180.45 625L180.45 595.18C180.45 584.89 178.35 577.015 174.255 571.45C170.055 565.885 164.805 563.05 158.4 563.05C145.485 563.05 137.61 574.6 137.61 594.865L137.61 601.585L114.93 601.585L114.93 592.555ZM144.435 595.39C144.435 585.205 149.475 579.535 158.4 579.535C167.745 579.535 173.52 585.415 173.52 595.6L173.52 601.585L144.435 601.585L144.435 595.39Z" fill="white"/>
<rect x="694.5" y="446.5" width="199" height="315" rx="20.5" stroke="white" stroke-width="3"/>
<path d="M716.486 658.426C714.992 658.876 713.696 659.722 712.958 661.18C712.58 661.9 712.4 662.71 712.4 663.628C712.4 664.546 712.58 665.356 712.958 666.094C714.398 668.92 718.196 669.73 721.094 668.848C722.588 668.398 723.884 667.552 724.622 666.094C725 665.356 725.18 664.546 725.18 663.628C725.18 662.71 725 661.9 724.622 661.18C723.182 658.354 719.384 657.544 716.486 658.426ZM718.79 666.904C715.208 666.904 713.48 665.554 713.48 663.628C713.48 661.738 715.208 660.37 718.79 660.37C722.39 660.37 724.1 661.738 724.1 663.628C724.1 665.554 722.39 666.904 718.79 666.904ZM724.01 648.968L724.01 654.17C722.3 653.306 718.826 652.856 713.57 652.838L713.57 648.968L724.01 648.968ZM727.664 655.862C726.638 655.862 725.936 655.664 725.558 655.286C725.18 654.908 725 654.206 725 653.216L725 648.842C725 647.852 725.18 647.15 725.558 646.772C725.936 646.394 726.638 646.196 727.664 646.196L728.06 646.196L728.06 645.008L724.01 645.008L724.01 646.772L713.57 646.772L713.57 645.404L712.58 645.404L712.58 655.484L713.57 655.484L713.57 654.098C718.7 654.116 722.048 654.422 724.01 655.574L724.01 657.05L728.06 657.05L728.06 655.862L727.664 655.862ZM724.01 638.259L724.01 639.591L722.84 639.591L716.27 634.029L724.01 634.029L724.01 635.379L725 635.379L725 630.483L724.01 630.483L724.01 631.833L713.57 631.833L713.57 630.483L712.58 630.483L712.58 635.379L713.57 635.379L713.57 634.029L714.65 634.029L721.22 639.591L713.57 639.591L713.57 638.259L712.58 638.259L712.58 643.155L713.57 643.155L713.57 641.787L724.01 641.787L724.01 643.155L725 643.155L725 638.259L724.01 638.259ZM725 623.433L724.01 623.433L724.01 624.747L719.15 624.747L719.15 619.419L724.01 619.419L724.01 620.751L725 620.751L725 615.873L724.01 615.873L724.01 617.223L713.57 617.223L713.57 615.873L712.58 615.873L712.58 620.751L713.57 620.751L713.57 619.419L718.16 619.419L718.16 624.747L713.57 624.747L713.57 623.433L712.58 623.433L712.58 628.311L713.57 628.311L713.57 626.943L724.01 626.943L724.01 628.311L725 628.311L725 623.433ZM713.57 603.825C713.57 602.763 713.624 602.277 713.912 601.755C714.2 601.233 714.776 601.035 715.784 601.035L716.18 601.035L716.18 599.847L712.58 599.847L712.58 609.099L713.57 609.099L713.57 607.731L724.01 607.731L724.01 609.099L725 609.099L725 604.311C725 602.601 724.64 601.305 723.92 600.387C723.182 599.469 722.3 599.019 721.256 599.019C719.024 599.019 717.71 600.855 717.71 604.257L717.71 605.535L713.57 605.535L713.57 603.825ZM718.7 604.257C718.7 602.313 719.654 601.305 721.256 601.305C722.912 601.305 724.01 602.349 724.01 604.293L724.01 605.535L718.7 605.535L718.7 604.257ZM724.01 592.153L724.01 593.485L722.84 593.485L716.27 587.923L724.01 587.923L724.01 589.273L725 589.273L725 584.377L724.01 584.377L724.01 585.727L713.57 585.727L713.57 584.377L712.58 584.377L712.58 589.273L713.57 589.273L713.57 587.923L714.65 587.923L721.22 593.485L713.57 593.485L713.57 592.153L712.58 592.153L712.58 597.049L713.57 597.049L713.57 595.681L724.01 595.681L724.01 597.049L725 597.049L725 592.153L724.01 592.153ZM713.57 574.735L724.01 574.735L724.01 576.085L725 576.085L725 571.171L724.01 571.171L724.01 572.539L713.57 572.539L713.57 571.171L712.58 571.171L712.58 580.891L713.57 580.891L713.57 579.469C719.384 579.469 722.372 579.811 723.434 580.693C723.002 580.783 722.696 581.197 722.696 581.827C722.696 582.565 723.236 582.997 723.884 582.997C724.676 582.997 725.18 582.367 725.18 581.521C725.18 579.883 723.704 579.001 720.392 578.587C718.718 578.389 716.45 578.281 713.57 578.263L713.57 574.735ZM721.346 559.707L721.346 560.895L721.526 560.895C722.444 560.895 723.092 561.057 723.47 561.399C723.83 561.723 724.01 562.353 724.01 563.307L724.01 565.449L719.168 565.449L719.168 563.055L720.572 563.055L720.572 561.993L716.792 561.993L716.792 563.055L718.196 563.055L718.196 565.449L713.57 565.449L713.57 563.721C713.57 562.731 713.714 562.029 714.02 561.651C714.326 561.255 714.938 561.057 715.874 561.057L716.144 561.057L716.144 559.869L712.58 559.869L712.58 569.013L713.57 569.013L713.57 567.645L724.01 567.645L724.01 569.013L725 569.013L725 559.707L721.346 559.707ZM712.58 557.508L713.57 557.508L713.57 556.14L724.01 556.14L724.01 557.508L725 557.508L725 552.864L724.01 552.864L724.01 553.944L713.57 553.944L713.57 550.056L724.01 550.056L724.01 551.064L725 551.064L725 546.852L724.01 546.852L724.01 547.86L713.57 547.86L713.57 543.972L724.01 543.972L724.01 545.052L725 545.052L725 540.408L724.01 540.408L724.01 541.776L713.57 541.776L713.57 540.408L712.58 540.408L712.58 557.508Z" fill="white"/>
<path d="M870.772 672.082C872.122 672.082 873.634 671.668 874.948 670.948C876.244 670.21 877.18 668.896 877.18 667.384C877.18 665.872 876.262 664.576 874.966 663.838C873.652 663.1 872.14 662.686 870.772 662.686C869.404 662.686 867.892 663.1 866.614 663.838C865.318 664.576 864.4 665.872 864.4 667.384C864.4 668.896 865.318 670.192 866.614 670.93C867.892 671.668 869.404 672.082 870.772 672.082ZM870.772 670.282C867.118 670.282 865.3 669.31 865.3 667.384C865.3 665.458 867.118 664.486 870.772 664.486C874.444 664.486 876.28 665.458 876.28 667.384C876.28 669.31 874.444 670.282 870.772 670.282ZM876.19 655.12L876.19 657.1L864.4 657.1L864.4 657.748C864.742 657.982 864.976 658.162 865.102 658.306C865.228 658.45 865.354 658.72 865.462 659.116C865.552 659.512 865.606 660.07 865.606 660.79L866.416 660.79L866.416 658.81L876.19 658.81L876.19 660.79L877 660.79L877 655.12L876.19 655.12ZM875.74 651.813L872.374 648.699C871.222 647.637 870.286 646.935 869.548 646.593C868.81 646.251 868.126 646.089 867.496 646.089C865.534 646.089 864.4 647.385 864.4 649.635C864.4 650.859 864.67 651.813 865.21 652.515C865.75 653.199 866.344 653.541 866.974 653.541C867.676 653.541 868.072 653.127 868.072 652.479C868.072 651.849 867.64 651.471 867.064 651.471C866.596 651.471 866.254 651.705 866.038 652.173C865.552 651.741 865.3 651.075 865.3 650.157C865.3 648.645 866.146 647.889 867.838 647.889C868.684 647.889 869.584 648.141 870.52 648.663C871.438 649.167 872.698 650.139 874.264 651.597L876.226 653.415L877 653.415L877 645.657L873.148 645.657L873.148 646.647L873.796 646.647C874.642 646.647 874.912 646.647 875.29 646.917C875.65 647.187 875.74 647.709 875.74 648.699L875.74 651.813ZM870.772 643.352C872.122 643.352 873.634 642.938 874.948 642.218C876.244 641.48 877.18 640.166 877.18 638.654C877.18 637.142 876.262 635.846 874.966 635.108C873.652 634.37 872.14 633.956 870.772 633.956C869.404 633.956 867.892 634.37 866.614 635.108C865.318 635.846 864.4 637.142 864.4 638.654C864.4 640.166 865.318 641.462 866.614 642.2C867.892 642.938 869.404 643.352 870.772 643.352ZM870.772 641.552C867.118 641.552 865.3 640.58 865.3 638.654C865.3 636.728 867.118 635.756 870.772 635.756C874.444 635.756 876.28 636.728 876.28 638.654C876.28 640.58 874.444 641.552 870.772 641.552ZM876.28 628.069C876.28 629.203 875.956 630.013 875.308 630.481C875.11 629.959 874.75 629.707 874.228 629.707C873.652 629.707 873.256 630.049 873.256 630.697C873.256 631.363 873.706 631.759 874.516 631.759C875.236 631.759 875.866 631.417 876.388 630.715C876.91 630.013 877.18 629.113 877.18 628.015C877.18 626.629 876.838 625.567 876.136 624.829C875.434 624.091 874.606 623.731 873.616 623.731C872.104 623.731 870.826 624.847 870.448 626.935C869.854 625.117 868.648 624.325 867.298 624.325C865.624 624.325 864.4 625.567 864.4 627.889C864.4 629.041 864.67 629.977 865.192 630.679C865.714 631.381 866.308 631.723 866.974 631.723C867.676 631.723 868.072 631.309 868.072 630.661C868.072 630.031 867.694 629.653 867.064 629.653C866.542 629.653 866.2 629.923 866.002 630.445C865.534 629.959 865.3 629.275 865.3 628.393C865.3 626.899 866.182 626.125 867.622 626.125C869.062 626.125 870.16 626.791 870.16 628.429L870.16 629.653L870.97 629.653L870.97 628.429C870.97 626.503 871.852 625.549 873.616 625.531C875.398 625.531 876.28 626.377 876.28 628.069ZM868.432 614.607C870.232 614.607 871.492 615.615 871.492 617.217C871.492 618.819 870.232 619.827 868.432 619.827C866.614 619.827 865.3 618.801 865.3 617.217C865.3 615.633 866.614 614.607 868.432 614.607ZM876.28 617.955C876.28 618.693 876.19 619.215 875.992 619.503C875.74 619.197 875.398 619.035 874.984 619.035C874.426 619.035 873.994 619.485 873.994 620.079C873.994 620.727 874.408 621.105 875.11 621.105C875.722 621.105 876.226 620.799 876.604 620.187C876.982 619.575 877.18 618.819 877.18 617.901C877.18 614.247 874.084 612.807 870.502 612.807C865.948 612.807 864.4 615.039 864.4 617.289C864.4 618.567 864.796 619.611 865.588 620.421C866.362 621.231 867.316 621.627 868.432 621.627C869.602 621.627 870.556 621.249 871.294 620.511C872.032 619.755 872.392 618.801 872.392 617.631C872.392 616.335 871.816 615.075 870.88 614.499C874.48 614.499 876.28 615.651 876.28 617.955ZM876.19 602.029L876.19 603.469L873.31 603.469L873.31 602.029L872.5 602.029L872.5 603.469L864.58 603.469L864.58 604.729L872.77 611.119L873.31 611.119L873.31 605.179L876.19 605.179L876.19 606.799L877 606.799L877 602.029L876.19 602.029ZM872.5 609.823L866.542 605.179L872.5 605.179L872.5 609.823ZM873.652 599.883C874.606 599.883 875.434 599.487 876.136 598.695C876.838 597.903 877.18 596.841 877.18 595.491C877.18 594.141 876.838 593.079 876.136 592.287C875.434 591.495 874.606 591.099 873.652 591.099C872.086 591.099 870.988 592.089 870.394 594.051C869.872 592.413 868.774 591.621 867.496 591.621C866.65 591.621 865.912 591.999 865.318 592.737C864.706 593.475 864.4 594.411 864.4 595.509C864.4 596.607 864.706 597.525 865.318 598.263C865.912 599.001 866.65 599.361 867.496 599.361C868.882 599.361 869.836 598.515 870.394 596.841C871.042 599.019 872.122 599.883 873.652 599.883ZM870.016 595.491C870.016 596.661 868.954 597.561 867.514 597.561C866.218 597.561 865.228 596.679 865.228 595.509C865.228 594.933 865.444 594.447 865.894 594.033C866.326 593.619 866.866 593.421 867.496 593.421C868.954 593.421 870.016 594.339 870.016 595.491ZM873.652 592.899C874.48 592.881 875.146 593.133 875.632 593.637C876.118 594.141 876.352 594.753 876.352 595.491C876.352 596.229 876.1 596.841 875.614 597.345C875.128 597.849 874.462 598.101 873.634 598.083C871.816 598.065 870.844 597.003 870.844 595.491C870.844 593.979 871.834 592.917 873.652 592.899ZM876.19 583.307L876.19 585.287L864.4 585.287L864.4 585.935C864.742 586.169 864.976 586.349 865.102 586.493C865.228 586.637 865.354 586.907 865.462 587.303C865.552 587.699 865.606 588.257 865.606 588.977L866.416 588.977L866.416 586.997L876.19 586.997L876.19 588.977L877 588.977L877 583.307L876.19 583.307ZM877.18 578.732C877.18 578.21 876.856 577.724 876.01 577.724C875.92 577.724 875.704 577.76 875.344 577.85C874.984 577.94 874.588 577.976 874.174 577.958C873.76 577.94 873.202 577.868 872.536 577.742C871.186 577.454 869.044 576.464 866.524 574.826L865.354 574.07L864.58 574.07L864.58 582.152L868.54 582.152L868.54 581.162L868.09 581.162C867.064 581.162 866.434 581.018 866.2 580.748C865.966 580.46 865.84 579.776 865.84 578.696L865.84 575.456L866.668 575.978C869.458 577.724 871.744 578.894 873.202 579.344C873.94 579.56 874.48 579.704 874.858 579.758C875.236 579.812 875.614 579.848 875.992 579.848C876.838 579.848 877.18 579.29 877.18 578.732ZM876.28 568.978C876.28 570.04 876.028 570.814 875.542 571.282C875.344 570.814 875.002 570.58 874.48 570.58C873.904 570.58 873.472 570.94 873.472 571.57C873.472 572.272 873.958 572.65 874.606 572.65C875.344 572.65 875.956 572.29 876.442 571.57C876.928 570.85 877.18 569.914 877.18 568.78C877.18 567.394 876.766 566.332 875.92 565.612C875.074 564.874 874.084 564.514 872.968 564.514C871.906 564.514 870.988 564.874 870.232 565.576C869.458 566.278 869.08 567.268 869.08 568.582C869.08 569.644 869.35 570.454 869.908 570.976L866.02 570.67L866.02 565.234L864.58 565.234L864.58 571.534L870.97 572.056L870.97 571.084C870.376 570.67 869.98 569.86 869.98 568.978C869.98 567.34 871.006 566.314 873.004 566.314C875.182 566.314 876.28 567.196 876.28 568.978ZM873.652 562.478C874.606 562.478 875.434 562.082 876.136 561.29C876.838 560.498 877.18 559.436 877.18 558.086C877.18 556.736 876.838 555.674 876.136 554.882C875.434 554.09 874.606 553.694 873.652 553.694C872.086 553.694 870.988 554.684 870.394 556.646C869.872 555.008 868.774 554.216 867.496 554.216C866.65 554.216 865.912 554.594 865.318 555.332C864.706 556.07 864.4 557.006 864.4 558.104C864.4 559.202 864.706 560.12 865.318 560.858C865.912 561.596 866.65 561.956 867.496 561.956C868.882 561.956 869.836 561.11 870.394 559.436C871.042 561.614 872.122 562.478 873.652 562.478ZM870.016 558.086C870.016 559.256 868.954 560.156 867.514 560.156C866.218 560.156 865.228 559.274 865.228 558.104C865.228 557.528 865.444 557.042 865.894 556.628C866.326 556.214 866.866 556.016 867.496 556.016C868.954 556.016 870.016 556.934 870.016 558.086ZM873.652 555.494C874.48 555.476 875.146 555.728 875.632 556.232C876.118 556.736 876.352 557.348 876.352 558.086C876.352 558.824 876.1 559.436 875.614 559.94C875.128 560.444 874.462 560.696 873.634 560.678C871.816 560.66 870.844 559.598 870.844 558.086C870.844 556.574 871.834 555.512 873.652 555.494ZM876.19 542.986L876.19 544.426L873.31 544.426L873.31 542.986L872.5 542.986L872.5 544.426L864.58 544.426L864.58 545.686L872.77 552.076L873.31 552.076L873.31 546.136L876.19 546.136L876.19 547.756L877 547.756L877 542.986L876.19 542.986ZM872.5 550.78L866.542 546.136L872.5 546.136L872.5 550.78ZM876.19 535.206L876.19 537.186L864.4 537.186L864.4 537.834C864.742 538.068 864.976 538.248 865.102 538.392C865.228 538.536 865.354 538.806 865.462 539.202C865.552 539.598 865.606 540.156 865.606 540.876L866.416 540.876L866.416 538.896L876.19 538.896L876.19 540.876L877 540.876L877 535.206L876.19 535.206Z" fill="white"/>
<path d="M829 645.592L827.614 645.592L827.614 646.708L817.966 646.708L817.966 642.838L827.614 642.838L827.614 643.972L829 643.972L829 638.392L827.614 638.392L827.614 639.562L817.966 639.562L817.966 638.392L816.58 638.392L816.58 651.172L817.966 651.172L817.966 649.984L827.614 649.984L827.614 651.172L829 651.172L829 645.592ZM829 630.549L827.614 630.549L827.614 631.899L824.266 631.899L824.266 630.963C824.266 629.235 823.888 627.885 823.15 626.931C822.412 625.959 821.476 625.473 820.36 625.473C818.11 625.473 816.58 627.381 816.58 631.107L816.58 636.363L817.966 636.363L817.966 635.175L827.614 635.175L827.614 636.363L829 636.363L829 630.549ZM817.966 631.197C817.966 629.667 818.812 628.839 820.342 628.839C822.034 628.839 822.88 629.613 822.88 631.179L822.88 631.899L817.966 631.899L817.966 631.197ZM820.486 612.962C818.992 613.412 817.696 614.294 816.958 615.824C816.58 616.58 816.4 617.444 816.4 618.398C816.4 619.352 816.58 620.216 816.958 620.99C818.398 623.924 822.178 624.752 825.112 623.852C826.57 623.366 827.884 622.502 828.622 620.99C829 620.216 829.18 619.352 829.18 618.398C829.18 617.444 829 616.58 828.622 615.824C827.128 612.854 823.438 612.062 820.486 612.962ZM827.704 618.398C827.704 619.91 826.102 620.828 822.79 620.828C819.478 620.828 817.876 619.91 817.876 618.398C817.876 616.904 819.496 615.968 822.79 615.968C826.102 615.968 827.704 616.904 827.704 618.398ZM829 605.33L827.614 605.33L827.614 606.446L817.966 606.446L817.966 602.576L827.614 602.576L827.614 603.71L829 603.71L829 598.13L827.614 598.13L827.614 599.3L817.966 599.3L817.966 598.13L816.58 598.13L816.58 610.91L817.966 610.91L817.966 609.722L827.614 609.722L827.614 610.91L829 610.91L829 605.33ZM833.77 592.789C833.77 590.323 832.474 589.081 829.882 589.081C829.396 589.081 828.892 589.135 828.37 589.261L817.966 586.129L817.966 585.085L816.58 585.085L816.58 588.667L817.966 588.667L817.966 587.695L825.76 590.053L817.966 592.627L817.966 591.565L816.58 591.565L816.58 596.911L817.966 596.911L817.966 595.813L828.334 592.393C829.324 592.051 830.17 591.889 830.872 591.889C831.898 591.889 832.402 592.321 832.402 593.185C832.402 593.455 832.348 593.653 832.222 593.815C831.88 593.347 831.448 593.113 830.944 593.113C830.17 593.113 829.594 593.725 829.594 594.589C829.594 595.507 830.206 596.119 831.214 596.119C832.798 596.119 833.77 594.805 833.77 592.789ZM829.18 575.716L829.18 574.294L824.662 574.294L824.662 575.914C826.39 575.986 827.704 576.832 827.704 578.272C827.704 579.928 826.12 580.936 822.79 580.936C819.478 580.936 817.876 579.928 817.876 578.326C817.876 576.868 818.974 576.076 820.828 576.004L820.828 574.384L816.418 574.384L816.418 575.788L817.246 576.436C816.688 577.084 816.4 577.948 816.4 579.046C816.4 580.612 817.012 581.872 818.236 582.844C819.442 583.816 820.972 584.302 822.79 584.302C824.608 584.302 826.12 583.816 827.344 582.862C828.568 581.89 829.18 580.594 829.18 578.992C829.18 577.822 828.982 577.048 828.28 576.346L829.18 575.716ZM827.614 567.784L823.348 567.784L823.348 566.902C823.348 566.38 823.51 566.002 823.834 565.804C824.14 565.606 824.86 565.39 825.958 565.156C828.28 564.742 829.18 563.644 829.18 561.916C829.18 560.278 828.136 559.468 826.066 559.468L826.066 560.692C827.146 560.692 827.686 560.854 827.686 561.16C827.686 561.52 827.488 561.664 826.48 561.88C825.202 562.114 824.338 562.438 823.87 562.852C823.384 563.248 822.952 564.058 822.538 565.264L818.002 561.034L816.58 561.034L816.58 572.248L817.966 572.248L817.966 571.06L827.614 571.06L827.614 572.248L829 572.248L829 566.722L827.614 566.722L827.614 567.784ZM821.962 567.784L817.966 567.784L817.966 562.96L821.962 566.686L821.962 567.784Z" fill="white"/>
<path d="M814 530.5L819.474 528.474L821.5 523L823.526 528.474L829 530.5L823.526 532.526L821.5 538L819.474 532.526L814 530.5Z" fill="white"/>
<path d="M814 677.5L819.474 675.474L821.5 670L823.526 675.474L829 677.5L823.526 679.526L821.5 685L819.474 679.526L814 677.5Z" fill="white"/>
<path d="M775.01 704.196L775.01 706.068L763.4 706.068L763.4 706.716C763.85 707.022 764.156 707.4 764.336 707.868C764.516 708.318 764.606 709.092 764.606 710.154L765.596 710.154L765.596 708.264L775.01 708.264L775.01 710.154L776 710.154L776 704.196L775.01 704.196ZM776.18 697.872C776.18 696.414 775.838 695.28 775.136 694.47C774.434 693.642 773.606 693.228 772.652 693.228C771.05 693.228 769.97 694.236 769.394 696.27C768.872 694.56 767.792 693.714 766.496 693.714C765.632 693.714 764.894 694.11 764.3 694.902C763.706 695.676 763.4 696.684 763.4 697.89C763.4 699.096 763.706 700.104 764.3 700.878C764.894 701.652 765.632 702.048 766.496 702.048C767.882 702.048 768.854 701.166 769.394 699.384C770.024 701.67 771.068 702.534 772.652 702.534C773.606 702.534 774.434 702.12 775.136 701.31C775.838 700.482 776.18 699.33 776.18 697.872ZM768.962 697.872C768.962 698.97 767.972 699.78 766.55 699.78C765.308 699.78 764.354 698.988 764.354 697.89C764.354 696.828 765.308 696 766.532 696C767.954 696 768.962 696.846 768.962 697.872ZM775.226 697.872C775.226 699.222 774.2 700.266 772.616 700.248C770.834 700.23 769.898 699.258 769.898 697.872C769.898 696.486 770.852 695.532 772.634 695.514C773.408 695.496 774.038 695.73 774.524 696.198C774.992 696.648 775.226 697.206 775.226 697.872ZM771.23 684.436L765.902 682.546L771.23 680.692L771.23 684.436ZM775.01 684.58L775.01 685.768L772.184 684.778L772.184 680.368L775.01 679.396L775.01 680.566L776 680.566L776 676.138L775.01 676.138L775.01 677.236L764.57 680.836L764.57 679.324L763.58 679.324L763.58 684.796L764.57 684.796L764.57 683.248L775.01 686.938L775.01 687.964L776 687.964L776 684.58L775.01 684.58ZM776 669.295C776 666.073 774.866 664.579 772.508 664.579C771.68 664.579 771.014 664.903 770.51 665.569C769.988 666.235 769.664 667.027 769.52 667.963C769.25 666.361 768.224 665.173 766.694 665.173C764.696 665.173 763.58 666.883 763.58 669.619L763.58 674.875L764.57 674.875L764.57 673.507L775.01 673.507L775.01 674.875L776 674.875L776 669.295ZM764.552 669.889C764.552 668.323 765.524 667.423 766.892 667.423C768.314 667.423 769.196 668.305 769.196 670.051L769.196 671.311L764.552 671.311L764.552 669.889ZM770.078 669.709C770.078 667.963 770.996 666.865 772.526 666.865C774.092 666.865 775.028 667.855 775.028 669.601L775.028 671.311L770.078 671.311L770.078 669.709ZM776 657.342L775.01 657.342L775.01 658.998L764.57 658.998L764.57 657.558C764.57 656.532 764.606 656.082 764.894 655.56C765.182 655.038 765.776 654.858 766.784 654.858L767.234 654.858L767.234 653.67L763.58 653.67L763.58 662.562L764.57 662.562L764.57 661.194L775.01 661.194L775.01 662.562L776 662.562L776 657.342ZM780.716 648.625C780.716 646.555 779.438 645.727 776.828 645.727L775.928 645.727L764.57 642.055L764.57 640.849L763.58 640.849L763.58 644.557L764.57 644.557L764.57 643.351L773.372 646.195L764.57 649.471L764.57 648.175L763.58 648.175L763.58 652.837L764.57 652.837L764.57 651.595L775.784 647.419L777.26 647.419C779.042 647.419 779.672 647.761 779.672 648.769C779.672 649.183 779.564 649.507 779.33 649.741C779.042 649.219 778.646 648.949 778.16 648.949C777.53 648.949 777.098 649.399 777.098 650.065C777.098 650.803 777.602 651.307 778.466 651.307C779.78 651.307 780.716 650.263 780.716 648.625ZM776.18 631.3L776.18 630.346L771.842 630.346L771.842 631.534C772.778 631.552 773.552 631.804 774.182 632.326C774.794 632.848 775.1 633.514 775.1 634.36C775.1 636.394 773.318 637.726 769.772 637.726C766.19 637.726 764.48 636.43 764.48 634.504C764.48 632.704 765.65 631.642 767.648 631.624L767.648 630.436L763.418 630.436L763.418 631.39L764.246 632.092C763.688 632.794 763.4 633.694 763.4 634.792C763.4 636.358 764.03 637.636 765.272 638.59C766.514 639.544 768.026 640.012 769.772 640.012C772.058 640.012 774.038 639.238 775.262 637.6C775.874 636.79 776.18 635.818 776.18 634.72C776.18 633.55 775.874 632.632 775.28 632.002L776.18 631.3ZM763.58 628.101L764.57 628.101L764.57 626.733L775.01 626.733L775.01 628.101L776 628.101L776 623.457L775.01 623.457L775.01 624.537L764.57 624.537L764.57 620.649L775.01 620.649L775.01 621.657L776 621.657L776 617.445L775.01 617.445L775.01 618.453L764.57 618.453L764.57 614.565L775.01 614.565L775.01 615.645L776 615.645L776 611.001L775.01 611.001L775.01 612.369L764.57 612.369L764.57 611.001L763.58 611.001L763.58 628.101ZM771.23 606.198L765.902 604.308L771.23 602.454L771.23 606.198ZM775.01 606.342L775.01 607.53L772.184 606.54L772.184 602.13L775.01 601.158L775.01 602.328L776 602.328L776 597.9L775.01 597.9L775.01 598.998L764.57 602.598L764.57 601.086L763.58 601.086L763.58 606.558L764.57 606.558L764.57 605.01L775.01 608.7L775.01 609.726L776 609.726L776 606.342L775.01 606.342Z" fill="white"/>
<path d="M775.01 550.196L775.01 552.068L763.4 552.068L763.4 552.716C763.85 553.022 764.156 553.4 764.336 553.868C764.516 554.318 764.606 555.092 764.606 556.154L765.596 556.154L765.596 554.264L775.01 554.264L775.01 556.154L776 556.154L776 550.196L775.01 550.196ZM776.18 544.646C776.18 541.442 773.948 540.236 771.968 540.236C770.888 540.236 769.97 540.596 769.214 541.316C768.458 542.018 768.08 543.062 768.08 544.412C768.08 545.42 768.332 546.212 768.818 546.788L765.182 546.518L765.182 540.956L763.58 540.956L763.58 547.544L770.078 548.066L770.078 547.022C769.52 546.662 769.142 545.888 769.142 545.042C769.142 543.476 770.096 542.522 772.022 542.522C774.092 542.522 775.118 543.35 775.118 544.988C775.118 545.888 774.938 546.554 774.56 547.004C774.29 546.536 773.93 546.302 773.462 546.302C772.814 546.302 772.346 546.716 772.346 547.454C772.346 548.192 772.868 548.66 773.588 548.66C774.344 548.66 774.974 548.3 775.46 547.562C775.946 546.824 776.18 545.852 776.18 544.646ZM769.43 535.505C768.8 535.505 768.17 535.973 768.17 536.783C768.17 537.593 768.8 538.043 769.43 538.043C770.024 538.043 770.636 537.593 770.636 536.783C770.636 535.973 770.024 535.505 769.43 535.505ZM774.974 535.505C774.344 535.505 773.714 535.973 773.714 536.783C773.714 537.593 774.344 538.043 774.974 538.043C775.568 538.043 776.18 537.593 776.18 536.783C776.18 535.973 775.568 535.505 774.974 535.505ZM775.01 524.315L775.01 525.683L772.382 525.683L772.382 524.315L771.41 524.315L771.41 525.683L763.58 525.683L763.58 527.429L771.698 533.711L772.382 533.711L772.382 527.879L775.01 527.879L775.01 529.391L776 529.391L776 524.315L775.01 524.315ZM771.41 532.199L765.83 527.879L771.41 527.879L771.41 532.199ZM776.18 518.377C776.18 515.173 773.948 513.967 771.968 513.967C770.888 513.967 769.97 514.327 769.214 515.047C768.458 515.749 768.08 516.793 768.08 518.143C768.08 519.151 768.332 519.943 768.818 520.519L765.182 520.249L765.182 514.687L763.58 514.687L763.58 521.275L770.078 521.797L770.078 520.753C769.52 520.393 769.142 519.619 769.142 518.773C769.142 517.207 770.096 516.253 772.022 516.253C774.092 516.253 775.118 517.081 775.118 518.719C775.118 519.619 774.938 520.285 774.56 520.735C774.29 520.267 773.93 520.033 773.462 520.033C772.814 520.033 772.346 520.447 772.346 521.185C772.346 521.923 772.868 522.391 773.588 522.391C774.344 522.391 774.974 522.031 775.46 521.293C775.946 520.555 776.18 519.583 776.18 518.377Z" fill="white"/>
<line x1="758" y1="587.5" x2="777" y2="587.5" stroke="white" stroke-width="3"/>
<line x1="758" y1="577.5" x2="777" y2="577.5" stroke="white" stroke-width="3"/>
<line x1="758" y1="567.5" x2="777" y2="567.5" stroke="white" stroke-width="3"/>
<line x1="738.5" y1="760" x2="738.5" y2="445" stroke="white" stroke-width="3"/>
<line x1="793.5" y1="760" x2="793.5" y2="445" stroke="white" stroke-width="3"/>
<line x1="851.5" y1="760" x2="851.5" y2="445" stroke="white" stroke-width="3"/>
<path d="M536.8 626.88L536.8 631.04L511 631.04L511 632.48C512 633.16 512.68 634 513.08 635.04C513.48 636.04 513.68 637.76 513.68 640.12L515.88 640.12L515.88 635.92L536.8 635.92L536.8 640.12L539 640.12L539 626.88L536.8 626.88ZM539.4 614.547C539.4 607.427 534.44 604.747 530.04 604.747C527.64 604.747 525.6 605.547 523.92 607.147C522.24 608.707 521.4 611.027 521.4 614.027C521.4 616.267 521.96 618.027 523.04 619.307L514.96 618.707L514.96 606.347L511.4 606.347L511.4 620.987L525.84 622.147L525.84 619.827C524.6 619.027 523.76 617.307 523.76 615.427C523.76 611.947 525.88 609.827 530.16 609.827C534.76 609.827 537.04 611.667 537.04 615.307C537.04 617.307 536.64 618.787 535.8 619.787C535.2 618.747 534.4 618.227 533.36 618.227C531.92 618.227 530.88 619.147 530.88 620.787C530.88 622.427 532.04 623.467 533.64 623.467C535.32 623.467 536.72 622.667 537.8 621.027C538.88 619.387 539.4 617.227 539.4 614.547ZM524.4 594.233C523 594.233 521.6 595.273 521.6 597.073C521.6 598.873 523 599.873 524.4 599.873C525.72 599.873 527.08 598.873 527.08 597.073C527.08 595.273 525.72 594.233 524.4 594.233ZM536.72 594.233C535.32 594.233 533.92 595.273 533.92 597.073C533.92 598.873 535.32 599.873 536.72 599.873C538.04 599.873 539.4 598.873 539.4 597.073C539.4 595.273 538.04 594.233 536.72 594.233ZM536.8 569.367L536.8 572.407L530.96 572.407L530.96 569.367L528.8 569.367L528.8 572.407L511.4 572.407L511.4 576.287L529.44 590.247L530.96 590.247L530.96 577.287L536.8 577.287L536.8 580.647L539 580.647L539 569.367L536.8 569.367ZM528.8 586.887L516.4 577.287L528.8 577.287L528.8 586.887ZM539.4 556.171C539.4 549.051 534.44 546.371 530.04 546.371C527.64 546.371 525.6 547.171 523.92 548.771C522.24 550.331 521.4 552.651 521.4 555.651C521.4 557.891 521.96 559.651 523.04 560.931L514.96 560.331L514.96 547.971L511.4 547.971L511.4 562.611L525.84 563.771L525.84 561.451C524.6 560.651 523.76 558.931 523.76 557.051C523.76 553.571 525.88 551.451 530.16 551.451C534.76 551.451 537.04 553.291 537.04 556.931C537.04 558.931 536.64 560.411 535.8 561.411C535.2 560.371 534.4 559.851 533.36 559.851C531.92 559.851 530.88 560.771 530.88 562.411C530.88 564.051 532.04 565.091 533.64 565.091C535.32 565.091 536.72 564.291 537.8 562.651C538.88 561.011 539.4 558.851 539.4 556.171Z" fill="white"/>
<path d="M474.36 689.2L474.36 693.16L449 693.16L449 694.6C450.88 695.88 451.68 698.24 451.68 703.16L454.32 703.16L454.32 699.24L474.36 699.24L474.36 703.16L477 703.16L477 689.2L474.36 689.2ZM477.4 674.644C477.4 671.124 476.64 668.404 475.12 666.524C473.6 664.604 471.76 663.644 469.56 663.644C465.96 663.644 463.56 666.004 462.32 670.684C461.16 666.644 459 664.644 455.88 664.644C453.92 664.644 452.28 665.564 450.96 667.404C449.64 669.244 449 671.644 449 674.644C449 677.604 449.64 680.004 450.96 681.844C452.28 683.684 453.92 684.604 455.88 684.604C458.96 684.604 461.12 682.524 462.32 678.404C463.64 683.644 466 685.604 469.56 685.604C471.76 685.604 473.6 684.644 475.12 682.764C476.64 680.844 477.4 678.124 477.4 674.644ZM461.2 674.644C461.2 676.844 459.12 678.404 456.08 678.404C453.48 678.404 451.44 676.844 451.44 674.644C451.44 672.524 453.44 670.884 456.04 670.884C459.08 670.884 461.2 672.524 461.2 674.644ZM474.96 674.644C474.96 677.324 472.8 679.364 469.44 679.324C465.64 679.284 463.6 677.404 463.6 674.644C463.6 671.804 465.68 669.964 469.48 669.924C472.8 669.884 474.96 671.924 474.96 674.644ZM477.4 631.955C477.4 628.635 475.28 626.955 471 626.955L471 628.995C473.12 628.995 474.2 629.435 474.2 630.275C474.2 631.115 473.52 631.515 472.12 631.515L464.04 631.515C458.8 631.515 456.2 634.355 456.2 640.035C456.2 642.675 456.68 644.795 457.68 646.435C458.64 648.075 459.88 648.875 461.4 648.875C462.84 648.875 463.84 647.915 463.84 646.155C463.84 644.395 462.88 643.475 461.44 643.475C460.52 643.475 459.84 643.875 459.44 644.715C458.88 643.875 458.6 642.795 458.6 641.475C458.6 639.035 460.08 637.395 463.24 637.395L465.08 637.395L465.08 638.835C465.08 646.115 467.32 649.755 471.84 649.755C475.32 649.755 477.4 647.395 477.4 643.515C477.4 640.355 476.04 638.195 473.36 636.955C476.04 636.555 477.4 634.875 477.4 631.955ZM473.96 640.915C473.96 642.675 472.84 643.715 470.8 643.715C468.28 643.715 467.04 642.035 467.04 638.715L467.04 637.395L469.84 637.395C472.08 637.395 473.96 638.875 473.96 640.915ZM477 612.97C477 610.41 476.76 608.65 476.08 606.61C475.32 604.53 473.68 603.37 471.24 603.37C468.08 603.37 466.56 605.89 466.28 609.29C465.8 606.13 464.24 604.57 461.64 604.57C459.68 604.57 458.28 605.49 457.6 607.21C456.92 608.93 456.68 610.69 456.68 613.21L456.68 624.89L459.32 624.89L459.32 622.41L474.36 622.41L474.36 624.89L477 624.89L477 612.97ZM459.12 614.33C459.12 611.73 460.04 610.49 462.28 610.49C464.48 610.49 465.36 611.73 465.36 614.29L465.36 616.49L459.12 616.49L459.12 614.33ZM467.56 616.49L467.56 614.13C467.56 610.97 468.36 609.37 471.08 609.37C473.64 609.37 474.6 610.97 474.6 614.13L474.6 616.49L467.56 616.49ZM474.36 588.195L474.36 591.355L459.32 591.355L459.32 589.195C459.32 587.555 459.6 586.395 460.16 585.795C460.72 585.195 461.8 584.875 463.44 584.875L464.56 584.875L464.56 582.155L456.68 582.155L456.68 599.715L459.32 599.715L459.32 597.235L474.36 597.235L474.36 599.715L477 599.715L477 588.195L474.36 588.195ZM487.4 574.918C487.4 573.118 486.72 571.718 485.32 570.638C483.92 569.558 481.32 568.278 477.52 566.798L459.32 559.798L459.32 557.638L456.68 557.638L456.68 564.718L459.32 564.718L459.32 562.558L470.64 566.918L459.32 571.838L459.32 569.678L456.68 569.678L456.68 580.118L459.32 580.118L459.32 577.798L477.64 569.798C480.64 571.038 482.56 571.998 483.48 572.678C484.4 573.358 484.84 574.158 484.84 575.158C484.32 574.438 483.56 574.078 482.52 574.078C481.04 574.078 480.04 575.198 480.04 576.838C480.04 578.558 481.32 579.758 483.08 579.758C485.68 579.758 487.4 577.798 487.4 574.918ZM470.36 539.774C473.28 540.614 474.72 542.214 474.72 544.574C474.72 547.734 472.08 549.654 466.84 549.654C461.72 549.654 458.84 547.814 458.84 544.654C458.84 543.494 459.08 542.654 459.6 542.094C459.92 543.094 460.72 543.614 462 543.614C463.44 543.614 464.36 542.534 464.36 540.814C464.36 539.094 463.2 538.094 461.4 538.094C460 538.094 458.76 538.814 457.76 540.214C456.72 541.614 456.2 543.414 456.2 545.694C456.2 548.534 457.12 550.894 459 552.854C460.88 554.774 463.48 555.734 466.84 555.734C470.16 555.734 472.76 554.814 474.64 552.934C476.48 551.054 477.4 548.694 477.4 545.854C477.4 541.654 475.32 538.654 471.04 537.694L470.36 539.774ZM474.36 518.146L474.36 521.026L459.16 521.026L459.16 519.506C459.16 516.906 460.48 515.946 463.56 515.946L465 515.946L465 513.226L456.68 513.226L456.68 534.706L465 534.706L465 531.986L463.56 531.986C460.48 531.986 459.16 531.106 459.16 528.426L459.16 526.906L474.36 526.906L474.36 529.826L477 529.826L477 518.146L474.36 518.146ZM477.4 492.272C477.4 488.952 475.28 487.272 471 487.272L471 489.312C473.12 489.312 474.2 489.752 474.2 490.592C474.2 491.432 473.52 491.832 472.12 491.832L464.04 491.832C458.8 491.832 456.2 494.672 456.2 500.352C456.2 502.992 456.68 505.112 457.68 506.752C458.64 508.392 459.88 509.192 461.4 509.192C462.84 509.192 463.84 508.232 463.84 506.472C463.84 504.712 462.88 503.792 461.44 503.792C460.52 503.792 459.84 504.192 459.44 505.032C458.88 504.192 458.6 503.112 458.6 501.792C458.6 499.352 460.08 497.712 463.24 497.712L465.08 497.712L465.08 499.152C465.08 506.432 467.32 510.072 471.84 510.072C475.32 510.072 477.4 507.712 477.4 503.832C477.4 500.672 476.04 498.512 473.36 497.272C476.04 496.872 477.4 495.192 477.4 492.272ZM473.96 501.232C473.96 502.992 472.84 504.032 470.8 504.032C468.28 504.032 467.04 502.352 467.04 499.032L467.04 497.712L469.84 497.712C472.08 497.712 473.96 499.192 473.96 501.232Z" fill="white"/>
<line x1="419.5" y1="730" x2="419.5" y2="465" stroke="white" stroke-width="3" stroke-dasharray="20 20"/>
<line x1="235.5" y1="730" x2="235.5" y2="465" stroke="white" stroke-width="3" stroke-dasharray="20 20"/>
<line x1="275.5" y1="518" x2="275.5" y2="485" stroke="white" stroke-width="3"/>
<line x1="288.5" y1="518" x2="288.5" y2="485" stroke="white" stroke-width="3"/>
<line x1="301.5" y1="518" x2="301.5" y2="485" stroke="white" stroke-width="3"/>
<line x1="275.5" y1="710" x2="275.5" y2="677" stroke="white" stroke-width="3"/>
<line x1="288.5" y1="710" x2="288.5" y2="677" stroke="white" stroke-width="3"/>
<line x1="301.5" y1="710" x2="301.5" y2="677" stroke="white" stroke-width="3"/>
<path d="M181 696.29C181.788 700.848 183.714 704.288 186.865 706.609C190.017 708.931 193.694 710.049 197.808 710.049C203.148 710.049 207 707.297 207 702.138C207 697.666 203.586 695 199.734 695C195.707 695 193.343 697.58 192.643 702.74C189.054 702.31 186.865 700.16 185.99 696.29L181 696.29ZM181 716.241C181.788 720.799 183.714 724.238 186.865 726.56C190.017 728.882 193.694 730 197.808 730C203.148 730 207 727.248 207 722.089C207 717.617 203.586 714.951 199.734 714.951C195.707 714.951 193.343 717.531 192.643 722.691C189.054 722.261 186.865 720.111 185.99 716.241L181 716.241Z" fill="white"/>
<path d="M181 466.327C181.788 471.015 183.714 474.553 186.865 476.941C190.017 479.329 193.694 480.479 197.808 480.479C203.148 480.479 207 477.649 207 472.342C207 467.742 203.586 465 199.734 465C195.707 465 193.343 467.654 192.643 472.961C189.054 472.519 186.865 470.307 185.99 466.327L181 466.327ZM181 486.848C181.788 491.536 183.714 495.074 186.865 497.462C190.017 499.85 193.694 501 197.808 501C203.148 501 207 498.17 207 492.863C207 488.263 203.586 485.521 199.734 485.521C195.707 485.521 193.343 488.175 192.643 493.482C189.054 493.039 186.865 490.828 185.99 486.848L181 486.848Z" fill="white"/>
<path d="M955 25.6345V378.365C941.19 378.365 930 389.84 930 404H907.219C907.219 396.925 902.133 391.183 895.847 391.183C889.569 391.183 884.475 396.925 884.475 404H861.73C861.73 396.925 856.645 391.183 850.358 391.183C844.081 391.183 838.986 396.925 838.986 404H816.242C816.242 396.925 811.156 391.183 804.87 391.183C798.593 391.183 793.498 396.925 793.498 404H770.754C770.754 396.925 765.668 391.183 759.382 391.183C753.104 391.183 748.009 396.925 748.009 404H725.265C725.265 396.925 720.18 391.183 713.893 391.183C707.616 391.183 702.521 396.925 702.521 404H675C675 389.84 663.81 378.365 650 378.365V25.6345C663.801 25.6345 675 14.1503 675 0H702.603C703.303 6.3266 708.098 11.2279 713.893 11.2279C719.697 11.2279 724.483 6.3266 725.183 0H748.091C748.792 6.3266 753.586 11.2279 759.382 11.2279C765.186 11.2279 769.971 6.3266 770.672 0H793.58C794.28 6.3266 799.075 11.2279 804.87 11.2279C810.674 11.2279 815.46 6.3266 816.16 0H839.068C839.769 6.3266 844.563 11.2279 850.358 11.2279C856.163 11.2279 860.948 6.3266 861.649 0H884.557C885.257 6.3266 890.052 11.2279 895.847 11.2279C901.651 11.2279 906.437 6.3266 907.137 0H930C930 14.1503 941.19 25.6345 955 25.6345Z" fill="#4301FF"/>
<path d="M706.44 195.8L711.4 181.64L716.36 195.8H706.44ZM706.4 204.52H703.36L705.92 197.28H716.88L719.4 204.52H716.48V206H725.04V204.52H722.32L713.2 178.4H710.76L701.56 204.52H699V206H706.4V204.52ZM757.376 192.16C757.376 187.72 756.016 183.28 752.816 180.28C751.216 178.76 749.336 178 747.216 178C745.096 178 743.216 178.76 741.616 180.28C740.056 181.76 738.896 183.56 738.176 185.68C737.456 187.76 737.096 189.92 737.096 192.16C737.096 195.4 737.976 198.76 739.576 201.6C741.176 204.44 743.976 206.4 747.216 206.4C749.336 206.4 751.216 205.64 752.816 204.12C754.416 202.6 755.576 200.8 756.296 198.68C757.016 196.56 757.376 194.4 757.376 192.16ZM740.216 192.16C740.216 183.64 742.856 179.6 747.216 179.6C749.416 179.6 751.136 180.64 752.376 182.72C753.616 184.76 754.256 187.92 754.256 192.16C754.256 196.4 753.616 199.56 752.376 201.68C751.136 203.76 749.416 204.8 747.216 204.8C742.896 204.8 740.216 200.6 740.216 192.16ZM773.839 204.52H769.239V178H768.039C767.519 178.92 766.879 179.56 766.119 179.92C765.359 180.24 763.879 180.4 761.679 180.4V181.84H766.239V204.52H761.679V206H773.839V204.52ZM780.677 203.76L788.797 195C792.077 191.44 793.717 188.08 793.717 184.88C793.717 180.52 790.877 178 785.877 178C783.277 178 781.197 178.6 779.677 179.8C778.197 181 777.437 182.32 777.437 183.8C777.437 185.12 778.197 185.88 779.437 185.88C780.557 185.88 781.277 185.08 781.277 184C781.277 183 780.757 182.36 779.717 182.08C780.477 180.48 782.597 179.6 784.997 179.6C788.717 179.6 790.557 181.32 790.557 185.44C790.557 187.36 790.037 189.28 788.957 191.24C787.877 193.2 785.797 195.88 782.637 199.28L777.717 204.6V206H794.717V197.84H792.957V200.2C792.957 201.64 792.757 202.6 792.317 203.08C791.917 203.52 790.877 203.76 789.197 203.76H780.677ZM808.084 204.8C805.244 204.8 802.924 203.68 802.124 201.92C802.884 201.72 803.724 201 803.724 199.92C803.724 198.84 803.044 198.12 801.884 198.12C800.564 198.12 799.924 198.88 799.924 200.44C799.924 202.04 800.684 203.44 802.244 204.64C803.804 205.8 805.764 206.4 808.164 206.4C811.164 206.4 813.444 205.64 815.004 204.16C816.564 202.64 817.324 200.8 817.324 198.6C817.324 195.12 814.924 192.36 810.324 191.44C814.164 190.2 816.044 187.6 816.044 184.44C816.044 180.6 813.324 178 808.324 178C805.844 178 803.844 178.6 802.324 179.76C800.844 180.92 800.084 182.28 800.084 183.8C800.084 185.12 800.844 185.88 802.084 185.88C803.244 185.88 803.924 185.16 803.924 184C803.924 182.92 803.364 182.28 802.284 182C803.204 180.4 804.964 179.6 807.484 179.6C811.004 179.6 812.884 181.68 812.884 185C812.884 188.32 811.124 190.88 807.324 190.88H804.684V192.36H807.324C809.284 192.36 810.884 192.84 812.204 193.84C813.524 194.84 814.164 196.4 814.164 198.6C814.164 202.72 811.964 204.8 808.084 204.8ZM840.887 204.52H837.487V197.64H840.887V196.16H837.487V178.32H835.247L821.007 196.6V197.64H834.487V204.52H830.687V206H840.887V204.52ZM823.327 196.16L834.487 181.84V196.16H823.327ZM853.503 204.8C850.663 204.8 848.743 203.96 847.703 202.32C848.703 202.04 849.223 201.36 849.223 200.36C849.223 199.24 848.543 198.48 847.383 198.48C846.103 198.48 845.383 199.36 845.383 200.6C845.383 202.24 846.183 203.6 847.743 204.72C849.343 205.84 851.383 206.4 853.863 206.4C856.863 206.4 859.143 205.48 860.703 203.68C862.263 201.84 863.063 199.64 863.063 197.12C863.063 194.72 862.303 192.68 860.743 191.04C859.223 189.36 857.063 188.52 854.263 188.52C851.743 188.52 849.663 189.44 848.583 190.72L849.503 180.92H861.543V178.4H847.983L846.623 192.68H848.343C849.343 191.12 851.303 190.16 853.583 190.16C857.423 190.16 859.903 192.68 859.903 197.2C859.903 202.04 857.663 204.8 853.503 204.8ZM879.153 179.6C881.113 179.6 882.393 180 883.033 180.84C882.273 181.28 881.873 181.92 881.873 182.68C881.873 183.68 882.673 184.52 883.793 184.52C884.953 184.52 885.673 183.72 885.673 182.44C885.673 181.2 885.033 180.12 883.753 179.28C882.473 178.44 880.833 178 878.873 178C875.473 178 872.793 179.4 870.833 182.16C868.873 184.92 867.913 188.6 867.913 193.24C867.913 197.72 868.833 201.04 870.673 203.2C872.553 205.32 874.833 206.4 877.513 206.4C880.313 206.4 882.553 205.52 884.273 203.8C885.993 202.04 886.873 199.92 886.873 197.44C886.873 194.84 886.073 192.76 884.433 191.12C882.793 189.48 880.713 188.64 878.113 188.64C874.593 188.64 871.833 190.28 870.873 192.84C870.873 182.68 874.793 179.6 879.153 179.6ZM877.393 204.8C875.513 204.8 873.953 204.12 872.793 202.72C871.633 201.32 871.073 199.56 871.073 197.44C871.073 193.16 873.633 190.24 877.433 190.24C881.233 190.24 883.753 193.16 883.753 197.44C883.753 199.56 883.153 201.32 881.993 202.72C880.833 204.12 879.313 204.8 877.393 204.8ZM898.517 206.4C899.677 206.4 900.277 205.68 900.277 204.28C900.277 203.92 900.037 202.4 899.917 201.24C899.877 200.64 899.957 199.76 900.157 198.6C900.597 196.2 901.357 193.76 903.437 189.44C904.477 187.28 905.757 184.92 907.277 182.4L908.877 179.8V178.4H891.237V187H893.037V184.72C893.037 182.88 893.277 181.76 893.797 181.32C894.317 180.88 895.557 180.64 897.517 180.64H906.437L904.957 183.04C901.637 188.44 899.237 193.4 898.157 196.08C897.637 197.4 897.277 198.76 896.997 200.12C896.717 201.48 896.597 202.32 896.557 202.64V204.24C896.557 205 896.757 205.52 897.117 205.88C897.517 206.24 897.997 206.4 898.517 206.4Z" fill="white"/>
<path d="M837.24 353.4C840.48 353.4 843 352.64 844.8 351.08C846.64 349.52 847.56 347.68 847.56 345.56C847.56 342 845.32 339.6 840.8 338.32C844.6 337.16 846.48 334.76 846.48 331.88C846.48 329.96 845.6 328.32 843.84 327C842.12 325.68 839.88 325 837.2 325C834.52 325 832.28 325.68 830.56 327C828.84 328.32 827.96 329.96 827.96 331.88C827.96 334.96 829.92 337.12 833.88 338.32C828.8 339.72 826.88 342.04 826.88 345.56C826.88 347.68 827.8 349.52 829.6 351.08C831.44 352.64 834 353.4 837.24 353.4ZM837.24 337.36C834.8 337.36 833 335.16 833 332C833 329.24 834.76 327.12 837.2 327.12C839.56 327.12 841.4 329.24 841.4 331.96C841.4 335.12 839.52 337.36 837.24 337.36ZM837.24 351.28C834.24 351.28 831.92 349 831.96 345.48C832 341.52 834.16 339.44 837.24 339.44C840.32 339.44 842.44 341.56 842.48 345.52C842.52 347.24 842 348.64 840.96 349.72C839.96 350.76 838.72 351.28 837.24 351.28ZM870.493 353.4C873.493 353.4 874.613 351.24 874.613 347.04H872.773C872.773 349.64 872.413 350.96 871.693 350.96C871.173 350.96 870.813 350.76 870.533 350.4C870.253 350 869.853 349.04 869.333 347.56C868.773 345.96 868.133 344.84 867.453 344.24C866.773 343.6 865.373 343.04 863.253 342.52C865.173 342.32 866.173 340.72 867.093 338C867.573 336.64 867.933 335.76 868.133 335.36C868.013 336.84 868.973 337.92 870.613 337.92C872.053 337.92 872.973 336.8 872.973 335.16C872.973 333.56 871.813 332.4 869.853 332.4C864.013 332.4 865.973 341.72 860.773 341.72H859.093V335.04H861.493V332.84H851.733V335.04H854.413V350.8H851.733V353H861.493V350.8H859.093V343.64H860.693C862.213 343.64 862.933 344.2 863.533 345.2C863.733 345.48 864.053 346.32 864.173 346.64C864.333 346.96 864.733 348.12 864.893 348.56C865.573 350.32 866.293 351.56 867.053 352.32C867.813 353.04 868.973 353.4 870.493 353.4ZM888.527 350.8H885.167V335.04H887.727C889.447 335.04 890.607 335.32 891.207 335.88C891.847 336.4 892.167 337.52 892.167 339.16V340.2H894.447V332.84H877.807V335.04H880.487V350.8H877.807V353H888.527V350.8Z" fill="white"/>
<path d="M844.112 294.24C846.032 294.24 846.8 292.872 846.8 290.256H845.552C845.552 291.96 845.288 292.8 844.736 292.8C844.088 292.8 843.848 292.392 843.392 290.64C843.152 289.68 842.96 288.984 842.816 288.552C842.672 288.096 842.432 287.664 842.12 287.208C841.472 286.272 840.68 285.912 839.072 285.36C840.224 284.976 840.968 283.584 841.664 281.496C842.024 280.44 842.264 279.768 842.408 279.456C842.576 280.128 843.224 280.56 843.968 280.56C844.928 280.56 845.552 279.912 845.552 278.952C845.552 277.896 844.856 277.2 843.608 277.2C841.496 277.2 840.776 279.984 839.984 282.168C839.48 283.68 838.568 284.88 837.224 284.88H835.952V278.76H837.752V277.44H831.2V278.76H833.024V292.68H831.2V294H837.752V292.68H835.952V286.2H837.224C838.136 286.2 838.784 286.464 839.168 287.016C839.576 287.568 839.984 288.696 840.44 290.424C841.04 293.016 842 294.24 844.112 294.24ZM852.292 287.64L854.932 279.984L857.5 287.64H852.292ZM852.172 292.68H850.588L851.86 288.912H857.932L859.204 292.68H857.62V294H863.524V292.68H862.084L856.948 277.44H854.236L849.028 292.68H847.66V294H852.172V292.68ZM874.187 294V292.68H872.147V278.76H873.275C874.451 278.76 875.243 278.952 875.627 279.36C876.011 279.744 876.203 280.584 876.203 281.88V282.48H877.787V277.44H863.531V282.48H865.115V281.88C865.115 280.608 865.307 279.768 865.691 279.36C866.099 278.952 866.867 278.76 868.043 278.76H869.219V292.68H867.155V294H874.187ZM888.677 275.76L878.117 296.4H879.989L890.549 275.76H888.677ZM905.247 294V288.936H903.663V289.368C903.663 290.592 903.447 291.456 902.991 291.96C902.559 292.44 901.719 292.68 900.447 292.68H897.591V286.2L902.223 286.44V284.664L897.591 284.928V278.76H899.895C901.215 278.76 902.151 278.952 902.655 279.36C903.183 279.768 903.447 280.584 903.447 281.832V282.408H905.031V277.44H892.839V278.76H894.663V292.68H892.839V294H905.247Z" fill="white"/>
<line x1="670" y1="148.5" x2="935" y2="148.5" stroke="white" stroke-width="3" stroke-dasharray="20 20"/>
<line x1="831" y1="311.5" x2="931" y2="311.5" stroke="white" stroke-width="3" stroke-dasharray="10 10"/>
<circle cx="749" cy="305" r="64.5" stroke="white" stroke-width="3"/>
<path d="M755.501 82V79.965H752.356V58.505H754.095C755.908 58.505 757.129 58.801 757.721 59.43C758.313 60.022 758.609 61.317 758.609 63.315V64.24H761.051V56.47H739.073V64.24H741.515V63.315C741.515 61.354 741.811 60.059 742.403 59.43C743.032 58.801 744.216 58.505 746.029 58.505H747.842V79.965H744.66V82H755.501ZM768.32 72.195L772.39 60.392L776.349 72.195H768.32ZM768.135 79.965H765.693L767.654 74.156H777.015L778.976 79.965H776.534V82H785.636V79.965H783.416L775.498 56.47H771.317L763.288 79.965H761.179V82H768.135V79.965ZM803.549 58.505V79.965H800.774V82H810.875V79.965H808.063V58.505H810.875V56.47H790.895V58.505H793.818C793.818 70.456 793.115 76.598 791.302 78.781C791.117 77.893 790.266 77.264 788.971 77.264C787.454 77.264 786.566 78.374 786.566 79.706C786.566 81.334 787.861 82.37 789.6 82.37C792.967 82.37 794.78 79.336 795.631 72.528C796.038 69.087 796.26 64.425 796.297 58.505H803.549ZM836.927 64.499C836.002 61.428 834.263 58.764 831.266 57.247C829.786 56.47 828.121 56.1 826.234 56.1C824.347 56.1 822.682 56.47 821.165 57.247C815.356 60.207 813.691 68.014 815.504 73.971C816.429 77.042 818.168 79.706 821.165 81.223C822.682 82 824.347 82.37 826.234 82.37C828.121 82.37 829.786 82 831.266 81.223C837.075 78.263 838.74 70.456 836.927 64.499ZM819.5 69.235C819.5 61.872 822.275 58.32 826.234 58.32C830.119 58.32 832.931 61.872 832.931 69.235C832.931 76.635 830.119 80.15 826.234 80.15C822.275 80.15 819.5 76.635 819.5 69.235ZM851.588 82V79.965H848.887V69.975H859.839V79.965H857.101V82H867.128V79.965H864.353V58.505H867.128V56.47H857.101V58.505H859.839V67.94H848.887V58.505H851.588V56.47H841.561V58.505H844.373V79.965H841.561V82H851.588Z" fill="white"/>
<path d="M766.232 114.76C767.648 114.76 768.296 114.832 768.992 115.216C769.688 115.6 769.952 116.368 769.952 117.712V118.24H771.536V113.44H759.2V114.76H761.024V128.68H759.2V130H765.584C767.864 130 769.592 129.52 770.816 128.56C772.04 127.576 772.64 126.4 772.64 125.008C772.64 122.032 770.192 120.28 765.656 120.28H763.952V114.76H766.232ZM765.656 121.6C768.248 121.6 769.592 122.872 769.592 125.008C769.592 127.216 768.2 128.68 765.608 128.68H763.952V121.6H765.656ZM778.558 123.64L781.198 115.984L783.766 123.64H778.558ZM778.438 128.68H776.854L778.126 124.912H784.198L785.47 128.68H783.886V130H789.79V128.68H788.35L783.214 113.44H780.502L775.294 128.68H773.926V130H778.438V128.68ZM798.409 130V128.68H796.201V114.76H798.121C799.489 114.76 800.089 114.808 800.785 115.192C801.481 115.576 801.721 116.368 801.721 117.712V118.312H803.305V113.44H791.449V114.76H793.273V128.68H791.449V130H798.409ZM807.783 123.64L810.423 115.984L812.991 123.64H807.783ZM807.663 128.68H806.079L807.351 124.912H813.423L814.695 128.68H813.111V130H819.016V128.68H817.576L812.439 113.44H809.727L804.519 128.68H803.151V130H807.663V128.68ZM840.955 130.24C842.875 130.24 843.619 128.872 843.619 126.256H842.371C842.371 128.104 842.203 128.8 841.555 128.8C841.243 128.8 840.979 128.68 840.811 128.416C840.643 128.152 840.451 127.552 840.211 126.64C839.755 124.84 839.323 123.664 838.915 123.136C838.507 122.608 837.619 122.032 836.227 121.384C837.379 120.88 838.099 119.44 838.747 117.424C839.083 116.416 839.323 115.744 839.491 115.432C839.611 116.128 840.283 116.584 841.075 116.584C842.035 116.584 842.611 115.96 842.611 114.976C842.611 113.92 841.915 113.2 840.667 113.2C838.483 113.2 837.883 115.96 837.139 118.192C836.635 119.704 835.675 120.904 834.235 120.904H833.251V114.76H835.003V113.44H828.547V114.76H830.323V120.904H829.339C827.059 120.904 826.387 118.12 825.643 115.912C825.139 114.4 824.227 113.2 822.859 113.2C821.635 113.2 820.915 113.944 820.915 115C820.915 115.96 821.563 116.584 822.523 116.584C823.315 116.584 823.795 116.248 824.011 115.6C824.131 115.864 824.299 116.368 824.539 117.112C824.803 117.856 825.019 118.456 825.211 118.912C825.595 119.848 826.411 121.024 827.347 121.384C826.003 122.032 825.139 122.608 824.731 123.136C824.347 123.664 823.915 124.84 823.435 126.64C822.931 128.44 822.667 128.8 822.115 128.8C821.371 128.8 821.179 127.984 821.179 126.256H819.931C819.931 128.872 820.675 130.24 822.595 130.24C824.707 130.24 825.763 128.968 826.411 126.4L826.531 125.92C826.939 124.336 827.299 123.328 827.587 122.872C827.899 122.416 828.475 122.176 829.339 122.176H830.323V128.68H828.547V130H835.003V128.68H833.251V122.176H834.235C835.051 122.176 835.627 122.416 835.963 122.896C836.227 123.28 836.587 124.288 837.019 125.92L837.139 126.4C837.787 128.968 838.843 130.24 840.955 130.24Z" fill="white"/>
<path d="M772.887 335V315.598H765.945V317.378C765.945 326.189 763.364 329.126 754.464 329.126H745.119V306.609L761.228 307.677V299.934L745.119 301.002V279.464H753.04C757.579 279.464 760.783 280.176 762.474 281.689C764.254 283.113 765.144 286.05 765.144 290.411V292.636H772.086V273.59H725.272V279.464H731.591V329.126H725.272V335H772.887Z" fill="white"/>
</svg>
