<svg width="319" height="404" viewBox="0 0 319 404" fill="none" xmlns="http://www.w3.org/2000/svg">
<path d="M319 25.6345V378.365C304.556 378.365 292.852 389.839 292.852 404H269.026C269.026 396.925 263.707 391.183 257.132 391.183C250.566 391.183 245.237 396.925 245.237 404H221.449C221.449 396.925 216.13 391.183 209.555 391.183C202.99 391.183 197.661 396.925 197.661 404H173.873C173.873 396.925 168.554 391.183 161.979 391.183C155.413 391.183 150.085 396.925 150.085 404H126.296C126.296 396.925 120.977 391.183 114.402 391.183C107.837 391.183 102.508 396.925 102.508 404H78.72C78.72 396.925 73.4009 391.183 66.8259 391.183C60.2603 391.183 54.9317 396.925 54.9317 404H26.148C26.148 389.839 14.4442 378.365 0 378.365V25.6345C14.4347 25.6345 26.148 14.1503 26.148 0H55.0174C55.7501 6.3266 60.7646 11.2279 66.8259 11.2279C72.8966 11.2279 77.9017 6.3266 78.6343 0H102.594C103.327 6.3266 108.341 11.2279 114.402 11.2279C120.473 11.2279 125.478 6.3266 126.211 0H150.17C150.903 6.3266 155.917 11.2279 161.979 11.2279C168.049 11.2279 173.055 6.3266 173.787 0H197.747C198.479 6.3266 203.494 11.2279 209.555 11.2279C215.626 11.2279 220.631 6.3266 221.364 0H245.323C246.056 6.3266 251.07 11.2279 257.132 11.2279C263.202 11.2279 268.207 6.3266 268.94 0H292.852C292.852 14.1503 304.556 25.6345 319 25.6345Z" fill="#4301FF"/>
<path d="M63.44 195.8L68.4 181.64L73.36 195.8H63.44ZM63.4 204.52H60.36L62.92 197.28H73.88L76.4 204.52H73.48V206H82.04V204.52H79.32L70.2 178.4H67.76L58.56 204.52H56V206H63.4V204.52ZM114.376 192.16C114.376 187.72 113.016 183.28 109.816 180.28C108.216 178.76 106.336 178 104.216 178C102.096 178 100.216 178.76 98.6159 180.28C97.0559 181.76 95.8959 183.56 95.1759 185.68C94.4559 187.76 94.0959 189.92 94.0959 192.16C94.0959 195.4 94.9759 198.76 96.5759 201.6C98.1759 204.44 100.976 206.4 104.216 206.4C106.336 206.4 108.216 205.64 109.816 204.12C111.416 202.6 112.576 200.8 113.296 198.68C114.016 196.56 114.376 194.4 114.376 192.16ZM97.2159 192.16C97.2159 183.64 99.8559 179.6 104.216 179.6C106.416 179.6 108.136 180.64 109.376 182.72C110.616 184.76 111.256 187.92 111.256 192.16C111.256 196.4 110.616 199.56 109.376 201.68C108.136 203.76 106.416 204.8 104.216 204.8C99.8959 204.8 97.2159 200.6 97.2159 192.16ZM130.839 204.52H126.239V178H125.039C124.519 178.92 123.879 179.56 123.119 179.92C122.359 180.24 120.879 180.4 118.679 180.4V181.84H123.239V204.52H118.679V206H130.839V204.52ZM137.677 203.76L145.797 195C149.077 191.44 150.717 188.08 150.717 184.88C150.717 180.52 147.877 178 142.877 178C140.277 178 138.197 178.6 136.677 179.8C135.197 181 134.437 182.32 134.437 183.8C134.437 185.12 135.197 185.88 136.437 185.88C137.557 185.88 138.277 185.08 138.277 184C138.277 183 137.757 182.36 136.717 182.08C137.477 180.48 139.597 179.6 141.997 179.6C145.717 179.6 147.557 181.32 147.557 185.44C147.557 187.36 147.037 189.28 145.957 191.24C144.877 193.2 142.797 195.88 139.637 199.28L134.717 204.6V206H151.717V197.84H149.957V200.2C149.957 201.64 149.757 202.6 149.317 203.08C148.917 203.52 147.877 203.76 146.197 203.76H137.677ZM165.084 204.8C162.244 204.8 159.924 203.68 159.124 201.92C159.884 201.72 160.724 201 160.724 199.92C160.724 198.84 160.044 198.12 158.884 198.12C157.564 198.12 156.924 198.88 156.924 200.44C156.924 202.04 157.684 203.44 159.244 204.64C160.804 205.8 162.764 206.4 165.164 206.4C168.164 206.4 170.444 205.64 172.004 204.16C173.564 202.64 174.324 200.8 174.324 198.6C174.324 195.12 171.924 192.36 167.324 191.44C171.164 190.2 173.044 187.6 173.044 184.44C173.044 180.6 170.324 178 165.324 178C162.844 178 160.844 178.6 159.324 179.76C157.844 180.92 157.084 182.28 157.084 183.8C157.084 185.12 157.844 185.88 159.084 185.88C160.244 185.88 160.924 185.16 160.924 184C160.924 182.92 160.364 182.28 159.284 182C160.204 180.4 161.964 179.6 164.484 179.6C168.004 179.6 169.884 181.68 169.884 185C169.884 188.32 168.124 190.88 164.324 190.88H161.684V192.36H164.324C166.284 192.36 167.884 192.84 169.204 193.84C170.524 194.84 171.164 196.4 171.164 198.6C171.164 202.72 168.964 204.8 165.084 204.8ZM197.887 204.52H194.487V197.64H197.887V196.16H194.487V178.32H192.247L178.007 196.6V197.64H191.487V204.52H187.687V206H197.887V204.52ZM180.327 196.16L191.487 181.84V196.16H180.327ZM210.503 204.8C207.663 204.8 205.743 203.96 204.703 202.32C205.703 202.04 206.223 201.36 206.223 200.36C206.223 199.24 205.543 198.48 204.383 198.48C203.103 198.48 202.383 199.36 202.383 200.6C202.383 202.24 203.183 203.6 204.743 204.72C206.343 205.84 208.383 206.4 210.863 206.4C213.863 206.4 216.143 205.48 217.703 203.68C219.263 201.84 220.063 199.64 220.063 197.12C220.063 194.72 219.303 192.68 217.743 191.04C216.223 189.36 214.063 188.52 211.263 188.52C208.743 188.52 206.663 189.44 205.583 190.72L206.503 180.92H218.543V178.4H204.983L203.623 192.68H205.343C206.343 191.12 208.303 190.16 210.583 190.16C214.423 190.16 216.903 192.68 216.903 197.2C216.903 202.04 214.663 204.8 210.503 204.8ZM236.153 179.6C238.113 179.6 239.393 180 240.033 180.84C239.273 181.28 238.873 181.92 238.873 182.68C238.873 183.68 239.673 184.52 240.793 184.52C241.953 184.52 242.673 183.72 242.673 182.44C242.673 181.2 242.033 180.12 240.753 179.28C239.473 178.44 237.833 178 235.873 178C232.473 178 229.793 179.4 227.833 182.16C225.873 184.92 224.913 188.6 224.913 193.24C224.913 197.72 225.833 201.04 227.673 203.2C229.553 205.32 231.833 206.4 234.513 206.4C237.313 206.4 239.553 205.52 241.273 203.8C242.993 202.04 243.873 199.92 243.873 197.44C243.873 194.84 243.073 192.76 241.433 191.12C239.793 189.48 237.713 188.64 235.113 188.64C231.593 188.64 228.833 190.28 227.873 192.84C227.873 182.68 231.793 179.6 236.153 179.6ZM234.393 204.8C232.513 204.8 230.953 204.12 229.793 202.72C228.633 201.32 228.073 199.56 228.073 197.44C228.073 193.16 230.633 190.24 234.433 190.24C238.233 190.24 240.753 193.16 240.753 197.44C240.753 199.56 240.153 201.32 238.993 202.72C237.833 204.12 236.313 204.8 234.393 204.8ZM255.517 206.4C256.677 206.4 257.277 205.68 257.277 204.28C257.277 203.92 257.037 202.4 256.917 201.24C256.877 200.64 256.957 199.76 257.157 198.6C257.597 196.2 258.357 193.76 260.437 189.44C261.477 187.28 262.757 184.92 264.277 182.4L265.877 179.8V178.4H248.237V187H250.037V184.72C250.037 182.88 250.277 181.76 250.797 181.32C251.317 180.88 252.557 180.64 254.517 180.64H263.437L261.957 183.04C258.637 188.44 256.237 193.4 255.157 196.08C254.637 197.4 254.277 198.76 253.997 200.12C253.717 201.48 253.597 202.32 253.557 202.64V204.24C253.557 205 253.757 205.52 254.117 205.88C254.517 206.24 254.997 206.4 255.517 206.4Z" fill="white"/>
<path d="M194.24 353.4C197.48 353.4 200 352.64 201.8 351.08C203.64 349.52 204.56 347.68 204.56 345.56C204.56 342 202.32 339.6 197.8 338.32C201.6 337.16 203.48 334.76 203.48 331.88C203.48 329.96 202.6 328.32 200.84 327C199.12 325.68 196.88 325 194.2 325C191.52 325 189.28 325.68 187.56 327C185.84 328.32 184.96 329.96 184.96 331.88C184.96 334.96 186.92 337.12 190.88 338.32C185.8 339.72 183.88 342.04 183.88 345.56C183.88 347.68 184.8 349.52 186.6 351.08C188.44 352.64 191 353.4 194.24 353.4ZM194.24 337.36C191.8 337.36 190 335.16 190 332C190 329.24 191.76 327.12 194.2 327.12C196.56 327.12 198.4 329.24 198.4 331.96C198.4 335.12 196.52 337.36 194.24 337.36ZM194.24 351.28C191.24 351.28 188.92 349 188.96 345.48C189 341.52 191.16 339.44 194.24 339.44C197.32 339.44 199.44 341.56 199.48 345.52C199.52 347.24 199 348.64 197.96 349.72C196.96 350.76 195.72 351.28 194.24 351.28ZM227.493 353.4C230.493 353.4 231.613 351.24 231.613 347.04H229.773C229.773 349.64 229.413 350.96 228.693 350.96C228.173 350.96 227.813 350.76 227.533 350.4C227.253 350 226.853 349.04 226.333 347.56C225.773 345.96 225.133 344.84 224.453 344.24C223.773 343.6 222.373 343.04 220.253 342.52C222.173 342.32 223.173 340.72 224.093 338C224.573 336.64 224.933 335.76 225.133 335.36C225.013 336.84 225.973 337.92 227.613 337.92C229.053 337.92 229.973 336.8 229.973 335.16C229.973 333.56 228.813 332.4 226.853 332.4C221.013 332.4 222.973 341.72 217.773 341.72H216.093V335.04H218.493V332.84H208.733V335.04H211.413V350.8H208.733V353H218.493V350.8H216.093V343.64H217.693C219.213 343.64 219.933 344.2 220.533 345.2C220.733 345.48 221.053 346.32 221.173 346.64C221.333 346.96 221.733 348.12 221.893 348.56C222.573 350.32 223.293 351.56 224.053 352.32C224.813 353.04 225.973 353.4 227.493 353.4ZM245.527 350.8H242.167V335.04H244.727C246.447 335.04 247.607 335.32 248.207 335.88C248.847 336.4 249.167 337.52 249.167 339.16V340.2H251.447V332.84H234.807V335.04H237.487V350.8H234.807V353H245.527V350.8Z" fill="white"/>
<path d="M201.112 294.24C203.032 294.24 203.8 292.872 203.8 290.256H202.552C202.552 291.96 202.288 292.8 201.736 292.8C201.088 292.8 200.848 292.392 200.392 290.64C200.152 289.68 199.96 288.984 199.816 288.552C199.672 288.096 199.432 287.664 199.12 287.208C198.472 286.272 197.68 285.912 196.072 285.36C197.224 284.976 197.968 283.584 198.664 281.496C199.024 280.44 199.264 279.768 199.408 279.456C199.576 280.128 200.224 280.56 200.968 280.56C201.928 280.56 202.552 279.912 202.552 278.952C202.552 277.896 201.856 277.2 200.608 277.2C198.496 277.2 197.776 279.984 196.984 282.168C196.48 283.68 195.568 284.88 194.224 284.88H192.952V278.76H194.752V277.44H188.2V278.76H190.024V292.68H188.2V294H194.752V292.68H192.952V286.2H194.224C195.136 286.2 195.784 286.464 196.168 287.016C196.576 287.568 196.984 288.696 197.44 290.424C198.04 293.016 199 294.24 201.112 294.24ZM209.292 287.64L211.932 279.984L214.5 287.64H209.292ZM209.172 292.68H207.588L208.86 288.912H214.932L216.204 292.68H214.62V294H220.524V292.68H219.084L213.948 277.44H211.236L206.028 292.68H204.66V294H209.172V292.68ZM231.187 294V292.68H229.147V278.76H230.275C231.451 278.76 232.243 278.952 232.627 279.36C233.011 279.744 233.203 280.584 233.203 281.88V282.48H234.787V277.44H220.531V282.48H222.115V281.88C222.115 280.608 222.307 279.768 222.691 279.36C223.099 278.952 223.867 278.76 225.043 278.76H226.219V292.68H224.155V294H231.187ZM245.677 275.76L235.117 296.4H236.989L247.549 275.76H245.677ZM262.247 294V288.936H260.663V289.368C260.663 290.592 260.447 291.456 259.991 291.96C259.559 292.44 258.719 292.68 257.447 292.68H254.591V286.2L259.223 286.44V284.664L254.591 284.928V278.76H256.895C258.215 278.76 259.151 278.952 259.655 279.36C260.183 279.768 260.447 280.584 260.447 281.832V282.408H262.031V277.44H249.839V278.76H251.663V292.68H249.839V294H262.247Z" fill="white"/>
<line x1="27" y1="148.5" x2="292" y2="148.5" stroke="white" stroke-width="3" stroke-dasharray="20 20"/>
<line x1="188" y1="311.5" x2="288" y2="311.5" stroke="white" stroke-width="3" stroke-dasharray="10 10"/>
<circle cx="106" cy="305" r="64.5" stroke="white" stroke-width="3"/>
<path d="M112.501 82V79.965H109.356V58.505H111.095C112.908 58.505 114.129 58.801 114.721 59.43C115.313 60.022 115.609 61.317 115.609 63.315V64.24H118.051V56.47H96.073V64.24H98.515V63.315C98.515 61.354 98.811 60.059 99.403 59.43C100.032 58.801 101.216 58.505 103.029 58.505H104.842V79.965H101.66V82H112.501ZM125.32 72.195L129.39 60.392L133.349 72.195H125.32ZM125.135 79.965H122.693L124.654 74.156H134.015L135.976 79.965H133.534V82H142.636V79.965H140.416L132.498 56.47H128.317L120.288 79.965H118.179V82H125.135V79.965ZM160.549 58.505V79.965H157.774V82H167.875V79.965H165.063V58.505H167.875V56.47H147.895V58.505H150.818C150.818 70.456 150.115 76.598 148.302 78.781C148.117 77.893 147.266 77.264 145.971 77.264C144.454 77.264 143.566 78.374 143.566 79.706C143.566 81.334 144.861 82.37 146.6 82.37C149.967 82.37 151.78 79.336 152.631 72.528C153.038 69.087 153.26 64.425 153.297 58.505H160.549ZM193.927 64.499C193.002 61.428 191.263 58.764 188.266 57.247C186.786 56.47 185.121 56.1 183.234 56.1C181.347 56.1 179.682 56.47 178.165 57.247C172.356 60.207 170.691 68.014 172.504 73.971C173.429 77.042 175.168 79.706 178.165 81.223C179.682 82 181.347 82.37 183.234 82.37C185.121 82.37 186.786 82 188.266 81.223C194.075 78.263 195.74 70.456 193.927 64.499ZM176.5 69.235C176.5 61.872 179.275 58.32 183.234 58.32C187.119 58.32 189.931 61.872 189.931 69.235C189.931 76.635 187.119 80.15 183.234 80.15C179.275 80.15 176.5 76.635 176.5 69.235ZM208.588 82V79.965H205.887V69.975H216.839V79.965H214.101V82H224.128V79.965H221.353V58.505H224.128V56.47H214.101V58.505H216.839V67.94H205.887V58.505H208.588V56.47H198.561V58.505H201.373V79.965H198.561V82H208.588Z" fill="white"/>
<path d="M123.232 114.76C124.648 114.76 125.296 114.832 125.992 115.216C126.688 115.6 126.952 116.368 126.952 117.712V118.24H128.536V113.44H116.2V114.76H118.024V128.68H116.2V130H122.584C124.864 130 126.592 129.52 127.816 128.56C129.04 127.576 129.64 126.4 129.64 125.008C129.64 122.032 127.192 120.28 122.656 120.28H120.952V114.76H123.232ZM122.656 121.6C125.248 121.6 126.592 122.872 126.592 125.008C126.592 127.216 125.2 128.68 122.608 128.68H120.952V121.6H122.656ZM135.558 123.64L138.198 115.984L140.766 123.64H135.558ZM135.438 128.68H133.854L135.126 124.912H141.198L142.47 128.68H140.886V130H146.79V128.68H145.35L140.214 113.44H137.502L132.294 128.68H130.926V130H135.438V128.68ZM155.409 130V128.68H153.201V114.76H155.121C156.489 114.76 157.089 114.808 157.785 115.192C158.481 115.576 158.721 116.368 158.721 117.712V118.312H160.305V113.44H148.449V114.76H150.273V128.68H148.449V130H155.409ZM164.783 123.64L167.423 115.984L169.991 123.64H164.783ZM164.663 128.68H163.079L164.351 124.912H170.423L171.695 128.68H170.111V130H176.016V128.68H174.576L169.439 113.44H166.727L161.519 128.68H160.151V130H164.663V128.68ZM197.955 130.24C199.875 130.24 200.619 128.872 200.619 126.256H199.371C199.371 128.104 199.203 128.8 198.555 128.8C198.243 128.8 197.979 128.68 197.811 128.416C197.643 128.152 197.451 127.552 197.211 126.64C196.755 124.84 196.323 123.664 195.915 123.136C195.507 122.608 194.619 122.032 193.227 121.384C194.379 120.88 195.099 119.44 195.747 117.424C196.083 116.416 196.323 115.744 196.491 115.432C196.611 116.128 197.283 116.584 198.075 116.584C199.035 116.584 199.611 115.96 199.611 114.976C199.611 113.92 198.915 113.2 197.667 113.2C195.483 113.2 194.883 115.96 194.139 118.192C193.635 119.704 192.675 120.904 191.235 120.904H190.251V114.76H192.003V113.44H185.547V114.76H187.323V120.904H186.339C184.059 120.904 183.387 118.12 182.643 115.912C182.139 114.4 181.227 113.2 179.859 113.2C178.635 113.2 177.915 113.944 177.915 115C177.915 115.96 178.563 116.584 179.523 116.584C180.315 116.584 180.795 116.248 181.011 115.6C181.131 115.864 181.299 116.368 181.539 117.112C181.803 117.856 182.019 118.456 182.211 118.912C182.595 119.848 183.411 121.024 184.347 121.384C183.003 122.032 182.139 122.608 181.731 123.136C181.347 123.664 180.915 124.84 180.435 126.64C179.931 128.44 179.667 128.8 179.115 128.8C178.371 128.8 178.179 127.984 178.179 126.256H176.931C176.931 128.872 177.675 130.24 179.595 130.24C181.707 130.24 182.763 128.968 183.411 126.4L183.531 125.92C183.939 124.336 184.299 123.328 184.587 122.872C184.899 122.416 185.475 122.176 186.339 122.176H187.323V128.68H185.547V130H192.003V128.68H190.251V122.176H191.235C192.051 122.176 192.627 122.416 192.963 122.896C193.227 123.28 193.587 124.288 194.019 125.92L194.139 126.4C194.787 128.968 195.843 130.24 197.955 130.24Z" fill="white"/>
<path d="M129.887 335V315.598H122.945V317.378C122.945 326.189 120.364 329.126 111.464 329.126H102.119V306.609L118.228 307.677V299.934L102.119 301.002V279.464H110.04C114.579 279.464 117.783 280.176 119.474 281.689C121.254 283.113 122.144 286.05 122.144 290.411V292.636H129.086V273.59H82.272V279.464H88.591V329.126H82.272V335H129.887Z" fill="white"/>
</svg>
