<svg width="955" height="358" viewBox="0 0 955 358" fill="none" xmlns="http://www.w3.org/2000/svg">
<path d="M955 129V25.0001C941.2 25.0001 930 13.8001 930 0.00012207H634.41V129.79C657.79 133.98 675.52 154.42 675.52 179C675.52 203.58 657.79 224.02 634.41 228.21V358H930C930 344.19 941.2 333 955 333V229C927.39 229 905 206.61 905 179C905 151.39 927.39 129 955 129ZM0 25.0001V129C27.61 129 50 151.39 50 179C50 206.61 27.61 229 0 229V333C13.81 333 25 344.19 25 358H616.63V228.21C593.26 224.02 575.52 203.58 575.52 179C575.52 154.42 593.26 133.98 616.63 129.79V0.00012207H25C25 13.8001 13.81 25.0001 0 25.0001Z" fill="#4301FF"/>
<path d="M300.36 219.996L300.36 222.716L298.2 222.716L284.4 211.636L300.36 211.636L300.36 214.396L303 214.396L303 202.756L300.36 202.756L300.36 205.556L278.04 205.556L278.04 202.756L275.4 202.756L275.4 214.396L278.04 214.396L278.04 211.636L280 211.636L293.8 222.716L278.04 222.716L278.04 219.996L275.4 219.996L275.4 231.636L278.04 231.636L278.04 228.796L300.36 228.796L300.36 231.636L303 231.636L303 219.996L300.36 219.996ZM303 184.702C303 177.622 300.44 174.062 295.28 174.062C293.4 174.062 291.88 174.822 290.76 176.302C289.64 177.782 288.92 179.662 288.6 181.902C288.08 177.862 285.8 175.262 282.28 175.262C280.08 175.262 278.4 176.182 277.2 178.022C276 179.862 275.4 182.302 275.4 185.302L275.4 198.062L278.04 198.062L278.04 195.222L300.36 195.222L300.36 198.062L303 198.062L303 184.702ZM277.96 186.502C277.96 183.302 279.88 181.342 282.88 181.342C285.92 181.342 287.68 183.262 287.68 186.742L287.68 189.142L277.96 189.142L277.96 186.502ZM290.04 186.262C290.04 182.622 291.88 180.302 295.2 180.302C298.56 180.302 300.44 182.462 300.44 186.102L300.44 189.142L290.04 189.142L290.04 186.262ZM292.2 164.232L279.92 160.232L292.2 156.232L292.2 164.232ZM300.36 164.552L300.36 166.872L294.68 165.032L294.68 155.432L300.36 153.632L300.36 156.032L303 156.032L303 145.312L300.36 145.312L300.36 147.592L275.4 155.632L275.4 161.712L300.36 169.832L300.36 172.032L303 172.032L303 164.552L300.36 164.552ZM303 131.035L300.36 131.035L300.36 133.675L290.24 133.675L290.24 123.275L300.36 123.275L300.36 125.955L303 125.955L303 114.355L300.36 114.355L300.36 117.195L278.04 117.195L278.04 114.355L275.4 114.355L275.4 125.955L278.04 125.955L278.04 123.275L287.6 123.275L287.6 133.675L278.04 133.675L278.04 131.035L275.4 131.035L275.4 142.595L278.04 142.595L278.04 139.755L300.36 139.755L300.36 142.595L303 142.595L303 131.035ZM375 255.72L372.36 255.72L372.36 259.16L350.04 259.16L350.04 256.36C350.04 254.28 350.12 253.36 350.76 252.24C351.4 251.12 352.72 250.68 354.96 250.68L356.12 250.68L356.12 247.56L347.4 247.56L347.4 268.08L350.04 268.08L350.04 265.24L372.36 265.24L372.36 268.08L375 268.08L375 255.72ZM375 231.684L372.36 231.684L372.36 234.884L364.08 234.884L364.08 232.604C364.08 228.884 363.28 225.964 361.64 223.884C360 221.764 358 220.724 355.6 220.724C350.68 220.724 347.4 224.964 347.4 232.844L347.4 243.804L350.04 243.804L350.04 240.964L372.36 240.964L372.36 243.804L375 243.804L375 231.684ZM350.04 232.924C350.04 228.964 352.04 227.004 355.56 227.004C359.52 227.004 361.48 228.964 361.48 232.844L361.48 234.884L350.04 234.884L350.04 232.924ZM372.36 205.739L372.36 208.459L370.2 208.459L356.4 197.379L372.36 197.379L372.36 200.139L375 200.139L375 188.499L372.36 188.499L372.36 191.299L350.04 191.299L350.04 188.499L347.4 188.499L347.4 200.139L350.04 200.139L350.04 197.379L352 197.379L365.8 208.459L350.04 208.459L350.04 205.739L347.4 205.739L347.4 217.379L350.04 217.379L350.04 214.539L372.36 214.539L372.36 217.379L375 217.379L375 205.739L372.36 205.739ZM375 144.365L372.36 144.365L372.36 147.205L350.04 147.205L350.04 144.365L347.4 144.365L347.4 155.485L350.04 155.485L350.04 153.285L372.36 153.285L372.36 161.045L350.04 161.045L350.04 158.965L347.4 158.965L347.4 169.205L350.04 169.205L350.04 167.125L372.36 167.125L372.36 174.885L350.04 174.885L350.04 172.685L347.4 172.685L347.4 183.805L350.04 183.805L350.04 180.965L372.36 180.965L372.36 183.805L375 183.805L375 144.365ZM372.36 128.084L372.36 130.804L370.2 130.804L356.4 119.724L372.36 119.724L372.36 122.484L375 122.484L375 110.844L372.36 110.844L372.36 113.644L350.04 113.644L350.04 110.844L347.4 110.844L347.4 122.484L350.04 122.484L350.04 119.724L352 119.724L365.8 130.804L350.04 130.804L350.04 128.084L347.4 128.084L347.4 139.724L350.04 139.724L350.04 136.884L372.36 136.884L372.36 139.724L375 139.724L375 128.084L372.36 128.084ZM375 94.5904L372.36 94.5904L372.36 97.2304L362.24 97.2304L362.24 86.8304L372.36 86.8304L372.36 89.5104L375 89.5104L375 77.9104L372.36 77.9104L372.36 80.7504L350.04 80.7504L350.04 77.9104L347.4 77.9104L347.4 89.5104L350.04 89.5104L350.04 86.8304L359.6 86.8304L359.6 97.2304L350.04 97.2304L350.04 94.5904L347.4 94.5904L347.4 106.15L350.04 106.15L350.04 103.31L372.36 103.31L372.36 106.15L375 106.15L375 94.5904Z" fill="white"/>
<circle cx="144" cy="170" r="64.5" stroke="white" stroke-width="3"/>
<path d="M114.93 168.555C114.93 162.78 115.77 158.58 117.345 156.165C118.92 153.75 122.385 152.49 127.845 152.49L130.155 152.49L130.155 144.3L108 144.3L108 201L114.93 201L114.93 193.545L173.52 193.545L173.52 201L180.45 201L180.45 171.18C180.45 160.89 178.35 153.015 174.255 147.45C170.055 141.885 164.805 139.05 158.4 139.05C145.485 139.05 137.61 150.6 137.61 170.865L137.61 177.585L114.93 177.585L114.93 168.555ZM144.435 171.39C144.435 161.205 149.475 155.535 158.4 155.535C167.745 155.535 173.52 161.415 173.52 171.6L173.52 177.585L144.435 177.585L144.435 171.39Z" fill="white"/>
<rect x="694.5" y="22.5" width="199" height="315" rx="20.5" stroke="white" stroke-width="3"/>
<path d="M716.486 234.426C714.992 234.876 713.696 235.722 712.958 237.18C712.58 237.9 712.4 238.71 712.4 239.628C712.4 240.546 712.58 241.356 712.958 242.094C714.398 244.92 718.196 245.73 721.094 244.848C722.588 244.398 723.884 243.552 724.622 242.094C725 241.356 725.18 240.546 725.18 239.628C725.18 238.71 725 237.9 724.622 237.18C723.182 234.354 719.384 233.544 716.486 234.426ZM718.79 242.904C715.208 242.904 713.48 241.554 713.48 239.628C713.48 237.738 715.208 236.37 718.79 236.37C722.39 236.37 724.1 237.738 724.1 239.628C724.1 241.554 722.39 242.904 718.79 242.904ZM724.01 224.968L724.01 230.17C722.3 229.306 718.826 228.856 713.57 228.838L713.57 224.968L724.01 224.968ZM727.664 231.862C726.638 231.862 725.936 231.664 725.558 231.286C725.18 230.908 725 230.206 725 229.216L725 224.842C725 223.852 725.18 223.15 725.558 222.772C725.936 222.394 726.638 222.196 727.664 222.196L728.06 222.196L728.06 221.008L724.01 221.008L724.01 222.772L713.57 222.772L713.57 221.404L712.58 221.404L712.58 231.484L713.57 231.484L713.57 230.098C718.7 230.116 722.048 230.422 724.01 231.574L724.01 233.05L728.06 233.05L728.06 231.862L727.664 231.862ZM724.01 214.259L724.01 215.591L722.84 215.591L716.27 210.029L724.01 210.029L724.01 211.379L725 211.379L725 206.483L724.01 206.483L724.01 207.833L713.57 207.833L713.57 206.483L712.58 206.483L712.58 211.379L713.57 211.379L713.57 210.029L714.65 210.029L721.22 215.591L713.57 215.591L713.57 214.259L712.58 214.259L712.58 219.155L713.57 219.155L713.57 217.787L724.01 217.787L724.01 219.155L725 219.155L725 214.259L724.01 214.259ZM725 199.433L724.01 199.433L724.01 200.747L719.15 200.747L719.15 195.419L724.01 195.419L724.01 196.751L725 196.751L725 191.873L724.01 191.873L724.01 193.223L713.57 193.223L713.57 191.873L712.58 191.873L712.58 196.751L713.57 196.751L713.57 195.419L718.16 195.419L718.16 200.747L713.57 200.747L713.57 199.433L712.58 199.433L712.58 204.311L713.57 204.311L713.57 202.943L724.01 202.943L724.01 204.311L725 204.311L725 199.433ZM713.57 179.825C713.57 178.763 713.624 178.277 713.912 177.755C714.2 177.233 714.776 177.035 715.784 177.035L716.18 177.035L716.18 175.847L712.58 175.847L712.58 185.099L713.57 185.099L713.57 183.731L724.01 183.731L724.01 185.099L725 185.099L725 180.311C725 178.601 724.64 177.305 723.92 176.387C723.182 175.469 722.3 175.019 721.256 175.019C719.024 175.019 717.71 176.855 717.71 180.257L717.71 181.535L713.57 181.535L713.57 179.825ZM718.7 180.257C718.7 178.313 719.654 177.305 721.256 177.305C722.912 177.305 724.01 178.349 724.01 180.293L724.01 181.535L718.7 181.535L718.7 180.257ZM724.01 168.153L724.01 169.485L722.84 169.485L716.27 163.923L724.01 163.923L724.01 165.273L725 165.273L725 160.377L724.01 160.377L724.01 161.727L713.57 161.727L713.57 160.377L712.58 160.377L712.58 165.273L713.57 165.273L713.57 163.923L714.65 163.923L721.22 169.485L713.57 169.485L713.57 168.153L712.58 168.153L712.58 173.049L713.57 173.049L713.57 171.681L724.01 171.681L724.01 173.049L725 173.049L725 168.153L724.01 168.153ZM713.57 150.735L724.01 150.735L724.01 152.085L725 152.085L725 147.171L724.01 147.171L724.01 148.539L713.57 148.539L713.57 147.171L712.58 147.171L712.58 156.891L713.57 156.891L713.57 155.469C719.384 155.469 722.372 155.811 723.434 156.693C723.002 156.783 722.696 157.197 722.696 157.827C722.696 158.565 723.236 158.997 723.884 158.997C724.676 158.997 725.18 158.367 725.18 157.521C725.18 155.883 723.704 155.001 720.392 154.587C718.718 154.389 716.45 154.281 713.57 154.263L713.57 150.735ZM721.346 135.707L721.346 136.895L721.526 136.895C722.444 136.895 723.092 137.057 723.47 137.399C723.83 137.723 724.01 138.353 724.01 139.307L724.01 141.449L719.168 141.449L719.168 139.055L720.572 139.055L720.572 137.993L716.792 137.993L716.792 139.055L718.196 139.055L718.196 141.449L713.57 141.449L713.57 139.721C713.57 138.731 713.714 138.029 714.02 137.651C714.326 137.255 714.938 137.057 715.874 137.057L716.144 137.057L716.144 135.869L712.58 135.869L712.58 145.013L713.57 145.013L713.57 143.645L724.01 143.645L724.01 145.013L725 145.013L725 135.707L721.346 135.707ZM712.58 133.508L713.57 133.508L713.57 132.14L724.01 132.14L724.01 133.508L725 133.508L725 128.864L724.01 128.864L724.01 129.944L713.57 129.944L713.57 126.056L724.01 126.056L724.01 127.064L725 127.064L725 122.852L724.01 122.852L724.01 123.86L713.57 123.86L713.57 119.972L724.01 119.972L724.01 121.052L725 121.052L725 116.408L724.01 116.408L724.01 117.776L713.57 117.776L713.57 116.408L712.58 116.408L712.58 133.508Z" fill="white"/>
<path d="M870.772 248.082C872.122 248.082 873.634 247.668 874.948 246.948C876.244 246.21 877.18 244.896 877.18 243.384C877.18 241.872 876.262 240.576 874.966 239.838C873.652 239.1 872.14 238.686 870.772 238.686C869.404 238.686 867.892 239.1 866.614 239.838C865.318 240.576 864.4 241.872 864.4 243.384C864.4 244.896 865.318 246.192 866.614 246.93C867.892 247.668 869.404 248.082 870.772 248.082ZM870.772 246.282C867.118 246.282 865.3 245.31 865.3 243.384C865.3 241.458 867.118 240.486 870.772 240.486C874.444 240.486 876.28 241.458 876.28 243.384C876.28 245.31 874.444 246.282 870.772 246.282ZM876.19 231.12L876.19 233.1L864.4 233.1L864.4 233.748C864.742 233.982 864.976 234.162 865.102 234.306C865.228 234.45 865.354 234.72 865.462 235.116C865.552 235.512 865.606 236.07 865.606 236.79L866.416 236.79L866.416 234.81L876.19 234.81L876.19 236.79L877 236.79L877 231.12L876.19 231.12ZM875.74 227.813L872.374 224.699C871.222 223.637 870.286 222.935 869.548 222.593C868.81 222.251 868.126 222.089 867.496 222.089C865.534 222.089 864.4 223.385 864.4 225.635C864.4 226.859 864.67 227.813 865.21 228.515C865.75 229.199 866.344 229.541 866.974 229.541C867.676 229.541 868.072 229.127 868.072 228.479C868.072 227.849 867.64 227.471 867.064 227.471C866.596 227.471 866.254 227.705 866.038 228.173C865.552 227.741 865.3 227.075 865.3 226.157C865.3 224.645 866.146 223.889 867.838 223.889C868.684 223.889 869.584 224.141 870.52 224.663C871.438 225.167 872.698 226.139 874.264 227.597L876.226 229.415L877 229.415L877 221.657L873.148 221.657L873.148 222.647L873.796 222.647C874.642 222.647 874.912 222.647 875.29 222.917C875.65 223.187 875.74 223.709 875.74 224.699L875.74 227.813ZM870.772 219.352C872.122 219.352 873.634 218.938 874.948 218.218C876.244 217.48 877.18 216.166 877.18 214.654C877.18 213.142 876.262 211.846 874.966 211.108C873.652 210.37 872.14 209.956 870.772 209.956C869.404 209.956 867.892 210.37 866.614 211.108C865.318 211.846 864.4 213.142 864.4 214.654C864.4 216.166 865.318 217.462 866.614 218.2C867.892 218.938 869.404 219.352 870.772 219.352ZM870.772 217.552C867.118 217.552 865.3 216.58 865.3 214.654C865.3 212.728 867.118 211.756 870.772 211.756C874.444 211.756 876.28 212.728 876.28 214.654C876.28 216.58 874.444 217.552 870.772 217.552ZM876.28 204.069C876.28 205.203 875.956 206.013 875.308 206.481C875.11 205.959 874.75 205.707 874.228 205.707C873.652 205.707 873.256 206.049 873.256 206.697C873.256 207.363 873.706 207.759 874.516 207.759C875.236 207.759 875.866 207.417 876.388 206.715C876.91 206.013 877.18 205.113 877.18 204.015C877.18 202.629 876.838 201.567 876.136 200.829C875.434 200.091 874.606 199.731 873.616 199.731C872.104 199.731 870.826 200.847 870.448 202.935C869.854 201.117 868.648 200.325 867.298 200.325C865.624 200.325 864.4 201.567 864.4 203.889C864.4 205.041 864.67 205.977 865.192 206.679C865.714 207.381 866.308 207.723 866.974 207.723C867.676 207.723 868.072 207.309 868.072 206.661C868.072 206.031 867.694 205.653 867.064 205.653C866.542 205.653 866.2 205.923 866.002 206.445C865.534 205.959 865.3 205.275 865.3 204.393C865.3 202.899 866.182 202.125 867.622 202.125C869.062 202.125 870.16 202.791 870.16 204.429L870.16 205.653L870.97 205.653L870.97 204.429C870.97 202.503 871.852 201.549 873.616 201.531C875.398 201.531 876.28 202.377 876.28 204.069ZM868.432 190.607C870.232 190.607 871.492 191.615 871.492 193.217C871.492 194.819 870.232 195.827 868.432 195.827C866.614 195.827 865.3 194.801 865.3 193.217C865.3 191.633 866.614 190.607 868.432 190.607ZM876.28 193.955C876.28 194.693 876.19 195.215 875.992 195.503C875.74 195.197 875.398 195.035 874.984 195.035C874.426 195.035 873.994 195.485 873.994 196.079C873.994 196.727 874.408 197.105 875.11 197.105C875.722 197.105 876.226 196.799 876.604 196.187C876.982 195.575 877.18 194.819 877.18 193.901C877.18 190.247 874.084 188.807 870.502 188.807C865.948 188.807 864.4 191.039 864.4 193.289C864.4 194.567 864.796 195.611 865.588 196.421C866.362 197.231 867.316 197.627 868.432 197.627C869.602 197.627 870.556 197.249 871.294 196.511C872.032 195.755 872.392 194.801 872.392 193.631C872.392 192.335 871.816 191.075 870.88 190.499C874.48 190.499 876.28 191.651 876.28 193.955ZM876.19 178.029L876.19 179.469L873.31 179.469L873.31 178.029L872.5 178.029L872.5 179.469L864.58 179.469L864.58 180.729L872.77 187.119L873.31 187.119L873.31 181.179L876.19 181.179L876.19 182.799L877 182.799L877 178.029L876.19 178.029ZM872.5 185.823L866.542 181.179L872.5 181.179L872.5 185.823ZM873.652 175.883C874.606 175.883 875.434 175.487 876.136 174.695C876.838 173.903 877.18 172.841 877.18 171.491C877.18 170.141 876.838 169.079 876.136 168.287C875.434 167.495 874.606 167.099 873.652 167.099C872.086 167.099 870.988 168.089 870.394 170.051C869.872 168.413 868.774 167.621 867.496 167.621C866.65 167.621 865.912 167.999 865.318 168.737C864.706 169.475 864.4 170.411 864.4 171.509C864.4 172.607 864.706 173.525 865.318 174.263C865.912 175.001 866.65 175.361 867.496 175.361C868.882 175.361 869.836 174.515 870.394 172.841C871.042 175.019 872.122 175.883 873.652 175.883ZM870.016 171.491C870.016 172.661 868.954 173.561 867.514 173.561C866.218 173.561 865.228 172.679 865.228 171.509C865.228 170.933 865.444 170.447 865.894 170.033C866.326 169.619 866.866 169.421 867.496 169.421C868.954 169.421 870.016 170.339 870.016 171.491ZM873.652 168.899C874.48 168.881 875.146 169.133 875.632 169.637C876.118 170.141 876.352 170.753 876.352 171.491C876.352 172.229 876.1 172.841 875.614 173.345C875.128 173.849 874.462 174.101 873.634 174.083C871.816 174.065 870.844 173.003 870.844 171.491C870.844 169.979 871.834 168.917 873.652 168.899ZM876.19 159.307L876.19 161.287L864.4 161.287L864.4 161.935C864.742 162.169 864.976 162.349 865.102 162.493C865.228 162.637 865.354 162.907 865.462 163.303C865.552 163.699 865.606 164.257 865.606 164.977L866.416 164.977L866.416 162.997L876.19 162.997L876.19 164.977L877 164.977L877 159.307L876.19 159.307ZM877.18 154.732C877.18 154.21 876.856 153.724 876.01 153.724C875.92 153.724 875.704 153.76 875.344 153.85C874.984 153.94 874.588 153.976 874.174 153.958C873.76 153.94 873.202 153.868 872.536 153.742C871.186 153.454 869.044 152.464 866.524 150.826L865.354 150.07L864.58 150.07L864.58 158.152L868.54 158.152L868.54 157.162L868.09 157.162C867.064 157.162 866.434 157.018 866.2 156.748C865.966 156.46 865.84 155.776 865.84 154.696L865.84 151.456L866.668 151.978C869.458 153.724 871.744 154.894 873.202 155.344C873.94 155.56 874.48 155.704 874.858 155.758C875.236 155.812 875.614 155.848 875.992 155.848C876.838 155.848 877.18 155.29 877.18 154.732ZM876.28 144.978C876.28 146.04 876.028 146.814 875.542 147.282C875.344 146.814 875.002 146.58 874.48 146.58C873.904 146.58 873.472 146.94 873.472 147.57C873.472 148.272 873.958 148.65 874.606 148.65C875.344 148.65 875.956 148.29 876.442 147.57C876.928 146.85 877.18 145.914 877.18 144.78C877.18 143.394 876.766 142.332 875.92 141.612C875.074 140.874 874.084 140.514 872.968 140.514C871.906 140.514 870.988 140.874 870.232 141.576C869.458 142.278 869.08 143.268 869.08 144.582C869.08 145.644 869.35 146.454 869.908 146.976L866.02 146.67L866.02 141.234L864.58 141.234L864.58 147.534L870.97 148.056L870.97 147.084C870.376 146.67 869.98 145.86 869.98 144.978C869.98 143.34 871.006 142.314 873.004 142.314C875.182 142.314 876.28 143.196 876.28 144.978ZM873.652 138.478C874.606 138.478 875.434 138.082 876.136 137.29C876.838 136.498 877.18 135.436 877.18 134.086C877.18 132.736 876.838 131.674 876.136 130.882C875.434 130.09 874.606 129.694 873.652 129.694C872.086 129.694 870.988 130.684 870.394 132.646C869.872 131.008 868.774 130.216 867.496 130.216C866.65 130.216 865.912 130.594 865.318 131.332C864.706 132.07 864.4 133.006 864.4 134.104C864.4 135.202 864.706 136.12 865.318 136.858C865.912 137.596 866.65 137.956 867.496 137.956C868.882 137.956 869.836 137.11 870.394 135.436C871.042 137.614 872.122 138.478 873.652 138.478ZM870.016 134.086C870.016 135.256 868.954 136.156 867.514 136.156C866.218 136.156 865.228 135.274 865.228 134.104C865.228 133.528 865.444 133.042 865.894 132.628C866.326 132.214 866.866 132.016 867.496 132.016C868.954 132.016 870.016 132.934 870.016 134.086ZM873.652 131.494C874.48 131.476 875.146 131.728 875.632 132.232C876.118 132.736 876.352 133.348 876.352 134.086C876.352 134.824 876.1 135.436 875.614 135.94C875.128 136.444 874.462 136.696 873.634 136.678C871.816 136.66 870.844 135.598 870.844 134.086C870.844 132.574 871.834 131.512 873.652 131.494ZM876.19 118.986L876.19 120.426L873.31 120.426L873.31 118.986L872.5 118.986L872.5 120.426L864.58 120.426L864.58 121.686L872.77 128.076L873.31 128.076L873.31 122.136L876.19 122.136L876.19 123.756L877 123.756L877 118.986L876.19 118.986ZM872.5 126.78L866.542 122.136L872.5 122.136L872.5 126.78ZM876.19 111.206L876.19 113.186L864.4 113.186L864.4 113.834C864.742 114.068 864.976 114.248 865.102 114.392C865.228 114.536 865.354 114.806 865.462 115.202C865.552 115.598 865.606 116.156 865.606 116.876L866.416 116.876L866.416 114.896L876.19 114.896L876.19 116.876L877 116.876L877 111.206L876.19 111.206Z" fill="white"/>
<path d="M829 221.592L827.614 221.592L827.614 222.708L817.966 222.708L817.966 218.838L827.614 218.838L827.614 219.972L829 219.972L829 214.392L827.614 214.392L827.614 215.562L817.966 215.562L817.966 214.392L816.58 214.392L816.58 227.172L817.966 227.172L817.966 225.984L827.614 225.984L827.614 227.172L829 227.172L829 221.592ZM829 206.549L827.614 206.549L827.614 207.899L824.266 207.899L824.266 206.963C824.266 205.235 823.888 203.885 823.15 202.931C822.412 201.959 821.476 201.473 820.36 201.473C818.11 201.473 816.58 203.381 816.58 207.107L816.58 212.363L817.966 212.363L817.966 211.175L827.614 211.175L827.614 212.363L829 212.363L829 206.549ZM817.966 207.197C817.966 205.667 818.812 204.839 820.342 204.839C822.034 204.839 822.88 205.613 822.88 207.179L822.88 207.899L817.966 207.899L817.966 207.197ZM820.486 188.962C818.992 189.412 817.696 190.294 816.958 191.824C816.58 192.58 816.4 193.444 816.4 194.398C816.4 195.352 816.58 196.216 816.958 196.99C818.398 199.924 822.178 200.752 825.112 199.852C826.57 199.366 827.884 198.502 828.622 196.99C829 196.216 829.18 195.352 829.18 194.398C829.18 193.444 829 192.58 828.622 191.824C827.128 188.854 823.438 188.062 820.486 188.962ZM827.704 194.398C827.704 195.91 826.102 196.828 822.79 196.828C819.478 196.828 817.876 195.91 817.876 194.398C817.876 192.904 819.496 191.968 822.79 191.968C826.102 191.968 827.704 192.904 827.704 194.398ZM829 181.33L827.614 181.33L827.614 182.446L817.966 182.446L817.966 178.576L827.614 178.576L827.614 179.71L829 179.71L829 174.13L827.614 174.13L827.614 175.3L817.966 175.3L817.966 174.13L816.58 174.13L816.58 186.91L817.966 186.91L817.966 185.722L827.614 185.722L827.614 186.91L829 186.91L829 181.33ZM833.77 168.789C833.77 166.323 832.474 165.081 829.882 165.081C829.396 165.081 828.892 165.135 828.37 165.261L817.966 162.129L817.966 161.085L816.58 161.085L816.58 164.667L817.966 164.667L817.966 163.695L825.76 166.053L817.966 168.627L817.966 167.565L816.58 167.565L816.58 172.911L817.966 172.911L817.966 171.813L828.334 168.393C829.324 168.051 830.17 167.889 830.872 167.889C831.898 167.889 832.402 168.321 832.402 169.185C832.402 169.455 832.348 169.653 832.222 169.815C831.88 169.347 831.448 169.113 830.944 169.113C830.17 169.113 829.594 169.725 829.594 170.589C829.594 171.507 830.206 172.119 831.214 172.119C832.798 172.119 833.77 170.805 833.77 168.789ZM829.18 151.716L829.18 150.294L824.662 150.294L824.662 151.914C826.39 151.986 827.704 152.832 827.704 154.272C827.704 155.928 826.12 156.936 822.79 156.936C819.478 156.936 817.876 155.928 817.876 154.326C817.876 152.868 818.974 152.076 820.828 152.004L820.828 150.384L816.418 150.384L816.418 151.788L817.246 152.436C816.688 153.084 816.4 153.948 816.4 155.046C816.4 156.612 817.012 157.872 818.236 158.844C819.442 159.816 820.972 160.302 822.79 160.302C824.608 160.302 826.12 159.816 827.344 158.862C828.568 157.89 829.18 156.594 829.18 154.992C829.18 153.822 828.982 153.048 828.28 152.346L829.18 151.716ZM827.614 143.784L823.348 143.784L823.348 142.902C823.348 142.38 823.51 142.002 823.834 141.804C824.14 141.606 824.86 141.39 825.958 141.156C828.28 140.742 829.18 139.644 829.18 137.916C829.18 136.278 828.136 135.468 826.066 135.468L826.066 136.692C827.146 136.692 827.686 136.854 827.686 137.16C827.686 137.52 827.488 137.664 826.48 137.88C825.202 138.114 824.338 138.438 823.87 138.852C823.384 139.248 822.952 140.058 822.538 141.264L818.002 137.034L816.58 137.034L816.58 148.248L817.966 148.248L817.966 147.06L827.614 147.06L827.614 148.248L829 148.248L829 142.722L827.614 142.722L827.614 143.784ZM821.962 143.784L817.966 143.784L817.966 138.96L821.962 142.686L821.962 143.784Z" fill="white"/>
<path d="M814 106.5L819.474 104.474L821.5 99L823.526 104.474L829 106.5L823.526 108.526L821.5 114L819.474 108.526L814 106.5Z" fill="white"/>
<path d="M814 253.5L819.474 251.474L821.5 246L823.526 251.474L829 253.5L823.526 255.526L821.5 261L819.474 255.526L814 253.5Z" fill="white"/>
<path d="M775.01 280.196L775.01 282.068L763.4 282.068L763.4 282.716C763.85 283.022 764.156 283.4 764.336 283.868C764.516 284.318 764.606 285.092 764.606 286.154L765.596 286.154L765.596 284.264L775.01 284.264L775.01 286.154L776 286.154L776 280.196L775.01 280.196ZM776.18 273.872C776.18 272.414 775.838 271.28 775.136 270.47C774.434 269.642 773.606 269.228 772.652 269.228C771.05 269.228 769.97 270.236 769.394 272.27C768.872 270.56 767.792 269.714 766.496 269.714C765.632 269.714 764.894 270.11 764.3 270.902C763.706 271.676 763.4 272.684 763.4 273.89C763.4 275.096 763.706 276.104 764.3 276.878C764.894 277.652 765.632 278.048 766.496 278.048C767.882 278.048 768.854 277.166 769.394 275.384C770.024 277.67 771.068 278.534 772.652 278.534C773.606 278.534 774.434 278.12 775.136 277.31C775.838 276.482 776.18 275.33 776.18 273.872ZM768.962 273.872C768.962 274.97 767.972 275.78 766.55 275.78C765.308 275.78 764.354 274.988 764.354 273.89C764.354 272.828 765.308 272 766.532 272C767.954 272 768.962 272.846 768.962 273.872ZM775.226 273.872C775.226 275.222 774.2 276.266 772.616 276.248C770.834 276.23 769.898 275.258 769.898 273.872C769.898 272.486 770.852 271.532 772.634 271.514C773.408 271.496 774.038 271.73 774.524 272.198C774.992 272.648 775.226 273.206 775.226 273.872ZM771.23 260.436L765.902 258.546L771.23 256.692L771.23 260.436ZM775.01 260.58L775.01 261.768L772.184 260.778L772.184 256.368L775.01 255.396L775.01 256.566L776 256.566L776 252.138L775.01 252.138L775.01 253.236L764.57 256.836L764.57 255.324L763.58 255.324L763.58 260.796L764.57 260.796L764.57 259.248L775.01 262.938L775.01 263.964L776 263.964L776 260.58L775.01 260.58ZM776 245.295C776 242.073 774.866 240.579 772.508 240.579C771.68 240.579 771.014 240.903 770.51 241.569C769.988 242.235 769.664 243.027 769.52 243.963C769.25 242.361 768.224 241.173 766.694 241.173C764.696 241.173 763.58 242.883 763.58 245.619L763.58 250.875L764.57 250.875L764.57 249.507L775.01 249.507L775.01 250.875L776 250.875L776 245.295ZM764.552 245.889C764.552 244.323 765.524 243.423 766.892 243.423C768.314 243.423 769.196 244.305 769.196 246.051L769.196 247.311L764.552 247.311L764.552 245.889ZM770.078 245.709C770.078 243.963 770.996 242.865 772.526 242.865C774.092 242.865 775.028 243.855 775.028 245.601L775.028 247.311L770.078 247.311L770.078 245.709ZM776 233.342L775.01 233.342L775.01 234.998L764.57 234.998L764.57 233.558C764.57 232.532 764.606 232.082 764.894 231.56C765.182 231.038 765.776 230.858 766.784 230.858L767.234 230.858L767.234 229.67L763.58 229.67L763.58 238.562L764.57 238.562L764.57 237.194L775.01 237.194L775.01 238.562L776 238.562L776 233.342ZM780.716 224.625C780.716 222.555 779.438 221.727 776.828 221.727L775.928 221.727L764.57 218.055L764.57 216.849L763.58 216.849L763.58 220.557L764.57 220.557L764.57 219.351L773.372 222.195L764.57 225.471L764.57 224.175L763.58 224.175L763.58 228.837L764.57 228.837L764.57 227.595L775.784 223.419L777.26 223.419C779.042 223.419 779.672 223.761 779.672 224.769C779.672 225.183 779.564 225.507 779.33 225.741C779.042 225.219 778.646 224.949 778.16 224.949C777.53 224.949 777.098 225.399 777.098 226.065C777.098 226.803 777.602 227.307 778.466 227.307C779.78 227.307 780.716 226.263 780.716 224.625ZM776.18 207.3L776.18 206.346L771.842 206.346L771.842 207.534C772.778 207.552 773.552 207.804 774.182 208.326C774.794 208.848 775.1 209.514 775.1 210.36C775.1 212.394 773.318 213.726 769.772 213.726C766.19 213.726 764.48 212.43 764.48 210.504C764.48 208.704 765.65 207.642 767.648 207.624L767.648 206.436L763.418 206.436L763.418 207.39L764.246 208.092C763.688 208.794 763.4 209.694 763.4 210.792C763.4 212.358 764.03 213.636 765.272 214.59C766.514 215.544 768.026 216.012 769.772 216.012C772.058 216.012 774.038 215.238 775.262 213.6C775.874 212.79 776.18 211.818 776.18 210.72C776.18 209.55 775.874 208.632 775.28 208.002L776.18 207.3ZM763.58 204.101L764.57 204.101L764.57 202.733L775.01 202.733L775.01 204.101L776 204.101L776 199.457L775.01 199.457L775.01 200.537L764.57 200.537L764.57 196.649L775.01 196.649L775.01 197.657L776 197.657L776 193.445L775.01 193.445L775.01 194.453L764.57 194.453L764.57 190.565L775.01 190.565L775.01 191.645L776 191.645L776 187.001L775.01 187.001L775.01 188.369L764.57 188.369L764.57 187.001L763.58 187.001L763.58 204.101ZM771.23 182.198L765.902 180.308L771.23 178.454L771.23 182.198ZM775.01 182.342L775.01 183.53L772.184 182.54L772.184 178.13L775.01 177.158L775.01 178.328L776 178.328L776 173.9L775.01 173.9L775.01 174.998L764.57 178.598L764.57 177.086L763.58 177.086L763.58 182.558L764.57 182.558L764.57 181.01L775.01 184.7L775.01 185.726L776 185.726L776 182.342L775.01 182.342Z" fill="white"/>
<path d="M775.01 126.196L775.01 128.068L763.4 128.068L763.4 128.716C763.85 129.022 764.156 129.4 764.336 129.868C764.516 130.318 764.606 131.092 764.606 132.154L765.596 132.154L765.596 130.264L775.01 130.264L775.01 132.154L776 132.154L776 126.196L775.01 126.196ZM776.18 120.646C776.18 117.442 773.948 116.236 771.968 116.236C770.888 116.236 769.97 116.596 769.214 117.316C768.458 118.018 768.08 119.062 768.08 120.412C768.08 121.42 768.332 122.212 768.818 122.788L765.182 122.518L765.182 116.956L763.58 116.956L763.58 123.544L770.078 124.066L770.078 123.022C769.52 122.662 769.142 121.888 769.142 121.042C769.142 119.476 770.096 118.522 772.022 118.522C774.092 118.522 775.118 119.35 775.118 120.988C775.118 121.888 774.938 122.554 774.56 123.004C774.29 122.536 773.93 122.302 773.462 122.302C772.814 122.302 772.346 122.716 772.346 123.454C772.346 124.192 772.868 124.66 773.588 124.66C774.344 124.66 774.974 124.3 775.46 123.562C775.946 122.824 776.18 121.852 776.18 120.646ZM769.43 111.505C768.8 111.505 768.17 111.973 768.17 112.783C768.17 113.593 768.8 114.043 769.43 114.043C770.024 114.043 770.636 113.593 770.636 112.783C770.636 111.973 770.024 111.505 769.43 111.505ZM774.974 111.505C774.344 111.505 773.714 111.973 773.714 112.783C773.714 113.593 774.344 114.043 774.974 114.043C775.568 114.043 776.18 113.593 776.18 112.783C776.18 111.973 775.568 111.505 774.974 111.505ZM775.01 100.315L775.01 101.683L772.382 101.683L772.382 100.315L771.41 100.315L771.41 101.683L763.58 101.683L763.58 103.429L771.698 109.711L772.382 109.711L772.382 103.879L775.01 103.879L775.01 105.391L776 105.391L776 100.315L775.01 100.315ZM771.41 108.199L765.83 103.879L771.41 103.879L771.41 108.199ZM776.18 94.3768C776.18 91.1728 773.948 89.9668 771.968 89.9668C770.888 89.9668 769.97 90.3268 769.214 91.0468C768.458 91.7488 768.08 92.7928 768.08 94.1428C768.08 95.1508 768.332 95.9428 768.818 96.5188L765.182 96.2488L765.182 90.6868L763.58 90.6868L763.58 97.2748L770.078 97.7968L770.078 96.7528C769.52 96.3928 769.142 95.6188 769.142 94.7728C769.142 93.2068 770.096 92.2528 772.022 92.2528C774.092 92.2528 775.118 93.0808 775.118 94.7188C775.118 95.6188 774.938 96.2848 774.56 96.7348C774.29 96.2668 773.93 96.0328 773.462 96.0328C772.814 96.0328 772.346 96.4468 772.346 97.1848C772.346 97.9228 772.868 98.3908 773.588 98.3908C774.344 98.3908 774.974 98.0308 775.46 97.2928C775.946 96.5548 776.18 95.5828 776.18 94.3768Z" fill="white"/>
<line x1="758" y1="163.5" x2="777" y2="163.5" stroke="white" stroke-width="3"/>
<line x1="758" y1="153.5" x2="777" y2="153.5" stroke="white" stroke-width="3"/>
<line x1="758" y1="143.5" x2="777" y2="143.5" stroke="white" stroke-width="3"/>
<line x1="738.5" y1="336" x2="738.5" y2="21" stroke="white" stroke-width="3"/>
<line x1="793.5" y1="336" x2="793.5" y2="21" stroke="white" stroke-width="3"/>
<line x1="851.5" y1="336" x2="851.5" y2="21" stroke="white" stroke-width="3"/>
<path d="M536.8 202.88L536.8 207.04L511 207.04L511 208.48C512 209.16 512.68 210 513.08 211.04C513.48 212.04 513.68 213.76 513.68 216.12L515.88 216.12L515.88 211.92L536.8 211.92L536.8 216.12L539 216.12L539 202.88L536.8 202.88ZM539.4 190.547C539.4 183.427 534.44 180.747 530.04 180.747C527.64 180.747 525.6 181.547 523.92 183.147C522.24 184.707 521.4 187.027 521.4 190.027C521.4 192.267 521.96 194.027 523.04 195.307L514.96 194.707L514.96 182.347L511.4 182.347L511.4 196.987L525.84 198.147L525.84 195.827C524.6 195.027 523.76 193.307 523.76 191.427C523.76 187.947 525.88 185.827 530.16 185.827C534.76 185.827 537.04 187.667 537.04 191.307C537.04 193.307 536.64 194.787 535.8 195.787C535.2 194.747 534.4 194.227 533.36 194.227C531.92 194.227 530.88 195.147 530.88 196.787C530.88 198.427 532.04 199.467 533.64 199.467C535.32 199.467 536.72 198.667 537.8 197.027C538.88 195.387 539.4 193.227 539.4 190.547ZM524.4 170.233C523 170.233 521.6 171.273 521.6 173.073C521.6 174.873 523 175.873 524.4 175.873C525.72 175.873 527.08 174.873 527.08 173.073C527.08 171.273 525.72 170.233 524.4 170.233ZM536.72 170.233C535.32 170.233 533.92 171.273 533.92 173.073C533.92 174.873 535.32 175.873 536.72 175.873C538.04 175.873 539.4 174.873 539.4 173.073C539.4 171.273 538.04 170.233 536.72 170.233ZM536.8 145.367L536.8 148.407L530.96 148.407L530.96 145.367L528.8 145.367L528.8 148.407L511.4 148.407L511.4 152.287L529.44 166.247L530.96 166.247L530.96 153.287L536.8 153.287L536.8 156.647L539 156.647L539 145.367L536.8 145.367ZM528.8 162.887L516.4 153.287L528.8 153.287L528.8 162.887ZM539.4 132.171C539.4 125.051 534.44 122.371 530.04 122.371C527.64 122.371 525.6 123.171 523.92 124.771C522.24 126.331 521.4 128.651 521.4 131.651C521.4 133.891 521.96 135.651 523.04 136.931L514.96 136.331L514.96 123.971L511.4 123.971L511.4 138.611L525.84 139.771L525.84 137.451C524.6 136.651 523.76 134.931 523.76 133.051C523.76 129.571 525.88 127.451 530.16 127.451C534.76 127.451 537.04 129.291 537.04 132.931C537.04 134.931 536.64 136.411 535.8 137.411C535.2 136.371 534.4 135.851 533.36 135.851C531.92 135.851 530.88 136.771 530.88 138.411C530.88 140.051 532.04 141.091 533.64 141.091C535.32 141.091 536.72 140.291 537.8 138.651C538.88 137.011 539.4 134.851 539.4 132.171Z" fill="white"/>
<path d="M474.36 265.2L474.36 269.16L449 269.16L449 270.6C450.88 271.88 451.68 274.24 451.68 279.16L454.32 279.16L454.32 275.24L474.36 275.24L474.36 279.16L477 279.16L477 265.2L474.36 265.2ZM477.4 250.644C477.4 247.124 476.64 244.404 475.12 242.524C473.6 240.604 471.76 239.644 469.56 239.644C465.96 239.644 463.56 242.004 462.32 246.684C461.16 242.644 459 240.644 455.88 240.644C453.92 240.644 452.28 241.564 450.96 243.404C449.64 245.244 449 247.644 449 250.644C449 253.604 449.64 256.004 450.96 257.844C452.28 259.684 453.92 260.604 455.88 260.604C458.96 260.604 461.12 258.524 462.32 254.404C463.64 259.644 466 261.604 469.56 261.604C471.76 261.604 473.6 260.644 475.12 258.764C476.64 256.844 477.4 254.124 477.4 250.644ZM461.2 250.644C461.2 252.844 459.12 254.404 456.08 254.404C453.48 254.404 451.44 252.844 451.44 250.644C451.44 248.524 453.44 246.884 456.04 246.884C459.08 246.884 461.2 248.524 461.2 250.644ZM474.96 250.644C474.96 253.324 472.8 255.364 469.44 255.324C465.64 255.284 463.6 253.404 463.6 250.644C463.6 247.804 465.68 245.964 469.48 245.924C472.8 245.884 474.96 247.924 474.96 250.644ZM477.4 207.955C477.4 204.635 475.28 202.955 471 202.955L471 204.995C473.12 204.995 474.2 205.435 474.2 206.275C474.2 207.115 473.52 207.515 472.12 207.515L464.04 207.515C458.8 207.515 456.2 210.355 456.2 216.035C456.2 218.675 456.68 220.795 457.68 222.435C458.64 224.075 459.88 224.875 461.4 224.875C462.84 224.875 463.84 223.915 463.84 222.155C463.84 220.395 462.88 219.475 461.44 219.475C460.52 219.475 459.84 219.875 459.44 220.715C458.88 219.875 458.6 218.795 458.6 217.475C458.6 215.035 460.08 213.395 463.24 213.395L465.08 213.395L465.08 214.835C465.08 222.115 467.32 225.755 471.84 225.755C475.32 225.755 477.4 223.395 477.4 219.515C477.4 216.355 476.04 214.195 473.36 212.955C476.04 212.555 477.4 210.875 477.4 207.955ZM473.96 216.915C473.96 218.675 472.84 219.715 470.8 219.715C468.28 219.715 467.04 218.035 467.04 214.715L467.04 213.395L469.84 213.395C472.08 213.395 473.96 214.875 473.96 216.915ZM477 188.97C477 186.41 476.76 184.65 476.08 182.61C475.32 180.53 473.68 179.37 471.24 179.37C468.08 179.37 466.56 181.89 466.28 185.29C465.8 182.13 464.24 180.57 461.64 180.57C459.68 180.57 458.28 181.49 457.6 183.21C456.92 184.93 456.68 186.69 456.68 189.21L456.68 200.89L459.32 200.89L459.32 198.41L474.36 198.41L474.36 200.89L477 200.89L477 188.97ZM459.12 190.33C459.12 187.73 460.04 186.49 462.28 186.49C464.48 186.49 465.36 187.73 465.36 190.29L465.36 192.49L459.12 192.49L459.12 190.33ZM467.56 192.49L467.56 190.13C467.56 186.97 468.36 185.37 471.08 185.37C473.64 185.37 474.6 186.97 474.6 190.13L474.6 192.49L467.56 192.49ZM474.36 164.195L474.36 167.355L459.32 167.355L459.32 165.195C459.32 163.555 459.6 162.395 460.16 161.795C460.72 161.195 461.8 160.875 463.44 160.875L464.56 160.875L464.56 158.155L456.68 158.155L456.68 175.715L459.32 175.715L459.32 173.235L474.36 173.235L474.36 175.715L477 175.715L477 164.195L474.36 164.195ZM487.4 150.918C487.4 149.118 486.72 147.718 485.32 146.638C483.92 145.558 481.32 144.278 477.52 142.798L459.32 135.798L459.32 133.638L456.68 133.638L456.68 140.718L459.32 140.718L459.32 138.558L470.64 142.918L459.32 147.838L459.32 145.678L456.68 145.678L456.68 156.118L459.32 156.118L459.32 153.798L477.64 145.798C480.64 147.038 482.56 147.998 483.48 148.678C484.4 149.358 484.84 150.158 484.84 151.158C484.32 150.438 483.56 150.078 482.52 150.078C481.04 150.078 480.04 151.198 480.04 152.838C480.04 154.558 481.32 155.758 483.08 155.758C485.68 155.758 487.4 153.798 487.4 150.918ZM470.36 115.774C473.28 116.614 474.72 118.214 474.72 120.574C474.72 123.734 472.08 125.654 466.84 125.654C461.72 125.654 458.84 123.814 458.84 120.654C458.84 119.494 459.08 118.654 459.6 118.094C459.92 119.094 460.72 119.614 462 119.614C463.44 119.614 464.36 118.534 464.36 116.814C464.36 115.094 463.2 114.094 461.4 114.094C460 114.094 458.76 114.814 457.76 116.214C456.72 117.614 456.2 119.414 456.2 121.694C456.2 124.534 457.12 126.894 459 128.854C460.88 130.774 463.48 131.734 466.84 131.734C470.16 131.734 472.76 130.814 474.64 128.934C476.48 127.054 477.4 124.694 477.4 121.854C477.4 117.654 475.32 114.654 471.04 113.694L470.36 115.774ZM474.36 94.1458L474.36 97.0258L459.16 97.0258L459.16 95.5058C459.16 92.9058 460.48 91.9458 463.56 91.9458L465 91.9458L465 89.2257L456.68 89.2258L456.68 110.706L465 110.706L465 107.986L463.56 107.986C460.48 107.986 459.16 107.106 459.16 104.426L459.16 102.906L474.36 102.906L474.36 105.826L477 105.826L477 94.1458L474.36 94.1458ZM477.4 68.272C477.4 64.952 475.28 63.272 471 63.272L471 65.312C473.12 65.312 474.2 65.752 474.2 66.592C474.2 67.432 473.52 67.832 472.12 67.832L464.04 67.832C458.8 67.832 456.2 70.672 456.2 76.352C456.2 78.992 456.68 81.112 457.68 82.752C458.64 84.392 459.88 85.192 461.4 85.192C462.84 85.192 463.84 84.232 463.84 82.472C463.84 80.712 462.88 79.792 461.44 79.792C460.52 79.792 459.84 80.192 459.44 81.032C458.88 80.192 458.6 79.112 458.6 77.792C458.6 75.352 460.08 73.712 463.24 73.712L465.08 73.712L465.08 75.152C465.08 82.432 467.32 86.072 471.84 86.072C475.32 86.072 477.4 83.712 477.4 79.832C477.4 76.672 476.04 74.512 473.36 73.272C476.04 72.872 477.4 71.192 477.4 68.272ZM473.96 77.232C473.96 78.992 472.84 80.032 470.8 80.032C468.28 80.032 467.04 78.352 467.04 75.032L467.04 73.712L469.84 73.712C472.08 73.712 473.96 75.192 473.96 77.232Z" fill="white"/>
<line x1="419.5" y1="306" x2="419.5" y2="41.0001" stroke="white" stroke-width="3" stroke-dasharray="20 20"/>
<line x1="235.5" y1="306" x2="235.5" y2="41.0001" stroke="white" stroke-width="3" stroke-dasharray="20 20"/>
<line x1="275.5" y1="94.0001" x2="275.5" y2="61.0001" stroke="white" stroke-width="3"/>
<line x1="288.5" y1="94.0001" x2="288.5" y2="61.0001" stroke="white" stroke-width="3"/>
<line x1="301.5" y1="94.0001" x2="301.5" y2="61.0001" stroke="white" stroke-width="3"/>
<line x1="275.5" y1="286" x2="275.5" y2="253" stroke="white" stroke-width="3"/>
<line x1="288.5" y1="286" x2="288.5" y2="253" stroke="white" stroke-width="3"/>
<line x1="301.5" y1="286" x2="301.5" y2="253" stroke="white" stroke-width="3"/>
<path d="M181 272.29C181.788 276.848 183.714 280.288 186.865 282.609C190.017 284.931 193.694 286.049 197.808 286.049C203.148 286.049 207 283.297 207 278.138C207 273.666 203.586 271 199.734 271C195.707 271 193.343 273.58 192.643 278.74C189.054 278.31 186.865 276.16 185.99 272.29L181 272.29ZM181 292.241C181.788 296.799 183.714 300.238 186.865 302.56C190.017 304.882 193.694 306 197.808 306C203.148 306 207 303.248 207 298.089C207 293.617 203.586 290.951 199.734 290.951C195.707 290.951 193.343 293.531 192.643 298.691C189.054 298.261 186.865 296.111 185.99 292.241L181 292.241Z" fill="white"/>
<path d="M181 42.3269C181.788 47.0149 183.714 50.5529 186.865 52.9412C190.017 55.3294 193.694 56.4792 197.808 56.4792C203.148 56.4792 207 53.6488 207 48.3416C207 43.7421 203.586 41.0001 199.734 41.0001C195.707 41.0001 193.343 43.6537 192.643 48.9608C189.054 48.5186 186.865 46.3072 185.99 42.3269L181 42.3269ZM181 62.8478C181.788 67.5358 183.714 71.0738 186.865 73.462C190.017 75.8502 193.694 77.0001 197.808 77.0001C203.148 77.0001 207 74.1697 207 68.8625C207 64.263 203.586 61.521 199.734 61.521C195.707 61.521 193.343 64.1746 192.643 69.4817C189.054 69.0394 186.865 66.8281 185.99 62.8478L181 62.8478Z" fill="white"/>
</svg>
