<svg width="305" height="781" viewBox="0 0 305 781" fill="none" xmlns="http://www.w3.org/2000/svg">
<path d="M305 25.0467V548.703H240.87C236.522 538.504 227.096 531.44 216.179 531.44H88.8116C81.2787 531.44 74.4555 534.807 69.5154 540.247C67.2956 542.691 65.4669 545.547 64.1205 548.703H0V25.0467C12.5548 25.0467 22.7442 13.8258 22.7442 0H61.5186C61.5186 16.6009 73.7459 30.056 88.8116 30.056H216.179C223.712 30.056 230.535 26.6897 235.475 21.2496C240.416 15.8095 243.472 8.29546 243.472 0H282.256C282.256 13.8258 292.436 25.0467 305 25.0467Z" fill="#4301FF"/>
<path d="M243.081 565.724H305V754.943C292.436 754.943 282.256 766.606 282.256 781H243.472C243.472 763.729 231.254 749.731 216.179 749.731H88.8116C81.2787 749.731 74.4555 753.233 69.5154 758.893C64.5754 764.553 61.5186 772.37 61.5186 781H22.7442C22.7442 766.606 12.5548 754.943 0 754.943V565.724H61.9098C64.0659 580.515 75.3016 591.771 88.8116 591.771H216.179C223.712 591.771 230.535 588.269 235.475 582.609C239.397 578.128 242.135 572.27 243.081 565.724Z" fill="#4301FF"/>
<path d="M59.8 707.246C63.44 707.246 65.24 704.926 65.24 700.326H62.52C62.52 702.726 62.16 703.926 61.48 703.926C60.68 703.926 60.36 703.486 59.88 701.246C59.36 698.326 58.56 696.326 57.52 695.246C56.48 694.126 54.52 693.166 51.68 692.366C53.08 691.886 54.32 690.246 54.84 689.006C55.12 688.366 55.44 687.486 55.8 686.366C56.2 685.246 56.48 684.526 56.64 684.166C57.24 685.166 58.28 685.646 59.72 685.646C61.68 685.646 62.92 684.366 62.92 682.406C62.92 680.286 61.56 678.846 59 678.846C54.84 678.846 53.68 683.326 52.52 686.846C51.76 689.246 50.44 691.206 48.48 691.206H46.76V682.326H49.36V679.246H36.84V682.326H39.48V703.766H36.84V706.846H49.36V703.766H46.76V694.286H48.48C49.68 694.286 50.52 694.686 51.04 695.446C51.56 696.206 52.12 697.806 52.64 700.286C53.56 705.286 55.84 707.246 59.8 707.246ZM91.8884 687.926C90.8884 684.606 88.9284 681.726 85.5284 680.086C83.8484 679.246 81.9284 678.846 79.8084 678.846C77.6884 678.846 75.7684 679.246 74.0484 680.086C67.5284 683.286 65.6884 691.686 67.6884 698.206C68.7684 701.446 70.6884 704.366 74.0484 706.006C75.7684 706.846 77.6884 707.246 79.8084 707.246C81.9284 707.246 83.8484 706.846 85.5284 706.006C92.1284 702.686 93.8884 694.486 91.8884 687.926ZM79.8084 703.966C76.4484 703.966 74.4084 700.406 74.4084 693.046C74.4084 685.686 76.4484 682.126 79.8084 682.126C83.1284 682.126 85.2084 685.726 85.2084 693.046C85.2084 700.406 83.1284 703.966 79.8084 703.966ZM108.728 706.846V703.766H106.368V694.286H115.328V703.766H112.968V706.846H125.248V703.766H122.608V682.326H125.248V679.246H112.968V682.326H115.328V691.206H106.368V682.326H108.728V679.246H96.4478V682.326H99.0878V703.766H96.4478V706.846H108.728ZM148.029 706.846V703.766H145.029V682.286H146.229C147.789 682.286 148.869 682.646 149.429 683.326C149.989 684.006 150.269 685.326 150.269 687.286V688.566H153.869V679.246H128.869V688.566H132.469V687.286C132.469 685.326 132.749 684.006 133.309 683.326C133.869 682.646 134.949 682.286 136.509 682.286H137.749V703.766H134.709V706.846H148.029ZM170.421 706.846V703.766H167.421V696.326H169.501C173.341 696.326 176.341 695.486 178.461 693.846C180.621 692.206 181.701 690.126 181.701 687.646C181.701 682.646 177.461 679.246 169.181 679.246H157.501V682.326H160.141V703.766H157.501V706.846H170.421ZM168.981 682.326C172.381 682.326 174.221 684.206 174.221 687.606C174.221 691.366 172.501 693.246 169.021 693.246H167.421V682.326H168.981ZM209.503 687.926C208.503 684.606 206.543 681.726 203.143 680.086C201.463 679.246 199.543 678.846 197.423 678.846C195.303 678.846 193.383 679.246 191.663 680.086C185.143 683.286 183.303 691.686 185.303 698.206C186.383 701.446 188.303 704.366 191.663 706.006C193.383 706.846 195.303 707.246 197.423 707.246C199.543 707.246 201.463 706.846 203.143 706.006C209.743 702.686 211.503 694.486 209.503 687.926ZM197.423 703.966C194.063 703.966 192.023 700.406 192.023 693.046C192.023 685.686 194.063 682.126 197.423 682.126C200.743 682.126 202.823 685.726 202.823 693.046C202.823 700.406 200.743 703.966 197.423 703.966ZM229.349 682.326V703.766H226.869V706.846H239.269V703.766H236.629V682.326H239.269V679.246H216.989V682.326H219.949C219.989 692.726 219.349 699.126 218.069 701.486C217.429 700.686 216.509 700.286 215.309 700.286C213.269 700.286 211.989 701.686 211.989 703.726C211.989 705.806 213.589 707.246 215.949 707.246C218.829 707.246 220.749 705.446 221.749 701.846C222.749 698.206 223.229 691.726 223.269 682.326H229.349ZM253.688 689.686V682.326H256.328V679.246H243.768V682.326H246.408V703.766H243.768V706.846H255.968C260.008 706.846 263.128 706.046 265.248 704.406C267.408 702.766 268.488 700.646 268.488 698.046C268.488 693.046 263.928 689.686 256.088 689.686H253.688ZM255.768 692.766C259.088 692.766 261.008 694.686 261.008 698.046C261.008 701.686 259.048 703.766 255.688 703.766H253.688V692.766H255.768Z" fill="white"/>
<path d="M52.44 646.582L57.4 632.422L62.36 646.582H52.44ZM52.4 655.302H49.36L51.92 648.062H62.88L65.4 655.302H62.48V656.782H71.04V655.302H68.32L59.2 629.182H56.76L47.56 655.302H45V656.782H52.4V655.302ZM103.376 642.942C103.376 638.502 102.016 634.062 98.8159 631.062C97.2159 629.542 95.3359 628.782 93.2159 628.782C91.0959 628.782 89.2159 629.542 87.6159 631.062C86.0559 632.542 84.8959 634.342 84.1759 636.462C83.4559 638.542 83.0959 640.702 83.0959 642.942C83.0959 646.182 83.9759 649.542 85.5759 652.382C87.1759 655.222 89.9759 657.182 93.2159 657.182C95.3359 657.182 97.2159 656.422 98.8159 654.902C100.416 653.382 101.576 651.582 102.296 649.462C103.016 647.342 103.376 645.182 103.376 642.942ZM86.2159 642.942C86.2159 634.422 88.8559 630.382 93.2159 630.382C95.4159 630.382 97.1359 631.422 98.3759 633.502C99.6159 635.542 100.256 638.702 100.256 642.942C100.256 647.182 99.6159 650.342 98.3759 652.462C97.1359 654.542 95.4159 655.582 93.2159 655.582C88.8959 655.582 86.2159 651.382 86.2159 642.942ZM119.839 655.302H115.239V628.782H114.039C113.519 629.702 112.879 630.342 112.119 630.702C111.359 631.022 109.879 631.182 107.679 631.182V632.622H112.239V655.302H107.679V656.782H119.839V655.302ZM126.677 654.542L134.797 645.782C138.077 642.222 139.717 638.862 139.717 635.662C139.717 631.302 136.877 628.782 131.877 628.782C129.277 628.782 127.197 629.382 125.677 630.582C124.197 631.782 123.437 633.102 123.437 634.582C123.437 635.902 124.197 636.662 125.437 636.662C126.557 636.662 127.277 635.862 127.277 634.782C127.277 633.782 126.757 633.142 125.717 632.862C126.477 631.262 128.597 630.382 130.997 630.382C134.717 630.382 136.557 632.102 136.557 636.222C136.557 638.142 136.037 640.062 134.957 642.022C133.877 643.982 131.797 646.662 128.637 650.062L123.717 655.382V656.782H140.717V648.622H138.957V650.982C138.957 652.422 138.757 653.382 138.317 653.862C137.917 654.302 136.877 654.542 135.197 654.542H126.677ZM154.084 655.582C151.244 655.582 148.924 654.462 148.124 652.702C148.884 652.502 149.724 651.782 149.724 650.702C149.724 649.622 149.044 648.902 147.884 648.902C146.564 648.902 145.924 649.662 145.924 651.222C145.924 652.822 146.684 654.222 148.244 655.422C149.804 656.582 151.764 657.182 154.164 657.182C157.164 657.182 159.444 656.422 161.004 654.942C162.564 653.422 163.324 651.582 163.324 649.382C163.324 645.902 160.924 643.142 156.324 642.222C160.164 640.982 162.044 638.382 162.044 635.222C162.044 631.382 159.324 628.782 154.324 628.782C151.844 628.782 149.844 629.382 148.324 630.542C146.844 631.702 146.084 633.062 146.084 634.582C146.084 635.902 146.844 636.662 148.084 636.662C149.244 636.662 149.924 635.942 149.924 634.782C149.924 633.702 149.364 633.062 148.284 632.782C149.204 631.182 150.964 630.382 153.484 630.382C157.004 630.382 158.884 632.462 158.884 635.782C158.884 639.102 157.124 641.662 153.324 641.662H150.684V643.142H153.324C155.284 643.142 156.884 643.622 158.204 644.622C159.524 645.622 160.164 647.182 160.164 649.382C160.164 653.502 157.964 655.582 154.084 655.582ZM186.887 655.302H183.487V648.422H186.887V646.942H183.487V629.102H181.247L167.007 647.382V648.422H180.487V655.302H176.687V656.782H186.887V655.302ZM169.327 646.942L180.487 632.622V646.942H169.327ZM199.503 655.582C196.663 655.582 194.743 654.742 193.703 653.102C194.703 652.822 195.223 652.142 195.223 651.142C195.223 650.022 194.543 649.262 193.383 649.262C192.103 649.262 191.383 650.142 191.383 651.382C191.383 653.022 192.183 654.382 193.743 655.502C195.343 656.622 197.383 657.182 199.863 657.182C202.863 657.182 205.143 656.262 206.703 654.462C208.263 652.622 209.063 650.422 209.063 647.902C209.063 645.502 208.303 643.462 206.743 641.822C205.223 640.142 203.063 639.302 200.263 639.302C197.743 639.302 195.663 640.222 194.583 641.502L195.503 631.702H207.543V629.182H193.983L192.623 643.462H194.343C195.343 641.902 197.303 640.942 199.583 640.942C203.423 640.942 205.903 643.462 205.903 647.982C205.903 652.822 203.663 655.582 199.503 655.582ZM225.153 630.382C227.113 630.382 228.393 630.782 229.033 631.622C228.273 632.062 227.873 632.702 227.873 633.462C227.873 634.462 228.673 635.302 229.793 635.302C230.953 635.302 231.673 634.502 231.673 633.222C231.673 631.982 231.033 630.902 229.753 630.062C228.473 629.222 226.833 628.782 224.873 628.782C221.473 628.782 218.793 630.182 216.833 632.942C214.873 635.702 213.913 639.382 213.913 644.022C213.913 648.502 214.833 651.822 216.673 653.982C218.553 656.102 220.833 657.182 223.513 657.182C226.313 657.182 228.553 656.302 230.273 654.582C231.993 652.822 232.873 650.702 232.873 648.222C232.873 645.622 232.073 643.542 230.433 641.902C228.793 640.262 226.713 639.422 224.113 639.422C220.593 639.422 217.833 641.062 216.873 643.622C216.873 633.462 220.793 630.382 225.153 630.382ZM223.393 655.582C221.513 655.582 219.953 654.902 218.793 653.502C217.633 652.102 217.073 650.342 217.073 648.222C217.073 643.942 219.633 641.022 223.433 641.022C227.233 641.022 229.753 643.942 229.753 648.222C229.753 650.342 229.153 652.102 227.993 653.502C226.833 654.902 225.313 655.582 223.393 655.582ZM244.517 657.182C245.677 657.182 246.277 656.462 246.277 655.062C246.277 654.702 246.037 653.182 245.917 652.022C245.877 651.422 245.957 650.542 246.157 649.382C246.597 646.982 247.357 644.542 249.437 640.222C250.477 638.062 251.757 635.702 253.277 633.182L254.877 630.582V629.182H237.237V637.782H239.037V635.502C239.037 633.662 239.277 632.542 239.797 632.102C240.317 631.662 241.557 631.422 243.517 631.422H252.437L250.957 633.822C247.637 639.222 245.237 644.182 244.157 646.862C243.637 648.182 243.277 649.542 242.997 650.902C242.717 652.262 242.597 653.102 242.557 653.422V655.022C242.557 655.782 242.757 656.302 243.117 656.662C243.517 657.022 243.997 657.182 244.517 657.182Z" fill="white"/>
<path d="M51.12 412.272H46.96V386.472H45.52C44.84 387.472 44 388.152 42.96 388.552C41.96 388.952 40.24 389.152 37.88 389.152V391.352H42.08V412.272H37.88V414.472H51.12V412.272ZM65.1728 414.872C68.4128 414.872 70.9328 414.112 72.7328 412.552C74.5728 410.992 75.4928 409.152 75.4928 407.032C75.4928 403.472 73.2528 401.072 68.7328 399.792C72.5328 398.632 74.4128 396.232 74.4128 393.352C74.4128 391.432 73.5328 389.792 71.7728 388.472C70.0528 387.152 67.8128 386.472 65.1328 386.472C62.4528 386.472 60.2128 387.152 58.4928 388.472C56.7728 389.792 55.8928 391.432 55.8928 393.352C55.8928 396.432 57.8528 398.592 61.8128 399.792C56.7328 401.192 54.8128 403.512 54.8128 407.032C54.8128 409.152 55.7328 410.992 57.5328 412.552C59.3728 414.112 61.9328 414.872 65.1728 414.872ZM65.1728 398.832C62.7328 398.832 60.9328 396.632 60.9328 393.472C60.9328 390.712 62.6928 388.592 65.1328 388.592C67.4928 388.592 69.3328 390.712 69.3328 393.432C69.3328 396.592 67.4528 398.832 65.1728 398.832ZM65.1728 412.752C62.1728 412.752 59.8528 410.472 59.8928 406.952C59.9328 402.992 62.0928 400.912 65.1728 400.912C68.2528 400.912 70.3728 403.032 70.4128 406.992C70.4528 408.712 69.9328 410.112 68.8928 411.192C67.8928 412.232 66.6528 412.752 65.1728 412.752ZM94.8709 403.872L99.2709 391.112L103.551 403.872H94.8709ZM94.6709 412.272H92.0309L94.1509 405.992H104.271L106.391 412.272H103.751V414.472H113.591V412.272H111.191L102.631 386.872H98.1109L89.4309 412.272H87.1509V414.472H94.6709V412.272ZM128.756 414.472C135.916 414.472 139.236 411.952 139.236 406.712C139.236 404.872 138.516 403.392 137.036 402.272C135.556 401.112 133.796 400.392 131.716 400.072C135.276 399.472 137.916 397.192 137.916 393.792C137.916 389.352 134.116 386.872 128.036 386.872H116.356V389.072H119.396V412.272H116.356V414.472H128.756ZM127.436 389.032C130.916 389.032 132.916 391.192 132.916 394.232C132.916 397.392 130.956 399.352 127.076 399.352H124.276V389.032H127.436ZM127.836 401.312C131.716 401.312 134.156 403.352 134.156 406.752C134.156 410.232 131.956 412.312 128.076 412.312H124.276V401.312H127.836ZM155.319 414.472V412.272H151.639V389.072H154.839C157.119 389.072 158.119 389.152 159.279 389.792C160.439 390.432 160.839 391.752 160.839 393.992V394.992H163.479V386.872H143.719V389.072H146.759V412.272H143.719V414.472H155.319ZM173.689 414.872C175.569 414.872 177.089 414.152 178.209 412.752C179.369 411.312 180.729 408.632 182.329 404.712L188.689 389.072H191.089V386.872H183.489V389.072H185.969L180.369 402.872L173.089 389.072H175.849V386.872H165.649V389.072H168.209L178.249 408.072C176.969 411.272 175.809 412.512 173.609 412.512C174.009 411.992 174.209 411.352 174.209 410.592C174.209 409.192 173.289 408.232 171.729 408.232C170.129 408.232 169.089 409.432 169.089 410.992C169.089 413.432 170.849 414.872 173.689 414.872ZM212.057 414.872H214.177V405.232H211.537C211.497 407.312 210.937 409.032 209.777 410.432C208.617 411.792 207.137 412.472 205.257 412.472C200.737 412.472 197.777 408.512 197.777 400.632C197.777 392.672 200.657 388.872 204.937 388.872C208.937 388.872 211.297 391.472 211.337 395.912H213.977V386.512H211.857L210.297 388.352C208.737 387.112 206.737 386.472 204.297 386.472C200.817 386.472 197.977 387.872 195.857 390.632C193.737 393.392 192.697 396.752 192.697 400.632C192.697 405.712 194.417 410.112 198.057 412.832C199.857 414.192 202.017 414.872 204.457 414.872C207.057 414.872 209.097 414.192 210.497 412.872L212.057 414.872ZM236.086 414.472V412.272H232.686V389.072H234.566C236.526 389.072 237.846 389.392 238.486 390.072C239.126 390.712 239.446 392.112 239.446 394.272V395.272H242.086V386.872H218.326V395.272H220.966V394.272C220.966 392.152 221.286 390.752 221.926 390.072C222.606 389.392 223.886 389.072 225.846 389.072H227.806V412.272H224.366V414.472H236.086ZM249.944 403.872L254.344 391.112L258.624 403.872H249.944ZM249.744 412.272H247.104L249.224 405.992H259.344L261.464 412.272H258.824V414.472H268.664V412.272H266.264L257.704 386.872H253.184L244.504 412.272H242.224V414.472H249.744V412.272Z" fill="white"/>
<path d="M137.305 300.493L147.363 268.169L157.096 300.493H137.305ZM136.116 322.043H130.708L134.926 308.221H159.476L163.693 322.043H157.637V330.423H189V322.043H183.16L162.936 255.327H142.172L121.624 322.043H116V330.423H136.116V322.043Z" fill="white"/>
<path d="M70.0755 84.0757C71.8515 80.2277 64.7475 80.2277 66.5975 84.0757L67.9295 87.1837H68.7435L70.0755 84.0757ZM65.7835 84.6677C64.3405 83.0397 62.9345 83.4467 62.3055 84.6307C61.7505 85.4817 61.8615 87.3687 64.0075 87.5907L67.3375 87.9977L67.7445 87.2947L65.7835 84.6677ZM72.6655 87.5907C74.8115 87.3317 74.9225 85.5187 74.3305 84.5937C73.7755 83.6317 72.1845 82.9287 70.8525 84.6677L68.8915 87.2947L69.2985 87.9977L72.6655 87.5907ZM67.3005 88.1087L63.9705 88.5157C63.0085 88.6267 62.4165 89.0337 62.1575 89.7367C61.9355 90.4027 62.0095 90.9947 62.3795 91.4757C62.8605 92.4377 64.4145 93.2147 65.6725 91.5867L67.7445 88.8857L67.3005 88.1087ZM69.2985 88.1827L68.8545 88.9227L70.8895 91.5497C72.2215 93.2147 73.6645 92.4747 74.2565 91.5127C74.6265 91.0687 74.7005 90.5137 74.4415 89.8107C74.2195 89.1077 73.6645 88.6637 72.7395 88.5527L69.2985 88.1827ZM68.7435 88.9597H67.8925L66.5235 92.1787C65.8205 93.9547 66.8565 94.8797 68.2995 94.9167C69.6685 94.9537 70.8525 93.9547 70.1125 92.2157L68.7435 88.9597ZM109.324 97.0997L113.024 85.7407L116.724 97.0997H109.324ZM109.028 104.648H106.882L108.584 99.3937H117.464L119.129 104.648H116.909V107.09H126.825V104.648H124.716L117.279 81.5597H111.655L104.144 104.648H102.109V107.09H109.028V104.648ZM140.032 107.09V104.648H137.59V95.2867H147.21V104.648H144.731V107.09H155.461V104.648H152.834V84.0017H155.461V81.5597H144.731V84.0017H147.21V92.8447H137.59V84.0017H140.032V81.5597H129.339V84.0017H131.966V104.648H129.339V107.09H140.032ZM170.437 107.09V104.648H167.995V95.2867H177.615V104.648H175.136V107.09H185.866V104.648H183.239V84.0017H185.866V81.5597H175.136V84.0017H177.615V92.8447H167.995V84.0017H170.437V81.5597H159.744V84.0017H162.371V104.648H159.744V107.09H170.437ZM195.662 97.0997L199.362 85.7407L203.062 97.0997H195.662ZM195.366 104.648H193.22L194.922 99.3937H203.802L205.467 104.648H203.247V107.09H213.163V104.648H211.054L203.617 81.5597H197.993L190.482 104.648H188.447V107.09H195.366V104.648ZM239.423 84.0757C241.199 80.2277 234.095 80.2277 235.945 84.0757L237.277 87.1837H238.091L239.423 84.0757ZM235.131 84.6677C233.688 83.0397 232.282 83.4467 231.653 84.6307C231.098 85.4817 231.209 87.3687 233.355 87.5907L236.685 87.9977L237.092 87.2947L235.131 84.6677ZM242.013 87.5907C244.159 87.3317 244.27 85.5187 243.678 84.5937C243.123 83.6317 241.532 82.9287 240.2 84.6677L238.239 87.2947L238.646 87.9977L242.013 87.5907ZM236.648 88.1087L233.318 88.5157C232.356 88.6267 231.764 89.0337 231.505 89.7367C231.283 90.4027 231.357 90.9947 231.727 91.4757C232.208 92.4377 233.762 93.2147 235.02 91.5867L237.092 88.8857L236.648 88.1087ZM238.646 88.1827L238.202 88.9227L240.237 91.5497C241.569 93.2147 243.012 92.4747 243.604 91.5127C243.974 91.0687 244.048 90.5137 243.789 89.8107C243.567 89.1077 243.012 88.6637 242.087 88.5527L238.646 88.1827ZM238.091 88.9597H237.24L235.871 92.1787C235.168 93.9547 236.204 94.8797 237.647 94.9167C239.016 94.9537 240.2 93.9547 239.46 92.2157L238.091 88.9597ZM55.2772 159.648H52.7612V157.65L63.0102 144.885V159.648H60.4572V162.09H71.2242V159.648H68.6342V139.002H71.2242V136.56H60.4572V139.002H63.0102V140.815L52.7612 153.58V139.002H55.2772V136.56H44.5102V139.002H47.1372V159.648H44.5102V162.09H55.2772V159.648ZM87.9237 162.09C94.4727 162.09 97.7657 159.722 97.7657 154.949C97.7657 153.21 97.0627 151.804 95.6937 150.768C94.3247 149.732 92.5857 149.066 90.5137 148.77C94.2507 148.289 96.6557 146.18 96.6557 142.924C96.6557 140.889 95.8047 139.335 94.1027 138.225C92.4007 137.115 90.1437 136.56 87.3687 136.56H75.5656V139.002H78.1927V159.648H75.5656V162.09H87.9237ZM86.2587 138.928C89.2187 138.928 91.0317 140.704 91.0317 143.479C91.0317 146.291 89.2557 147.919 86.0367 147.919H83.8167V138.928H86.2587ZM86.4807 150.102C89.8477 150.102 91.9937 151.804 91.9937 154.875C91.9937 157.983 89.9957 159.722 86.6287 159.722H83.8167V150.102H86.4807ZM106.859 152.1L110.559 140.741L114.259 152.1H106.859ZM106.563 159.648H104.417L106.119 154.394H114.999L116.664 159.648H114.444V162.09H124.36V159.648H122.251L114.814 136.56H109.19L101.679 159.648H99.6437V162.09H106.563V159.648ZM137.566 162.09V159.648H135.124V150.287H144.744V159.648H142.265V162.09H152.995V159.648H150.368V139.002H152.995V136.56H142.265V139.002H144.744V147.845H135.124V139.002H137.566V136.56H126.873V139.002H129.5V159.648H126.873V162.09H137.566ZM179.301 144.589C178.376 141.518 176.6 138.854 173.529 137.337C172.012 136.56 170.31 136.19 168.386 136.19C166.462 136.19 164.723 136.56 163.169 137.337C157.249 140.297 155.584 148.104 157.397 154.061C158.396 157.132 160.098 159.796 163.169 161.313C164.723 162.09 166.462 162.46 168.386 162.46C170.31 162.46 172.012 162.09 173.529 161.313C179.449 158.353 181.151 150.546 179.301 144.589ZM168.386 159.833C164.834 159.833 162.503 156.429 162.503 149.325C162.503 142.221 164.834 138.817 168.386 138.817C171.827 138.817 174.195 142.258 174.195 149.325C174.195 156.429 171.827 159.833 168.386 159.833ZM196.102 162.09C202.651 162.09 205.944 159.722 205.944 154.949C205.944 153.21 205.241 151.804 203.872 150.768C202.503 149.732 200.764 149.066 198.692 148.77C202.429 148.289 204.834 146.18 204.834 142.924C204.834 140.889 203.983 139.335 202.281 138.225C200.579 137.115 198.322 136.56 195.547 136.56H183.744V139.002H186.371V159.648H183.744V162.09H196.102ZM194.437 138.928C197.397 138.928 199.21 140.704 199.21 143.479C199.21 146.291 197.434 147.919 194.215 147.919H191.995V138.928H194.437ZM194.659 150.102C198.026 150.102 200.172 151.804 200.172 154.875C200.172 157.983 198.174 159.722 194.807 159.722H191.995V150.102H194.659ZM220.543 162.09V159.648H218.101V150.287H227.721V159.648H225.242V162.09H235.972V159.648H233.345V139.002H235.972V136.56H225.242V139.002H227.721V147.845H218.101V139.002H220.543V136.56H209.85V139.002H212.477V159.648H209.85V162.09H220.543ZM245.768 152.1L249.468 140.741L253.168 152.1H245.768ZM245.472 159.648H243.326L245.028 154.394H253.908L255.573 159.648H253.353V162.09H263.269V159.648H261.16L253.723 136.56H248.099L240.588 159.648H238.553V162.09H245.472V159.648Z" fill="white"/>
<path d="M119.12 493.376H114.96V467.576H113.52C112.84 468.576 112 469.256 110.96 469.656C109.96 470.056 108.24 470.256 105.88 470.256V472.456H110.08V493.376H105.88V495.576H119.12V493.376ZM131.453 495.976C138.573 495.976 141.253 491.016 141.253 486.616C141.253 484.216 140.453 482.176 138.853 480.496C137.293 478.816 134.973 477.976 131.973 477.976C129.733 477.976 127.973 478.536 126.693 479.616L127.293 471.536H139.653V467.976H125.013L123.853 482.416H126.173C126.973 481.176 128.693 480.336 130.573 480.336C134.053 480.336 136.173 482.456 136.173 486.736C136.173 491.336 134.333 493.616 130.693 493.616C128.693 493.616 127.213 493.216 126.213 492.376C127.253 491.776 127.773 490.976 127.773 489.936C127.773 488.496 126.853 487.456 125.213 487.456C123.573 487.456 122.533 488.616 122.533 490.216C122.533 491.896 123.333 493.296 124.973 494.376C126.613 495.456 128.773 495.976 131.453 495.976ZM151.767 480.976C151.767 479.576 150.727 478.176 148.927 478.176C147.127 478.176 146.127 479.576 146.127 480.976C146.127 482.296 147.127 483.656 148.927 483.656C150.727 483.656 151.767 482.296 151.767 480.976ZM151.767 493.296C151.767 491.896 150.727 490.496 148.927 490.496C147.127 490.496 146.127 491.896 146.127 493.296C146.127 494.616 147.127 495.976 148.927 495.976C150.727 495.976 151.767 494.616 151.767 493.296ZM176.633 493.376H173.593V487.536H176.633V485.376H173.593V467.976H169.713L155.753 486.016V487.536H168.713V493.376H165.353V495.576H176.633V493.376ZM159.113 485.376L168.713 472.976V485.376H159.113ZM189.829 495.976C196.949 495.976 199.629 491.016 199.629 486.616C199.629 484.216 198.829 482.176 197.229 480.496C195.669 478.816 193.349 477.976 190.349 477.976C188.109 477.976 186.349 478.536 185.069 479.616L185.669 471.536H198.029V467.976H183.389L182.229 482.416H184.549C185.349 481.176 187.069 480.336 188.949 480.336C192.429 480.336 194.549 482.456 194.549 486.736C194.549 491.336 192.709 493.616 189.069 493.616C187.069 493.616 185.589 493.216 184.589 492.376C185.629 491.776 186.149 490.976 186.149 489.936C186.149 488.496 185.229 487.456 183.589 487.456C181.949 487.456 180.909 488.616 180.909 490.216C180.909 491.896 181.709 493.296 183.349 494.376C184.989 495.456 187.149 495.976 189.829 495.976Z" fill="white"/>
<line x1="20" y1="437.062" x2="285" y2="437.062" stroke="white" stroke-width="3" stroke-dasharray="20 20"/>
<line x1="20" y1="199.758" x2="285" y2="199.758" stroke="white" stroke-width="3" stroke-dasharray="20 20"/>
<path d="M215.5 293.376C215.5 329.047 186.621 357.96 151 357.96C115.379 357.96 86.5 329.047 86.5 293.376C86.5 257.705 115.379 228.791 151 228.791C186.621 228.791 215.5 257.705 215.5 293.376Z" stroke="white" stroke-width="3"/>
</svg>
