<svg width="155" height="95" viewBox="0 0 155 95" fill="none" xmlns="http://www.w3.org/2000/svg">
<g clip-path="url(#clip0_192_148)">
<path d="M57.7346 19.8592C58.5697 7.72919 67.621 -0.0286532 77.5121 7.95401e-05C87.2737 0.0288123 96.301 7.6382 97.1841 19.8592C97.688 19.8592 98.2111 19.8592 98.7342 19.8592C112.042 19.8592 125.355 19.864 138.664 19.8592C145.061 19.8592 149.889 22.6175 152.96 28.1917C158.211 37.7118 152.85 49.7652 142.417 52.0015C141.337 52.2314 140.204 52.3368 139.096 52.3368C98.0095 52.3511 56.9235 52.3511 15.8327 52.3511C7.60688 52.3511 0.691226 45.9964 0.0577307 37.8794C-0.642954 28.91 4.94332 21.3581 13.2795 20.0555C14.3738 19.8831 15.5016 19.8688 16.615 19.8688C29.76 19.8544 42.9051 19.8592 56.0501 19.8592C56.5876 19.8592 57.1203 19.8592 57.7346 19.8592Z" fill="white"/>
<path d="M112.253 69.7441V77.5978C108.98 74.2983 104.152 75.2129 102.521 79.2355C101.527 81.6874 101.522 84.2302 102.386 86.7204C103.303 89.3734 105.616 90.9202 108.332 90.4796C109.7 90.2593 110.972 89.4356 112.263 88.8945C112.287 89.1196 112.344 89.632 112.407 90.1875H117.105V69.7441H112.253ZM109.403 86.7683C107.526 86.6629 106.561 84.8192 106.936 82.0465C107.209 80.0065 108.491 78.9865 110.295 79.3744C111.677 79.6761 112.455 81.0313 112.44 83.1144C112.421 85.5328 111.303 86.8784 109.403 86.7683Z" fill="white"/>
<path d="M47.9106 79.4891C46.9124 76.6302 44.3016 75.0594 41.3741 75.7059C40.1839 75.9693 39.1185 76.8026 38.0387 77.3533C38.0195 77.018 37.9907 76.5296 37.9619 76.0076H33.1387V94.9138H38.0099V88.7266C38.197 88.7793 38.2882 88.7793 38.3362 88.8224C41.4557 91.892 46.3797 90.8529 47.8866 86.7537C48.7649 84.3641 48.7505 81.893 47.9106 79.4891ZM42.8043 85.7097C42.2524 86.677 41.2541 86.8829 40.2079 86.7489C38.6818 86.5573 37.8899 85.2596 37.8899 83.0567C37.8947 80.7677 38.7154 79.5082 40.3183 79.3406C41.3981 79.2257 42.3579 79.5274 42.8571 80.5043C43.7353 82.2187 43.7737 84.0097 42.8043 85.7097Z" fill="white"/>
<path d="M132.986 79.6378C132.943 78.3161 132.108 77.2673 130.951 76.549C128.638 75.1172 124.017 75.2608 121.828 76.8555C120.532 77.8037 119.856 79.0631 119.88 80.7919C121.267 80.7919 122.5 80.8254 123.733 80.7679C124.021 80.7584 124.439 80.4998 124.544 80.2507C125.034 79.0919 125.96 78.8955 126.997 79.1589C128.173 79.4558 128.235 80.4327 128.115 81.5772C127.386 81.5772 126.757 81.491 126.157 81.5964C124.588 81.8741 122.956 82.0465 121.487 82.6116C119.769 83.2629 119.093 84.8288 119.275 86.7635C119.438 88.5545 120.369 89.7756 122.106 90.2689C124.328 90.901 126.426 90.6903 128.249 88.928C128.307 89.4308 128.35 89.814 128.393 90.1731H133.02C133.02 86.6198 133.092 83.124 132.986 79.6378ZM125.346 87.1466C124.871 87.0125 124.252 86.3852 124.232 85.9542C124.208 85.5136 124.76 84.7761 125.202 84.6468C126.075 84.3835 127.05 84.4553 128.062 84.3787C128.278 86.4187 127.04 87.6207 125.346 87.1466Z" fill="white"/>
<path d="M60.7147 85.5276C60.4795 85.5372 60.2108 85.858 60.038 86.0927C59.3277 87.0457 57.9696 87.4288 56.7026 86.993C55.6131 86.6195 54.9797 85.6186 55.0276 84.2442H64.9668C64.8708 83.0422 64.9044 81.9312 64.6788 80.8681C63.8966 77.1185 60.7867 75.1934 56.3906 75.6436C53.0216 75.9884 50.3292 78.5599 49.9261 81.8067C49.4174 85.9299 51.0635 88.9468 54.5285 90.0913C56.8321 90.848 59.1742 90.7857 61.4394 89.9429C63.4071 89.2102 64.5637 87.7688 64.8708 85.4989C63.4167 85.4989 62.0633 85.4749 60.7147 85.5276ZM57.8448 78.8568C59.131 78.9478 59.7837 79.6614 60.0284 81.3374H54.994C55.4596 79.4937 56.3522 78.7563 57.8448 78.8568Z" fill="white"/>
<path d="M92.5144 75.6007C87.8543 75.6247 84.7492 78.6847 84.778 83.2245C84.802 87.6828 87.9167 90.6088 92.6103 90.5944C97.3616 90.5801 100.529 87.5105 100.491 82.9611C100.457 78.4788 97.3088 75.5768 92.5144 75.6007ZM94.6932 85.9254C93.5366 87.3859 91.1514 87.1944 90.3499 85.504C89.9948 84.7473 89.9228 83.8566 89.7164 83.0329C89.87 80.3752 90.993 79.0535 93.0663 79.3599C93.623 79.4413 94.2517 79.7813 94.6356 80.198C95.7298 81.3904 95.7058 84.642 94.6932 85.9254Z" fill="white"/>
<path d="M137.421 94.976C138.136 93.0988 138.841 91.3939 139.422 89.646C139.595 89.1288 139.585 88.4201 139.374 87.9221C137.848 84.3688 136.25 80.8442 134.676 77.3101C134.498 76.9079 134.34 76.496 134.104 75.9309C135.842 75.9309 137.402 75.8926 138.956 75.9645C139.23 75.9788 139.595 76.405 139.724 76.7211C140.598 78.8521 141.414 81.0023 142.359 83.4206C143.18 81.1747 143.972 79.1825 144.62 77.1425C144.922 76.1991 145.335 75.8064 146.357 75.9022C147.417 76.0028 148.497 75.9262 149.707 75.9262C149.592 76.3332 149.534 76.6445 149.419 76.9318C147.134 82.6209 144.831 88.3052 142.58 94.0086C142.292 94.7365 141.951 95.043 141.155 94.9951C139.964 94.9233 138.774 94.976 137.421 94.976Z" fill="white"/>
<path d="M24.0057 83.4397C24.8551 81.0884 25.6374 79.01 26.3381 76.9078C26.5876 76.1607 26.9476 75.8638 27.7491 75.9117C28.9009 75.9787 30.0575 75.9308 31.3485 75.9308C31.2333 76.3331 31.1757 76.6444 31.0605 76.9317C28.7761 82.6208 26.4629 88.3051 24.2072 94.0037C23.9193 94.7364 23.5737 95.0333 22.7867 94.995C21.6061 94.9328 20.4159 94.9806 19.0529 94.9806C19.7632 93.1322 20.4687 91.4705 21.0158 89.7609C21.2029 89.1766 21.1837 88.3865 20.9438 87.8214C19.2785 83.9281 17.5315 80.0731 15.6982 75.9596C17.5267 75.9596 19.1825 75.9308 20.8334 75.9979C21.0398 76.0075 21.2797 76.5247 21.4093 76.8407C22.2588 78.9334 23.0698 81.0405 24.0057 83.4397Z" fill="white"/>
<path d="M83.3045 86.538C83.3045 87.7543 83.3045 88.8893 83.3045 90.1343C81.5096 90.7042 79.6955 90.8287 77.9246 90.0577C76.1921 89.3011 75.6354 87.783 75.6066 86.0256C75.5778 84.2968 75.597 82.5681 75.597 80.8393C75.597 80.3939 75.597 79.9486 75.597 79.4362C75.0163 79.3835 74.5364 79.3356 73.9604 79.2829C73.9604 78.2055 73.9604 77.128 73.9604 75.9978C74.4884 75.9499 74.9683 75.9021 75.573 75.8446C75.573 74.9204 75.573 74.0344 75.573 73.0527C77.2431 73.0527 78.7789 73.0527 80.4394 73.0527C80.4394 73.9578 80.4394 74.8437 80.4394 75.8542C81.4376 75.9021 82.3207 75.9404 83.2853 75.9883C83.2853 77.0897 83.2853 78.1336 83.2853 79.3165C82.3975 79.3165 81.5096 79.3165 80.5306 79.3165C80.5306 81.414 80.497 83.3726 80.545 85.336C80.569 86.3033 81.2216 86.6816 82.1479 86.6337C82.5078 86.6146 82.8678 86.5763 83.3045 86.538Z" fill="white"/>
<path d="M14.7336 75.9068C14.7336 76.7736 14.7384 77.4632 14.7336 78.1576C14.7288 78.5167 14.7 78.8759 14.6808 79.3069C13.793 79.3069 12.9771 79.3069 11.9933 79.3069C11.9933 81.4618 11.9357 83.5402 12.0509 85.6137C12.07 85.9729 12.7707 86.4039 13.2411 86.5906C13.6154 86.7391 14.1193 86.5715 14.6568 86.538C14.6568 87.7352 14.6568 88.9084 14.6568 90.1535C13.1451 90.6611 11.6045 90.7329 10.0688 90.3163C8.08671 89.7848 7.04528 88.305 7.02128 86.0591C6.99249 83.8802 7.01648 81.7013 7.01648 79.4314C6.45018 79.3835 5.94146 79.3356 5.35596 79.2829C5.35596 78.215 5.35596 77.1663 5.35596 76.0074C5.85028 75.9595 6.36859 75.9116 6.97809 75.8494C6.97809 74.9443 6.97809 74.0488 6.97809 73.0527C8.65301 73.0527 10.232 73.0527 11.9645 73.0527C11.9645 73.9626 11.9645 74.8868 11.9645 75.9021C12.9003 75.9069 13.7114 75.9068 14.7336 75.9068Z" fill="white"/>
<path d="M69.5404 90.5223C67.9039 90.5127 66.7281 89.3251 66.7569 87.7113C66.7857 86.1693 67.9663 85.02 69.5356 85.0056C71.2249 84.9864 72.5159 86.2315 72.4727 87.831C72.4343 89.4017 71.2057 90.5271 69.5404 90.5223Z" fill="white"/>
</g>
<defs>
<clipPath id="clip0_192_148">
<rect width="155" height="95" fill="white"/>
</clipPath>
</defs>
</svg>
